<svg width="55" height="55" viewBox="0 0 55 55" fill="none" xmlns="http://www.w3.org/2000/svg">
<rect width="55" height="55" rx="27.5" fill="white"/>
<path d="M38.8535 20.46C38.0185 20.83 37.1215 21.08 36.1785 21.193C37.1515 20.6108 37.8794 19.6945 38.2265 18.615C37.3123 19.158 36.3118 19.5402 35.2685 19.745C34.5668 18.9959 33.6375 18.4994 32.6248 18.3325C31.6121 18.1656 30.5726 18.3378 29.6677 18.8223C28.7628 19.3067 28.0432 20.0764 27.6206 21.0117C27.198 21.9471 27.096 22.9958 27.3305 23.995C25.4781 23.902 23.6661 23.4206 22.0119 22.5819C20.3577 21.7433 18.8983 20.5662 17.7285 19.127C17.3285 19.817 17.0985 20.617 17.0985 21.469C17.098 22.236 17.2869 22.9913 17.6483 23.6678C18.0098 24.3442 18.5326 24.9211 19.1705 25.347C18.4307 25.3235 17.7073 25.1236 17.0605 24.764V24.824C17.0604 25.8998 17.4325 26.9424 18.1136 27.775C18.7948 28.6076 19.743 29.179 20.7975 29.392C20.1112 29.5777 19.3918 29.6051 18.6935 29.472C18.991 30.3976 19.5705 31.2071 20.3508 31.787C21.1312 32.3669 22.0734 32.6882 23.0455 32.706C21.3953 34.0014 19.3573 34.7041 17.2595 34.701C16.8878 34.7011 16.5165 34.6794 16.1475 34.636C18.2769 36.0052 20.7558 36.7318 23.2875 36.729C31.8575 36.729 36.5425 29.631 36.5425 23.475C36.5425 23.275 36.5375 23.073 36.5285 22.873C37.4398 22.214 38.2264 21.3979 38.8515 20.463L38.8535 20.46Z" fill="#1464F4"/>
</svg>
