<svg width="166" height="56" viewBox="0 0 166 56" fill="none" xmlns="http://www.w3.org/2000/svg">
<g clip-path="url(#clip0_6007_61781)">
<path d="M152.787 0H13.8332C13.3267 0 12.8262 0 12.3209 0C11.8978 0 11.4783 0.0105757 11.0518 0.0176262C10.1244 0.0294563 9.1993 0.111951 8.28447 0.264393C7.37082 0.419296 6.4858 0.711266 5.65933 1.13043C4.83487 1.55328 4.08156 2.10241 3.42668 2.75792C2.76612 3.41193 2.21537 4.16821 1.79567 4.99762C1.37572 5.8248 1.08447 6.71122 0.931981 7.62628C0.778459 8.54018 0.695956 9.4646 0.685214 10.3912C0.672288 10.8108 0.671113 11.2397 0.664062 11.6639V43.5955C0.671113 44.0244 0.672288 44.4404 0.685214 44.8693C0.696345 45.796 0.77924 46.7204 0.933156 47.6343C1.08524 48.5498 1.37651 49.4367 1.79684 50.2641C2.21514 51.0914 2.76476 51.8454 3.42433 52.4968C4.07673 53.1552 4.83052 53.7047 5.65698 54.1243C6.48348 54.5444 7.3684 54.8379 8.28212 54.995C9.1986 55.142 10.1248 55.2202 11.053 55.2288C11.4795 55.2382 11.899 55.2441 12.322 55.2441C12.8273 55.2441 13.3279 55.2441 13.8344 55.2441H152.788C153.284 55.2441 153.789 55.2441 154.285 55.2441C154.706 55.2441 155.137 55.2441 155.559 55.2288C156.484 55.2172 157.408 55.1355 158.321 54.9844C159.238 54.8262 160.126 54.5328 160.957 54.1137C161.783 53.6937 162.537 53.1438 163.19 52.485C163.848 51.8311 164.398 51.0777 164.822 50.2524C165.239 49.4243 165.527 48.5375 165.677 47.6225C165.831 46.7085 165.917 45.7843 165.933 44.8576C165.933 44.4287 165.933 44.0127 165.933 43.5838C165.944 43.082 165.944 42.5826 165.944 42.0726V13.1656C165.944 12.6603 165.944 12.1586 165.933 11.658C165.933 11.235 165.933 10.8096 165.933 10.3865C165.917 9.45981 165.831 8.53559 165.677 7.62158C165.527 6.70706 165.239 5.82071 164.822 4.99292C163.969 3.33134 162.617 1.97885 160.956 1.12573C160.125 0.707555 159.237 0.415663 158.32 0.259693C157.407 0.107358 156.483 0.0256433 155.557 0.0152761C155.137 0.0129259 154.706 0 154.284 0C153.788 0 153.283 0 152.787 0Z" fill="black"/>
<path d="M12.3274 54.0418C11.9067 54.0418 11.4954 54.0418 11.0783 54.0266C10.2121 54.0153 9.34804 53.9399 8.49308 53.8009C7.69708 53.6638 6.92598 53.4087 6.20519 53.0442C5.49091 52.6826 4.83943 52.2085 4.27571 51.64C3.70355 51.078 3.22722 50.4263 2.86561 49.7105C2.50122 48.9893 2.24957 48.2165 2.11943 47.4191C1.97746 46.5644 1.90046 45.7002 1.88912 44.8339C1.88089 44.5425 1.86914 43.573 1.86914 43.573V11.6637C1.86914 11.6637 1.88089 10.7095 1.88912 10.4287C1.89985 9.56238 1.97645 8.69817 2.11826 7.8435C2.25011 7.04434 2.50333 6.27003 2.86914 5.54739C3.22914 4.83202 3.70255 4.17965 4.27101 3.61555C4.83887 3.04721 5.49231 2.5714 6.20754 2.20545C6.9267 1.84222 7.69635 1.58911 8.49073 1.45458C9.3456 1.31468 10.2097 1.23887 11.0759 1.22779L12.3285 1.20898H154.278L155.539 1.22661C156.399 1.23681 157.257 1.31184 158.106 1.45105C158.908 1.58737 159.686 1.84242 160.414 2.2078C161.847 2.94634 163.014 4.11491 163.75 5.54974C164.109 6.26723 164.359 7.03502 164.489 7.82704C164.63 8.68895 164.709 9.56004 164.724 10.4334C164.724 10.8247 164.724 11.2442 164.724 11.6625C164.734 12.1807 164.734 12.6731 164.734 13.1701V42.0771C164.734 42.5789 164.734 43.0689 164.724 43.5624C164.724 44.0113 164.724 44.4226 164.724 44.8468C164.708 45.7049 164.629 46.5607 164.489 47.4073C164.36 48.2099 164.108 48.9879 163.743 49.714C163.378 50.4219 162.905 51.0679 162.34 51.6282C161.775 52.199 161.122 52.6751 160.406 53.0383C159.681 53.4056 158.904 53.6616 158.102 53.7974C157.247 53.9371 156.383 54.0126 155.517 54.023C155.113 54.0324 154.694 54.0383 154.277 54.0383H152.78L12.3274 54.0418Z" fill="black"/>
<path d="M34.8782 28.0391C34.893 26.8862 35.1991 25.7557 35.7682 24.7528C36.3374 23.75 37.1509 22.9075 38.1332 22.3036C37.5093 21.4125 36.6862 20.6792 35.7293 20.1619C34.7724 19.6446 33.7081 19.3576 32.6209 19.3236C30.3013 19.0803 28.0533 20.7113 26.8712 20.7113C25.6667 20.7113 23.8465 19.3471 21.8865 19.3882C20.619 19.429 19.3836 19.7975 18.3008 20.4577C17.218 21.118 16.3247 22.0474 15.7079 23.1555C13.037 27.7806 15.0287 34.5773 17.588 38.3141C18.8689 40.1448 20.3648 42.1918 22.3225 42.1166C24.2378 42.0367 24.9535 40.8945 27.266 40.8945C29.5574 40.8945 30.2284 42.1166 32.226 42.0696C34.2824 42.0367 35.5774 40.2306 36.8089 38.3834C37.7314 37.0807 38.4421 35.6402 38.9146 34.1155C37.7194 33.611 36.6993 32.7657 35.9815 31.6851C35.2637 30.6045 34.8799 29.3364 34.8782 28.0391V28.0391Z" fill="white"/>
<path d="M31.1058 16.8647C32.2258 15.52 32.778 13.7919 32.6451 12.0469C30.9327 12.2269 29.351 13.0454 28.2151 14.3395C27.6595 14.9709 27.2338 15.7056 26.9622 16.5016C26.6906 17.2976 26.5785 18.1393 26.6322 18.9787C27.4893 18.9879 28.3372 18.8025 29.1121 18.4363C29.8871 18.0701 30.5687 17.5327 31.1058 16.8647Z" fill="white"/>
<path d="M57.782 37.4834H51.2439L49.674 42.1191H46.9043L53.097 24.9629H55.9736L62.1663 42.1191H59.3461L57.782 37.4834ZM51.9254 35.3447H57.1075L54.5529 27.8242H54.4812L51.9254 35.3447Z" fill="white"/>
<path d="M75.5419 35.868C75.5419 39.754 73.462 42.251 70.3234 42.251C69.5283 42.2925 68.7377 42.1093 68.0419 41.7223C67.3461 41.3354 66.7734 40.7603 66.3892 40.063H66.3293V46.2569H63.7617V29.6142H66.2458V31.6941H66.2928C66.6948 31.0001 67.2774 30.428 67.9787 30.0388C68.6799 29.6496 69.4736 29.4578 70.2752 29.4838C73.4503 29.4838 75.5419 31.9926 75.5419 35.868ZM72.9039 35.868C72.9039 33.3357 71.596 31.6718 69.5995 31.6718C67.6383 31.6718 66.3187 33.3709 66.3187 35.868C66.3187 38.3874 67.6383 40.0748 69.5995 40.0748C71.5983 40.0748 72.9039 38.4226 72.9039 35.868Z" fill="white"/>
<path d="M89.3068 35.868C89.3068 39.754 87.2269 42.251 84.0882 42.251C83.2932 42.2925 82.5025 42.1093 81.8067 41.7223C81.111 41.3354 80.5382 40.7603 80.154 40.063H80.0941V46.2569H77.5312V29.6142H80.0154V31.6941H80.0624C80.4644 31.0001 81.047 30.428 81.7482 30.0388C82.4495 29.6496 83.2431 29.4578 84.0447 29.4838C87.2139 29.4838 89.3068 31.9926 89.3068 35.868ZM86.6687 35.868C86.6687 33.3357 85.3608 31.6718 83.3644 31.6718C81.4031 31.6718 80.0835 33.3709 80.0835 35.868C80.0835 38.3874 81.4031 40.0748 83.3644 40.0748C85.362 40.0748 86.6687 38.4226 86.6687 35.868Z" fill="white"/>
<path d="M98.4029 37.3414C98.5933 39.0417 100.245 40.1616 102.504 40.1616C104.667 40.1616 106.224 39.0452 106.224 37.5106C106.224 36.1792 105.284 35.3825 103.062 34.8361L100.839 34.3003C97.6896 33.54 96.2266 32.0676 96.2266 29.6763C96.2266 26.7175 98.8059 24.6846 102.467 24.6846C106.091 24.6846 108.578 26.7175 108.66 29.6763H106.07C105.915 27.9642 104.5 26.9313 102.428 26.9313C100.355 26.9313 98.9446 27.9771 98.9446 29.4977C98.9446 30.7104 99.8482 31.4237 102.059 31.9654L103.948 32.4295C107.467 33.2615 108.929 34.6751 108.929 37.1839C108.929 40.3931 106.373 42.4025 102.308 42.4025C98.5039 42.4025 95.9352 40.4401 95.7695 37.3378L98.4029 37.3414Z" fill="white"/>
<path d="M114.467 26.6572V29.6161H116.846V31.649H114.467V38.5432C114.467 39.6137 114.943 40.1131 115.989 40.1131C116.272 40.108 116.554 40.088 116.834 40.0532V42.0743C116.364 42.1617 115.887 42.2011 115.409 42.1918C112.876 42.1918 111.889 41.2412 111.889 38.8158V31.6478H110.076V29.6149H111.894V26.6572H114.467Z" fill="white"/>
<path d="M118.229 35.8694C118.229 31.9353 120.546 29.4629 124.159 29.4629C127.773 29.4629 130.091 31.9306 130.091 35.8694C130.091 39.8083 127.796 42.276 124.159 42.276C120.522 42.276 118.229 39.8142 118.229 35.8694ZM127.476 35.8694C127.476 33.1667 126.239 31.5769 124.159 31.5769C122.079 31.5769 120.843 33.182 120.843 35.8694C120.843 38.5792 122.078 40.1597 124.159 40.1597C126.24 40.1597 127.476 38.5792 127.476 35.8694Z" fill="white"/>
<path d="M132.209 29.6152H134.657V31.7433H134.717C134.882 31.0784 135.272 30.4908 135.819 30.0793C136.367 29.6677 137.04 29.4574 137.725 29.4836C138.02 29.4828 138.315 29.5152 138.604 29.58V31.9807C138.23 31.8665 137.84 31.8141 137.45 31.8256C137.077 31.8103 136.705 31.8759 136.36 32.0179C136.015 32.1599 135.705 32.375 135.451 32.6483C135.196 32.9216 135.004 33.2467 134.888 33.6013C134.771 33.9558 134.733 34.3314 134.775 34.7022V42.1193H132.209V29.6152Z" fill="white"/>
<path d="M150.438 38.4487C150.092 40.719 147.882 42.2771 145.054 42.2771C141.411 42.2771 139.158 39.84 139.158 35.9317C139.158 32.0234 141.428 29.4688 144.947 29.4688C148.406 29.4688 150.587 31.8459 150.587 35.6368V36.5157H141.755V36.6708C141.714 37.131 141.772 37.5946 141.924 38.0308C142.077 38.467 142.32 38.8658 142.638 39.2008C142.956 39.5357 143.342 39.7992 143.77 39.9736C144.198 40.148 144.658 40.2295 145.119 40.2125C145.726 40.2691 146.336 40.1281 146.856 39.8105C147.377 39.4929 147.78 39.0157 148.008 38.4499L150.438 38.4487ZM141.761 34.7143H148.012C148.035 34.3006 147.973 33.8866 147.828 33.4984C147.683 33.1101 147.46 32.7559 147.172 32.458C146.884 32.1601 146.538 31.9249 146.154 31.7672C145.771 31.6095 145.36 31.5327 144.945 31.5416C144.528 31.5391 144.113 31.6194 143.727 31.7778C143.34 31.9362 142.988 32.1697 142.692 32.4646C142.396 32.7596 142.162 33.1102 142.002 33.4963C141.842 33.8825 141.76 34.2964 141.761 34.7143V34.7143Z" fill="white"/>
<path d="M56.249 14.149C56.2746 14.6551 56.1971 15.1611 56.0212 15.6364C55.8453 16.1117 55.5748 16.5463 55.2259 16.9138C54.8333 17.3208 54.3591 17.6403 53.8345 17.8515C53.3099 18.0627 52.7466 18.1609 52.1815 18.1395C51.6122 18.1451 51.0476 18.0368 50.5208 17.8211C49.994 17.6053 49.5156 17.2864 49.1139 16.883C48.7121 16.4797 48.3951 16.0001 48.1814 15.4725C47.9677 14.9448 47.8617 14.3798 47.8695 13.8106C47.8617 13.2413 47.9677 12.6763 48.1814 12.1486C48.3951 11.621 48.7121 11.1414 49.1139 10.7381C49.5156 10.3347 49.994 10.0158 50.5208 9.80005C51.0476 9.58428 51.6122 9.47603 52.1815 9.48165C52.7655 9.48028 53.3436 9.59856 53.8801 9.82922C54.3792 10.0315 54.8233 10.3489 55.1763 10.7556L54.4485 11.4847C54.1711 11.1579 53.8222 10.8992 53.4289 10.7286C53.0356 10.558 52.6084 10.4801 52.1802 10.5008C51.7483 10.4976 51.3202 10.5817 50.9216 10.7481C50.5231 10.9145 50.1623 11.1598 49.8609 11.4692C49.5596 11.7786 49.3239 12.1458 49.1681 12.5486C49.0122 12.9514 48.9394 13.3815 48.9541 13.8132C48.9438 14.4585 49.1255 15.0924 49.476 15.6344C49.8265 16.1764 50.33 16.6021 50.9228 16.8575C51.5155 17.113 52.1708 17.1866 52.8054 17.0692C53.4401 16.9517 54.0256 16.6484 54.4877 16.1978C54.9123 15.7391 55.1585 15.1434 55.1815 14.5188H52.1762V13.5244H56.1915C56.2294 13.7305 56.2486 13.9395 56.249 14.149V14.149Z" fill="white" stroke="white" stroke-width="0.448068" stroke-miterlimit="10"/>
<path d="M62.6139 10.6878H58.839V13.3168H62.2362V14.3124H58.839V16.9401H62.6139V17.954H57.7793V9.66992H62.6139V10.6878Z" fill="white" stroke="white" stroke-width="0.448068" stroke-miterlimit="10"/>
<path d="M67.1068 17.954H66.0406V10.6878H63.7266V9.66992H69.4209V10.6878H67.1068V17.954Z" fill="white" stroke="white" stroke-width="0.448068" stroke-miterlimit="10"/>
<path d="M73.541 17.954V9.66992H74.6059V17.954H73.541Z" fill="white" stroke="white" stroke-width="0.448068" stroke-miterlimit="10"/>
<path d="M79.3295 17.954H78.2633V10.6878H75.9492V9.66992H81.6435V10.6878H79.3295V17.954Z" fill="white" stroke="white" stroke-width="0.448068" stroke-miterlimit="10"/>
<path d="M92.4256 16.8866C91.619 17.6911 90.5263 18.1429 89.387 18.1429C88.2478 18.1429 87.1551 17.6911 86.3485 16.8866C85.9495 16.4825 85.6358 16.0023 85.4262 15.4746C85.2165 14.9469 85.1151 14.3824 85.1281 13.8147C85.1151 13.2468 85.2165 12.682 85.4261 12.1541C85.6358 11.6261 85.9494 11.1457 86.3485 10.7414C86.7468 10.3423 87.2199 10.0257 87.7407 9.80966C88.2616 9.59362 88.8199 9.48242 89.3838 9.48242C89.9477 9.48242 90.506 9.59362 91.0268 9.80966C91.5477 10.0257 92.0208 10.3423 92.4191 10.7414C92.8185 11.1446 93.1328 11.624 93.3433 12.151C93.5539 12.6781 93.6564 13.242 93.6447 13.8094C93.658 14.3779 93.557 14.9431 93.3475 15.4717C93.1381 16.0003 92.8246 16.4815 92.4256 16.8866V16.8866ZM87.135 16.1927C87.7324 16.7894 88.5421 17.1246 89.3864 17.1246C90.2307 17.1246 91.0404 16.7894 91.6377 16.1927C91.9438 15.8791 92.1833 15.5066 92.3416 15.0979C92.4999 14.6892 92.5738 14.2527 92.5589 13.8147C92.574 13.3766 92.5001 12.94 92.3418 12.5313C92.1835 12.1226 91.944 11.7502 91.6377 11.4366C91.0404 10.8399 90.2307 10.5047 89.3864 10.5047C88.5421 10.5047 87.7324 10.8399 87.135 11.4366C86.8301 11.7508 86.5918 12.1234 86.4346 12.5321C86.2774 12.9408 86.2046 13.3771 86.2204 13.8147C86.2047 14.2522 86.2777 14.6885 86.4348 15.0971C86.592 15.5058 86.8302 15.8785 87.135 16.1927V16.1927Z" fill="white" stroke="white" stroke-width="0.448068" stroke-miterlimit="10"/>
<path d="M95.1406 17.954V9.66992H96.4381L100.46 16.1169H100.506L100.46 14.5202V9.66992H101.526V17.954H100.414L96.2055 11.1987H96.1598L96.2055 12.7967V17.954H95.1406Z" fill="white" stroke="white" stroke-width="0.448068" stroke-miterlimit="10"/>
</g>
<defs>
<clipPath id="clip0_6007_61781">
<rect width="165.285" height="55.25" fill="white" transform="translate(0.666016)"/>
</clipPath>
</defs>
</svg>
