<svg width="864" height="379" viewBox="0 0 864 379" fill="none" xmlns="http://www.w3.org/2000/svg">
<g clip-path="url(#clip0_58_217)">
<circle cx="51.7342" cy="341.402" r="4.55938" fill="#004AF5"/>
<circle cx="127.775" cy="329.508" r="4.55938" fill="#004AF5"/>
<circle cx="203.816" cy="320.389" r="4.55938" fill="#004AF5"/>
<circle cx="282.406" cy="315.83" r="4.55938" fill="#004AF5"/>
<circle cx="355.049" cy="290.341" r="4.55938" fill="#004AF5"/>
<circle cx="432.364" cy="271.224" r="4.55938" fill="#004AF5"/>
<circle cx="507.98" cy="159.924" r="4.55938" fill="#004AF5"/>
<circle cx="581.048" cy="144.206" r="4.55938" fill="#004AF5"/>
<circle cx="659.213" cy="139.647" r="4.55938" fill="#004AF5"/>
<circle cx="733.13" cy="102.263" r="4.55938" fill="#004AF5"/>
<circle cx="812.994" cy="62.7562" r="4.55938" fill="#004AF5"/>
<path d="M29.4547 377.318C27.9392 377.318 26.8783 376.708 26.272 375.486L27.9116 374.549C28.2147 375.155 28.7291 375.458 29.4547 375.458C29.9599 375.458 30.3365 375.339 30.5845 375.1C30.8325 374.861 30.9565 374.535 30.9565 374.122V367.481H32.8441V374.122C32.8441 375.132 32.5272 375.918 31.8934 376.478C31.2596 377.038 30.4467 377.318 29.4547 377.318ZM39.6428 370.237H41.4201V377.125H39.6428V376.313C39.11 376.983 38.3614 377.318 37.397 377.318C36.4785 377.318 35.6885 376.969 35.0272 376.271C34.375 375.564 34.049 374.701 34.049 373.681C34.049 372.661 34.375 371.803 35.0272 371.105C35.6885 370.397 36.4785 370.044 37.397 370.044C38.3614 370.044 39.11 370.379 39.6428 371.049V370.237ZM36.3636 375.086C36.7219 375.445 37.1765 375.624 37.7276 375.624C38.2788 375.624 38.7334 375.445 39.0916 375.086C39.4591 374.719 39.6428 374.251 39.6428 373.681C39.6428 373.112 39.4591 372.648 39.0916 372.289C38.7334 371.922 38.2788 371.738 37.7276 371.738C37.1765 371.738 36.7219 371.922 36.3636 372.289C36.0054 372.648 35.8263 373.112 35.8263 373.681C35.8263 374.251 36.0054 374.719 36.3636 375.086ZM46.862 370.044C47.6152 370.044 48.2352 370.296 48.722 370.801C49.218 371.307 49.466 372.005 49.466 372.896V377.125H47.6887V373.116C47.6887 372.657 47.5647 372.308 47.3167 372.069C47.0687 371.821 46.738 371.697 46.3247 371.697C45.8654 371.697 45.498 371.839 45.2225 372.124C44.9469 372.409 44.8091 372.836 44.8091 373.405V377.125H43.0318V370.237H44.8091V371.008C45.2408 370.365 45.9251 370.044 46.862 370.044ZM55.5303 370.237H57.3076V377.125H55.5303V376.354C55.0986 376.997 54.4143 377.318 53.4774 377.318C52.7242 377.318 52.0996 377.066 51.6036 376.561C51.1168 376.055 50.8734 375.357 50.8734 374.466V370.237H52.6507V374.246C52.6507 374.705 52.7747 375.059 53.0227 375.307C53.2707 375.546 53.6014 375.665 54.0147 375.665C54.474 375.665 54.8414 375.523 55.117 375.238C55.3925 374.953 55.5303 374.526 55.5303 373.957V370.237ZM64.171 370.237H65.9484V377.125H64.171V376.313C63.6383 376.983 62.8897 377.318 61.9252 377.318C61.0067 377.318 60.2168 376.969 59.5555 376.271C58.9033 375.564 58.5772 374.701 58.5772 373.681C58.5772 372.661 58.9033 371.803 59.5555 371.105C60.2168 370.397 61.0067 370.044 61.9252 370.044C62.8897 370.044 63.6383 370.379 64.171 371.049V370.237ZM60.8919 375.086C61.2501 375.445 61.7048 375.624 62.2559 375.624C62.807 375.624 63.2617 375.445 63.6199 375.086C63.9873 374.719 64.171 374.251 64.171 373.681C64.171 373.112 63.9873 372.648 63.6199 372.289C63.2617 371.922 62.807 371.738 62.2559 371.738C61.7048 371.738 61.2501 371.922 60.8919 372.289C60.5337 372.648 60.3546 373.112 60.3546 373.681C60.3546 374.251 60.5337 374.719 60.8919 375.086ZM69.3374 371.421C69.5027 370.981 69.7737 370.65 70.1503 370.429C70.5361 370.209 70.9632 370.099 71.4316 370.099V372.083C70.8897 372.019 70.4029 372.129 69.9712 372.413C69.5486 372.698 69.3374 373.171 69.3374 373.833V377.125H67.56V370.237H69.3374V371.421ZM77.1107 370.237H79.012L76.5044 377.125C76.1462 378.117 75.6686 378.834 75.0715 379.275C74.4837 379.725 73.7489 379.927 72.8671 379.881V378.228C73.3447 378.237 73.7213 378.136 73.9969 377.925C74.2816 377.713 74.5066 377.373 74.672 376.905L71.8475 370.237H73.7902L75.5813 374.866L77.1107 370.237Z" fill="#004AF5"/>
<path d="M105.842 369.3H101.984V371.587H105.732V373.405H101.984V377.125H100.083V367.481H105.842V369.3ZM108.646 374.411C108.885 375.275 109.533 375.706 110.589 375.706C111.269 375.706 111.783 375.477 112.132 375.017L113.565 375.844C112.885 376.827 111.884 377.318 110.562 377.318C109.423 377.318 108.509 376.974 107.82 376.285C107.131 375.596 106.786 374.728 106.786 373.681C106.786 372.643 107.126 371.78 107.806 371.091C108.486 370.393 109.358 370.044 110.424 370.044C111.434 370.044 112.265 370.393 112.918 371.091C113.579 371.789 113.91 372.652 113.91 373.681C113.91 373.911 113.887 374.154 113.841 374.411H108.646ZM108.619 373.033H112.132C112.031 372.565 111.82 372.216 111.498 371.986C111.186 371.757 110.828 371.642 110.424 371.642C109.946 371.642 109.551 371.766 109.239 372.014C108.927 372.253 108.72 372.593 108.619 373.033ZM119.16 370.044C120.087 370.044 120.877 370.397 121.529 371.105C122.191 371.803 122.521 372.661 122.521 373.681C122.521 374.701 122.191 375.564 121.529 376.271C120.877 376.969 120.087 377.318 119.16 377.318C118.195 377.318 117.451 376.983 116.928 376.313V377.125H115.15V367.481H116.928V371.049C117.451 370.379 118.195 370.044 119.16 370.044ZM117.465 375.086C117.823 375.445 118.278 375.624 118.829 375.624C119.38 375.624 119.835 375.445 120.193 375.086C120.56 374.719 120.744 374.251 120.744 373.681C120.744 373.112 120.56 372.648 120.193 372.289C119.835 371.922 119.38 371.738 118.829 371.738C118.278 371.738 117.823 371.922 117.465 372.289C117.107 372.648 116.928 373.112 116.928 373.681C116.928 374.251 117.107 374.719 117.465 375.086ZM125.552 371.421C125.718 370.981 125.989 370.65 126.365 370.429C126.751 370.209 127.178 370.099 127.647 370.099V372.083C127.105 372.019 126.618 372.129 126.186 372.413C125.764 372.698 125.552 373.171 125.552 373.833V377.125H123.775V370.237H125.552V371.421ZM133.233 370.237H135.01V377.125H133.233V376.354C132.801 376.997 132.117 377.318 131.18 377.318C130.427 377.318 129.802 377.066 129.306 376.561C128.819 376.055 128.576 375.357 128.576 374.466V370.237H130.353V374.246C130.353 374.705 130.477 375.059 130.725 375.307C130.973 375.546 131.304 375.665 131.717 375.665C132.176 375.665 132.544 375.523 132.819 375.238C133.095 374.953 133.233 374.526 133.233 373.957V370.237ZM141.873 370.237H143.651V377.125H141.873V376.313C141.341 376.983 140.592 377.318 139.628 377.318C138.709 377.318 137.919 376.969 137.258 376.271C136.606 375.564 136.28 374.701 136.28 373.681C136.28 372.661 136.606 371.803 137.258 371.105C137.919 370.397 138.709 370.044 139.628 370.044C140.592 370.044 141.341 370.379 141.873 371.049V370.237ZM138.594 375.086C138.953 375.445 139.407 375.624 139.958 375.624C140.509 375.624 140.964 375.445 141.322 375.086C141.69 374.719 141.873 374.251 141.873 373.681C141.873 373.112 141.69 372.648 141.322 372.289C140.964 371.922 140.509 371.738 139.958 371.738C139.407 371.738 138.953 371.922 138.594 372.289C138.236 372.648 138.057 373.112 138.057 373.681C138.057 374.251 138.236 374.719 138.594 375.086ZM147.04 371.421C147.205 370.981 147.476 370.65 147.853 370.429C148.238 370.209 148.666 370.099 149.134 370.099V372.083C148.592 372.019 148.105 372.129 147.674 372.413C147.251 372.698 147.04 373.171 147.04 373.833V377.125H145.262V370.237H147.04V371.421ZM154.813 370.237H156.714L154.207 377.125C153.849 378.117 153.371 378.834 152.774 379.275C152.186 379.725 151.451 379.927 150.569 379.881V378.228C151.047 378.237 151.424 378.136 151.699 377.925C151.984 377.713 152.209 377.373 152.374 376.905L149.55 370.237H151.493L153.284 374.866L154.813 370.237Z" fill="#004AF5"/>
<path d="M194.209 367.481V377.125H192.322V370.87L189.608 375.348H189.387L186.673 370.884V377.125H184.772V367.481H186.728L189.497 372.041L192.253 367.481H194.209ZM201.159 370.237H202.937V377.125H201.159V376.313C200.627 376.983 199.878 377.318 198.914 377.318C197.995 377.318 197.205 376.969 196.544 376.271C195.892 375.564 195.566 374.701 195.566 373.681C195.566 372.661 195.892 371.803 196.544 371.105C197.205 370.397 197.995 370.044 198.914 370.044C199.878 370.044 200.627 370.379 201.159 371.049V370.237ZM197.88 375.086C198.238 375.445 198.693 375.624 199.244 375.624C199.795 375.624 200.25 375.445 200.608 375.086C200.976 374.719 201.159 374.251 201.159 373.681C201.159 373.112 200.976 372.648 200.608 372.289C200.25 371.922 199.795 371.738 199.244 371.738C198.693 371.738 198.238 371.922 197.88 372.289C197.522 372.648 197.343 373.112 197.343 373.681C197.343 374.251 197.522 374.719 197.88 375.086ZM206.326 371.421C206.491 370.981 206.762 370.65 207.139 370.429C207.524 370.209 207.952 370.099 208.42 370.099V372.083C207.878 372.019 207.391 372.129 206.96 372.413C206.537 372.698 206.326 373.171 206.326 373.833V377.125H204.548V370.237H206.326V371.421ZM212.483 377.318C211.445 377.318 210.577 376.969 209.879 376.271C209.19 375.573 208.846 374.71 208.846 373.681C208.846 372.652 209.19 371.789 209.879 371.091C210.577 370.393 211.445 370.044 212.483 370.044C213.153 370.044 213.764 370.204 214.315 370.526C214.866 370.847 215.284 371.279 215.569 371.821L214.04 372.717C213.902 372.432 213.691 372.207 213.406 372.041C213.13 371.876 212.818 371.793 212.469 371.793C211.936 371.793 211.496 371.973 211.146 372.331C210.797 372.68 210.623 373.13 210.623 373.681C210.623 374.223 210.797 374.673 211.146 375.031C211.496 375.38 211.936 375.555 212.469 375.555C212.827 375.555 213.144 375.477 213.42 375.321C213.705 375.155 213.916 374.93 214.054 374.645L215.597 375.527C215.294 376.069 214.866 376.505 214.315 376.836C213.764 377.158 213.153 377.318 212.483 377.318ZM220.367 370.044C221.12 370.044 221.74 370.296 222.227 370.801C222.723 371.307 222.971 372.005 222.971 372.896V377.125H221.194V373.116C221.194 372.657 221.07 372.308 220.822 372.069C220.574 371.821 220.243 371.697 219.83 371.697C219.37 371.697 219.003 371.839 218.727 372.124C218.452 372.409 218.314 372.836 218.314 373.405V377.125H216.537V367.481H218.314V371.008C218.746 370.365 219.43 370.044 220.367 370.044Z" fill="#004AF5"/>
<path d="M272.149 377.125L271.57 375.389H267.726L267.147 377.125H265.095L268.47 367.481H270.826L274.215 377.125H272.149ZM268.332 373.612H270.978L269.655 369.672L268.332 373.612ZM279.079 370.044C280.006 370.044 280.796 370.397 281.448 371.105C282.11 371.803 282.44 372.661 282.44 373.681C282.44 374.701 282.11 375.564 281.448 376.271C280.796 376.969 280.006 377.318 279.079 377.318C278.114 377.318 277.37 376.983 276.847 376.313V379.881H275.069V370.237H276.847V371.049C277.37 370.379 278.114 370.044 279.079 370.044ZM277.384 375.086C277.742 375.445 278.197 375.624 278.748 375.624C279.299 375.624 279.754 375.445 280.112 375.086C280.479 374.719 280.663 374.251 280.663 373.681C280.663 373.112 280.479 372.648 280.112 372.289C279.754 371.922 279.299 371.738 278.748 371.738C278.197 371.738 277.742 371.922 277.384 372.289C277.026 372.648 276.847 373.112 276.847 373.681C276.847 374.251 277.026 374.719 277.384 375.086ZM285.471 371.421C285.636 370.981 285.907 370.65 286.284 370.429C286.67 370.209 287.097 370.099 287.565 370.099V372.083C287.023 372.019 286.537 372.129 286.105 372.413C285.682 372.698 285.471 373.171 285.471 373.833V377.125H283.694V370.237H285.471V371.421ZM289.487 369.41C289.193 369.41 288.936 369.304 288.715 369.093C288.504 368.873 288.398 368.615 288.398 368.321C288.398 368.028 288.504 367.77 288.715 367.55C288.936 367.329 289.193 367.219 289.487 367.219C289.79 367.219 290.047 367.329 290.258 367.55C290.479 367.77 290.589 368.028 290.589 368.321C290.589 368.615 290.479 368.873 290.258 369.093C290.047 369.304 289.79 369.41 289.487 369.41ZM288.605 377.125V370.237H290.382V377.125H288.605ZM292.009 377.125V367.068H293.786V377.125H292.009Z" fill="#004AF5"/>
<path d="M352.904 367.481V377.125H351.017V370.87L348.303 375.348H348.082L345.368 370.884V377.125H343.467V367.481H345.423L348.192 372.041L350.948 367.481H352.904ZM359.854 370.237H361.632V377.125H359.854V376.313C359.322 376.983 358.573 377.318 357.609 377.318C356.69 377.318 355.9 376.969 355.239 376.271C354.587 375.564 354.261 374.701 354.261 373.681C354.261 372.661 354.587 371.803 355.239 371.105C355.9 370.397 356.69 370.044 357.609 370.044C358.573 370.044 359.322 370.379 359.854 371.049V370.237ZM356.575 375.086C356.933 375.445 357.388 375.624 357.939 375.624C358.49 375.624 358.945 375.445 359.303 375.086C359.671 374.719 359.854 374.251 359.854 373.681C359.854 373.112 359.671 372.648 359.303 372.289C358.945 371.922 358.49 371.738 357.939 371.738C357.388 371.738 356.933 371.922 356.575 372.289C356.217 372.648 356.038 373.112 356.038 373.681C356.038 374.251 356.217 374.719 356.575 375.086ZM367.735 370.237H369.636L367.129 377.125C366.77 378.117 366.293 378.834 365.696 379.275C365.108 379.725 364.373 379.927 363.491 379.881V378.228C363.969 378.237 364.346 378.136 364.621 377.925C364.906 377.713 365.131 377.373 365.296 376.905L362.472 370.237H364.414L366.206 374.866L367.735 370.237Z" fill="#004AF5"/>
<path d="M419.417 377.318C417.901 377.318 416.84 376.708 416.234 375.486L417.874 374.549C418.177 375.155 418.691 375.458 419.417 375.458C419.922 375.458 420.299 375.339 420.547 375.1C420.795 374.861 420.919 374.535 420.919 374.122V367.481H422.806V374.122C422.806 375.132 422.489 375.918 421.855 376.478C421.222 377.038 420.409 377.318 419.417 377.318ZM428.983 370.237H430.761V377.125H428.983V376.354C428.552 376.997 427.867 377.318 426.93 377.318C426.177 377.318 425.553 377.066 425.057 376.561C424.57 376.055 424.326 375.357 424.326 374.466V370.237H426.104V374.246C426.104 374.705 426.228 375.059 426.476 375.307C426.724 375.546 427.054 375.665 427.468 375.665C427.927 375.665 428.294 375.523 428.57 375.238C428.845 374.953 428.983 374.526 428.983 373.957V370.237ZM436.219 370.044C436.972 370.044 437.592 370.296 438.079 370.801C438.575 371.307 438.823 372.005 438.823 372.896V377.125H437.045V373.116C437.045 372.657 436.921 372.308 436.673 372.069C436.425 371.821 436.095 371.697 435.681 371.697C435.222 371.697 434.855 371.839 434.579 372.124C434.304 372.409 434.166 372.836 434.166 373.405V377.125H432.388V370.237H434.166V371.008C434.597 370.365 435.282 370.044 436.219 370.044ZM441.842 374.411C442.081 375.275 442.728 375.706 443.785 375.706C444.464 375.706 444.979 375.477 445.328 375.017L446.761 375.844C446.081 376.827 445.08 377.318 443.757 377.318C442.618 377.318 441.704 376.974 441.015 376.285C440.326 375.596 439.982 374.728 439.982 373.681C439.982 372.643 440.322 371.78 441.002 371.091C441.681 370.393 442.554 370.044 443.619 370.044C444.63 370.044 445.461 370.393 446.113 371.091C446.774 371.789 447.105 372.652 447.105 373.681C447.105 373.911 447.082 374.154 447.036 374.411H441.842ZM441.814 373.033H445.328C445.227 372.565 445.016 372.216 444.694 371.986C444.382 371.757 444.024 371.642 443.619 371.642C443.142 371.642 442.747 371.766 442.434 372.014C442.122 372.253 441.916 372.593 441.814 373.033Z" fill="#004AF5"/>
<path d="M498.12 377.318C496.604 377.318 495.544 376.708 494.937 375.486L496.577 374.549C496.88 375.155 497.394 375.458 498.12 375.458C498.625 375.458 499.002 375.339 499.25 375.1C499.498 374.861 499.622 374.535 499.622 374.122V367.481H501.509V374.122C501.509 375.132 501.193 375.918 500.559 376.478C499.925 377.038 499.112 377.318 498.12 377.318ZM507.686 370.237H509.464V377.125H507.686V376.354C507.255 376.997 506.57 377.318 505.634 377.318C504.88 377.318 504.256 377.066 503.76 376.561C503.273 376.055 503.03 375.357 503.03 374.466V370.237H504.807V374.246C504.807 374.705 504.931 375.059 505.179 375.307C505.427 375.546 505.758 375.665 506.171 375.665C506.63 375.665 506.998 375.523 507.273 375.238C507.549 374.953 507.686 374.526 507.686 373.957V370.237ZM511.092 377.125V367.068H512.869V377.125H511.092ZM518.987 370.237H520.889L518.381 377.125C518.023 378.117 517.545 378.834 516.948 379.275C516.36 379.725 515.626 379.927 514.744 379.881V378.228C515.221 378.237 515.598 378.136 515.874 377.925C516.158 377.713 516.383 377.373 516.549 376.905L513.724 370.237H515.667L517.458 374.866L518.987 370.237Z" fill="#004AF5"/>
<path d="M569.048 377.125L568.469 375.389H564.625L564.046 377.125H561.993L565.369 367.481H567.725L571.114 377.125H569.048ZM565.231 373.612H567.877L566.554 369.672L565.231 373.612ZM576.448 370.237H578.225V377.125H576.448V376.354C576.016 376.997 575.332 377.318 574.395 377.318C573.641 377.318 573.017 377.066 572.521 376.561C572.034 376.055 571.791 375.357 571.791 374.466V370.237H573.568V374.246C573.568 374.705 573.692 375.059 573.94 375.307C574.188 375.546 574.519 375.665 574.932 375.665C575.391 375.665 575.759 375.523 576.034 375.238C576.31 374.953 576.448 374.526 576.448 373.957V370.237ZM585.13 370.237H586.866V376.795C586.866 377.86 586.512 378.673 585.805 379.233C585.107 379.794 584.262 380.074 583.27 380.074C582.526 380.074 581.869 379.932 581.299 379.647C580.739 379.362 580.307 378.944 580.004 378.393L581.52 377.525C581.869 378.168 582.47 378.489 583.325 378.489C583.885 378.489 584.326 378.343 584.647 378.049C584.969 377.755 585.13 377.337 585.13 376.795V376.051C584.606 376.749 583.871 377.098 582.925 377.098C581.952 377.098 581.134 376.758 580.473 376.078C579.821 375.389 579.494 374.554 579.494 373.571C579.494 372.597 579.825 371.766 580.486 371.077C581.148 370.388 581.961 370.044 582.925 370.044C583.871 370.044 584.606 370.393 585.13 371.091V370.237ZM581.809 374.935C582.177 375.284 582.64 375.458 583.201 375.458C583.761 375.458 584.22 375.284 584.578 374.935C584.946 374.577 585.13 374.122 585.13 373.571C585.13 373.029 584.946 372.583 584.578 372.234C584.22 371.876 583.761 371.697 583.201 371.697C582.64 371.697 582.177 371.876 581.809 372.234C581.451 372.583 581.272 373.029 581.272 373.571C581.272 374.122 581.451 374.577 581.809 374.935ZM593.024 370.237H594.801V377.125H593.024V376.354C592.592 376.997 591.908 377.318 590.971 377.318C590.218 377.318 589.593 377.066 589.097 376.561C588.61 376.055 588.367 375.357 588.367 374.466V370.237H590.144V374.246C590.144 374.705 590.268 375.059 590.516 375.307C590.764 375.546 591.095 375.665 591.508 375.665C591.968 375.665 592.335 375.523 592.611 375.238C592.886 374.953 593.024 374.526 593.024 373.957V370.237ZM598.015 372.193C598.015 372.377 598.134 372.528 598.373 372.648C598.621 372.758 598.92 372.859 599.269 372.951C599.618 373.033 599.967 373.144 600.316 373.281C600.665 373.41 600.959 373.631 601.198 373.943C601.446 374.255 601.57 374.645 601.57 375.114C601.57 375.821 601.303 376.368 600.77 376.753C600.247 377.13 599.59 377.318 598.8 377.318C597.386 377.318 596.421 376.772 595.907 375.679L597.45 374.811C597.652 375.408 598.102 375.706 598.8 375.706C599.434 375.706 599.751 375.509 599.751 375.114C599.751 374.93 599.627 374.783 599.379 374.673C599.14 374.554 598.846 374.448 598.497 374.356C598.148 374.264 597.799 374.149 597.45 374.012C597.101 373.874 596.802 373.658 596.554 373.364C596.316 373.061 596.196 372.684 596.196 372.234C596.196 371.555 596.444 371.022 596.94 370.636C597.445 370.241 598.07 370.044 598.814 370.044C599.374 370.044 599.884 370.172 600.343 370.429C600.803 370.677 601.165 371.036 601.432 371.504L599.916 372.331C599.696 371.862 599.328 371.628 598.814 371.628C598.584 371.628 598.391 371.679 598.235 371.78C598.088 371.881 598.015 372.019 598.015 372.193ZM606.451 371.945H604.894V374.811C604.894 375.05 604.954 375.224 605.073 375.334C605.193 375.445 605.367 375.509 605.597 375.527C605.827 375.536 606.111 375.532 606.451 375.513V377.125C605.23 377.263 604.366 377.148 603.861 376.781C603.365 376.414 603.117 375.757 603.117 374.811V371.945H601.918V370.237H603.117V368.845L604.894 368.308V370.237H606.451V371.945Z" fill="#004AF5"/>
<path d="M629.199 377.318C628.244 377.318 627.44 377.107 626.788 376.685C626.136 376.253 625.677 375.67 625.41 374.935L627.036 373.984C627.413 374.967 628.152 375.458 629.254 375.458C629.787 375.458 630.177 375.362 630.425 375.169C630.673 374.976 630.797 374.733 630.797 374.439C630.797 374.099 630.646 373.837 630.343 373.653C630.04 373.461 629.498 373.254 628.717 373.033C628.285 372.905 627.918 372.776 627.615 372.648C627.321 372.519 627.022 372.349 626.719 372.138C626.425 371.917 626.2 371.642 626.044 371.311C625.888 370.981 625.81 370.595 625.81 370.154C625.81 369.281 626.117 368.588 626.733 368.073C627.357 367.55 628.106 367.288 628.979 367.288C629.759 367.288 630.444 367.481 631.032 367.867C631.629 368.243 632.092 368.772 632.423 369.451L630.825 370.374C630.439 369.548 629.824 369.134 628.979 369.134C628.584 369.134 628.271 369.226 628.042 369.41C627.821 369.584 627.711 369.814 627.711 370.099C627.711 370.402 627.835 370.65 628.083 370.843C628.34 371.027 628.827 371.229 629.544 371.449C629.837 371.541 630.058 371.614 630.205 371.669C630.361 371.715 630.568 371.793 630.825 371.904C631.091 372.005 631.293 372.101 631.431 372.193C631.578 372.285 631.743 372.409 631.927 372.565C632.111 372.721 632.249 372.882 632.34 373.047C632.441 373.213 632.524 373.415 632.588 373.653C632.662 373.883 632.699 374.136 632.699 374.411C632.699 375.302 632.373 376.009 631.72 376.533C631.077 377.057 630.237 377.318 629.199 377.318ZM635.546 374.411C635.785 375.275 636.433 375.706 637.489 375.706C638.169 375.706 638.683 375.477 639.032 375.017L640.465 375.844C639.785 376.827 638.784 377.318 637.461 377.318C636.322 377.318 635.408 376.974 634.72 376.285C634.031 375.596 633.686 374.728 633.686 373.681C633.686 372.643 634.026 371.78 634.706 371.091C635.386 370.393 636.258 370.044 637.324 370.044C638.334 370.044 639.165 370.393 639.817 371.091C640.479 371.789 640.809 372.652 640.809 373.681C640.809 373.911 640.786 374.154 640.741 374.411H635.546ZM635.519 373.033H639.032C638.931 372.565 638.72 372.216 638.398 371.986C638.086 371.757 637.728 371.642 637.324 371.642C636.846 371.642 636.451 371.766 636.139 372.014C635.826 372.253 635.62 372.593 635.519 373.033ZM646.059 370.044C646.987 370.044 647.777 370.397 648.429 371.105C649.091 371.803 649.421 372.661 649.421 373.681C649.421 374.701 649.091 375.564 648.429 376.271C647.777 376.969 646.987 377.318 646.059 377.318C645.095 377.318 644.351 376.983 643.827 376.313V379.881H642.05V370.237H643.827V371.049C644.351 370.379 645.095 370.044 646.059 370.044ZM644.365 375.086C644.723 375.445 645.178 375.624 645.729 375.624C646.28 375.624 646.735 375.445 647.093 375.086C647.46 374.719 647.644 374.251 647.644 373.681C647.644 373.112 647.46 372.648 647.093 372.289C646.735 371.922 646.28 371.738 645.729 371.738C645.178 371.738 644.723 371.922 644.365 372.289C644.007 372.648 643.827 373.112 643.827 373.681C643.827 374.251 644.007 374.719 644.365 375.086ZM654.467 371.945H652.91V374.811C652.91 375.05 652.97 375.224 653.089 375.334C653.209 375.445 653.383 375.509 653.613 375.527C653.843 375.536 654.127 375.532 654.467 375.513V377.125C653.246 377.263 652.382 377.148 651.877 376.781C651.381 376.414 651.133 375.757 651.133 374.811V371.945H649.934V370.237H651.133V368.845L652.91 368.308V370.237H654.467V371.945ZM657.007 374.411C657.246 375.275 657.893 375.706 658.949 375.706C659.629 375.706 660.144 375.477 660.493 375.017L661.926 375.844C661.246 376.827 660.245 377.318 658.922 377.318C657.783 377.318 656.869 376.974 656.18 376.285C655.491 375.596 655.147 374.728 655.147 373.681C655.147 372.643 655.487 371.78 656.166 371.091C656.846 370.393 657.719 370.044 658.784 370.044C659.795 370.044 660.626 370.393 661.278 371.091C661.939 371.789 662.27 372.652 662.27 373.681C662.27 373.911 662.247 374.154 662.201 374.411H657.007ZM656.979 373.033H660.493C660.392 372.565 660.18 372.216 659.859 371.986C659.547 371.757 659.188 371.642 658.784 371.642C658.307 371.642 657.912 371.766 657.599 372.014C657.287 372.253 657.08 372.593 656.979 373.033ZM671.13 370.044C671.92 370.044 672.549 370.301 673.017 370.815C673.495 371.33 673.734 372.019 673.734 372.882V377.125H671.957V373.006C671.957 372.593 671.855 372.271 671.653 372.041C671.451 371.812 671.167 371.697 670.799 371.697C670.395 371.697 670.078 371.83 669.848 372.097C669.628 372.363 669.518 372.749 669.518 373.254V377.125H667.74V373.006C667.74 372.593 667.639 372.271 667.437 372.041C667.235 371.812 666.951 371.697 666.583 371.697C666.188 371.697 665.871 371.83 665.632 372.097C665.403 372.363 665.288 372.749 665.288 373.254V377.125H663.511V370.237H665.288V370.967C665.701 370.351 666.34 370.044 667.203 370.044C668.048 370.044 668.673 370.374 669.077 371.036C669.536 370.374 670.22 370.044 671.13 370.044ZM679.253 370.044C680.18 370.044 680.97 370.397 681.622 371.105C682.284 371.803 682.614 372.661 682.614 373.681C682.614 374.701 682.284 375.564 681.622 376.271C680.97 376.969 680.18 377.318 679.253 377.318C678.288 377.318 677.544 376.983 677.021 376.313V377.125H675.243V367.481H677.021V371.049C677.544 370.379 678.288 370.044 679.253 370.044ZM677.558 375.086C677.916 375.445 678.371 375.624 678.922 375.624C679.473 375.624 679.928 375.445 680.286 375.086C680.653 374.719 680.837 374.251 680.837 373.681C680.837 373.112 680.653 372.648 680.286 372.289C679.928 371.922 679.473 371.738 678.922 371.738C678.371 371.738 677.916 371.922 677.558 372.289C677.2 372.648 677.021 373.112 677.021 373.681C677.021 374.251 677.2 374.719 677.558 375.086ZM685.37 374.411C685.609 375.275 686.256 375.706 687.312 375.706C687.992 375.706 688.506 375.477 688.856 375.017L690.288 375.844C689.609 376.827 688.608 377.318 687.285 377.318C686.146 377.318 685.232 376.974 684.543 376.285C683.854 375.596 683.51 374.728 683.51 373.681C683.51 372.643 683.85 371.78 684.529 371.091C685.209 370.393 686.082 370.044 687.147 370.044C688.157 370.044 688.989 370.393 689.641 371.091C690.302 371.789 690.633 372.652 690.633 373.681C690.633 373.911 690.61 374.154 690.564 374.411H685.37ZM685.342 373.033H688.856C688.754 372.565 688.543 372.216 688.222 371.986C687.909 371.757 687.551 371.642 687.147 371.642C686.669 371.642 686.274 371.766 685.962 372.014C685.65 372.253 685.443 372.593 685.342 373.033ZM693.651 371.421C693.816 370.981 694.087 370.65 694.464 370.429C694.85 370.209 695.277 370.099 695.745 370.099V372.083C695.203 372.019 694.716 372.129 694.285 372.413C693.862 372.698 693.651 373.171 693.651 373.833V377.125H691.874V370.237H693.651V371.421Z" fill="#004AF5"/>
<path d="M718.838 375.872C717.864 376.836 716.679 377.318 715.283 377.318C713.887 377.318 712.702 376.836 711.729 375.872C710.764 374.898 710.282 373.709 710.282 372.303C710.282 370.898 710.764 369.713 711.729 368.749C712.702 367.775 713.887 367.288 715.283 367.288C716.679 367.288 717.864 367.775 718.838 368.749C719.812 369.713 720.298 370.898 720.298 372.303C720.298 373.709 719.812 374.898 718.838 375.872ZM713.065 374.577C713.662 375.164 714.402 375.458 715.283 375.458C716.165 375.458 716.905 375.164 717.502 374.577C718.099 373.98 718.397 373.222 718.397 372.303C718.397 371.385 718.099 370.627 717.502 370.03C716.905 369.433 716.165 369.134 715.283 369.134C714.402 369.134 713.662 369.433 713.065 370.03C712.468 370.627 712.17 371.385 712.17 372.303C712.17 373.222 712.468 373.98 713.065 374.577ZM724.831 377.318C723.793 377.318 722.925 376.969 722.227 376.271C721.538 375.573 721.194 374.71 721.194 373.681C721.194 372.652 721.538 371.789 722.227 371.091C722.925 370.393 723.793 370.044 724.831 370.044C725.502 370.044 726.113 370.204 726.664 370.526C727.215 370.847 727.633 371.279 727.917 371.821L726.388 372.717C726.25 372.432 726.039 372.207 725.754 372.041C725.479 371.876 725.166 371.793 724.817 371.793C724.285 371.793 723.844 371.973 723.495 372.331C723.146 372.68 722.971 373.13 722.971 373.681C722.971 374.223 723.146 374.673 723.495 375.031C723.844 375.38 724.285 375.555 724.817 375.555C725.176 375.555 725.493 375.477 725.768 375.321C726.053 375.155 726.264 374.93 726.402 374.645L727.945 375.527C727.642 376.069 727.215 376.505 726.664 376.836C726.113 377.158 725.502 377.318 724.831 377.318ZM732.825 371.945H731.269V374.811C731.269 375.05 731.328 375.224 731.448 375.334C731.567 375.445 731.742 375.509 731.971 375.527C732.201 375.536 732.486 375.532 732.825 375.513V377.125C731.604 377.263 730.74 377.148 730.235 376.781C729.739 376.414 729.491 375.757 729.491 374.811V371.945H728.293V370.237H729.491V368.845L731.269 368.308V370.237H732.825V371.945ZM739.733 376.271C739.025 376.969 738.162 377.318 737.142 377.318C736.123 377.318 735.259 376.969 734.552 376.271C733.854 375.564 733.505 374.701 733.505 373.681C733.505 372.661 733.854 371.803 734.552 371.105C735.259 370.397 736.123 370.044 737.142 370.044C738.162 370.044 739.025 370.397 739.733 371.105C740.44 371.803 740.794 372.661 740.794 373.681C740.794 374.701 740.44 375.564 739.733 376.271ZM735.806 375.045C736.164 375.403 736.61 375.582 737.142 375.582C737.675 375.582 738.121 375.403 738.479 375.045C738.837 374.687 739.016 374.232 739.016 373.681C739.016 373.13 738.837 372.675 738.479 372.317C738.121 371.959 737.675 371.78 737.142 371.78C736.61 371.78 736.164 371.959 735.806 372.317C735.457 372.675 735.282 373.13 735.282 373.681C735.282 374.232 735.457 374.687 735.806 375.045ZM746.053 370.044C746.981 370.044 747.771 370.397 748.423 371.105C749.084 371.803 749.415 372.661 749.415 373.681C749.415 374.701 749.084 375.564 748.423 376.271C747.771 376.969 746.981 377.318 746.053 377.318C745.089 377.318 744.345 376.983 743.821 376.313V377.125H742.044V367.481H743.821V371.049C744.345 370.379 745.089 370.044 746.053 370.044ZM744.359 375.086C744.717 375.445 745.171 375.624 745.723 375.624C746.274 375.624 746.728 375.445 747.087 375.086C747.454 374.719 747.638 374.251 747.638 373.681C747.638 373.112 747.454 372.648 747.087 372.289C746.728 371.922 746.274 371.738 745.723 371.738C745.171 371.738 744.717 371.922 744.359 372.289C744 372.648 743.821 373.112 743.821 373.681C743.821 374.251 744 374.719 744.359 375.086ZM752.17 374.411C752.409 375.275 753.057 375.706 754.113 375.706C754.793 375.706 755.307 375.477 755.656 375.017L757.089 375.844C756.409 376.827 755.408 377.318 754.085 377.318C752.946 377.318 752.033 376.974 751.344 376.285C750.655 375.596 750.31 374.728 750.31 373.681C750.31 372.643 750.65 371.78 751.33 371.091C752.01 370.393 752.882 370.044 753.948 370.044C754.958 370.044 755.789 370.393 756.441 371.091C757.103 371.789 757.433 372.652 757.433 373.681C757.433 373.911 757.41 374.154 757.365 374.411H752.17ZM752.143 373.033H755.656C755.555 372.565 755.344 372.216 755.022 371.986C754.71 371.757 754.352 371.642 753.948 371.642C753.47 371.642 753.075 371.766 752.763 372.014C752.45 372.253 752.244 372.593 752.143 373.033ZM760.451 371.421C760.617 370.981 760.888 370.65 761.264 370.429C761.65 370.209 762.077 370.099 762.546 370.099V372.083C762.004 372.019 761.517 372.129 761.085 372.413C760.663 372.698 760.451 373.171 760.451 373.833V377.125H758.674V370.237H760.451V371.421Z" fill="#004AF5"/>
<path d="M786.284 367.481H788.186V377.125H786.739L782.606 371.229V377.125H780.704V367.481H782.151L786.284 373.364V367.481ZM795.761 376.271C795.054 376.969 794.191 377.318 793.171 377.318C792.152 377.318 791.288 376.969 790.581 376.271C789.883 375.564 789.534 374.701 789.534 373.681C789.534 372.661 789.883 371.803 790.581 371.105C791.288 370.397 792.152 370.044 793.171 370.044C794.191 370.044 795.054 370.397 795.761 371.105C796.469 371.803 796.822 372.661 796.822 373.681C796.822 374.701 796.469 375.564 795.761 376.271ZM791.835 375.045C792.193 375.403 792.638 375.582 793.171 375.582C793.704 375.582 794.149 375.403 794.508 375.045C794.866 374.687 795.045 374.232 795.045 373.681C795.045 373.13 794.866 372.675 794.508 372.317C794.149 371.959 793.704 371.78 793.171 371.78C792.638 371.78 792.193 371.959 791.835 372.317C791.486 372.675 791.311 373.13 791.311 373.681C791.311 374.232 791.486 374.687 791.835 375.045ZM802.336 370.237H804.293L801.675 377.125H799.65L797.032 370.237H798.988L800.656 375.059L802.336 370.237ZM806.383 374.411C806.621 375.275 807.269 375.706 808.325 375.706C809.005 375.706 809.519 375.477 809.868 375.017L811.301 375.844C810.622 376.827 809.62 377.318 808.298 377.318C807.159 377.318 806.245 376.974 805.556 376.285C804.867 375.596 804.523 374.728 804.523 373.681C804.523 372.643 804.862 371.78 805.542 371.091C806.222 370.393 807.094 370.044 808.16 370.044C809.17 370.044 810.002 370.393 810.654 371.091C811.315 371.789 811.646 372.652 811.646 373.681C811.646 373.911 811.623 374.154 811.577 374.411H806.383ZM806.355 373.033H809.868C809.767 372.565 809.556 372.216 809.235 371.986C808.922 371.757 808.564 371.642 808.16 371.642C807.682 371.642 807.287 371.766 806.975 372.014C806.663 372.253 806.456 372.593 806.355 373.033ZM820.506 370.044C821.296 370.044 821.925 370.301 822.393 370.815C822.871 371.33 823.11 372.019 823.11 372.882V377.125H821.332V373.006C821.332 372.593 821.231 372.271 821.029 372.041C820.827 371.812 820.542 371.697 820.175 371.697C819.771 371.697 819.454 371.83 819.224 372.097C819.004 372.363 818.894 372.749 818.894 373.254V377.125H817.116V373.006C817.116 372.593 817.015 372.271 816.813 372.041C816.611 371.812 816.326 371.697 815.959 371.697C815.564 371.697 815.247 371.83 815.008 372.097C814.779 372.363 814.664 372.749 814.664 373.254V377.125H812.886V370.237H814.664V370.967C815.077 370.351 815.716 370.044 816.579 370.044C817.424 370.044 818.049 370.374 818.453 371.036C818.912 370.374 819.596 370.044 820.506 370.044ZM828.628 370.044C829.556 370.044 830.346 370.397 830.998 371.105C831.66 371.803 831.99 372.661 831.99 373.681C831.99 374.701 831.66 375.564 830.998 376.271C830.346 376.969 829.556 377.318 828.628 377.318C827.664 377.318 826.92 376.983 826.396 376.313V377.125H824.619V367.481H826.396V371.049C826.92 370.379 827.664 370.044 828.628 370.044ZM826.934 375.086C827.292 375.445 827.747 375.624 828.298 375.624C828.849 375.624 829.304 375.445 829.662 375.086C830.029 374.719 830.213 374.251 830.213 373.681C830.213 373.112 830.029 372.648 829.662 372.289C829.304 371.922 828.849 371.738 828.298 371.738C827.747 371.738 827.292 371.922 826.934 372.289C826.576 372.648 826.396 373.112 826.396 373.681C826.396 374.251 826.576 374.719 826.934 375.086ZM834.745 374.411C834.984 375.275 835.632 375.706 836.688 375.706C837.368 375.706 837.882 375.477 838.231 375.017L839.664 375.844C838.984 376.827 837.983 377.318 836.661 377.318C835.522 377.318 834.608 376.974 833.919 376.285C833.23 375.596 832.885 374.728 832.885 373.681C832.885 372.643 833.225 371.78 833.905 371.091C834.585 370.393 835.457 370.044 836.523 370.044C837.533 370.044 838.364 370.393 839.017 371.091C839.678 371.789 840.009 372.652 840.009 373.681C840.009 373.911 839.986 374.154 839.94 374.411H834.745ZM834.718 373.033H838.231C838.13 372.565 837.919 372.216 837.597 371.986C837.285 371.757 836.927 371.642 836.523 371.642C836.045 371.642 835.65 371.766 835.338 372.014C835.026 372.253 834.819 372.593 834.718 373.033ZM843.027 371.421C843.192 370.981 843.463 370.65 843.84 370.429C844.225 370.209 844.652 370.099 845.121 370.099V372.083C844.579 372.019 844.092 372.129 843.66 372.413C843.238 372.698 843.027 373.171 843.027 373.833V377.125H841.249V370.237H843.027V371.421Z" fill="#004AF5"/>
<line x1="0.101562" y1="28.34" x2="864.347" y2="28.34" stroke="#004AF5" stroke-width="1.25253"/>
<line x1="0.101562" y1="110.068" x2="864.347" y2="110.068" stroke="#004AF5" stroke-width="1.25253"/>
<line x1="0.101562" y1="191.795" x2="864.347" y2="191.795" stroke="#004AF5" stroke-width="1.25253"/>
<line x1="0.101562" y1="273.522" x2="864.347" y2="273.522" stroke="#004AF5" stroke-width="1.25253"/>
<line x1="0.101562" y1="355.25" x2="864.347" y2="355.25" stroke="#004AF5" stroke-width="1.25253"/>
<path d="M53.4033 343.961L127.864 328.608L205.395 319.397L283.694 314.023L355.103 289.999L432.454 272.206L508.075 160.505L581.966 144.194L659.564 139.746L733.208 102.43L813.524 63.6306" stroke="#004AF5" stroke-width="1.25253"/>
</g>
<defs>
<clipPath id="clip0_58_217">
<rect width="864" height="379" fill="white"/>
</clipPath>
</defs>
</svg>
