<svg width="1274" height="228" viewBox="0 0 1274 228" fill="none" xmlns="http://www.w3.org/2000/svg">
<g opacity="0.1" clip-path="url(#clip0_74_281)">
<path d="M205.768 12.9939C89.1457 5.63178 -6.97471 101.859 0.379183 218.613C6.4598 314.893 84.4942 393.013 180.667 399.102C297.29 406.489 393.409 310.236 386.056 193.482C379.975 97.2028 301.94 19.0813 205.768 12.9939ZM206.627 370.875C104.841 378.914 20.5439 294.497 28.5735 192.598C34.8879 112.447 99.7737 47.4891 179.835 41.1677C281.621 33.1292 365.917 117.52 357.888 219.418C351.573 299.569 286.714 364.527 206.627 370.85V370.875Z" fill="white"/>
<path d="M320.306 153.454H294.087C292.502 153.454 290.968 154.078 289.851 155.197L188.352 256.809C186.014 259.151 182.219 259.151 179.906 256.809L172.214 249.109C169.877 246.768 166.083 246.768 163.769 249.109L150.673 262.22C148.334 264.561 148.334 268.359 150.673 270.675L179.906 299.941C182.246 302.282 186.039 302.282 188.352 299.941L205.685 282.59H205.71L324.542 163.651C328.31 159.879 325.633 153.428 320.306 153.428V153.454Z" fill="white"/>
<path d="M233.934 153.454H207.716C206.13 153.454 204.598 154.078 203.48 155.197L145.142 213.6C142.803 215.941 139.009 215.941 136.697 213.6L129.005 205.898C126.666 203.557 122.872 203.557 120.56 205.898L107.463 219.01C105.124 221.352 105.124 225.149 107.463 227.464L136.697 256.731C139.035 259.073 142.829 259.073 145.142 256.731L162.448 239.405H162.475L238.195 163.651C241.963 159.879 239.288 153.428 233.961 153.428L233.934 153.454Z" fill="white"/>
<path d="M147.827 153.454H121.608C120.023 153.454 118.49 154.078 117.372 155.197L102.067 170.519C99.7282 172.861 95.9344 172.861 93.6216 170.519L86.008 162.897C83.6692 160.556 79.8753 160.556 77.5626 162.897L64.466 176.008C62.1272 178.349 62.1272 182.147 64.466 184.463L93.6737 213.703C96.0123 216.044 99.8062 216.044 102.119 213.703L119.451 196.351L152.089 163.651C155.857 159.879 153.18 153.428 147.853 153.428L147.827 153.454Z" fill="white"/>
<path d="M1070.42 191.418V107.413H1096.44V305.406H1070.42V216.31H974.253V305.406H947.947V107.413H974.253V191.418H1070.42Z" fill="white"/>
<path d="M1274.01 305.406H1244.88L1200.47 229.603H1153.8V305.406H1127.49V107.413H1206.69C1223.66 107.413 1238.18 113.447 1250.25 125.515C1262.32 137.395 1268.35 151.82 1268.35 168.791C1268.35 181.613 1264.49 193.304 1256.75 203.864C1248.83 214.612 1239.03 222.06 1227.34 226.209L1274.01 305.406ZM1206.69 132.021H1153.8V205.844H1206.69C1216.5 205.844 1224.79 202.262 1231.58 195.095C1238.56 187.931 1242.05 179.162 1242.05 168.791C1242.05 158.42 1238.56 149.746 1231.58 142.769C1224.79 135.604 1216.5 132.021 1206.69 132.021Z" fill="white"/>
<path d="M427.318 106.164H499.293C517.429 106.164 532.636 112.304 544.916 124.583C557.195 136.862 563.336 151.976 563.336 169.922C563.336 187.869 557.195 202.982 544.916 215.261C532.636 227.541 517.429 233.68 499.293 233.68H453.672V304.523H427.318V106.164ZM453.672 209.028H499.293C510.439 209.028 519.507 205.344 526.497 197.975C533.676 190.231 537.266 180.879 537.266 169.922C537.266 158.587 533.676 149.236 526.497 141.869C519.318 134.501 510.25 130.817 499.293 130.817H453.672V209.028Z" fill="white"/>
<path d="M687.089 187.225V162.855H711.743V304.539H687.089V280.17C675 298.872 657.148 308.223 633.534 308.223C613.509 308.223 596.601 301.045 582.81 286.687C568.831 272.141 561.841 254.478 561.841 233.697C561.841 213.105 568.831 195.536 582.81 180.99C596.789 166.444 613.697 159.171 633.534 159.171C657.148 159.171 675 168.522 687.089 187.225ZM636.65 284.421C651.007 284.421 663.004 279.603 672.639 269.969C682.273 259.956 687.089 247.866 687.089 233.697C687.089 219.34 682.273 207.343 672.639 197.709C663.004 187.886 651.007 182.974 636.65 182.974C622.482 182.974 610.581 187.886 600.946 197.709C591.311 207.343 586.493 219.34 586.493 233.697C586.493 247.866 591.311 259.956 600.946 269.969C610.581 279.603 622.482 284.421 636.65 284.421Z" fill="white"/>
<path d="M750.228 137.049C745.505 137.049 741.538 135.443 738.326 132.232C735.115 129.02 733.51 125.147 733.51 120.613C733.51 116.08 735.115 112.207 738.326 108.995C741.538 105.595 745.505 103.895 750.228 103.895C754.762 103.895 758.635 105.595 761.846 108.995C765.058 112.207 766.663 116.08 766.663 120.613C766.663 125.147 765.058 129.02 761.846 132.232C758.635 135.443 754.762 137.049 750.228 137.049ZM762.413 304.52H737.76V162.836H762.413V304.52Z" fill="white"/>
<path d="M906.008 187.208V106.164H930.66V304.523H906.008V280.154C893.917 298.855 876.065 308.206 852.451 308.206C832.426 308.206 815.518 301.029 801.727 286.67C787.747 272.124 780.758 254.461 780.758 233.68C780.758 213.089 787.747 195.52 801.727 180.973C815.708 166.427 832.614 159.154 852.451 159.154C876.065 159.154 893.917 168.505 906.008 187.208ZM855.567 284.404C869.926 284.404 881.921 279.587 891.556 269.952C901.19 259.94 906.008 247.849 906.008 233.68C906.008 219.323 901.19 207.327 891.556 197.692C881.921 187.869 869.926 182.958 855.567 182.958C841.399 182.958 829.497 187.869 819.863 197.692C810.229 207.327 805.412 219.323 805.412 233.68C805.412 247.849 810.229 259.94 819.863 269.952C829.497 279.587 841.399 284.404 855.567 284.404Z" fill="white"/>
</g>
<defs>
<clipPath id="clip0_74_281">
<rect width="1274" height="228" fill="white"/>
</clipPath>
</defs>
</svg>
