<svg width="793" height="485" viewBox="0 0 793 485" fill="none" xmlns="http://www.w3.org/2000/svg">
<path d="M168.936 82.6738H207.7L240.65 115.623" stroke="#0C1B3D" stroke-width="4"/>
<path d="M704.533 437.369L677.72 410.557H586.301" stroke="#0C1B3D" stroke-width="4"/>
<path d="M434.603 0.509766C376.474 0.509765 320.328 21.6418 276.624 59.9687C232.921 98.2956 204.641 151.203 197.054 208.835C189.466 266.466 203.089 324.891 235.384 373.223C267.678 421.555 316.442 456.499 372.59 471.544L434.603 240.109V0.509766Z" fill="#0C1B3D"/>
<path d="M434.604 0.509766C468.71 0.509765 502.423 7.79102 533.488 21.8667C564.554 35.9424 592.257 56.4881 614.744 82.1302C637.232 107.772 653.986 137.92 663.886 170.557C673.786 203.194 676.605 237.569 672.153 271.383C667.702 305.197 656.082 337.671 638.072 366.633C620.062 395.596 596.076 420.38 567.718 439.328C539.36 458.276 507.284 470.952 473.634 476.508C439.983 482.063 405.535 480.371 372.591 471.544L434.604 240.109V0.509766Z" fill="#F50064"/>
<path d="M1.50178 68.0004H15.4858V70.6564L7.32578 90.4004H4.22178L12.3178 70.8164H1.50178V68.0004ZM26.7253 77.1844C28.4319 77.5044 29.8293 78.2404 30.9173 79.3924C32.0053 80.5444 32.5493 82.0057 32.5493 83.7764C32.5493 85.9524 31.8026 87.6697 30.3093 88.9284C28.8159 90.1871 27.0026 90.8164 24.8693 90.8164C23.1626 90.8164 21.6479 90.4324 20.3253 89.6644C19.0026 88.8751 18.0639 87.7444 17.5093 86.2724L20.0053 84.8004C20.6666 86.8697 22.2879 87.9044 24.8693 87.9044C26.2559 87.9044 27.3866 87.5417 28.2613 86.8164C29.1359 86.0911 29.5733 85.0777 29.5733 83.7764C29.5733 82.4751 29.1359 81.4617 28.2613 80.7364C27.3866 79.9897 26.2559 79.6164 24.8693 79.6164H24.1013L22.9173 77.7924L28.1013 70.7844H18.1493V68.0004H31.5893V70.6244L26.7253 77.1844ZM50.1863 87.6484C48.6716 89.7604 46.5489 90.8164 43.8183 90.8164C41.0876 90.8164 38.9649 89.7604 37.4503 87.6484C35.9356 85.5364 35.1783 82.7204 35.1783 79.2004C35.1783 75.6804 35.9356 72.8644 37.4503 70.7524C38.9649 68.6404 41.0876 67.5844 43.8183 67.5844C46.5489 67.5844 48.6716 68.6404 50.1863 70.7524C51.7009 72.8644 52.4583 75.6804 52.4583 79.2004C52.4583 82.7204 51.7009 85.5364 50.1863 87.6484ZM39.6263 85.6324C40.6076 87.1471 42.0049 87.9044 43.8183 87.9044C45.6316 87.9044 47.0289 87.1471 48.0103 85.6324C49.0129 84.1177 49.5143 81.9737 49.5143 79.2004C49.5143 76.4271 49.0129 74.2831 48.0103 72.7684C47.0289 71.2324 45.6316 70.4644 43.8183 70.4644C42.0049 70.4644 40.6076 71.2217 39.6263 72.7364C38.6449 74.2511 38.1543 76.4057 38.1543 79.2004C38.1543 81.9737 38.6449 84.1177 39.6263 85.6324ZM67.2705 93.6004C64.9239 88.9071 63.7505 84.1071 63.7505 79.2004C63.7505 74.2937 64.9239 69.4937 67.2705 64.8004H70.0545C67.7079 69.4937 66.5345 74.2937 66.5345 79.2004C66.5345 84.1071 67.7079 88.9071 70.0545 93.6004H67.2705ZM88.7513 83.3604V86.1444H86.0313V90.4004H83.0553V86.1444H71.6313V83.3604L79.6633 68.0004H82.8633L74.8313 83.3604H83.0553V77.0244H86.0313V83.3604H88.7513ZM102.576 78.8164C103.664 79.3711 104.517 80.1177 105.136 81.0564C105.754 81.9951 106.064 83.0617 106.064 84.2564C106.064 86.3044 105.349 87.9151 103.92 89.0884C102.49 90.2404 100.645 90.8164 98.3835 90.8164C96.1435 90.8164 94.3089 90.2404 92.8795 89.0884C91.4502 87.9151 90.7355 86.3044 90.7355 84.2564C90.7355 83.0617 91.0449 81.9951 91.6635 81.0564C92.2822 80.1177 93.1355 79.3711 94.2235 78.8164C92.3889 77.6644 91.4715 76.0324 91.4715 73.9204C91.4715 71.8937 92.1435 70.3364 93.4875 69.2484C94.8529 68.1391 96.4849 67.5844 98.3835 67.5844C100.304 67.5844 101.936 68.1391 103.28 69.2484C104.645 70.3364 105.328 71.8937 105.328 73.9204C105.328 76.0324 104.41 77.6644 102.576 78.8164ZM98.3835 70.4324C97.2529 70.4324 96.3035 70.7311 95.5355 71.3284C94.7889 71.9257 94.4155 72.8111 94.4155 73.9844C94.4155 75.1151 94.7995 76.0004 95.5675 76.6404C96.3355 77.2591 97.2742 77.5684 98.3835 77.5684C99.4929 77.5684 100.432 77.2591 101.2 76.6404C101.968 76.0004 102.352 75.1151 102.352 73.9844C102.352 72.8111 101.978 71.9257 101.232 71.3284C100.485 70.7311 99.5355 70.4324 98.3835 70.4324ZM98.3835 87.9684C99.8129 87.9684 100.954 87.6377 101.808 86.9764C102.682 86.2937 103.12 85.3231 103.12 84.0644C103.12 82.8271 102.682 81.8777 101.808 81.2164C100.954 80.5337 99.8129 80.1924 98.3835 80.1924C96.9755 80.1924 95.8342 80.5337 94.9595 81.2164C94.1062 81.8777 93.6795 82.8271 93.6795 84.0644C93.6795 85.3231 94.1062 86.2937 94.9595 86.9764C95.8342 87.6377 96.9755 87.9684 98.3835 87.9684ZM111.142 90.7524C110.566 90.7524 110.075 90.5497 109.67 90.1444C109.264 89.7391 109.062 89.2484 109.062 88.6724C109.062 88.0964 109.264 87.6057 109.67 87.2004C110.075 86.7951 110.566 86.5924 111.142 86.5924C111.739 86.5924 112.23 86.7951 112.614 87.2004C113.019 87.6057 113.222 88.0964 113.222 88.6724C113.222 89.2484 113.019 89.7391 112.614 90.1444C112.23 90.5497 111.739 90.7524 111.142 90.7524ZM128.107 78.8164C129.195 79.3711 130.048 80.1177 130.667 81.0564C131.285 81.9951 131.595 83.0617 131.595 84.2564C131.595 86.3044 130.88 87.9151 129.451 89.0884C128.021 90.2404 126.176 90.8164 123.915 90.8164C121.675 90.8164 119.84 90.2404 118.411 89.0884C116.981 87.9151 116.267 86.3044 116.267 84.2564C116.267 83.0617 116.576 81.9951 117.195 81.0564C117.813 80.1177 118.667 79.3711 119.755 78.8164C117.92 77.6644 117.003 76.0324 117.003 73.9204C117.003 71.8937 117.675 70.3364 119.019 69.2484C120.384 68.1391 122.016 67.5844 123.915 67.5844C125.835 67.5844 127.467 68.1391 128.811 69.2484C130.176 70.3364 130.859 71.8937 130.859 73.9204C130.859 76.0324 129.941 77.6644 128.107 78.8164ZM123.915 70.4324C122.784 70.4324 121.835 70.7311 121.067 71.3284C120.32 71.9257 119.947 72.8111 119.947 73.9844C119.947 75.1151 120.331 76.0004 121.099 76.6404C121.867 77.2591 122.805 77.5684 123.915 77.5684C125.024 77.5684 125.963 77.2591 126.731 76.6404C127.499 76.0004 127.883 75.1151 127.883 73.9844C127.883 72.8111 127.509 71.9257 126.763 71.3284C126.016 70.7311 125.067 70.4324 123.915 70.4324ZM123.915 87.9684C125.344 87.9684 126.485 87.6377 127.339 86.9764C128.213 86.2937 128.651 85.3231 128.651 84.0644C128.651 82.8271 128.213 81.8777 127.339 81.2164C126.485 80.5337 125.344 80.1924 123.915 80.1924C122.507 80.1924 121.365 80.5337 120.491 81.2164C119.637 81.8777 119.211 82.8271 119.211 84.0644C119.211 85.3231 119.637 86.2937 120.491 86.9764C121.365 87.6377 122.507 87.9684 123.915 87.9684ZM138.992 77.5044C137.541 77.5044 136.336 77.0244 135.376 76.0644C134.416 75.1044 133.936 73.9311 133.936 72.5444C133.936 71.1791 134.416 70.0164 135.376 69.0564C136.357 68.0751 137.562 67.5844 138.992 67.5844C140.442 67.5844 141.648 68.0644 142.608 69.0244C143.568 69.9844 144.048 71.1577 144.048 72.5444C144.048 73.9311 143.568 75.1044 142.608 76.0644C141.669 77.0244 140.464 77.5044 138.992 77.5044ZM137.136 74.4324C137.626 74.9231 138.245 75.1684 138.992 75.1684C139.738 75.1684 140.346 74.9124 140.816 74.4004C141.306 73.8884 141.552 73.2697 141.552 72.5444C141.552 71.8191 141.306 71.2111 140.816 70.7204C140.346 70.2084 139.738 69.9524 138.992 69.9524C138.245 69.9524 137.626 70.2084 137.136 70.7204C136.666 71.2111 136.432 71.8191 136.432 72.5444C136.432 73.2911 136.666 73.9204 137.136 74.4324ZM135.44 87.2324L150.32 70.5924L151.888 71.4564L136.976 88.1284L135.44 87.2324ZM152.272 89.3444C151.312 90.3044 150.106 90.7844 148.656 90.7844C147.205 90.7844 146 90.3044 145.04 89.3444C144.08 88.3844 143.6 87.2111 143.6 85.8244C143.6 84.4377 144.08 83.2644 145.04 82.3044C146 81.3444 147.205 80.8644 148.656 80.8644C150.106 80.8644 151.312 81.3444 152.272 82.3044C153.232 83.2644 153.712 84.4377 153.712 85.8244C153.712 87.2111 153.232 88.3844 152.272 89.3444ZM146.8 87.6804C147.29 88.1711 147.909 88.4164 148.656 88.4164C149.402 88.4164 150.01 88.1711 150.48 87.6804C150.97 87.1684 151.216 86.5497 151.216 85.8244C151.216 85.0991 150.97 84.4911 150.48 84.0004C150.01 83.4884 149.402 83.2324 148.656 83.2324C147.909 83.2324 147.29 83.4884 146.8 84.0004C146.33 84.4911 146.096 85.0991 146.096 85.8244C146.096 86.5497 146.33 87.1684 146.8 87.6804ZM159.041 93.6004H156.257C158.604 88.9071 159.777 84.1071 159.777 79.2004C159.777 74.2937 158.604 69.4937 156.257 64.8004H159.041C161.388 69.4937 162.561 74.2937 162.561 79.2004C162.561 84.1071 161.388 88.9071 159.041 93.6004Z" fill="#0C1B3D"/>
<path d="M642.289 457.309H656.273V459.965L648.113 479.709H645.009L653.105 460.125H642.289V457.309ZM664.727 465.053C666.967 465.053 668.812 465.757 670.263 467.165C671.714 468.552 672.439 470.354 672.439 472.573C672.439 474.792 671.714 476.605 670.263 478.013C668.812 479.421 666.967 480.125 664.727 480.125C662.466 480.125 660.61 479.421 659.159 478.013C657.73 476.605 657.015 474.792 657.015 472.573C657.015 470.845 657.463 469.352 658.359 468.093L665.559 457.309H668.951L663.671 465.117C664.14 465.074 664.492 465.053 664.727 465.053ZM661.271 475.997C662.167 476.85 663.319 477.277 664.727 477.277C666.135 477.277 667.276 476.85 668.151 475.997C669.047 475.122 669.495 473.981 669.495 472.573C669.495 471.165 669.047 470.034 668.151 469.181C667.276 468.328 666.135 467.901 664.727 467.901C663.298 467.901 662.146 468.328 661.271 469.181C660.396 470.034 659.959 471.165 659.959 472.573C659.959 473.981 660.396 475.122 661.271 475.997ZM681.946 465.053C684.186 465.053 686.031 465.757 687.482 467.165C688.933 468.552 689.658 470.354 689.658 472.573C689.658 474.792 688.933 476.605 687.482 478.013C686.031 479.421 684.186 480.125 681.946 480.125C679.685 480.125 677.829 479.421 676.378 478.013C674.949 476.605 674.234 474.792 674.234 472.573C674.234 470.845 674.682 469.352 675.578 468.093L682.778 457.309H686.17L680.89 465.117C681.359 465.074 681.711 465.053 681.946 465.053ZM678.49 475.997C679.386 476.85 680.538 477.277 681.946 477.277C683.354 477.277 684.495 476.85 685.37 475.997C686.266 475.122 686.714 473.981 686.714 472.573C686.714 471.165 686.266 470.034 685.37 469.181C684.495 468.328 683.354 467.901 681.946 467.901C680.517 467.901 679.365 468.328 678.49 469.181C677.615 470.034 677.178 471.165 677.178 472.573C677.178 473.981 677.615 475.122 678.49 475.997ZM703.933 482.909C701.586 478.216 700.413 473.416 700.413 468.509C700.413 463.602 701.586 458.802 703.933 454.109H706.717C704.37 458.802 703.197 463.602 703.197 468.509C703.197 473.416 704.37 478.216 706.717 482.909H703.933ZM716.165 466.045C718.277 466.045 720.059 466.674 721.509 467.933C722.981 469.17 723.717 470.888 723.717 473.085C723.717 475.261 722.971 476.978 721.477 478.237C719.984 479.496 718.171 480.125 716.037 480.125C714.331 480.125 712.805 479.72 711.461 478.909C710.117 478.077 709.179 476.882 708.645 475.325L711.173 473.885C711.472 474.973 712.048 475.805 712.901 476.381C713.755 476.936 714.8 477.213 716.037 477.213C717.445 477.213 718.587 476.85 719.461 476.125C720.336 475.4 720.773 474.386 720.773 473.085C720.773 471.784 720.336 470.77 719.461 470.045C718.587 469.298 717.467 468.925 716.101 468.925H709.765L710.597 457.309H722.853V460.093H713.285L712.901 466.045H716.165ZM730.83 457.309H733.39V479.709H730.446V460.509L725.678 461.917L724.942 459.357L730.83 457.309ZM739.772 480.061C739.196 480.061 738.706 479.858 738.3 479.453C737.895 479.048 737.692 478.557 737.692 477.981C737.692 477.405 737.895 476.914 738.3 476.509C738.706 476.104 739.196 475.901 739.772 475.901C740.37 475.901 740.86 476.104 741.244 476.509C741.65 476.914 741.852 477.405 741.852 477.981C741.852 478.557 741.65 479.048 741.244 479.453C740.86 479.858 740.37 480.061 739.772 480.061ZM744.834 479.709V477.277L752.738 469.213C754.85 467.101 755.906 465.288 755.906 463.773C755.906 462.514 755.522 461.533 754.754 460.829C753.986 460.125 753.047 459.773 751.938 459.773C749.826 459.773 748.29 460.776 747.33 462.781L744.834 461.309C745.538 459.858 746.508 458.76 747.746 458.013C749.004 457.266 750.391 456.893 751.906 456.893C753.783 456.893 755.415 457.512 756.802 458.749C758.188 459.986 758.882 461.65 758.882 463.741C758.882 466.002 757.548 468.466 754.882 471.133L749.154 476.829H759.298V479.709H744.834ZM767.06 466.813C765.609 466.813 764.404 466.333 763.444 465.373C762.484 464.413 762.004 463.24 762.004 461.853C762.004 460.488 762.484 459.325 763.444 458.365C764.425 457.384 765.631 456.893 767.06 456.893C768.511 456.893 769.716 457.373 770.676 458.333C771.636 459.293 772.116 460.466 772.116 461.853C772.116 463.24 771.636 464.413 770.676 465.373C769.737 466.333 768.532 466.813 767.06 466.813ZM765.204 463.741C765.695 464.232 766.313 464.477 767.06 464.477C767.807 464.477 768.415 464.221 768.884 463.709C769.375 463.197 769.62 462.578 769.62 461.853C769.62 461.128 769.375 460.52 768.884 460.029C768.415 459.517 767.807 459.261 767.06 459.261C766.313 459.261 765.695 459.517 765.204 460.029C764.735 460.52 764.5 461.128 764.5 461.853C764.5 462.6 764.735 463.229 765.204 463.741ZM763.508 476.541L778.388 459.901L779.956 460.765L765.044 477.437L763.508 476.541ZM780.34 478.653C779.38 479.613 778.175 480.093 776.724 480.093C775.273 480.093 774.068 479.613 773.108 478.653C772.148 477.693 771.668 476.52 771.668 475.133C771.668 473.746 772.148 472.573 773.108 471.613C774.068 470.653 775.273 470.173 776.724 470.173C778.175 470.173 779.38 470.653 780.34 471.613C781.3 472.573 781.78 473.746 781.78 475.133C781.78 476.52 781.3 477.693 780.34 478.653ZM774.868 476.989C775.359 477.48 775.977 477.725 776.724 477.725C777.471 477.725 778.079 477.48 778.548 476.989C779.039 476.477 779.284 475.858 779.284 475.133C779.284 474.408 779.039 473.8 778.548 473.309C778.079 472.797 777.471 472.541 776.724 472.541C775.977 472.541 775.359 472.797 774.868 473.309C774.399 473.8 774.164 474.408 774.164 475.133C774.164 475.858 774.399 476.477 774.868 476.989ZM787.109 482.909H784.325C786.672 478.216 787.845 473.416 787.845 468.509C787.845 463.602 786.672 458.802 784.325 454.109H787.109C789.456 458.802 790.629 463.602 790.629 468.509C790.629 473.416 789.456 478.216 787.109 482.909Z" fill="#0C1B3D"/>
</svg>
