<svg width="1423" height="600" viewBox="0 0 1423 600" fill="none" xmlns="http://www.w3.org/2000/svg">
<path d="M16.7453 3.2H18.1853V20H16.5053V5.048L12.7373 6.176L12.3053 4.736L16.7453 3.2ZM32.3416 17.936C31.2376 19.504 29.6776 20.288 27.6616 20.288C25.6456 20.288 24.0776 19.504 22.9576 17.936C21.8536 16.352 21.3016 14.24 21.3016 11.6C21.3016 8.96 21.8536 6.856 22.9576 5.288C24.0776 3.704 25.6456 2.912 27.6616 2.912C29.6776 2.912 31.2376 3.704 32.3416 5.288C33.4616 6.856 34.0216 8.96 34.0216 11.6C34.0216 14.24 33.4616 16.352 32.3416 17.936ZM24.2056 16.808C25.0376 18.04 26.1896 18.656 27.6616 18.656C29.1336 18.656 30.2776 18.04 31.0936 16.808C31.9256 15.576 32.3416 13.84 32.3416 11.6C32.3416 9.36 31.9256 7.624 31.0936 6.392C30.2776 5.16 29.1336 4.544 27.6616 4.544C26.1896 4.544 25.0376 5.16 24.2056 6.392C23.3896 7.624 22.9816 9.36 22.9816 11.6C22.9816 13.84 23.3896 15.576 24.2056 16.808ZM47.4588 17.936C46.3548 19.504 44.7948 20.288 42.7788 20.288C40.7628 20.288 39.1948 19.504 38.0748 17.936C36.9708 16.352 36.4188 14.24 36.4188 11.6C36.4188 8.96 36.9708 6.856 38.0748 5.288C39.1948 3.704 40.7628 2.912 42.7788 2.912C44.7948 2.912 46.3548 3.704 47.4588 5.288C48.5788 6.856 49.1388 8.96 49.1388 11.6C49.1388 14.24 48.5788 16.352 47.4588 17.936ZM39.3228 16.808C40.1548 18.04 41.3068 18.656 42.7788 18.656C44.2508 18.656 45.3948 18.04 46.2108 16.808C47.0428 15.576 47.4588 13.84 47.4588 11.6C47.4588 9.36 47.0428 7.624 46.2108 6.392C45.3948 5.16 44.2508 4.544 42.7788 4.544C41.3068 4.544 40.1548 5.16 39.3228 6.392C38.5068 7.624 38.0988 9.36 38.0988 11.6C38.0988 13.84 38.5068 15.576 39.3228 16.808ZM53.9294 17.96L52.4894 23.36H51.0494L52.0094 17.96H53.9294ZM66.8884 17.936C65.7844 19.504 64.2244 20.288 62.2084 20.288C60.1924 20.288 58.6244 19.504 57.5044 17.936C56.4004 16.352 55.8484 14.24 55.8484 11.6C55.8484 8.96 56.4004 6.856 57.5044 5.288C58.6244 3.704 60.1924 2.912 62.2084 2.912C64.2244 2.912 65.7844 3.704 66.8884 5.288C68.0084 6.856 68.5684 8.96 68.5684 11.6C68.5684 14.24 68.0084 16.352 66.8884 17.936ZM58.7524 16.808C59.5844 18.04 60.7364 18.656 62.2084 18.656C63.6804 18.656 64.8244 18.04 65.6404 16.808C66.4724 15.576 66.8884 13.84 66.8884 11.6C66.8884 9.36 66.4724 7.624 65.6404 6.392C64.8244 5.16 63.6804 4.544 62.2084 4.544C60.7364 4.544 59.5844 5.16 58.7524 6.392C57.9364 7.624 57.5284 9.36 57.5284 11.6C57.5284 13.84 57.9364 15.576 58.7524 16.808ZM82.0056 17.936C80.9016 19.504 79.3416 20.288 77.3256 20.288C75.3096 20.288 73.7416 19.504 72.6216 17.936C71.5176 16.352 70.9656 14.24 70.9656 11.6C70.9656 8.96 71.5176 6.856 72.6216 5.288C73.7416 3.704 75.3096 2.912 77.3256 2.912C79.3416 2.912 80.9016 3.704 82.0056 5.288C83.1256 6.856 83.6856 8.96 83.6856 11.6C83.6856 14.24 83.1256 16.352 82.0056 17.936ZM73.8696 16.808C74.7016 18.04 75.8536 18.656 77.3256 18.656C78.7976 18.656 79.9416 18.04 80.7576 16.808C81.5896 15.576 82.0056 13.84 82.0056 11.6C82.0056 9.36 81.5896 7.624 80.7576 6.392C79.9416 5.16 78.7976 4.544 77.3256 4.544C75.8536 4.544 74.7016 5.16 73.8696 6.392C73.0536 7.624 72.6456 9.36 72.6456 11.6C72.6456 13.84 73.0536 15.576 73.8696 16.808ZM97.1228 17.936C96.0188 19.504 94.4588 20.288 92.4428 20.288C90.4268 20.288 88.8588 19.504 87.7388 17.936C86.6348 16.352 86.0828 14.24 86.0828 11.6C86.0828 8.96 86.6348 6.856 87.7388 5.288C88.8588 3.704 90.4268 2.912 92.4428 2.912C94.4588 2.912 96.0188 3.704 97.1228 5.288C98.2428 6.856 98.8028 8.96 98.8028 11.6C98.8028 14.24 98.2428 16.352 97.1228 17.936ZM88.9868 16.808C89.8188 18.04 90.9708 18.656 92.4428 18.656C93.9148 18.656 95.0588 18.04 95.8748 16.808C96.7068 15.576 97.1228 13.84 97.1228 11.6C97.1228 9.36 96.7068 7.624 95.8748 6.392C95.0588 5.16 93.9148 4.544 92.4428 4.544C90.9708 4.544 89.8188 5.16 88.9868 6.392C88.1708 7.624 87.7628 9.36 87.7628 11.6C87.7628 13.84 88.1708 15.576 88.9868 16.808Z" fill="#0C1B3D"/>
<line x1="124" y1="11.75" x2="1423" y2="11.75" stroke="#0C1B3D" stroke-width="0.5"/>
<path d="M26.5581 147.2H36.8781V148.784L30.5421 164H28.7901L35.1261 148.784H26.5581V147.2ZM43.4772 153.968C45.0452 153.968 46.3732 154.432 47.4612 155.36C48.5652 156.272 49.1172 157.528 49.1172 159.128C49.1172 160.728 48.5652 161.992 47.4612 162.92C46.3732 163.832 45.0452 164.288 43.4772 164.288C42.2132 164.288 41.0852 163.984 40.0932 163.376C39.1012 162.752 38.4292 161.864 38.0772 160.712L39.4932 159.896C39.7332 160.792 40.2052 161.48 40.9092 161.96C41.6292 162.424 42.4852 162.656 43.4772 162.656C44.6292 162.656 45.5732 162.352 46.3092 161.744C47.0612 161.12 47.4372 160.248 47.4372 159.128C47.4372 158.008 47.0612 157.144 46.3092 156.536C45.5732 155.912 44.6292 155.6 43.4772 155.6H38.9172L39.5172 147.2H48.5172V148.784H41.0052L40.6452 153.968H43.4772ZM53.9294 161.96L52.4894 167.36H51.0494L52.0094 161.96H53.9294ZM66.8884 161.936C65.7844 163.504 64.2244 164.288 62.2084 164.288C60.1924 164.288 58.6244 163.504 57.5044 161.936C56.4004 160.352 55.8484 158.24 55.8484 155.6C55.8484 152.96 56.4004 150.856 57.5044 149.288C58.6244 147.704 60.1924 146.912 62.2084 146.912C64.2244 146.912 65.7844 147.704 66.8884 149.288C68.0084 150.856 68.5684 152.96 68.5684 155.6C68.5684 158.24 68.0084 160.352 66.8884 161.936ZM58.7524 160.808C59.5844 162.04 60.7364 162.656 62.2084 162.656C63.6804 162.656 64.8244 162.04 65.6404 160.808C66.4724 159.576 66.8884 157.84 66.8884 155.6C66.8884 153.36 66.4724 151.624 65.6404 150.392C64.8244 149.16 63.6804 148.544 62.2084 148.544C60.7364 148.544 59.5844 149.16 58.7524 150.392C57.9364 151.624 57.5284 153.36 57.5284 155.6C57.5284 157.84 57.9364 159.576 58.7524 160.808ZM82.0056 161.936C80.9016 163.504 79.3416 164.288 77.3256 164.288C75.3096 164.288 73.7416 163.504 72.6216 161.936C71.5176 160.352 70.9656 158.24 70.9656 155.6C70.9656 152.96 71.5176 150.856 72.6216 149.288C73.7416 147.704 75.3096 146.912 77.3256 146.912C79.3416 146.912 80.9016 147.704 82.0056 149.288C83.1256 150.856 83.6856 152.96 83.6856 155.6C83.6856 158.24 83.1256 160.352 82.0056 161.936ZM73.8696 160.808C74.7016 162.04 75.8536 162.656 77.3256 162.656C78.7976 162.656 79.9416 162.04 80.7576 160.808C81.5896 159.576 82.0056 157.84 82.0056 155.6C82.0056 153.36 81.5896 151.624 80.7576 150.392C79.9416 149.16 78.7976 148.544 77.3256 148.544C75.8536 148.544 74.7016 149.16 73.8696 150.392C73.0536 151.624 72.6456 153.36 72.6456 155.6C72.6456 157.84 73.0536 159.576 73.8696 160.808ZM97.1228 161.936C96.0188 163.504 94.4588 164.288 92.4428 164.288C90.4268 164.288 88.8588 163.504 87.7388 161.936C86.6348 160.352 86.0828 158.24 86.0828 155.6C86.0828 152.96 86.6348 150.856 87.7388 149.288C88.8588 147.704 90.4268 146.912 92.4428 146.912C94.4588 146.912 96.0188 147.704 97.1228 149.288C98.2428 150.856 98.8028 152.96 98.8028 155.6C98.8028 158.24 98.2428 160.352 97.1228 161.936ZM88.9868 160.808C89.8188 162.04 90.9708 162.656 92.4428 162.656C93.9148 162.656 95.0588 162.04 95.8748 160.808C96.7068 159.576 97.1228 157.84 97.1228 155.6C97.1228 153.36 96.7068 151.624 95.8748 150.392C95.0588 149.16 93.9148 148.544 92.4428 148.544C90.9708 148.544 89.8188 149.16 88.9868 150.392C88.1708 151.624 87.7628 153.36 87.7628 155.6C87.7628 157.84 88.1708 159.576 88.9868 160.808Z" fill="#0C1B3D"/>
<line x1="124" y1="155.75" x2="1423" y2="155.75" stroke="#0C1B3D" stroke-width="0.5"/>
<path d="M28.8522 297.968C30.4202 297.968 31.7482 298.432 32.8362 299.36C33.9402 300.272 34.4922 301.528 34.4922 303.128C34.4922 304.728 33.9402 305.992 32.8362 306.92C31.7482 307.832 30.4202 308.288 28.8522 308.288C27.5882 308.288 26.4602 307.984 25.4682 307.376C24.4762 306.752 23.8042 305.864 23.4522 304.712L24.8682 303.896C25.1082 304.792 25.5802 305.48 26.2842 305.96C27.0042 306.424 27.8602 306.656 28.8522 306.656C30.0042 306.656 30.9482 306.352 31.6842 305.744C32.4362 305.12 32.8122 304.248 32.8122 303.128C32.8122 302.008 32.4362 301.144 31.6842 300.536C30.9482 299.912 30.0042 299.6 28.8522 299.6H24.2922L24.8922 291.2H33.8922V292.784H26.3802L26.0202 297.968H28.8522ZM47.4588 305.936C46.3548 307.504 44.7948 308.288 42.7788 308.288C40.7628 308.288 39.1948 307.504 38.0748 305.936C36.9708 304.352 36.4188 302.24 36.4188 299.6C36.4188 296.96 36.9708 294.856 38.0748 293.288C39.1948 291.704 40.7628 290.912 42.7788 290.912C44.7948 290.912 46.3548 291.704 47.4588 293.288C48.5788 294.856 49.1388 296.96 49.1388 299.6C49.1388 302.24 48.5788 304.352 47.4588 305.936ZM39.3228 304.808C40.1548 306.04 41.3068 306.656 42.7788 306.656C44.2508 306.656 45.3948 306.04 46.2108 304.808C47.0428 303.576 47.4588 301.84 47.4588 299.6C47.4588 297.36 47.0428 295.624 46.2108 294.392C45.3948 293.16 44.2508 292.544 42.7788 292.544C41.3068 292.544 40.1548 293.16 39.3228 294.392C38.5068 295.624 38.0988 297.36 38.0988 299.6C38.0988 301.84 38.5068 303.576 39.3228 304.808ZM53.9294 305.96L52.4894 311.36H51.0494L52.0094 305.96H53.9294ZM66.8884 305.936C65.7844 307.504 64.2244 308.288 62.2084 308.288C60.1924 308.288 58.6244 307.504 57.5044 305.936C56.4004 304.352 55.8484 302.24 55.8484 299.6C55.8484 296.96 56.4004 294.856 57.5044 293.288C58.6244 291.704 60.1924 290.912 62.2084 290.912C64.2244 290.912 65.7844 291.704 66.8884 293.288C68.0084 294.856 68.5684 296.96 68.5684 299.6C68.5684 302.24 68.0084 304.352 66.8884 305.936ZM58.7524 304.808C59.5844 306.04 60.7364 306.656 62.2084 306.656C63.6804 306.656 64.8244 306.04 65.6404 304.808C66.4724 303.576 66.8884 301.84 66.8884 299.6C66.8884 297.36 66.4724 295.624 65.6404 294.392C64.8244 293.16 63.6804 292.544 62.2084 292.544C60.7364 292.544 59.5844 293.16 58.7524 294.392C57.9364 295.624 57.5284 297.36 57.5284 299.6C57.5284 301.84 57.9364 303.576 58.7524 304.808ZM82.0056 305.936C80.9016 307.504 79.3416 308.288 77.3256 308.288C75.3096 308.288 73.7416 307.504 72.6216 305.936C71.5176 304.352 70.9656 302.24 70.9656 299.6C70.9656 296.96 71.5176 294.856 72.6216 293.288C73.7416 291.704 75.3096 290.912 77.3256 290.912C79.3416 290.912 80.9016 291.704 82.0056 293.288C83.1256 294.856 83.6856 296.96 83.6856 299.6C83.6856 302.24 83.1256 304.352 82.0056 305.936ZM73.8696 304.808C74.7016 306.04 75.8536 306.656 77.3256 306.656C78.7976 306.656 79.9416 306.04 80.7576 304.808C81.5896 303.576 82.0056 301.84 82.0056 299.6C82.0056 297.36 81.5896 295.624 80.7576 294.392C79.9416 293.16 78.7976 292.544 77.3256 292.544C75.8536 292.544 74.7016 293.16 73.8696 294.392C73.0536 295.624 72.6456 297.36 72.6456 299.6C72.6456 301.84 73.0536 303.576 73.8696 304.808ZM97.1228 305.936C96.0188 307.504 94.4588 308.288 92.4428 308.288C90.4268 308.288 88.8588 307.504 87.7388 305.936C86.6348 304.352 86.0828 302.24 86.0828 299.6C86.0828 296.96 86.6348 294.856 87.7388 293.288C88.8588 291.704 90.4268 290.912 92.4428 290.912C94.4588 290.912 96.0188 291.704 97.1228 293.288C98.2428 294.856 98.8028 296.96 98.8028 299.6C98.8028 302.24 98.2428 304.352 97.1228 305.936ZM88.9868 304.808C89.8188 306.04 90.9708 306.656 92.4428 306.656C93.9148 306.656 95.0588 306.04 95.8748 304.808C96.7068 303.576 97.1228 301.84 97.1228 299.6C97.1228 297.36 96.7068 295.624 95.8748 294.392C95.0588 293.16 93.9148 292.544 92.4428 292.544C90.9708 292.544 89.8188 293.16 88.9868 294.392C88.1708 295.624 87.7628 297.36 87.7628 299.6C87.7628 301.84 88.1708 303.576 88.9868 304.808Z" fill="#0C1B3D"/>
<line x1="124" y1="299.75" x2="1423" y2="299.75" stroke="#0C1B3D" stroke-width="0.5"/>
<path d="M25.585 452V450.488L31.633 444.392C33.361 442.664 34.225 441.184 34.225 439.952C34.225 438.88 33.889 438.048 33.217 437.456C32.561 436.848 31.769 436.544 30.841 436.544C29.113 436.544 27.857 437.336 27.073 438.92L25.657 438.08C26.185 437.04 26.905 436.256 27.817 435.728C28.729 435.184 29.737 434.912 30.841 434.912C32.185 434.912 33.361 435.368 34.369 436.28C35.393 437.176 35.905 438.4 35.905 439.952C35.905 440.928 35.633 441.864 35.089 442.76C34.545 443.656 33.777 444.6 32.785 445.592L27.985 450.368H36.265V452H25.585ZM43.4772 441.968C45.0452 441.968 46.3732 442.432 47.4612 443.36C48.5652 444.272 49.1172 445.528 49.1172 447.128C49.1172 448.728 48.5652 449.992 47.4612 450.92C46.3732 451.832 45.0452 452.288 43.4772 452.288C42.2132 452.288 41.0852 451.984 40.0932 451.376C39.1012 450.752 38.4292 449.864 38.0772 448.712L39.4932 447.896C39.7332 448.792 40.2052 449.48 40.9092 449.96C41.6292 450.424 42.4852 450.656 43.4772 450.656C44.6292 450.656 45.5732 450.352 46.3092 449.744C47.0612 449.12 47.4372 448.248 47.4372 447.128C47.4372 446.008 47.0612 445.144 46.3092 444.536C45.5732 443.912 44.6292 443.6 43.4772 443.6H38.9172L39.5172 435.2H48.5172V436.784H41.0052L40.6452 441.968H43.4772ZM53.9294 449.96L52.4894 455.36H51.0494L52.0094 449.96H53.9294ZM66.8884 449.936C65.7844 451.504 64.2244 452.288 62.2084 452.288C60.1924 452.288 58.6244 451.504 57.5044 449.936C56.4004 448.352 55.8484 446.24 55.8484 443.6C55.8484 440.96 56.4004 438.856 57.5044 437.288C58.6244 435.704 60.1924 434.912 62.2084 434.912C64.2244 434.912 65.7844 435.704 66.8884 437.288C68.0084 438.856 68.5684 440.96 68.5684 443.6C68.5684 446.24 68.0084 448.352 66.8884 449.936ZM58.7524 448.808C59.5844 450.04 60.7364 450.656 62.2084 450.656C63.6804 450.656 64.8244 450.04 65.6404 448.808C66.4724 447.576 66.8884 445.84 66.8884 443.6C66.8884 441.36 66.4724 439.624 65.6404 438.392C64.8244 437.16 63.6804 436.544 62.2084 436.544C60.7364 436.544 59.5844 437.16 58.7524 438.392C57.9364 439.624 57.5284 441.36 57.5284 443.6C57.5284 445.84 57.9364 447.576 58.7524 448.808ZM82.0056 449.936C80.9016 451.504 79.3416 452.288 77.3256 452.288C75.3096 452.288 73.7416 451.504 72.6216 449.936C71.5176 448.352 70.9656 446.24 70.9656 443.6C70.9656 440.96 71.5176 438.856 72.6216 437.288C73.7416 435.704 75.3096 434.912 77.3256 434.912C79.3416 434.912 80.9016 435.704 82.0056 437.288C83.1256 438.856 83.6856 440.96 83.6856 443.6C83.6856 446.24 83.1256 448.352 82.0056 449.936ZM73.8696 448.808C74.7016 450.04 75.8536 450.656 77.3256 450.656C78.7976 450.656 79.9416 450.04 80.7576 448.808C81.5896 447.576 82.0056 445.84 82.0056 443.6C82.0056 441.36 81.5896 439.624 80.7576 438.392C79.9416 437.16 78.7976 436.544 77.3256 436.544C75.8536 436.544 74.7016 437.16 73.8696 438.392C73.0536 439.624 72.6456 441.36 72.6456 443.6C72.6456 445.84 73.0536 447.576 73.8696 448.808ZM97.1228 449.936C96.0188 451.504 94.4588 452.288 92.4428 452.288C90.4268 452.288 88.8588 451.504 87.7388 449.936C86.6348 448.352 86.0828 446.24 86.0828 443.6C86.0828 440.96 86.6348 438.856 87.7388 437.288C88.8588 435.704 90.4268 434.912 92.4428 434.912C94.4588 434.912 96.0188 435.704 97.1228 437.288C98.2428 438.856 98.8028 440.96 98.8028 443.6C98.8028 446.24 98.2428 448.352 97.1228 449.936ZM88.9868 448.808C89.8188 450.04 90.9708 450.656 92.4428 450.656C93.9148 450.656 95.0588 450.04 95.8748 448.808C96.7068 447.576 97.1228 445.84 97.1228 443.6C97.1228 441.36 96.7068 439.624 95.8748 438.392C95.0588 437.16 93.9148 436.544 92.4428 436.544C90.9708 436.544 89.8188 437.16 88.9868 438.392C88.1708 439.624 87.7628 441.36 87.7628 443.6C87.7628 445.84 88.1708 447.576 88.9868 448.808Z" fill="#0C1B3D"/>
<line x1="124" y1="443.75" x2="1423" y2="443.75" stroke="#0C1B3D" stroke-width="0.5"/>
<path d="M97.1228 593.936C96.0188 595.504 94.4588 596.288 92.4428 596.288C90.4268 596.288 88.8588 595.504 87.7388 593.936C86.6348 592.352 86.0828 590.24 86.0828 587.6C86.0828 584.96 86.6348 582.856 87.7388 581.288C88.8588 579.704 90.4268 578.912 92.4428 578.912C94.4588 578.912 96.0188 579.704 97.1228 581.288C98.2428 582.856 98.8028 584.96 98.8028 587.6C98.8028 590.24 98.2428 592.352 97.1228 593.936ZM88.9868 592.808C89.8188 594.04 90.9708 594.656 92.4428 594.656C93.9148 594.656 95.0588 594.04 95.8748 592.808C96.7068 591.576 97.1228 589.84 97.1228 587.6C97.1228 585.36 96.7068 583.624 95.8748 582.392C95.0588 581.16 93.9148 580.544 92.4428 580.544C90.9708 580.544 89.8188 581.16 88.9868 582.392C88.1708 583.624 87.7628 585.36 87.7628 587.6C87.7628 589.84 88.1708 591.576 88.9868 592.808Z" fill="#0C1B3D"/>
<line x1="124" y1="587.75" x2="1423" y2="587.75" stroke="#0C1B3D" stroke-width="0.5"/>
</svg>
