<svg width="1388" height="940" viewBox="0 0 1388 940" fill="none" xmlns="http://www.w3.org/2000/svg">
<g filter="url(#filter0_d_2309_270)">
<rect x="855.5" y="55" width="156" height="64" rx="8" fill="white" shape-rendering="crispEdges"/>
<rect x="855.5" y="55" width="156" height="64" rx="8" stroke="#CCDBFD" stroke-width="0.5" shape-rendering="crispEdges"/>
<rect x="872.5" y="67.5" width="39" height="39" rx="19.5" fill="#F50064"/>
<rect x="872.5" y="67.5" width="39" height="39" rx="19.5" stroke="#CCDBFD" stroke-width="4"/>
<path d="M891.625 77.156C891.426 77.1638 891.227 77.1638 891 77.1873C888.5 77.2888 887 79.6052 887 82.906L889 82.406C889.102 80.8045 889.695 79.199 891.094 78.9998C891.992 78.8982 892.5 79.0076 893 79.406C893.5 79.8045 893.805 80.6013 893.906 81.4998L895.906 81.0935C895.707 79.7927 895.207 78.699 894.406 77.9998C893.883 77.4763 893.031 77.1052 891.625 77.156ZM896 81.9998L889.094 83.5935C889.594 84.2927 889.898 85.1013 890 85.9998L890.688 89.406L899.312 87.0935L899 84.4998C899 83.1013 897.898 81.9998 896.5 81.9998H896ZM886.312 84.1873C885.613 84.6873 885 85.3982 885 86.4998L884 94.9998L889 96.9998L900 92.9998L899.5 88.9998L896.188 89.9998V90.0935C896.387 90.6951 895.801 91.3943 895 91.5935C894.199 91.7927 893.387 91.5076 893.188 90.906V90.8123L889 91.9998L888 86.1873C887.898 85.1873 887.414 83.988 886.312 84.1873Z" fill="white"/>
<path d="M928.356 91.504H933.49V93H926.775V81.1H928.356V91.504ZM935.628 89.43C935.775 90.1893 936.121 90.7787 936.665 91.198C937.22 91.6173 937.9 91.827 938.705 91.827C939.827 91.827 940.643 91.4133 941.153 90.586L942.411 91.3C941.583 92.5807 940.337 93.221 938.671 93.221C937.322 93.221 936.223 92.8017 935.373 91.963C934.534 91.113 934.115 90.042 934.115 88.75C934.115 87.4693 934.528 86.404 935.356 85.554C936.183 84.704 937.254 84.279 938.569 84.279C939.815 84.279 940.83 84.721 941.612 85.605C942.405 86.4777 942.802 87.5317 942.802 88.767C942.802 88.9823 942.785 89.2033 942.751 89.43H935.628ZM938.569 85.673C937.775 85.673 937.118 85.8997 936.597 86.353C936.075 86.795 935.752 87.39 935.628 88.138H941.306C941.181 87.3333 940.864 86.7213 940.354 86.302C939.844 85.8827 939.249 85.673 938.569 85.673ZM951.523 84.5H953.002V93H951.523V91.538C950.787 92.66 949.716 93.221 948.31 93.221C947.12 93.221 946.106 92.7903 945.267 91.929C944.429 91.0563 944.009 89.9967 944.009 88.75C944.009 87.5033 944.429 86.4493 945.267 85.588C946.106 84.7153 947.12 84.279 948.31 84.279C949.716 84.279 950.787 84.84 951.523 85.962V84.5ZM948.497 91.793C949.359 91.793 950.078 91.504 950.656 90.926C951.234 90.3367 951.523 89.6113 951.523 88.75C951.523 87.8887 951.234 87.169 950.656 86.591C950.078 86.0017 949.359 85.707 948.497 85.707C947.647 85.707 946.933 86.0017 946.355 86.591C945.777 87.169 945.488 87.8887 945.488 88.75C945.488 89.6113 945.777 90.3367 946.355 90.926C946.933 91.504 947.647 91.793 948.497 91.793ZM962.281 84.5H963.76V93H962.281V91.538C961.544 92.66 960.473 93.221 959.068 93.221C957.878 93.221 956.864 92.7903 956.025 91.929C955.186 91.0563 954.767 89.9967 954.767 88.75C954.767 87.5033 955.186 86.4493 956.025 85.588C956.864 84.7153 957.878 84.279 959.068 84.279C960.473 84.279 961.544 84.84 962.281 85.962V84.5ZM959.255 91.793C960.116 91.793 960.836 91.504 961.414 90.926C961.992 90.3367 962.281 89.6113 962.281 88.75C962.281 87.8887 961.992 87.169 961.414 86.591C960.836 86.0017 960.116 85.707 959.255 85.707C958.405 85.707 957.691 86.0017 957.113 86.591C956.535 87.169 956.246 87.8887 956.246 88.75C956.246 89.6113 956.535 90.3367 957.113 90.926C957.691 91.504 958.405 91.793 959.255 91.793ZM970.625 85.928H968.364V90.535C968.364 90.9543 968.443 91.2547 968.602 91.436C968.772 91.606 969.027 91.6967 969.367 91.708C969.707 91.708 970.126 91.6967 970.625 91.674V93C969.333 93.17 968.387 93.068 967.786 92.694C967.185 92.3087 966.885 91.589 966.885 90.535V85.928H965.202V84.5H966.885V82.562L968.364 82.12V84.5H970.625V85.928ZM976.609 84.279C977.606 84.279 978.405 84.5963 979.006 85.231C979.607 85.8543 979.907 86.7043 979.907 87.781V93H978.428V87.866C978.428 87.1747 978.241 86.642 977.867 86.268C977.493 85.8827 976.977 85.69 976.32 85.69C975.583 85.69 974.988 85.9223 974.535 86.387C974.082 86.8403 973.855 87.543 973.855 88.495V93H972.376V81.1H973.855V85.724C974.456 84.7607 975.374 84.279 976.609 84.279ZM983.009 89.43C983.156 90.1893 983.502 90.7787 984.046 91.198C984.601 91.6173 985.281 91.827 986.086 91.827C987.208 91.827 988.024 91.4133 988.534 90.586L989.792 91.3C988.964 92.5807 987.718 93.221 986.052 93.221C984.703 93.221 983.604 92.8017 982.754 91.963C981.915 91.113 981.496 90.042 981.496 88.75C981.496 87.4693 981.909 86.404 982.737 85.554C983.564 84.704 984.635 84.279 985.95 84.279C987.196 84.279 988.211 84.721 988.993 85.605C989.786 86.4777 990.183 87.5317 990.183 88.767C990.183 88.9823 990.166 89.2033 990.132 89.43H983.009ZM985.95 85.673C985.156 85.673 984.499 85.8997 983.978 86.353C983.456 86.795 983.133 87.39 983.009 88.138H988.687C988.562 87.3333 988.245 86.7213 987.735 86.302C987.225 85.8827 986.63 85.673 985.95 85.673ZM993.362 85.928C993.849 84.874 994.733 84.347 996.014 84.347V85.894C995.288 85.86 994.665 86.0527 994.144 86.472C993.622 86.8913 993.362 87.5657 993.362 88.495V93H991.883V84.5H993.362V85.928Z" fill="#41415A"/>
</g>
<g filter="url(#filter1_d_2309_270)">
<rect x="149.5" y="99" width="149" height="64" rx="8" fill="white" shape-rendering="crispEdges"/>
<rect x="149.5" y="99" width="149" height="64" rx="8" stroke="#CCDBFD" stroke-width="0.5" shape-rendering="crispEdges"/>
<rect x="166.5" y="111.5" width="39" height="39" rx="19.5" fill="#F50064"/>
<rect x="166.5" y="111.5" width="39" height="39" rx="19.5" stroke="#CCDBFD" stroke-width="4"/>
<path d="M193 120C191.625 120 190.535 120.844 189.781 121.883C189.031 122.922 188.465 124.215 187.84 125.586C186.746 127.992 185.508 130.617 183.391 132.449C182.859 132.137 182.363 132 182 132L177 137C177 137 176 138 176 140V141H188L193 132L194 130L193 135V141H195L197 127C197 121.535 196.172 120.191 193 120ZM191.973 122.414C191.844 129.332 190.68 132.254 186 136C185.695 135.086 185.293 134.379 184.859 133.809C187.277 131.648 188.59 128.773 189.66 126.414C190.285 125.035 190.844 123.828 191.406 123.055C191.609 122.773 191.789 122.578 191.973 122.414Z" fill="white"/>
<path d="M226.368 137.221C224.566 137.221 223.076 136.626 221.897 135.436C220.73 134.246 220.146 132.784 220.146 131.05C220.146 129.316 220.73 127.854 221.897 126.664C223.076 125.474 224.566 124.879 226.368 124.879C227.456 124.879 228.453 125.14 229.36 125.661C230.278 126.182 230.992 126.885 231.502 127.769L230.125 128.568C229.785 127.911 229.275 127.389 228.595 127.004C227.926 126.607 227.184 126.409 226.368 126.409C224.997 126.409 223.875 126.851 223.002 127.735C222.141 128.619 221.71 129.724 221.71 131.05C221.71 132.365 222.141 133.464 223.002 134.348C223.875 135.232 224.997 135.674 226.368 135.674C227.184 135.674 227.926 135.481 228.595 135.096C229.275 134.699 229.785 134.178 230.125 133.532L231.502 134.314C231.003 135.198 230.295 135.906 229.377 136.439C228.459 136.96 227.456 137.221 226.368 137.221ZM240.28 135.929C239.408 136.79 238.348 137.221 237.101 137.221C235.855 137.221 234.795 136.79 233.922 135.929C233.061 135.068 232.63 134.008 232.63 132.75C232.63 131.492 233.061 130.432 233.922 129.571C234.795 128.71 235.855 128.279 237.101 128.279C238.348 128.279 239.408 128.71 240.28 129.571C241.153 130.432 241.589 131.492 241.589 132.75C241.589 134.008 241.153 135.068 240.28 135.929ZM237.101 135.776C237.951 135.776 238.665 135.487 239.243 134.909C239.821 134.331 240.11 133.611 240.11 132.75C240.11 131.889 239.821 131.169 239.243 130.591C238.665 130.013 237.951 129.724 237.101 129.724C236.263 129.724 235.554 130.013 234.976 130.591C234.398 131.169 234.109 131.889 234.109 132.75C234.109 133.611 234.398 134.331 234.976 134.909C235.554 135.487 236.263 135.776 237.101 135.776ZM248.025 128.279C249.215 128.279 250.229 128.715 251.068 129.588C251.907 130.449 252.326 131.503 252.326 132.75C252.326 133.997 251.907 135.056 251.068 135.929C250.229 136.79 249.215 137.221 248.025 137.221C246.62 137.221 245.549 136.66 244.812 135.538V137H243.333V125.1H244.812V129.962C245.549 128.84 246.62 128.279 248.025 128.279ZM247.838 135.793C248.688 135.793 249.402 135.504 249.98 134.926C250.558 134.337 250.847 133.611 250.847 132.75C250.847 131.889 250.558 131.169 249.98 130.591C249.402 130.002 248.688 129.707 247.838 129.707C246.977 129.707 246.257 130.002 245.679 130.591C245.101 131.169 244.812 131.889 244.812 132.75C244.812 133.611 245.101 134.337 245.679 134.926C246.257 135.504 246.977 135.793 247.838 135.793ZM258.783 128.279C259.973 128.279 260.987 128.715 261.826 129.588C262.664 130.449 263.084 131.503 263.084 132.75C263.084 133.997 262.664 135.056 261.826 135.929C260.987 136.79 259.973 137.221 258.783 137.221C257.377 137.221 256.306 136.66 255.57 135.538V137H254.091V125.1H255.57V129.962C256.306 128.84 257.377 128.279 258.783 128.279ZM258.596 135.793C259.446 135.793 260.16 135.504 260.738 134.926C261.316 134.337 261.605 133.611 261.605 132.75C261.605 131.889 261.316 131.169 260.738 130.591C260.16 130.002 259.446 129.707 258.596 129.707C257.734 129.707 257.015 130.002 256.437 130.591C255.859 131.169 255.57 131.889 255.57 132.75C255.57 133.611 255.859 134.337 256.437 134.926C257.015 135.504 257.734 135.793 258.596 135.793ZM264.849 137V124.59H266.328V137H264.849ZM269.621 133.43C269.768 134.189 270.114 134.779 270.658 135.198C271.213 135.617 271.893 135.827 272.698 135.827C273.82 135.827 274.636 135.413 275.146 134.586L276.404 135.3C275.577 136.581 274.33 137.221 272.664 137.221C271.315 137.221 270.216 136.802 269.366 135.963C268.527 135.113 268.108 134.042 268.108 132.75C268.108 131.469 268.522 130.404 269.349 129.554C270.176 128.704 271.247 128.279 272.562 128.279C273.809 128.279 274.823 128.721 275.605 129.605C276.398 130.478 276.795 131.532 276.795 132.767C276.795 132.982 276.778 133.203 276.744 133.43H269.621ZM272.562 129.673C271.769 129.673 271.111 129.9 270.59 130.353C270.069 130.795 269.746 131.39 269.621 132.138H275.299C275.174 131.333 274.857 130.721 274.347 130.302C273.837 129.883 273.242 129.673 272.562 129.673ZM279.974 129.928C280.461 128.874 281.345 128.347 282.626 128.347V129.894C281.901 129.86 281.277 130.053 280.756 130.472C280.235 130.891 279.974 131.566 279.974 132.495V137H278.495V128.5H279.974V129.928Z" fill="#41415A"/>
</g>
<g filter="url(#filter2_d_2309_270)">
<rect x="502.5" y="87" width="166" height="64" rx="8" fill="white" shape-rendering="crispEdges"/>
<rect x="502.5" y="87" width="166" height="64" rx="8" stroke="#CCDBFD" stroke-width="0.5" shape-rendering="crispEdges"/>
<rect x="519.5" y="99.5" width="39" height="39" rx="19.5" fill="#F50064"/>
<rect x="519.5" y="99.5" width="39" height="39" rx="19.5" stroke="#CCDBFD" stroke-width="4"/>
<path d="M535 109C534.47 109 533.961 109.211 533.586 109.586C533.211 109.961 533 110.47 533 111C533 111.53 533.211 112.039 533.586 112.414C533.961 112.789 534.47 113 535 113C535.53 113 536.039 112.789 536.414 112.414C536.789 112.039 537 111.53 537 111C537 110.47 536.789 109.961 536.414 109.586C536.039 109.211 535.53 109 535 109ZM534.451 114C533.592 114 532.837 114.569 532.602 115.395L531 121V124.764L529.221 128.115L531.01 129.01L533 125.236V121.668L535 124.334V129H537V123.666L535 121L536.127 117.061L537.729 118H540V119H543L544 118L545 119L546 118L547 119L548 118L549 119V116H543V115H540V115.5V116H538.271L535.764 114.529C535.423 114.207 534.97 114 534.451 114ZM541 116H542V118H541V116ZM539 121V123H540.715L539 129H541L542.715 123H545.285L547 129H549L547.285 123H549V121H539Z" fill="white"/>
<path d="M579.368 125.221C577.566 125.221 576.076 124.626 574.897 123.436C573.73 122.246 573.146 120.784 573.146 119.05C573.146 117.316 573.73 115.854 574.897 114.664C576.076 113.474 577.566 112.879 579.368 112.879C580.456 112.879 581.453 113.14 582.36 113.661C583.278 114.182 583.992 114.885 584.502 115.769L583.125 116.568C582.785 115.911 582.275 115.389 581.595 115.004C580.926 114.607 580.184 114.409 579.368 114.409C577.997 114.409 576.875 114.851 576.002 115.735C575.141 116.619 574.71 117.724 574.71 119.05C574.71 120.365 575.141 121.464 576.002 122.348C576.875 123.232 577.997 123.674 579.368 123.674C580.184 123.674 580.926 123.481 581.595 123.096C582.275 122.699 582.785 122.178 583.125 121.532L584.502 122.314C584.003 123.198 583.295 123.906 582.377 124.439C581.459 124.96 580.456 125.221 579.368 125.221ZM593.144 116.5H594.623V125H593.144V123.538C592.408 124.66 591.337 125.221 589.931 125.221C588.741 125.221 587.727 124.79 586.888 123.929C586.05 123.056 585.63 121.997 585.63 120.75C585.63 119.503 586.05 118.449 586.888 117.588C587.727 116.715 588.741 116.279 589.931 116.279C591.337 116.279 592.408 116.84 593.144 117.962V116.5ZM590.118 123.793C590.98 123.793 591.699 123.504 592.277 122.926C592.855 122.337 593.144 121.611 593.144 120.75C593.144 119.889 592.855 119.169 592.277 118.591C591.699 118.002 590.98 117.707 590.118 117.707C589.268 117.707 588.554 118.002 587.976 118.591C587.398 119.169 587.109 119.889 587.109 120.75C587.109 121.611 587.398 122.337 587.976 122.926C588.554 123.504 589.268 123.793 590.118 123.793ZM598.343 117.928C598.831 116.874 599.715 116.347 600.995 116.347V117.894C600.27 117.86 599.647 118.053 599.125 118.472C598.604 118.891 598.343 119.566 598.343 120.495V125H596.864V116.5H598.343V117.928ZM607.134 116.279C608.324 116.279 609.339 116.715 610.177 117.588C611.016 118.449 611.435 119.503 611.435 120.75C611.435 121.997 611.016 123.056 610.177 123.929C609.339 124.79 608.324 125.221 607.134 125.221C605.729 125.221 604.658 124.66 603.921 123.538V128.4H602.442V116.5H603.921V117.962C604.658 116.84 605.729 116.279 607.134 116.279ZM606.947 123.793C607.797 123.793 608.511 123.504 609.089 122.926C609.667 122.337 609.956 121.611 609.956 120.75C609.956 119.889 609.667 119.169 609.089 118.591C608.511 118.002 607.797 117.707 606.947 117.707C606.086 117.707 605.366 118.002 604.788 118.591C604.21 119.169 603.921 119.889 603.921 120.75C603.921 121.611 604.21 122.337 604.788 122.926C605.366 123.504 606.086 123.793 606.947 123.793ZM614.237 121.43C614.384 122.189 614.73 122.779 615.274 123.198C615.829 123.617 616.509 123.827 617.314 123.827C618.436 123.827 619.252 123.413 619.762 122.586L621.02 123.3C620.193 124.581 618.946 125.221 617.28 125.221C615.931 125.221 614.832 124.802 613.982 123.963C613.143 123.113 612.724 122.042 612.724 120.75C612.724 119.469 613.138 118.404 613.965 117.554C614.792 116.704 615.863 116.279 617.178 116.279C618.425 116.279 619.439 116.721 620.221 117.605C621.014 118.478 621.411 119.532 621.411 120.767C621.411 120.982 621.394 121.203 621.36 121.43H614.237ZM617.178 117.673C616.385 117.673 615.727 117.9 615.206 118.353C614.685 118.795 614.362 119.39 614.237 120.138H619.915C619.79 119.333 619.473 118.721 618.963 118.302C618.453 117.883 617.858 117.673 617.178 117.673ZM627.344 116.279C628.342 116.279 629.141 116.596 629.741 117.231C630.342 117.854 630.642 118.704 630.642 119.781V125H629.163V119.866C629.163 119.175 628.976 118.642 628.602 118.268C628.228 117.883 627.713 117.69 627.055 117.69C626.319 117.69 625.724 117.922 625.27 118.387C624.817 118.84 624.59 119.543 624.59 120.495V125H623.111V116.5H624.59V117.724C625.191 116.761 626.109 116.279 627.344 116.279ZM637.331 117.928H635.07V122.535C635.07 122.954 635.149 123.255 635.308 123.436C635.478 123.606 635.733 123.697 636.073 123.708C636.413 123.708 636.832 123.697 637.331 123.674V125C636.039 125.17 635.093 125.068 634.492 124.694C633.891 124.309 633.591 123.589 633.591 122.535V117.928H631.908V116.5H633.591V114.562L635.07 114.12V116.5H637.331V117.928ZM639.687 121.43C639.835 122.189 640.18 122.779 640.724 123.198C641.28 123.617 641.96 123.827 642.764 123.827C643.886 123.827 644.702 123.413 645.212 122.586L646.47 123.3C645.643 124.581 644.396 125.221 642.73 125.221C641.382 125.221 640.282 124.802 639.432 123.963C638.594 123.113 638.174 122.042 638.174 120.75C638.174 119.469 638.588 118.404 639.415 117.554C640.243 116.704 641.314 116.279 642.628 116.279C643.875 116.279 644.889 116.721 645.671 117.605C646.465 118.478 646.861 119.532 646.861 120.767C646.861 120.982 646.844 121.203 646.81 121.43H639.687ZM642.628 117.673C641.835 117.673 641.178 117.9 640.656 118.353C640.135 118.795 639.812 119.39 639.687 120.138H645.365C645.241 119.333 644.923 118.721 644.413 118.302C643.903 117.883 643.308 117.673 642.628 117.673ZM650.04 117.928C650.528 116.874 651.412 116.347 652.692 116.347V117.894C651.967 117.86 651.344 118.053 650.822 118.472C650.301 118.891 650.04 119.566 650.04 120.495V125H648.561V116.5H650.04V117.928Z" fill="#41415A"/>
</g>
<g filter="url(#filter3_d_2309_270)">
<rect x="1101.5" y="163" width="151" height="64" rx="8" fill="white" shape-rendering="crispEdges"/>
<rect x="1101.5" y="163" width="151" height="64" rx="8" stroke="#CCDBFD" stroke-width="0.5" shape-rendering="crispEdges"/>
<rect x="1118.5" y="175.5" width="39" height="39" rx="19.5" fill="#F50064"/>
<rect x="1118.5" y="175.5" width="39" height="39" rx="19.5" stroke="#CCDBFD" stroke-width="4"/>
<path d="M1131.5 185V186H1130.5C1129.4 186 1128.5 186.897 1128.5 188V192H1146.5V188C1146.5 186.897 1145.6 186 1144.5 186H1143.5V185H1139.5V186H1136.5V185H1131.5ZM1131.5 188C1132.05 188 1132.5 188.448 1132.5 189C1132.5 189.552 1132.05 190 1131.5 190C1130.95 190 1130.5 189.552 1130.5 189C1130.5 188.448 1130.95 188 1131.5 188ZM1134.5 188C1135.05 188 1135.5 188.448 1135.5 189C1135.5 189.552 1135.05 190 1134.5 190C1133.95 190 1133.5 189.552 1133.5 189C1133.5 188.448 1133.95 188 1134.5 188ZM1137.5 188C1138.05 188 1138.5 188.448 1138.5 189C1138.5 189.552 1138.05 190 1137.5 190C1136.95 190 1136.5 189.552 1136.5 189C1136.5 188.448 1136.95 188 1137.5 188ZM1143.5 188C1144.05 188 1144.5 188.448 1144.5 189C1144.5 189.552 1144.05 190 1143.5 190C1142.95 190 1142.5 189.552 1142.5 189C1142.5 188.448 1142.95 188 1143.5 188ZM1128.5 194V202C1128.5 203.103 1129.4 204 1130.5 204H1144.5C1145.6 204 1146.5 203.103 1146.5 202V194H1128.5ZM1131.5 197H1143.5V201H1131.5V197Z" fill="white"/>
<path d="M1178.37 201.221C1176.57 201.221 1175.08 200.626 1173.9 199.436C1172.73 198.246 1172.15 196.784 1172.15 195.05C1172.15 193.316 1172.73 191.854 1173.9 190.664C1175.08 189.474 1176.57 188.879 1178.37 188.879C1179.46 188.879 1180.45 189.14 1181.36 189.661C1182.28 190.182 1182.99 190.885 1183.5 191.769L1182.12 192.568C1181.79 191.911 1181.28 191.389 1180.6 191.004C1179.93 190.607 1179.18 190.409 1178.37 190.409C1177 190.409 1175.87 190.851 1175 191.735C1174.14 192.619 1173.71 193.724 1173.71 195.05C1173.71 196.365 1174.14 197.464 1175 198.348C1175.87 199.232 1177 199.674 1178.37 199.674C1179.18 199.674 1179.93 199.481 1180.6 199.096C1181.28 198.699 1181.79 198.178 1182.12 197.532L1183.5 198.314C1183 199.198 1182.3 199.906 1181.38 200.439C1180.46 200.96 1179.46 201.221 1178.37 201.221ZM1192.28 199.929C1191.41 200.79 1190.35 201.221 1189.1 201.221C1187.85 201.221 1186.8 200.79 1185.92 199.929C1185.06 199.068 1184.63 198.008 1184.63 196.75C1184.63 195.492 1185.06 194.432 1185.92 193.571C1186.8 192.71 1187.85 192.279 1189.1 192.279C1190.35 192.279 1191.41 192.71 1192.28 193.571C1193.15 194.432 1193.59 195.492 1193.59 196.75C1193.59 198.008 1193.15 199.068 1192.28 199.929ZM1189.1 199.776C1189.95 199.776 1190.67 199.487 1191.24 198.909C1191.82 198.331 1192.11 197.611 1192.11 196.75C1192.11 195.889 1191.82 195.169 1191.24 194.591C1190.67 194.013 1189.95 193.724 1189.1 193.724C1188.26 193.724 1187.55 194.013 1186.98 194.591C1186.4 195.169 1186.11 195.889 1186.11 196.75C1186.11 197.611 1186.4 198.331 1186.98 198.909C1187.55 199.487 1188.26 199.776 1189.1 199.776ZM1202.51 199.929C1201.63 200.79 1200.57 201.221 1199.33 201.221C1198.08 201.221 1197.02 200.79 1196.15 199.929C1195.29 199.068 1194.86 198.008 1194.86 196.75C1194.86 195.492 1195.29 194.432 1196.15 193.571C1197.02 192.71 1198.08 192.279 1199.33 192.279C1200.57 192.279 1201.63 192.71 1202.51 193.571C1203.38 194.432 1203.82 195.492 1203.82 196.75C1203.82 198.008 1203.38 199.068 1202.51 199.929ZM1199.33 199.776C1200.18 199.776 1200.89 199.487 1201.47 198.909C1202.05 198.331 1202.34 197.611 1202.34 196.75C1202.34 195.889 1202.05 195.169 1201.47 194.591C1200.89 194.013 1200.18 193.724 1199.33 193.724C1198.49 193.724 1197.78 194.013 1197.2 194.591C1196.62 195.169 1196.34 195.889 1196.34 196.75C1196.34 197.611 1196.62 198.331 1197.2 198.909C1197.78 199.487 1198.49 199.776 1199.33 199.776ZM1212.75 201H1210.91L1207.04 196.971V201H1205.56V189.1H1207.04V196.257L1210.71 192.5H1212.61L1208.55 196.614L1212.75 201ZM1214.87 190.953C1214.59 190.953 1214.35 190.857 1214.16 190.664C1213.97 190.471 1213.87 190.239 1213.87 189.967C1213.87 189.695 1213.97 189.463 1214.16 189.27C1214.35 189.066 1214.59 188.964 1214.87 188.964C1215.15 188.964 1215.38 189.066 1215.57 189.27C1215.76 189.463 1215.86 189.695 1215.86 189.967C1215.86 190.239 1215.76 190.471 1215.57 190.664C1215.38 190.857 1215.15 190.953 1214.87 190.953ZM1214.13 201V192.5H1215.6V201H1214.13ZM1222.09 192.279C1223.09 192.279 1223.89 192.596 1224.49 193.231C1225.09 193.854 1225.39 194.704 1225.39 195.781V201H1223.91V195.866C1223.91 195.175 1223.73 194.642 1223.35 194.268C1222.98 193.883 1222.46 193.69 1221.81 193.69C1221.07 193.69 1220.47 193.922 1220.02 194.387C1219.57 194.84 1219.34 195.543 1219.34 196.495V201H1217.86V192.5H1219.34V193.724C1219.94 192.761 1220.86 192.279 1222.09 192.279ZM1234.51 192.5H1235.97V200.643C1235.97 201.901 1235.55 202.876 1234.7 203.567C1233.85 204.27 1232.83 204.621 1231.64 204.621C1230.69 204.621 1229.87 204.44 1229.17 204.077C1228.48 203.726 1227.96 203.216 1227.61 202.547L1228.9 201.816C1229.37 202.768 1230.29 203.244 1231.67 203.244C1232.56 203.244 1233.25 203.012 1233.75 202.547C1234.26 202.082 1234.51 201.448 1234.51 200.643V199.436C1233.76 200.569 1232.7 201.136 1231.32 201.136C1230.1 201.136 1229.08 200.705 1228.24 199.844C1227.4 198.983 1226.98 197.934 1226.98 196.699C1226.98 195.464 1227.4 194.421 1228.24 193.571C1229.08 192.71 1230.1 192.279 1231.32 192.279C1232.71 192.279 1233.78 192.84 1234.51 193.962V192.5ZM1229.33 198.858C1229.9 199.436 1230.62 199.725 1231.49 199.725C1232.35 199.725 1233.07 199.436 1233.64 198.858C1234.22 198.28 1234.51 197.56 1234.51 196.699C1234.51 195.849 1234.22 195.135 1233.64 194.557C1233.07 193.979 1232.35 193.69 1231.49 193.69C1230.62 193.69 1229.9 193.979 1229.33 194.557C1228.75 195.135 1228.46 195.849 1228.46 196.699C1228.46 197.56 1228.75 198.28 1229.33 198.858Z" fill="#41415A"/>
</g>
<g filter="url(#filter4_d_2309_270)">
<rect x="1189.5" y="289" width="126" height="64" rx="8" fill="white" shape-rendering="crispEdges"/>
<rect x="1189.5" y="289" width="126" height="64" rx="8" stroke="#CCDBFD" stroke-width="0.5" shape-rendering="crispEdges"/>
<rect x="1206.5" y="301.5" width="39" height="39" rx="19.5" fill="#F50064"/>
<rect x="1206.5" y="301.5" width="39" height="39" rx="19.5" stroke="#CCDBFD" stroke-width="4"/>
<path d="M1229.5 311L1226.5 315H1234.5L1229.5 311ZM1226.5 316L1231.5 331L1236.5 326L1229.5 316H1226.5ZM1218.5 318L1220.5 322H1227.5L1226.69 319.594L1218.5 318ZM1216.5 323L1222.5 331H1230.5L1227.81 323H1216.5Z" fill="white"/>
<path d="M1266.37 327.221C1264.57 327.221 1263.08 326.626 1261.9 325.436C1260.73 324.246 1260.15 322.784 1260.15 321.05C1260.15 319.316 1260.73 317.854 1261.9 316.664C1263.08 315.474 1264.57 314.879 1266.37 314.879C1267.46 314.879 1268.45 315.14 1269.36 315.661C1270.28 316.182 1270.99 316.885 1271.5 317.769L1270.12 318.568C1269.79 317.911 1269.28 317.389 1268.6 317.004C1267.93 316.607 1267.18 316.409 1266.37 316.409C1265 316.409 1263.87 316.851 1263 317.735C1262.14 318.619 1261.71 319.724 1261.71 321.05C1261.71 322.365 1262.14 323.464 1263 324.348C1263.87 325.232 1265 325.674 1266.37 325.674C1267.18 325.674 1267.93 325.481 1268.6 325.096C1269.28 324.699 1269.79 324.178 1270.12 323.532L1271.5 324.314C1271 325.198 1270.3 325.906 1269.38 326.439C1268.46 326.96 1267.46 327.221 1266.37 327.221ZM1274.67 319.928C1275.16 318.874 1276.04 318.347 1277.32 318.347V319.894C1276.6 319.86 1275.97 320.053 1275.45 320.472C1274.93 320.891 1274.67 321.566 1274.67 322.495V327H1273.19V318.5H1274.67V319.928ZM1285.34 318.5H1286.82V327H1285.34V325.538C1284.6 326.66 1283.53 327.221 1282.13 327.221C1280.94 327.221 1279.92 326.79 1279.08 325.929C1278.25 325.056 1277.83 323.997 1277.83 322.75C1277.83 321.503 1278.25 320.449 1279.08 319.588C1279.92 318.715 1280.94 318.279 1282.13 318.279C1283.53 318.279 1284.6 318.84 1285.34 319.962V318.5ZM1282.31 325.793C1283.18 325.793 1283.9 325.504 1284.47 324.926C1285.05 324.337 1285.34 323.611 1285.34 322.75C1285.34 321.889 1285.05 321.169 1284.47 320.591C1283.9 320.002 1283.18 319.707 1282.31 319.707C1281.46 319.707 1280.75 320.002 1280.17 320.591C1279.59 321.169 1279.31 321.889 1279.31 322.75C1279.31 323.611 1279.59 324.337 1280.17 324.926C1280.75 325.504 1281.46 325.793 1282.31 325.793ZM1293.43 316.307C1291.93 316.182 1291.19 316.828 1291.19 318.245V318.5H1293.43V319.928H1291.19V327H1289.71V319.928H1288.35V318.5H1289.71V318.245C1289.71 317.1 1290.02 316.233 1290.66 315.644C1291.3 315.055 1292.23 314.8 1293.43 314.879V316.307ZM1299.5 319.928H1297.23V324.535C1297.23 324.954 1297.31 325.255 1297.47 325.436C1297.64 325.606 1297.9 325.697 1298.24 325.708C1298.58 325.708 1299 325.697 1299.5 325.674V327C1298.2 327.17 1297.26 327.068 1296.66 326.694C1296.06 326.309 1295.76 325.589 1295.76 324.535V319.928H1294.07V318.5H1295.76V316.562L1297.23 316.12V318.5H1299.5V319.928Z" fill="#41415A"/>
</g>
<g filter="url(#filter5_d_2309_270)">
<rect x="123.5" y="335" width="117" height="64" rx="8" fill="white" shape-rendering="crispEdges"/>
<rect x="123.5" y="335" width="117" height="64" rx="8" stroke="#CCDBFD" stroke-width="0.5" shape-rendering="crispEdges"/>
<rect x="140.5" y="347.5" width="39" height="39" rx="19.5" fill="#F50064"/>
<rect x="140.5" y="347.5" width="39" height="39" rx="19.5" stroke="#CCDBFD" stroke-width="4"/>
<path d="M160 357C156.867 357 153 358.047 153 369V371.5C153 372.324 152.324 373 151.5 373C151.066 373 150.68 372.824 150.406 372.531C150.156 372.969 150 373.457 150 374C150 375.656 151.344 377 153 377C154.656 377 156 375.656 156 374V365.562L162 361L164 363.188V374C164 375.656 165.344 377 167 377C168.656 377 170 375.656 170 374C170 373.457 169.844 372.969 169.594 372.531C169.32 372.824 168.934 373 168.5 373C167.676 373 167 372.324 167 371.5V366C166.922 362.598 166.406 358 162 358L161 357H160Z" fill="white"/>
<path d="M202.136 361.1H203.7V373H202.136V367.645H196.356V373H194.775V361.1H196.356V366.149H202.136V361.1ZM213.132 364.5H214.611V373H213.132V371.538C212.395 372.66 211.324 373.221 209.919 373.221C208.729 373.221 207.714 372.79 206.876 371.929C206.037 371.056 205.618 369.997 205.618 368.75C205.618 367.503 206.037 366.449 206.876 365.588C207.714 364.715 208.729 364.279 209.919 364.279C211.324 364.279 212.395 364.84 213.132 365.962V364.5ZM210.106 371.793C210.967 371.793 211.687 371.504 212.265 370.926C212.843 370.337 213.132 369.611 213.132 368.75C213.132 367.889 212.843 367.169 212.265 366.591C211.687 366.002 210.967 365.707 210.106 365.707C209.256 365.707 208.542 366.002 207.964 366.591C207.386 367.169 207.097 367.889 207.097 368.75C207.097 369.611 207.386 370.337 207.964 370.926C208.542 371.504 209.256 371.793 210.106 371.793ZM217.599 362.953C217.316 362.953 217.078 362.857 216.885 362.664C216.693 362.471 216.596 362.239 216.596 361.967C216.596 361.695 216.693 361.463 216.885 361.27C217.078 361.066 217.316 360.964 217.599 360.964C217.871 360.964 218.104 361.066 218.296 361.27C218.489 361.463 218.585 361.695 218.585 361.967C218.585 362.239 218.489 362.471 218.296 362.664C218.104 362.857 217.871 362.953 217.599 362.953ZM216.851 373V364.5H218.33V373H216.851ZM222.066 365.928C222.553 364.874 223.437 364.347 224.718 364.347V365.894C223.993 365.86 223.369 366.053 222.848 366.472C222.327 366.891 222.066 367.566 222.066 368.495V373H220.587V364.5H222.066V365.928Z" fill="#41415A"/>
</g>
<g filter="url(#filter6_d_2309_270)">
<rect x="55" y="571" width="127" height="64" rx="8" fill="white" shape-rendering="crispEdges"/>
<rect x="55" y="571" width="127" height="64" rx="8" stroke="#CCDBFD" stroke-width="0.5" shape-rendering="crispEdges"/>
<rect x="72" y="583.5" width="39" height="39" rx="19.5" fill="#F50064"/>
<rect x="72" y="583.5" width="39" height="39" rx="19.5" stroke="#CCDBFD" stroke-width="4"/>
<path d="M90.5007 593V594.312C90.5007 594.711 90.0866 594.988 89.6882 595.188L87.1882 595.812C86.6882 595.914 86.3991 596.5 86.5007 597L86.9069 598.594C87.5085 600.992 90.5007 601 91.5007 600C91.5007 600 90.5007 603 87.5007 601L89.3132 604C89.4147 604.5 89.489 605.008 89.1882 605.406C87.489 607.906 87.5007 610 87.5007 610H97.5007C97.5007 610 97.5124 608 95.8132 605.5C95.5124 605.102 95.5866 604.492 95.6882 604.094L97.5007 601.094C94.5007 603.094 93.5007 600.094 93.5007 600.094C94.5007 601.094 97.4929 601.086 98.0944 598.688L98.5007 597C98.6022 596.5 98.3132 595.914 97.8132 595.812L95.0944 595.094C94.696 594.992 94.5007 594.711 94.5007 594.312V593H90.5007ZM90.5007 611V613H94.5007V611H90.5007Z" fill="white"/>
<path d="M133.891 597.1V598.596H130.372V609H128.808V598.596H125.306V597.1H133.891ZM140.797 600.5H142.276V609H140.797V607.538C140.06 608.66 138.989 609.221 137.584 609.221C136.394 609.221 135.379 608.79 134.541 607.929C133.702 607.056 133.283 605.997 133.283 604.75C133.283 603.503 133.702 602.449 134.541 601.588C135.379 600.715 136.394 600.279 137.584 600.279C138.989 600.279 140.06 600.84 140.797 601.962V600.5ZM137.771 607.793C138.632 607.793 139.352 607.504 139.93 606.926C140.508 606.337 140.797 605.611 140.797 604.75C140.797 603.889 140.508 603.169 139.93 602.591C139.352 602.002 138.632 601.707 137.771 601.707C136.921 601.707 136.207 602.002 135.629 602.591C135.051 603.169 134.762 603.889 134.762 604.75C134.762 605.611 135.051 606.337 135.629 606.926C136.207 607.504 136.921 607.793 137.771 607.793ZM145.265 598.953C144.981 598.953 144.743 598.857 144.551 598.664C144.358 598.471 144.262 598.239 144.262 597.967C144.262 597.695 144.358 597.463 144.551 597.27C144.743 597.066 144.981 596.964 145.265 596.964C145.537 596.964 145.769 597.066 145.962 597.27C146.154 597.463 146.251 597.695 146.251 597.967C146.251 598.239 146.154 598.471 145.962 598.664C145.769 598.857 145.537 598.953 145.265 598.953ZM144.517 609V600.5H145.996V609H144.517ZM148.252 609V596.59H149.731V609H148.252ZM159.161 607.929C158.289 608.79 157.229 609.221 155.982 609.221C154.736 609.221 153.676 608.79 152.803 607.929C151.942 607.068 151.511 606.008 151.511 604.75C151.511 603.492 151.942 602.432 152.803 601.571C153.676 600.71 154.736 600.279 155.982 600.279C157.229 600.279 158.289 600.71 159.161 601.571C160.034 602.432 160.47 603.492 160.47 604.75C160.47 606.008 160.034 607.068 159.161 607.929ZM155.982 607.776C156.832 607.776 157.546 607.487 158.124 606.909C158.702 606.331 158.991 605.611 158.991 604.75C158.991 603.889 158.702 603.169 158.124 602.591C157.546 602.013 156.832 601.724 155.982 601.724C155.144 601.724 154.435 602.013 153.857 602.591C153.279 603.169 152.99 603.889 152.99 604.75C152.99 605.611 153.279 606.331 153.857 606.909C154.435 607.487 155.144 607.776 155.982 607.776ZM163.693 601.928C164.18 600.874 165.064 600.347 166.345 600.347V601.894C165.619 601.86 164.996 602.053 164.475 602.472C163.953 602.891 163.693 603.566 163.693 604.495V609H162.214V600.5H163.693V601.928Z" fill="#41415A"/>
</g>
<g filter="url(#filter7_d_2309_270)">
<rect x="289.5" y="667" width="161" height="64" rx="8" fill="white" shape-rendering="crispEdges"/>
<rect x="289.5" y="667" width="161" height="64" rx="8" stroke="#CCDBFD" stroke-width="0.5" shape-rendering="crispEdges"/>
<rect x="306.5" y="679.5" width="39" height="39" rx="19.5" fill="#F50064"/>
<rect x="306.5" y="679.5" width="39" height="39" rx="19.5" stroke="#CCDBFD" stroke-width="4"/>
<path d="M334.979 696.88L336.549 695.83L335.449 694.17L333.599 695.4C333.319 694.409 332.888 693.047 332.407 691.856C331.952 690.727 330.846 690 329.629 690H322.369C321.152 690 320.046 690.727 319.591 691.856C319.11 693.047 318.679 694.409 318.399 695.4L316.549 694.17L315.449 695.83L317.019 696.89C316.389 697.24 315.999 697.89 315.999 698.62V706C315.999 706.552 316.447 707 316.999 707H318.999L318.989 705.4C320.479 705.65 322.439 706 325.999 706C329.559 706 331.519 705.65 333.009 705.4L332.999 707H334.999C335.549 707 335.999 706.55 335.999 706V698.62C335.999 697.89 335.609 697.24 334.979 696.88ZM321.439 692.62C321.599 692.24 321.959 692 322.369 692H329.629C330.039 692 330.399 692.24 330.559 692.62C331.009 693.73 331.419 695.06 331.689 696H320.309C320.579 695.06 320.989 693.74 321.439 692.62ZM327.109 700.69C326.529 701.07 325.999 702 325.999 702C325.999 702 325.469 701.07 324.889 700.69C324.319 700.3 319.999 700 319.999 700C321.029 698.89 325.999 699 325.999 699C325.999 699 330.969 698.89 331.999 700C331.999 700 327.679 700.3 327.109 700.69Z" fill="white"/>
<path d="M371.91 693.1V705H370.346V695.701L366.453 702.178H366.249L362.356 695.718V705H360.775V693.1H362.56L366.351 699.39L370.125 693.1H371.91ZM375.339 701.43C375.486 702.189 375.832 702.779 376.376 703.198C376.931 703.617 377.611 703.827 378.416 703.827C379.538 703.827 380.354 703.413 380.864 702.586L382.122 703.3C381.294 704.581 380.048 705.221 378.382 705.221C377.033 705.221 375.934 704.802 375.084 703.963C374.245 703.113 373.826 702.042 373.826 700.75C373.826 699.469 374.239 698.404 375.067 697.554C375.894 696.704 376.965 696.279 378.28 696.279C379.526 696.279 380.541 696.721 381.323 697.605C382.116 698.478 382.513 699.532 382.513 700.767C382.513 700.982 382.496 701.203 382.462 701.43H375.339ZM378.28 697.673C377.486 697.673 376.829 697.9 376.308 698.353C375.786 698.795 375.463 699.39 375.339 700.138H381.017C380.892 699.333 380.575 698.721 380.065 698.302C379.555 697.883 378.96 697.673 378.28 697.673ZM388.191 705.221C386.911 705.221 385.845 704.796 384.995 703.946C384.145 703.085 383.72 702.019 383.72 700.75C383.72 699.481 384.145 698.421 384.995 697.571C385.845 696.71 386.911 696.279 388.191 696.279C389.03 696.279 389.784 696.483 390.452 696.891C391.121 697.288 391.62 697.826 391.948 698.506L390.707 699.22C390.492 698.767 390.158 698.404 389.704 698.132C389.262 697.86 388.758 697.724 388.191 697.724C387.341 697.724 386.627 698.013 386.049 698.591C385.483 699.169 385.199 699.889 385.199 700.75C385.199 701.6 385.483 702.314 386.049 702.892C386.627 703.47 387.341 703.759 388.191 703.759C388.758 703.759 389.268 703.629 389.721 703.368C390.175 703.096 390.52 702.733 390.758 702.28L392.016 703.011C391.654 703.68 391.132 704.218 390.452 704.626C389.772 705.023 389.019 705.221 388.191 705.221ZM397.709 696.279C398.707 696.279 399.506 696.596 400.106 697.231C400.707 697.854 401.007 698.704 401.007 699.781V705H399.528V699.866C399.528 699.175 399.341 698.642 398.967 698.268C398.593 697.883 398.078 697.69 397.42 697.69C396.684 697.69 396.089 697.922 395.635 698.387C395.182 698.84 394.955 699.543 394.955 700.495V705H393.476V693.1H394.955V697.724C395.556 696.761 396.474 696.279 397.709 696.279ZM410.11 696.5H411.589V705H410.11V703.538C409.374 704.66 408.303 705.221 406.897 705.221C405.707 705.221 404.693 704.79 403.854 703.929C403.016 703.056 402.596 701.997 402.596 700.75C402.596 699.503 403.016 698.449 403.854 697.588C404.693 696.715 405.707 696.279 406.897 696.279C408.303 696.279 409.374 696.84 410.11 697.962V696.5ZM407.084 703.793C407.946 703.793 408.665 703.504 409.243 702.926C409.821 702.337 410.11 701.611 410.11 700.75C410.11 699.889 409.821 699.169 409.243 698.591C408.665 698.002 407.946 697.707 407.084 697.707C406.234 697.707 405.52 698.002 404.942 698.591C404.364 699.169 404.075 699.889 404.075 700.75C404.075 701.611 404.364 702.337 404.942 702.926C405.52 703.504 406.234 703.793 407.084 703.793ZM418.063 696.279C419.06 696.279 419.859 696.596 420.46 697.231C421.061 697.854 421.361 698.704 421.361 699.781V705H419.882V699.866C419.882 699.175 419.695 698.642 419.321 698.268C418.947 697.883 418.431 697.69 417.774 697.69C417.037 697.69 416.442 697.922 415.989 698.387C415.536 698.84 415.309 699.543 415.309 700.495V705H413.83V696.5H415.309V697.724C415.91 696.761 416.828 696.279 418.063 696.279ZM424.174 694.953C423.89 694.953 423.652 694.857 423.46 694.664C423.267 694.471 423.171 694.239 423.171 693.967C423.171 693.695 423.267 693.463 423.46 693.27C423.652 693.066 423.89 692.964 424.174 692.964C424.446 692.964 424.678 693.066 424.871 693.27C425.063 693.463 425.16 693.695 425.16 693.967C425.16 694.239 425.063 694.471 424.871 694.664C424.678 694.857 424.446 694.953 424.174 694.953ZM423.426 705V696.5H424.905V705H423.426ZM431.156 705.221C429.875 705.221 428.81 704.796 427.96 703.946C427.11 703.085 426.685 702.019 426.685 700.75C426.685 699.481 427.11 698.421 427.96 697.571C428.81 696.71 429.875 696.279 431.156 696.279C431.995 696.279 432.748 696.483 433.417 696.891C434.086 697.288 434.584 697.826 434.913 698.506L433.672 699.22C433.457 698.767 433.122 698.404 432.669 698.132C432.227 697.86 431.723 697.724 431.156 697.724C430.306 697.724 429.592 698.013 429.014 698.591C428.447 699.169 428.164 699.889 428.164 700.75C428.164 701.6 428.447 702.314 429.014 702.892C429.592 703.47 430.306 703.759 431.156 703.759C431.723 703.759 432.233 703.629 432.686 703.368C433.139 703.096 433.485 702.733 433.723 702.28L434.981 703.011C434.618 703.68 434.097 704.218 433.417 704.626C432.737 705.023 431.983 705.221 431.156 705.221Z" fill="#41415A"/>
</g>
<g filter="url(#filter8_d_2309_270)">
<rect x="1139.5" y="415" width="132" height="64" rx="8" fill="white" shape-rendering="crispEdges"/>
<rect x="1139.5" y="415" width="132" height="64" rx="8" stroke="#CCDBFD" stroke-width="0.5" shape-rendering="crispEdges"/>
<rect x="1156.5" y="427.5" width="39" height="39" rx="19.5" fill="#F50064"/>
<rect x="1156.5" y="427.5" width="39" height="39" rx="19.5" stroke="#CCDBFD" stroke-width="4"/>
<path d="M1170 438V440.549C1170 442.96 1170.48 445.346 1171.42 447.568L1171.91 448.738L1171.04 450.816C1170.5 450.315 1169.79 450 1169 450C1167.35 450 1166 451.355 1166 453C1166 454.645 1167.35 456 1169 456C1170.32 456 1171.43 455.128 1171.83 453.939L1171.88 453.961L1173 451.309L1174.12 453.961L1174.17 453.939C1174.57 455.128 1175.68 456 1177 456C1178.65 456 1180 454.645 1180 453C1180 451.355 1178.65 450 1177 450C1176.21 450 1175.5 450.315 1174.96 450.816L1174.09 448.736L1174.58 447.568C1175.52 445.346 1176 442.96 1176 440.549V438H1174V440.549C1174 442.436 1173.65 444.299 1173 446.066C1172.35 444.299 1172 442.436 1172 440.549V438H1170ZM1180 438V440H1184V441H1180V443H1184V444H1180V446H1184V447H1180V449H1184V456H1186V440C1186 438.907 1185.09 438 1184 438H1180ZM1169 452C1169.56 452 1170 452.436 1170 453C1170 453.564 1169.56 454 1169 454C1168.44 454 1168 453.564 1168 453C1168 452.436 1168.44 452 1169 452ZM1177 452C1177.56 452 1178 452.436 1178 453C1178 453.564 1177.56 454 1177 454C1176.44 454 1176 453.564 1176 453C1176 452.436 1176.44 452 1177 452Z" fill="white"/>
<path d="M1214.62 453.221C1213.51 453.221 1212.55 452.96 1211.76 452.439C1210.98 451.918 1210.43 451.204 1210.11 450.297L1211.47 449.515C1211.94 450.954 1213 451.674 1214.65 451.674C1215.47 451.674 1216.09 451.51 1216.52 451.181C1216.95 450.841 1217.17 450.393 1217.17 449.838C1217.17 449.271 1216.95 448.846 1216.52 448.563C1216.09 448.28 1215.37 447.979 1214.36 447.662C1213.86 447.503 1213.48 447.379 1213.22 447.288C1212.96 447.186 1212.63 447.039 1212.24 446.846C1211.85 446.642 1211.56 446.438 1211.37 446.234C1211.18 446.019 1211 445.741 1210.84 445.401C1210.7 445.061 1210.62 444.676 1210.62 444.245C1210.62 443.214 1210.98 442.398 1211.71 441.797C1212.44 441.185 1213.32 440.879 1214.36 440.879C1215.3 440.879 1216.12 441.117 1216.81 441.593C1217.51 442.069 1218.04 442.698 1218.39 443.48L1217.07 444.245C1216.56 443.021 1215.65 442.409 1214.36 442.409C1213.72 442.409 1213.19 442.568 1212.8 442.885C1212.4 443.202 1212.2 443.633 1212.2 444.177C1212.2 444.698 1212.39 445.095 1212.76 445.367C1213.14 445.639 1213.78 445.922 1214.7 446.217C1215.03 446.319 1215.26 446.393 1215.4 446.438C1215.54 446.483 1215.74 446.563 1216.03 446.676C1216.32 446.789 1216.54 446.88 1216.67 446.948C1216.81 447.016 1216.99 447.112 1217.22 447.237C1217.46 447.362 1217.63 447.481 1217.75 447.594C1217.86 447.707 1217.99 447.849 1218.14 448.019C1218.29 448.178 1218.41 448.342 1218.48 448.512C1218.54 448.682 1218.6 448.88 1218.65 449.107C1218.7 449.322 1218.73 449.555 1218.73 449.804C1218.73 450.847 1218.35 451.68 1217.59 452.303C1216.83 452.915 1215.84 453.221 1214.62 453.221ZM1224.83 445.928H1222.56V450.535C1222.56 450.954 1222.64 451.255 1222.8 451.436C1222.97 451.606 1223.23 451.697 1223.57 451.708C1223.91 451.708 1224.33 451.697 1224.83 451.674V453C1223.53 453.17 1222.59 453.068 1221.99 452.694C1221.39 452.309 1221.09 451.589 1221.09 450.535V445.928H1219.4V444.5H1221.09V442.562L1222.56 442.12V444.5H1224.83V445.928ZM1232.69 444.5H1234.27L1230.8 453.527C1230.44 454.49 1229.93 455.221 1229.27 455.72C1228.63 456.23 1227.88 456.457 1227.03 456.4V455.023C1228.07 455.102 1228.84 454.524 1229.33 453.289L1229.48 452.966L1225.77 444.5H1227.35L1230.24 451.164L1232.69 444.5ZM1235.51 453V440.59H1236.99V453H1235.51ZM1239.99 442.953C1239.71 442.953 1239.47 442.857 1239.28 442.664C1239.08 442.471 1238.99 442.239 1238.99 441.967C1238.99 441.695 1239.08 441.463 1239.28 441.27C1239.47 441.066 1239.71 440.964 1239.99 440.964C1240.26 440.964 1240.5 441.066 1240.69 441.27C1240.88 441.463 1240.98 441.695 1240.98 441.967C1240.98 442.239 1240.88 442.471 1240.69 442.664C1240.5 442.857 1240.26 442.953 1239.99 442.953ZM1239.24 453V444.5H1240.72V453H1239.24ZM1244.24 446.795C1244.24 447.124 1244.4 447.39 1244.73 447.594C1245.06 447.787 1245.46 447.945 1245.92 448.07C1246.38 448.183 1246.85 448.319 1247.31 448.478C1247.78 448.625 1248.18 448.886 1248.5 449.26C1248.83 449.623 1249 450.093 1249 450.671C1249 451.442 1248.7 452.059 1248.1 452.524C1247.51 452.989 1246.75 453.221 1245.82 453.221C1244.99 453.221 1244.28 453.04 1243.69 452.677C1243.1 452.314 1242.68 451.833 1242.43 451.232L1243.71 450.501C1243.85 450.909 1244.1 451.232 1244.47 451.47C1244.85 451.708 1245.3 451.827 1245.82 451.827C1246.31 451.827 1246.71 451.736 1247.02 451.555C1247.34 451.362 1247.5 451.068 1247.5 450.671C1247.5 450.342 1247.34 450.082 1247.01 449.889C1246.68 449.685 1246.28 449.526 1245.82 449.413C1245.35 449.288 1244.89 449.147 1244.42 448.988C1243.96 448.829 1243.56 448.569 1243.23 448.206C1242.91 447.843 1242.74 447.379 1242.74 446.812C1242.74 446.075 1243.02 445.469 1243.59 444.993C1244.17 444.517 1244.89 444.279 1245.75 444.279C1246.44 444.279 1247.05 444.438 1247.59 444.755C1248.13 445.061 1248.54 445.492 1248.81 446.047L1247.57 446.744C1247.26 446.019 1246.66 445.656 1245.75 445.656C1245.33 445.656 1244.97 445.758 1244.68 445.962C1244.38 446.155 1244.24 446.432 1244.24 446.795ZM1255.04 445.928H1252.78V450.535C1252.78 450.954 1252.86 451.255 1253.02 451.436C1253.19 451.606 1253.44 451.697 1253.78 451.708C1254.12 451.708 1254.54 451.697 1255.04 451.674V453C1253.75 453.17 1252.8 453.068 1252.2 452.694C1251.6 452.309 1251.3 451.589 1251.3 450.535V445.928H1249.62V444.5H1251.3V442.562L1252.78 442.12V444.5H1255.04V445.928Z" fill="#41415A"/>
</g>
<g filter="url(#filter9_d_2309_270)">
<rect x="1189.5" y="594" width="144" height="64" rx="8" fill="white" shape-rendering="crispEdges"/>
<rect x="1189.5" y="594" width="144" height="64" rx="8" stroke="#CCDBFD" stroke-width="0.5" shape-rendering="crispEdges"/>
<rect x="1206.5" y="606.5" width="39" height="39" rx="19.5" fill="#F50064"/>
<rect x="1206.5" y="606.5" width="39" height="39" rx="19.5" stroke="#CCDBFD" stroke-width="4"/>
<path d="M1221 617L1222.79 618.793L1217 624.586L1218.41 626L1224.21 620.207L1226 622V617H1221ZM1231 617V618.199C1230 618.499 1229 619.4 1229 621C1229 622.9 1230.6 623.5 1231.6 623.9C1232.8 624.4 1233 624.5 1233 625C1233 625.5 1232.8 626 1232 626C1231.2 626 1231 625.5 1231 625H1229C1229 626 1229.6 627.401 1231 627.801V629H1233V627.801C1234.4 627.401 1235 626 1235 625C1235 623.1 1233.4 622.5 1232.4 622.1C1231.2 621.6 1231 621.5 1231 621C1231 620.2 1231.5 620 1232 620C1232.8 620 1233 620.5 1233 621H1234H1235C1235 620 1234.4 618.599 1233 618.199V617H1231ZM1225 627V635H1227V627H1225ZM1221 629V635H1223V629H1221ZM1217 631V635H1219V631H1217ZM1229 631V635H1231V631H1229ZM1233 631V635H1235V631H1233Z" fill="white"/>
<path d="M1268.39 620.1V621.596H1264.87V632H1263.31V621.596H1259.81V620.1H1268.39ZM1270.12 624.928C1270.61 623.874 1271.49 623.347 1272.77 623.347V624.894C1272.05 624.86 1271.42 625.053 1270.9 625.472C1270.38 625.891 1270.12 626.566 1270.12 627.495V632H1268.64V623.5H1270.12V624.928ZM1280.79 623.5H1282.27V632H1280.79V630.538C1280.06 631.66 1278.98 632.221 1277.58 632.221C1276.39 632.221 1275.37 631.79 1274.54 630.929C1273.7 630.056 1273.28 628.997 1273.28 627.75C1273.28 626.503 1273.7 625.449 1274.54 624.588C1275.37 623.715 1276.39 623.279 1277.58 623.279C1278.98 623.279 1280.06 623.84 1280.79 624.962V623.5ZM1277.77 630.793C1278.63 630.793 1279.35 630.504 1279.92 629.926C1280.5 629.337 1280.79 628.611 1280.79 627.75C1280.79 626.889 1280.5 626.169 1279.92 625.591C1279.35 625.002 1278.63 624.707 1277.77 624.707C1276.92 624.707 1276.2 625.002 1275.62 625.591C1275.05 626.169 1274.76 626.889 1274.76 627.75C1274.76 628.611 1275.05 629.337 1275.62 629.926C1276.2 630.504 1276.92 630.793 1277.77 630.793ZM1291.55 620.1H1293.03V632H1291.55V630.538C1290.81 631.66 1289.74 632.221 1288.34 632.221C1287.15 632.221 1286.13 631.79 1285.29 630.929C1284.45 630.056 1284.04 628.997 1284.04 627.75C1284.04 626.503 1284.45 625.449 1285.29 624.588C1286.13 623.715 1287.15 623.279 1288.34 623.279C1289.74 623.279 1290.81 623.84 1291.55 624.962V620.1ZM1288.52 630.793C1289.38 630.793 1290.1 630.504 1290.68 629.926C1291.26 629.337 1291.55 628.611 1291.55 627.75C1291.55 626.889 1291.26 626.169 1290.68 625.591C1290.1 625.002 1289.38 624.707 1288.52 624.707C1287.67 624.707 1286.96 625.002 1286.38 625.591C1285.8 626.169 1285.51 626.889 1285.51 627.75C1285.51 628.611 1285.8 629.337 1286.38 629.926C1286.96 630.504 1287.67 630.793 1288.52 630.793ZM1296.02 621.953C1295.73 621.953 1295.5 621.857 1295.3 621.664C1295.11 621.471 1295.01 621.239 1295.01 620.967C1295.01 620.695 1295.11 620.463 1295.3 620.27C1295.5 620.066 1295.73 619.964 1296.02 619.964C1296.29 619.964 1296.52 620.066 1296.71 620.27C1296.91 620.463 1297 620.695 1297 620.967C1297 621.239 1296.91 621.471 1296.71 621.664C1296.52 621.857 1296.29 621.953 1296.02 621.953ZM1295.27 632V623.5H1296.75V632H1295.27ZM1303.24 623.279C1304.24 623.279 1305.03 623.596 1305.63 624.231C1306.24 624.854 1306.54 625.704 1306.54 626.781V632H1305.06V626.866C1305.06 626.175 1304.87 625.642 1304.5 625.268C1304.12 624.883 1303.61 624.69 1302.95 624.69C1302.21 624.69 1301.62 624.922 1301.16 625.387C1300.71 625.84 1300.48 626.543 1300.48 627.495V632H1299V623.5H1300.48V624.724C1301.08 623.761 1302 623.279 1303.24 623.279ZM1315.66 623.5H1317.12V631.643C1317.12 632.901 1316.69 633.876 1315.84 634.567C1314.99 635.27 1313.97 635.621 1312.78 635.621C1311.83 635.621 1311.01 635.44 1310.32 635.077C1309.63 634.726 1309.1 634.216 1308.75 633.547L1310.05 632.816C1310.51 633.768 1311.43 634.244 1312.82 634.244C1313.7 634.244 1314.39 634.012 1314.89 633.547C1315.4 633.082 1315.66 632.448 1315.66 631.643V630.436C1314.91 631.569 1313.84 632.136 1312.46 632.136C1311.25 632.136 1310.22 631.705 1309.38 630.844C1308.54 629.983 1308.12 628.934 1308.12 627.699C1308.12 626.464 1308.54 625.421 1309.38 624.571C1310.22 623.71 1311.25 623.279 1312.46 623.279C1313.85 623.279 1314.92 623.84 1315.66 624.962V623.5ZM1310.47 629.858C1311.05 630.436 1311.77 630.725 1312.63 630.725C1313.49 630.725 1314.21 630.436 1314.79 629.858C1315.37 629.28 1315.66 628.56 1315.66 627.699C1315.66 626.849 1315.37 626.135 1314.79 625.557C1314.21 624.979 1313.49 624.69 1312.63 624.69C1311.77 624.69 1311.05 624.979 1310.47 625.557C1309.89 626.135 1309.6 626.849 1309.6 627.699C1309.6 628.56 1309.89 629.28 1310.47 629.858Z" fill="#41415A"/>
</g>
<g filter="url(#filter10_d_2309_270)">
<rect x="694.5" y="757" width="197" height="64" rx="8" fill="white" shape-rendering="crispEdges"/>
<rect x="694.5" y="757" width="197" height="64" rx="8" stroke="#CCDBFD" stroke-width="0.5" shape-rendering="crispEdges"/>
<rect x="711.5" y="769.5" width="39" height="39" rx="19.5" fill="#F50064"/>
<rect x="711.5" y="769.5" width="39" height="39" rx="19.5" stroke="#CCDBFD" stroke-width="4"/>
<path d="M730.5 779C728.496 779 726.652 779.602 725.281 780.656C723.91 781.711 723 783.27 723 785C723 786.73 723.91 788.289 725.281 789.344C725.418 789.449 725.543 789.562 725.688 789.656C725.387 789.75 725.086 789.828 724.812 789.938C724.051 790.242 723.391 790.605 722.875 791.094C722.359 791.582 721.969 792.242 721.969 793C721.969 793.094 721.988 793.191 722 793.281V794.938C722 796.562 724.516 799 730.5 799C736.484 799 739 796.523 739 794.938V793.281C739.012 793.191 739.031 793.094 739.031 793C739.031 792.242 738.641 791.582 738.125 791.094C737.609 790.605 736.949 790.242 736.188 789.938C735.914 789.828 735.613 789.75 735.312 789.656C735.457 789.562 735.582 789.449 735.719 789.344C737.09 788.289 738 786.73 738 785C738 783.27 737.09 781.711 735.719 780.656C734.348 779.602 732.504 779 730.5 779ZM730.5 781C732.086 781 733.52 781.496 734.5 782.25C735.48 783.004 736 783.969 736 785C736 786.031 735.48 786.996 734.5 787.75C733.57 788.465 732.234 788.918 730.75 788.969C730.664 788.969 730.586 788.969 730.5 788.969C730.414 788.969 730.336 788.969 730.25 788.969C728.766 788.918 727.43 788.465 726.5 787.75C725.52 786.996 725 786.031 725 785C725 783.969 725.52 783.004 726.5 782.25C727.48 781.496 728.914 781 730.5 781ZM730.688 783L728 783.875L728.312 784.812L731 783.938L730.688 783ZM732.688 785L730 785.875L730.312 786.812L733 785.938L732.688 785ZM730.5 791.031C732.461 791.031 734.246 791.367 735.438 791.844C736.031 792.082 736.473 792.332 736.719 792.562C736.965 792.793 736.969 792.93 736.969 793C736.969 793.07 736.965 793.207 736.719 793.438C736.473 793.668 736.031 793.918 735.438 794.156C734.246 794.633 732.461 794.969 730.5 794.969C728.539 794.969 726.754 794.633 725.562 794.156C724.969 793.918 724.527 793.668 724.281 793.438C724.035 793.207 724.031 793.07 724.031 793C724.031 792.93 724.035 792.793 724.281 792.562C724.527 792.332 724.969 792.082 725.562 791.844C726.754 791.367 728.539 791.031 730.5 791.031ZM730.5 792C728.016 792 726 792.449 726 793C726 793.551 728.016 794 730.5 794C732.984 794 735 793.551 735 793C735 792.449 732.984 792 730.5 792Z" fill="white"/>
<path d="M776.91 783.1V795H775.346V785.701L771.453 792.178H771.249L767.356 785.718V795H765.775V783.1H767.56L771.351 789.39L775.125 783.1H776.91ZM786.34 786.5H787.819V795H786.34V793.538C785.603 794.66 784.532 795.221 783.127 795.221C781.937 795.221 780.922 794.79 780.084 793.929C779.245 793.056 778.826 791.997 778.826 790.75C778.826 789.503 779.245 788.449 780.084 787.588C780.922 786.715 781.937 786.279 783.127 786.279C784.532 786.279 785.603 786.84 786.34 787.962V786.5ZM783.314 793.793C784.175 793.793 784.895 793.504 785.473 792.926C786.051 792.337 786.34 791.611 786.34 790.75C786.34 789.889 786.051 789.169 785.473 788.591C784.895 788.002 784.175 787.707 783.314 787.707C782.464 787.707 781.75 788.002 781.172 788.591C780.594 789.169 780.305 789.889 780.305 790.75C780.305 791.611 780.594 792.337 781.172 792.926C781.75 793.504 782.464 793.793 783.314 793.793ZM797.251 795H795.415L791.539 790.971V795H790.059V783.1H791.539V790.257L795.211 786.5H797.115L793.052 790.614L797.251 795ZM798.883 791.43C799.03 792.189 799.376 792.779 799.92 793.198C800.475 793.617 801.155 793.827 801.96 793.827C803.082 793.827 803.898 793.413 804.408 792.586L805.666 793.3C804.838 794.581 803.592 795.221 801.926 795.221C800.577 795.221 799.478 794.802 798.628 793.963C797.789 793.113 797.37 792.042 797.37 790.75C797.37 789.469 797.783 788.404 798.611 787.554C799.438 786.704 800.509 786.279 801.824 786.279C803.07 786.279 804.085 786.721 804.867 787.605C805.66 788.478 806.057 789.532 806.057 790.767C806.057 790.982 806.04 791.203 806.006 791.43H798.883ZM801.824 787.673C801.03 787.673 800.373 787.9 799.852 788.353C799.33 788.795 799.007 789.39 798.883 790.138H804.561C804.436 789.333 804.119 788.721 803.609 788.302C803.099 787.883 802.504 787.673 801.824 787.673ZM813.622 786.5H815.101V795H813.622V793.776C813.021 794.739 812.103 795.221 810.868 795.221C809.87 795.221 809.071 794.909 808.471 794.286C807.87 793.651 807.57 792.796 807.57 791.719V786.5H809.049V791.634C809.049 792.325 809.236 792.864 809.61 793.249C809.984 793.623 810.499 793.81 811.157 793.81C811.893 793.81 812.488 793.583 812.942 793.13C813.395 792.665 813.622 791.957 813.622 791.005V786.5ZM822.044 786.279C823.234 786.279 824.249 786.715 825.087 787.588C825.926 788.449 826.345 789.503 826.345 790.75C826.345 791.997 825.926 793.056 825.087 793.929C824.249 794.79 823.234 795.221 822.044 795.221C820.639 795.221 819.568 794.66 818.831 793.538V798.4H817.352V786.5H818.831V787.962C819.568 786.84 820.639 786.279 822.044 786.279ZM821.857 793.793C822.707 793.793 823.421 793.504 823.999 792.926C824.577 792.337 824.866 791.611 824.866 790.75C824.866 789.889 824.577 789.169 823.999 788.591C823.421 788.002 822.707 787.707 821.857 787.707C820.996 787.707 820.276 788.002 819.698 788.591C819.12 789.169 818.831 789.889 818.831 790.75C818.831 791.611 819.12 792.337 819.698 792.926C820.276 793.504 820.996 793.793 821.857 793.793ZM828.263 790.495V789.067H834.468V790.495H828.263ZM844.318 795L843.349 792.331H837.994L837.025 795H835.342L839.779 783.1H841.564L846.001 795H844.318ZM838.538 790.852H842.805L840.663 784.987L838.538 790.852ZM848.731 787.928C849.218 786.874 850.102 786.347 851.383 786.347V787.894C850.658 787.86 850.034 788.053 849.513 788.472C848.992 788.891 848.731 789.566 848.731 790.495V795H847.252V786.5H848.731V787.928ZM857.653 787.928H855.392V792.535C855.392 792.954 855.472 793.255 855.63 793.436C855.8 793.606 856.055 793.697 856.395 793.708C856.735 793.708 857.155 793.697 857.653 793.674V795C856.361 795.17 855.415 795.068 854.814 794.694C854.214 794.309 853.913 793.589 853.913 792.535V787.928H852.23V786.5H853.913V784.562L855.392 784.12V786.5H857.653V787.928ZM860.152 784.953C859.869 784.953 859.631 784.857 859.438 784.664C859.246 784.471 859.149 784.239 859.149 783.967C859.149 783.695 859.246 783.463 859.438 783.27C859.631 783.066 859.869 782.964 860.152 782.964C860.424 782.964 860.657 783.066 860.849 783.27C861.042 783.463 861.138 783.695 861.138 783.967C861.138 784.239 861.042 784.471 860.849 784.664C860.657 784.857 860.424 784.953 860.152 784.953ZM859.404 795V786.5H860.883V795H859.404ZM864.398 788.795C864.398 789.124 864.562 789.39 864.891 789.594C865.22 789.787 865.616 789.945 866.081 790.07C866.546 790.183 867.01 790.319 867.475 790.478C867.94 790.625 868.336 790.886 868.665 791.26C868.994 791.623 869.158 792.093 869.158 792.671C869.158 793.442 868.858 794.059 868.257 794.524C867.668 794.989 866.908 795.221 865.979 795.221C865.152 795.221 864.443 795.04 863.854 794.677C863.265 794.314 862.845 793.833 862.596 793.232L863.871 792.501C864.007 792.909 864.262 793.232 864.636 793.47C865.01 793.708 865.458 793.827 865.979 793.827C866.466 793.827 866.869 793.736 867.186 793.555C867.503 793.362 867.662 793.068 867.662 792.671C867.662 792.342 867.498 792.082 867.169 791.889C866.84 791.685 866.444 791.526 865.979 791.413C865.514 791.288 865.05 791.147 864.585 790.988C864.12 790.829 863.724 790.569 863.395 790.206C863.066 789.843 862.902 789.379 862.902 788.812C862.902 788.075 863.185 787.469 863.752 786.993C864.33 786.517 865.05 786.279 865.911 786.279C866.602 786.279 867.214 786.438 867.747 786.755C868.291 787.061 868.699 787.492 868.971 788.047L867.73 788.744C867.424 788.019 866.818 787.656 865.911 787.656C865.492 787.656 865.135 787.758 864.84 787.962C864.545 788.155 864.398 788.432 864.398 788.795ZM875.201 787.928H872.94V792.535C872.94 792.954 873.019 793.255 873.178 793.436C873.348 793.606 873.603 793.697 873.943 793.708C874.283 793.708 874.702 793.697 875.201 793.674V795C873.909 795.17 872.963 795.068 872.362 794.694C871.761 794.309 871.461 793.589 871.461 792.535V787.928H869.778V786.5H871.461V784.562L872.94 784.12V786.5H875.201V787.928Z" fill="#41415A"/>
</g>
<g filter="url(#filter11_d_2309_270)">
<rect x="459.238" y="821" width="162" height="64" rx="8" fill="white" shape-rendering="crispEdges"/>
<rect x="459.238" y="821" width="162" height="64" rx="8" stroke="#CCDBFD" stroke-width="0.5" shape-rendering="crispEdges"/>
<rect x="476.238" y="833.5" width="39" height="39" rx="19.5" fill="#F50064"/>
<rect x="476.238" y="833.5" width="39" height="39" rx="19.5" stroke="#CCDBFD" stroke-width="4"/>
<path d="M484.238 845V861H506.238V845H484.238ZM486.238 847H489.238V852H486.238V847ZM491.238 847H499.238V852H491.238V847ZM501.238 847H504.238V852H501.238V847ZM486.238 854H494.238V859H486.238V854ZM496.238 854H504.238V859H496.238V854Z" fill="white"/>
<path d="M537.313 852.829C537.857 853.09 538.288 853.464 538.605 853.951C538.934 854.438 539.098 854.999 539.098 855.634C539.098 856.586 538.764 857.385 538.095 858.031C537.427 858.677 536.611 859 535.647 859H530.513V847.1H535.273C536.203 847.1 536.99 847.412 537.636 848.035C538.282 848.658 538.605 849.429 538.605 850.347C538.605 851.401 538.175 852.228 537.313 852.829ZM535.273 848.579H532.094V852.217H535.273C535.772 852.217 536.191 852.041 536.531 851.69C536.871 851.339 537.041 850.908 537.041 850.398C537.041 849.899 536.866 849.474 536.514 849.123C536.174 848.76 535.761 848.579 535.273 848.579ZM535.647 857.521C536.18 857.521 536.628 857.334 536.99 856.96C537.353 856.586 537.534 856.127 537.534 855.583C537.534 855.05 537.347 854.597 536.973 854.223C536.611 853.849 536.169 853.662 535.647 853.662H532.094V857.521H535.647ZM542.298 851.928C542.786 850.874 543.67 850.347 544.95 850.347V851.894C544.225 851.86 543.602 852.053 543.08 852.472C542.559 852.891 542.298 853.566 542.298 854.495V859H540.819V850.5H542.298V851.928ZM547.145 848.953C546.862 848.953 546.624 848.857 546.431 848.664C546.239 848.471 546.142 848.239 546.142 847.967C546.142 847.695 546.239 847.463 546.431 847.27C546.624 847.066 546.862 846.964 547.145 846.964C547.417 846.964 547.65 847.066 547.842 847.27C548.035 847.463 548.131 847.695 548.131 847.967C548.131 848.239 548.035 848.471 547.842 848.664C547.65 848.857 547.417 848.953 547.145 848.953ZM546.397 859V850.5H547.876V859H546.397ZM554.128 859.221C552.847 859.221 551.782 858.796 550.932 857.946C550.082 857.085 549.657 856.019 549.657 854.75C549.657 853.481 550.082 852.421 550.932 851.571C551.782 850.71 552.847 850.279 554.128 850.279C554.966 850.279 555.72 850.483 556.389 850.891C557.057 851.288 557.556 851.826 557.885 852.506L556.644 853.22C556.428 852.767 556.094 852.404 555.641 852.132C555.199 851.86 554.694 851.724 554.128 851.724C553.278 851.724 552.564 852.013 551.986 852.591C551.419 853.169 551.136 853.889 551.136 854.75C551.136 855.6 551.419 856.314 551.986 856.892C552.564 857.47 553.278 857.759 554.128 857.759C554.694 857.759 555.204 857.629 555.658 857.368C556.111 857.096 556.457 856.733 556.695 856.28L557.953 857.011C557.59 857.68 557.069 858.218 556.389 858.626C555.709 859.023 554.955 859.221 554.128 859.221ZM566.604 859H564.768L560.892 854.971V859H559.413V847.1H560.892V854.257L564.564 850.5H566.468L562.405 854.614L566.604 859ZM567.979 859V846.59H569.458V859H567.979ZM578.753 850.5H580.232V859H578.753V857.538C578.016 858.66 576.945 859.221 575.54 859.221C574.35 859.221 573.335 858.79 572.497 857.929C571.658 857.056 571.239 855.997 571.239 854.75C571.239 853.503 571.658 852.449 572.497 851.588C573.335 850.715 574.35 850.279 575.54 850.279C576.945 850.279 578.016 850.84 578.753 851.962V850.5ZM575.727 857.793C576.588 857.793 577.308 857.504 577.886 856.926C578.464 856.337 578.753 855.611 578.753 854.75C578.753 853.889 578.464 853.169 577.886 852.591C577.308 852.002 576.588 851.707 575.727 851.707C574.877 851.707 574.163 852.002 573.585 852.591C573.007 853.169 572.718 853.889 572.718 854.75C572.718 855.611 573.007 856.337 573.585 856.926C574.163 857.504 574.877 857.793 575.727 857.793ZM588.406 850.5H589.987L586.519 859.527C586.156 860.49 585.646 861.221 584.989 861.72C584.343 862.23 583.595 862.457 582.745 862.4V861.023C583.787 861.102 584.552 860.524 585.04 859.289L585.193 858.966L581.487 850.5H583.068L585.958 857.164L588.406 850.5ZM591.927 855.43C592.074 856.189 592.42 856.779 592.964 857.198C593.519 857.617 594.199 857.827 595.004 857.827C596.126 857.827 596.942 857.413 597.452 856.586L598.71 857.3C597.882 858.581 596.636 859.221 594.97 859.221C593.621 859.221 592.522 858.802 591.672 857.963C590.833 857.113 590.414 856.042 590.414 854.75C590.414 853.469 590.827 852.404 591.655 851.554C592.482 850.704 593.553 850.279 594.868 850.279C596.114 850.279 597.129 850.721 597.911 851.605C598.704 852.478 599.101 853.532 599.101 854.767C599.101 854.982 599.084 855.203 599.05 855.43H591.927ZM594.868 851.673C594.074 851.673 593.417 851.9 592.896 852.353C592.374 852.795 592.051 853.39 591.927 854.138H597.605C597.48 853.333 597.163 852.721 596.653 852.302C596.143 851.883 595.548 851.673 594.868 851.673ZM602.28 851.928C602.767 850.874 603.651 850.347 604.932 850.347V851.894C604.206 851.86 603.583 852.053 603.062 852.472C602.54 852.891 602.28 853.566 602.28 854.495V859H600.801V850.5H602.28V851.928Z" fill="#41415A"/>
</g>
<g filter="url(#filter12_d_2309_270)">
<rect x="938.5" y="646" width="156" height="64" rx="8" fill="white" shape-rendering="crispEdges"/>
<rect x="938.5" y="646" width="156" height="64" rx="8" stroke="#CCDBFD" stroke-width="0.5" shape-rendering="crispEdges"/>
<rect x="955.5" y="658.5" width="39" height="39" rx="19.5" fill="#F50064"/>
<rect x="955.5" y="658.5" width="39" height="39" rx="19.5" stroke="#CCDBFD" stroke-width="4"/>
<path d="M983.293 668.293L980.029 671.557C979.646 671.193 979.149 671.006 978.648 671.006C978.132 671.006 977.616 671.199 977.229 671.588C977.132 671.684 976.43 672.387 975.795 673.021C968.455 674.493 967.902 678.731 967.457 682.137C967.247 683.747 967.047 685.268 966.199 686.4L965.092 687.879C967.955 686.646 974 683.348 974 680H976C976 683.326 972.538 686.084 969.545 687.852C976.151 687.098 979.912 683.313 979.992 677.195C980.586 676.6 981.26 675.926 981.414 675.771C982.177 675.006 982.184 673.751 981.443 672.971L984.707 669.707L983.293 668.293ZM978.643 673.002H978.645C978.655 672.991 978.642 672.99 978.654 673.002L979.996 674.346C980.007 674.357 980.007 674.35 979.998 674.359C979.864 674.493 979.265 675.092 978.771 675.586L977.416 674.229C977.921 673.724 978.56 673.084 978.643 673.002Z" fill="white"/>
<path d="M1015.37 684.221C1013.57 684.221 1012.08 683.626 1010.9 682.436C1009.73 681.246 1009.15 679.784 1009.15 678.05C1009.15 676.316 1009.73 674.854 1010.9 673.664C1012.08 672.474 1013.57 671.879 1015.37 671.879C1016.46 671.879 1017.45 672.14 1018.36 672.661C1019.28 673.182 1019.99 673.885 1020.5 674.769L1019.12 675.568C1018.79 674.911 1018.28 674.389 1017.6 674.004C1016.93 673.607 1016.18 673.409 1015.37 673.409C1014 673.409 1012.87 673.851 1012 674.735C1011.14 675.619 1010.71 676.724 1010.71 678.05C1010.71 679.365 1011.14 680.464 1012 681.348C1012.87 682.232 1014 682.674 1015.37 682.674C1016.18 682.674 1016.93 682.481 1017.6 682.096C1018.28 681.699 1018.79 681.178 1019.12 680.532L1020.5 681.314C1020 682.198 1019.3 682.906 1018.38 683.439C1017.46 683.96 1016.46 684.221 1015.37 684.221ZM1022.19 684V671.59H1023.67V684H1022.19ZM1026.96 680.43C1027.11 681.189 1027.45 681.779 1028 682.198C1028.55 682.617 1029.23 682.827 1030.04 682.827C1031.16 682.827 1031.98 682.413 1032.49 681.586L1033.74 682.3C1032.92 683.581 1031.67 684.221 1030 684.221C1028.66 684.221 1027.56 683.802 1026.71 682.963C1025.87 682.113 1025.45 681.042 1025.45 679.75C1025.45 678.469 1025.86 677.404 1026.69 676.554C1027.52 675.704 1028.59 675.279 1029.9 675.279C1031.15 675.279 1032.16 675.721 1032.95 676.605C1033.74 677.478 1034.14 678.532 1034.14 679.767C1034.14 679.982 1034.12 680.203 1034.08 680.43H1026.96ZM1029.9 676.673C1029.11 676.673 1028.45 676.9 1027.93 677.353C1027.41 677.795 1027.09 678.39 1026.96 679.138H1032.64C1032.52 678.333 1032.2 677.721 1031.69 677.302C1031.18 676.883 1030.58 676.673 1029.9 676.673ZM1042.86 675.5H1044.34V684H1042.86V682.538C1042.12 683.66 1041.05 684.221 1039.64 684.221C1038.45 684.221 1037.44 683.79 1036.6 682.929C1035.76 682.056 1035.34 680.997 1035.34 679.75C1035.34 678.503 1035.76 677.449 1036.6 676.588C1037.44 675.715 1038.45 675.279 1039.64 675.279C1041.05 675.279 1042.12 675.84 1042.86 676.962V675.5ZM1039.83 682.793C1040.69 682.793 1041.41 682.504 1041.99 681.926C1042.57 681.337 1042.86 680.611 1042.86 679.75C1042.86 678.889 1042.57 678.169 1041.99 677.591C1041.41 677.002 1040.69 676.707 1039.83 676.707C1038.98 676.707 1038.27 677.002 1037.69 677.591C1037.11 678.169 1036.82 678.889 1036.82 679.75C1036.82 680.611 1037.11 681.337 1037.69 681.926C1038.27 682.504 1038.98 682.793 1039.83 682.793ZM1050.81 675.279C1051.81 675.279 1052.61 675.596 1053.21 676.231C1053.81 676.854 1054.11 677.704 1054.11 678.781V684H1052.63V678.866C1052.63 678.175 1052.44 677.642 1052.07 677.268C1051.69 676.883 1051.18 676.69 1050.52 676.69C1049.78 676.69 1049.19 676.922 1048.74 677.387C1048.28 677.84 1048.06 678.543 1048.06 679.495V684H1046.58V675.5H1048.06V676.724C1048.66 675.761 1049.57 675.279 1050.81 675.279ZM1056.92 673.953C1056.64 673.953 1056.4 673.857 1056.21 673.664C1056.01 673.471 1055.92 673.239 1055.92 672.967C1055.92 672.695 1056.01 672.463 1056.21 672.27C1056.4 672.066 1056.64 671.964 1056.92 671.964C1057.19 671.964 1057.43 672.066 1057.62 672.27C1057.81 672.463 1057.91 672.695 1057.91 672.967C1057.91 673.239 1057.81 673.471 1057.62 673.664C1057.43 673.857 1057.19 673.953 1056.92 673.953ZM1056.17 684V675.5H1057.65V684H1056.17ZM1064.14 675.279C1065.14 675.279 1065.94 675.596 1066.54 676.231C1067.14 676.854 1067.44 677.704 1067.44 678.781V684H1065.96V678.866C1065.96 678.175 1065.77 677.642 1065.4 677.268C1065.03 676.883 1064.51 676.69 1063.85 676.69C1063.12 676.69 1062.52 676.922 1062.07 677.387C1061.61 677.84 1061.39 678.543 1061.39 679.495V684H1059.91V675.5H1061.39V676.724C1061.99 675.761 1062.91 675.279 1064.14 675.279ZM1076.56 675.5H1078.02V683.643C1078.02 684.901 1077.6 685.876 1076.75 686.567C1075.9 687.27 1074.88 687.621 1073.69 687.621C1072.73 687.621 1071.91 687.44 1071.22 687.077C1070.53 686.726 1070.01 686.216 1069.66 685.547L1070.95 684.816C1071.41 685.768 1072.34 686.244 1073.72 686.244C1074.6 686.244 1075.3 686.012 1075.79 685.547C1076.3 685.082 1076.56 684.448 1076.56 683.643V682.436C1075.81 683.569 1074.75 684.136 1073.36 684.136C1072.15 684.136 1071.12 683.705 1070.29 682.844C1069.45 681.983 1069.03 680.934 1069.03 679.699C1069.03 678.464 1069.45 677.421 1070.29 676.571C1071.12 675.71 1072.15 675.279 1073.36 675.279C1074.76 675.279 1075.82 675.84 1076.56 676.962V675.5ZM1071.37 681.858C1071.95 682.436 1072.67 682.725 1073.53 682.725C1074.39 682.725 1075.11 682.436 1075.69 681.858C1076.27 681.28 1076.56 680.56 1076.56 679.699C1076.56 678.849 1076.27 678.135 1075.69 677.557C1075.11 676.979 1074.39 676.69 1073.53 676.69C1072.67 676.69 1071.95 676.979 1071.37 677.557C1070.8 678.135 1070.51 678.849 1070.51 679.699C1070.51 680.56 1070.8 681.28 1071.37 681.858Z" fill="#41415A"/>
</g>
<defs>
<filter id="filter0_d_2309_270" x="801.25" y="0.75" width="264.5" height="172.5" filterUnits="userSpaceOnUse" color-interpolation-filters="sRGB">
<feFlood flood-opacity="0" result="BackgroundImageFix"/>
<feColorMatrix in="SourceAlpha" type="matrix" values="0 0 0 0 0 0 0 0 0 0 0 0 0 0 0 0 0 0 127 0" result="hardAlpha"/>
<feOffset/>
<feGaussianBlur stdDeviation="27"/>
<feComposite in2="hardAlpha" operator="out"/>
<feColorMatrix type="matrix" values="0 0 0 0 0 0 0 0 0 0.290196 0 0 0 0 0.960784 0 0 0 0.12 0"/>
<feBlend mode="normal" in2="BackgroundImageFix" result="effect1_dropShadow_2309_270"/>
<feBlend mode="normal" in="SourceGraphic" in2="effect1_dropShadow_2309_270" result="shape"/>
</filter>
<filter id="filter1_d_2309_270" x="95.25" y="44.75" width="257.5" height="172.5" filterUnits="userSpaceOnUse" color-interpolation-filters="sRGB">
<feFlood flood-opacity="0" result="BackgroundImageFix"/>
<feColorMatrix in="SourceAlpha" type="matrix" values="0 0 0 0 0 0 0 0 0 0 0 0 0 0 0 0 0 0 127 0" result="hardAlpha"/>
<feOffset/>
<feGaussianBlur stdDeviation="27"/>
<feComposite in2="hardAlpha" operator="out"/>
<feColorMatrix type="matrix" values="0 0 0 0 0 0 0 0 0 0.290196 0 0 0 0 0.960784 0 0 0 0.12 0"/>
<feBlend mode="normal" in2="BackgroundImageFix" result="effect1_dropShadow_2309_270"/>
<feBlend mode="normal" in="SourceGraphic" in2="effect1_dropShadow_2309_270" result="shape"/>
</filter>
<filter id="filter2_d_2309_270" x="448.25" y="32.75" width="274.5" height="172.5" filterUnits="userSpaceOnUse" color-interpolation-filters="sRGB">
<feFlood flood-opacity="0" result="BackgroundImageFix"/>
<feColorMatrix in="SourceAlpha" type="matrix" values="0 0 0 0 0 0 0 0 0 0 0 0 0 0 0 0 0 0 127 0" result="hardAlpha"/>
<feOffset/>
<feGaussianBlur stdDeviation="27"/>
<feComposite in2="hardAlpha" operator="out"/>
<feColorMatrix type="matrix" values="0 0 0 0 0 0 0 0 0 0.290196 0 0 0 0 0.960784 0 0 0 0.12 0"/>
<feBlend mode="normal" in2="BackgroundImageFix" result="effect1_dropShadow_2309_270"/>
<feBlend mode="normal" in="SourceGraphic" in2="effect1_dropShadow_2309_270" result="shape"/>
</filter>
<filter id="filter3_d_2309_270" x="1047.25" y="108.75" width="259.5" height="172.5" filterUnits="userSpaceOnUse" color-interpolation-filters="sRGB">
<feFlood flood-opacity="0" result="BackgroundImageFix"/>
<feColorMatrix in="SourceAlpha" type="matrix" values="0 0 0 0 0 0 0 0 0 0 0 0 0 0 0 0 0 0 127 0" result="hardAlpha"/>
<feOffset/>
<feGaussianBlur stdDeviation="27"/>
<feComposite in2="hardAlpha" operator="out"/>
<feColorMatrix type="matrix" values="0 0 0 0 0 0 0 0 0 0.290196 0 0 0 0 0.960784 0 0 0 0.12 0"/>
<feBlend mode="normal" in2="BackgroundImageFix" result="effect1_dropShadow_2309_270"/>
<feBlend mode="normal" in="SourceGraphic" in2="effect1_dropShadow_2309_270" result="shape"/>
</filter>
<filter id="filter4_d_2309_270" x="1135.25" y="234.75" width="234.5" height="172.5" filterUnits="userSpaceOnUse" color-interpolation-filters="sRGB">
<feFlood flood-opacity="0" result="BackgroundImageFix"/>
<feColorMatrix in="SourceAlpha" type="matrix" values="0 0 0 0 0 0 0 0 0 0 0 0 0 0 0 0 0 0 127 0" result="hardAlpha"/>
<feOffset/>
<feGaussianBlur stdDeviation="27"/>
<feComposite in2="hardAlpha" operator="out"/>
<feColorMatrix type="matrix" values="0 0 0 0 0 0 0 0 0 0.290196 0 0 0 0 0.960784 0 0 0 0.12 0"/>
<feBlend mode="normal" in2="BackgroundImageFix" result="effect1_dropShadow_2309_270"/>
<feBlend mode="normal" in="SourceGraphic" in2="effect1_dropShadow_2309_270" result="shape"/>
</filter>
<filter id="filter5_d_2309_270" x="69.25" y="280.75" width="225.5" height="172.5" filterUnits="userSpaceOnUse" color-interpolation-filters="sRGB">
<feFlood flood-opacity="0" result="BackgroundImageFix"/>
<feColorMatrix in="SourceAlpha" type="matrix" values="0 0 0 0 0 0 0 0 0 0 0 0 0 0 0 0 0 0 127 0" result="hardAlpha"/>
<feOffset/>
<feGaussianBlur stdDeviation="27"/>
<feComposite in2="hardAlpha" operator="out"/>
<feColorMatrix type="matrix" values="0 0 0 0 0 0 0 0 0 0.290196 0 0 0 0 0.960784 0 0 0 0.12 0"/>
<feBlend mode="normal" in2="BackgroundImageFix" result="effect1_dropShadow_2309_270"/>
<feBlend mode="normal" in="SourceGraphic" in2="effect1_dropShadow_2309_270" result="shape"/>
</filter>
<filter id="filter6_d_2309_270" x="0.75" y="516.75" width="235.5" height="172.5" filterUnits="userSpaceOnUse" color-interpolation-filters="sRGB">
<feFlood flood-opacity="0" result="BackgroundImageFix"/>
<feColorMatrix in="SourceAlpha" type="matrix" values="0 0 0 0 0 0 0 0 0 0 0 0 0 0 0 0 0 0 127 0" result="hardAlpha"/>
<feOffset/>
<feGaussianBlur stdDeviation="27"/>
<feComposite in2="hardAlpha" operator="out"/>
<feColorMatrix type="matrix" values="0 0 0 0 0 0 0 0 0 0.290196 0 0 0 0 0.960784 0 0 0 0.12 0"/>
<feBlend mode="normal" in2="BackgroundImageFix" result="effect1_dropShadow_2309_270"/>
<feBlend mode="normal" in="SourceGraphic" in2="effect1_dropShadow_2309_270" result="shape"/>
</filter>
<filter id="filter7_d_2309_270" x="235.25" y="612.75" width="269.5" height="172.5" filterUnits="userSpaceOnUse" color-interpolation-filters="sRGB">
<feFlood flood-opacity="0" result="BackgroundImageFix"/>
<feColorMatrix in="SourceAlpha" type="matrix" values="0 0 0 0 0 0 0 0 0 0 0 0 0 0 0 0 0 0 127 0" result="hardAlpha"/>
<feOffset/>
<feGaussianBlur stdDeviation="27"/>
<feComposite in2="hardAlpha" operator="out"/>
<feColorMatrix type="matrix" values="0 0 0 0 0 0 0 0 0 0.290196 0 0 0 0 0.960784 0 0 0 0.12 0"/>
<feBlend mode="normal" in2="BackgroundImageFix" result="effect1_dropShadow_2309_270"/>
<feBlend mode="normal" in="SourceGraphic" in2="effect1_dropShadow_2309_270" result="shape"/>
</filter>
<filter id="filter8_d_2309_270" x="1085.25" y="360.75" width="240.5" height="172.5" filterUnits="userSpaceOnUse" color-interpolation-filters="sRGB">
<feFlood flood-opacity="0" result="BackgroundImageFix"/>
<feColorMatrix in="SourceAlpha" type="matrix" values="0 0 0 0 0 0 0 0 0 0 0 0 0 0 0 0 0 0 127 0" result="hardAlpha"/>
<feOffset/>
<feGaussianBlur stdDeviation="27"/>
<feComposite in2="hardAlpha" operator="out"/>
<feColorMatrix type="matrix" values="0 0 0 0 0 0 0 0 0 0.290196 0 0 0 0 0.960784 0 0 0 0.12 0"/>
<feBlend mode="normal" in2="BackgroundImageFix" result="effect1_dropShadow_2309_270"/>
<feBlend mode="normal" in="SourceGraphic" in2="effect1_dropShadow_2309_270" result="shape"/>
</filter>
<filter id="filter9_d_2309_270" x="1135.25" y="539.75" width="252.5" height="172.5" filterUnits="userSpaceOnUse" color-interpolation-filters="sRGB">
<feFlood flood-opacity="0" result="BackgroundImageFix"/>
<feColorMatrix in="SourceAlpha" type="matrix" values="0 0 0 0 0 0 0 0 0 0 0 0 0 0 0 0 0 0 127 0" result="hardAlpha"/>
<feOffset/>
<feGaussianBlur stdDeviation="27"/>
<feComposite in2="hardAlpha" operator="out"/>
<feColorMatrix type="matrix" values="0 0 0 0 0 0 0 0 0 0.290196 0 0 0 0 0.960784 0 0 0 0.12 0"/>
<feBlend mode="normal" in2="BackgroundImageFix" result="effect1_dropShadow_2309_270"/>
<feBlend mode="normal" in="SourceGraphic" in2="effect1_dropShadow_2309_270" result="shape"/>
</filter>
<filter id="filter10_d_2309_270" x="640.25" y="702.75" width="305.5" height="172.5" filterUnits="userSpaceOnUse" color-interpolation-filters="sRGB">
<feFlood flood-opacity="0" result="BackgroundImageFix"/>
<feColorMatrix in="SourceAlpha" type="matrix" values="0 0 0 0 0 0 0 0 0 0 0 0 0 0 0 0 0 0 127 0" result="hardAlpha"/>
<feOffset/>
<feGaussianBlur stdDeviation="27"/>
<feComposite in2="hardAlpha" operator="out"/>
<feColorMatrix type="matrix" values="0 0 0 0 0 0 0 0 0 0.290196 0 0 0 0 0.960784 0 0 0 0.12 0"/>
<feBlend mode="normal" in2="BackgroundImageFix" result="effect1_dropShadow_2309_270"/>
<feBlend mode="normal" in="SourceGraphic" in2="effect1_dropShadow_2309_270" result="shape"/>
</filter>
<filter id="filter11_d_2309_270" x="404.988" y="766.75" width="270.5" height="172.5" filterUnits="userSpaceOnUse" color-interpolation-filters="sRGB">
<feFlood flood-opacity="0" result="BackgroundImageFix"/>
<feColorMatrix in="SourceAlpha" type="matrix" values="0 0 0 0 0 0 0 0 0 0 0 0 0 0 0 0 0 0 127 0" result="hardAlpha"/>
<feOffset/>
<feGaussianBlur stdDeviation="27"/>
<feComposite in2="hardAlpha" operator="out"/>
<feColorMatrix type="matrix" values="0 0 0 0 0 0 0 0 0 0.290196 0 0 0 0 0.960784 0 0 0 0.12 0"/>
<feBlend mode="normal" in2="BackgroundImageFix" result="effect1_dropShadow_2309_270"/>
<feBlend mode="normal" in="SourceGraphic" in2="effect1_dropShadow_2309_270" result="shape"/>
</filter>
<filter id="filter12_d_2309_270" x="884.25" y="591.75" width="264.5" height="172.5" filterUnits="userSpaceOnUse" color-interpolation-filters="sRGB">
<feFlood flood-opacity="0" result="BackgroundImageFix"/>
<feColorMatrix in="SourceAlpha" type="matrix" values="0 0 0 0 0 0 0 0 0 0 0 0 0 0 0 0 0 0 127 0" result="hardAlpha"/>
<feOffset/>
<feGaussianBlur stdDeviation="27"/>
<feComposite in2="hardAlpha" operator="out"/>
<feColorMatrix type="matrix" values="0 0 0 0 0 0 0 0 0 0.290196 0 0 0 0 0.960784 0 0 0 0.12 0"/>
<feBlend mode="normal" in2="BackgroundImageFix" result="effect1_dropShadow_2309_270"/>
<feBlend mode="normal" in="SourceGraphic" in2="effect1_dropShadow_2309_270" result="shape"/>
</filter>
</defs>
</svg>
