<svg width="517" height="201" viewBox="0 0 517 201" fill="none" xmlns="http://www.w3.org/2000/svg">
<path d="M48.3926 12.0078C44.1491 12.0078 40.0795 13.6935 37.0789 16.6941C34.0783 19.6947 32.3926 23.7643 32.3926 28.0078C32.3926 32.2513 34.0783 36.3209 37.0789 39.3215C40.0795 42.3221 44.1491 44.0078 48.3926 44.0078C52.636 44.0078 56.7057 42.3221 59.7063 39.3215C62.7069 36.3209 64.3926 32.2513 64.3926 28.0078C64.3926 23.7643 62.7069 19.6947 59.7063 16.6941C56.7057 13.6935 52.636 12.0078 48.3926 12.0078ZM35.6348 57.5781C24.3668 60.0741 12.3926 65.5478 12.3926 74.0078V84.0078H84.3926V74.0078C84.3926 65.5478 72.4184 60.0741 61.1504 57.5781C58.2304 61.4621 53.6246 64.0078 48.3926 64.0078C43.1606 64.0078 38.5548 61.4621 35.6348 57.5781Z" fill="#004AF5"/>
<path d="M153.393 12.0078C149.149 12.0078 145.079 13.6935 142.079 16.6941C139.078 19.6947 137.393 23.7643 137.393 28.0078C137.393 32.2513 139.078 36.3209 142.079 39.3215C145.079 42.3221 149.149 44.0078 153.393 44.0078C157.636 44.0078 161.706 42.3221 164.706 39.3215C167.707 36.3209 169.393 32.2513 169.393 28.0078C169.393 23.7643 167.707 19.6947 164.706 16.6941C161.706 13.6935 157.636 12.0078 153.393 12.0078ZM140.635 57.5781C129.367 60.0741 117.393 65.5478 117.393 74.0078V84.0078H189.393V74.0078C189.393 65.5478 177.418 60.0741 166.15 57.5781C163.23 61.4621 158.625 64.0078 153.393 64.0078C148.161 64.0078 143.555 61.4621 140.635 57.5781Z" fill="#004AF5"/>
<path d="M258.393 12.0078C254.149 12.0078 250.079 13.6935 247.079 16.6941C244.078 19.6947 242.393 23.7643 242.393 28.0078C242.393 32.2513 244.078 36.3209 247.079 39.3215C250.079 42.3221 254.149 44.0078 258.393 44.0078C262.636 44.0078 266.706 42.3221 269.706 39.3215C272.707 36.3209 274.393 32.2513 274.393 28.0078C274.393 23.7643 272.707 19.6947 269.706 16.6941C266.706 13.6935 262.636 12.0078 258.393 12.0078ZM245.635 57.5781C234.367 60.0741 222.393 65.5478 222.393 74.0078V84.0078H294.393V74.0078C294.393 65.5478 282.418 60.0741 271.15 57.5781C268.23 61.4621 263.625 64.0078 258.393 64.0078C253.161 64.0078 248.555 61.4621 245.635 57.5781Z" fill="#004AF5"/>
<path d="M363.393 12.0078C359.149 12.0078 355.079 13.6935 352.079 16.6941C349.078 19.6947 347.393 23.7643 347.393 28.0078C347.393 32.2513 349.078 36.3209 352.079 39.3215C355.079 42.3221 359.149 44.0078 363.393 44.0078C367.636 44.0078 371.706 42.3221 374.706 39.3215C377.707 36.3209 379.393 32.2513 379.393 28.0078C379.393 23.7643 377.707 19.6947 374.706 16.6941C371.706 13.6935 367.636 12.0078 363.393 12.0078ZM350.635 57.5781C339.367 60.0741 327.393 65.5478 327.393 74.0078V84.0078H399.393V74.0078C399.393 65.5478 387.418 60.0741 376.15 57.5781C373.23 61.4621 368.625 64.0078 363.393 64.0078C358.161 64.0078 353.555 61.4621 350.635 57.5781Z" fill="#CCDBFD"/>
<path d="M468.393 12.0078C464.149 12.0078 460.079 13.6935 457.079 16.6941C454.078 19.6947 452.393 23.7643 452.393 28.0078C452.393 32.2513 454.078 36.3209 457.079 39.3215C460.079 42.3221 464.149 44.0078 468.393 44.0078C472.636 44.0078 476.706 42.3221 479.706 39.3215C482.707 36.3209 484.393 32.2513 484.393 28.0078C484.393 23.7643 482.707 19.6947 479.706 16.6941C476.706 13.6935 472.636 12.0078 468.393 12.0078ZM455.635 57.5781C444.367 60.0741 432.393 65.5478 432.393 74.0078V84.0078H504.393V74.0078C504.393 65.5478 492.418 60.0741 481.15 57.5781C478.23 61.4621 473.625 64.0078 468.393 64.0078C463.161 64.0078 458.555 61.4621 455.635 57.5781Z" fill="#CCDBFD"/>
<path d="M48.3926 117.008C44.1491 117.008 40.0795 118.694 37.0789 121.694C34.0783 124.695 32.3926 128.764 32.3926 133.008C32.3926 137.251 34.0783 141.321 37.0789 144.322C40.0795 147.322 44.1491 149.008 48.3926 149.008C52.636 149.008 56.7057 147.322 59.7063 144.322C62.7069 141.321 64.3926 137.251 64.3926 133.008C64.3926 128.764 62.7069 124.695 59.7063 121.694C56.7057 118.694 52.636 117.008 48.3926 117.008ZM35.6348 162.578C24.3668 165.074 12.3926 170.548 12.3926 179.008V189.008H84.3926V179.008C84.3926 170.548 72.4184 165.074 61.1504 162.578C58.2304 166.462 53.6246 169.008 48.3926 169.008C43.1606 169.008 38.5548 166.462 35.6348 162.578Z" fill="#CCDBFD"/>
<path d="M153.393 117.008C149.149 117.008 145.079 118.694 142.079 121.694C139.078 124.695 137.393 128.764 137.393 133.008C137.393 137.251 139.078 141.321 142.079 144.322C145.079 147.322 149.149 149.008 153.393 149.008C157.636 149.008 161.706 147.322 164.706 144.322C167.707 141.321 169.393 137.251 169.393 133.008C169.393 128.764 167.707 124.695 164.706 121.694C161.706 118.694 157.636 117.008 153.393 117.008ZM140.635 162.578C129.367 165.074 117.393 170.548 117.393 179.008V189.008H189.393V179.008C189.393 170.548 177.418 165.074 166.15 162.578C163.23 166.462 158.625 169.008 153.393 169.008C148.161 169.008 143.555 166.462 140.635 162.578Z" fill="#CCDBFD"/>
<path d="M258.393 117.008C254.149 117.008 250.079 118.694 247.079 121.694C244.078 124.695 242.393 128.764 242.393 133.008C242.393 137.251 244.078 141.321 247.079 144.322C250.079 147.322 254.149 149.008 258.393 149.008C262.636 149.008 266.706 147.322 269.706 144.322C272.707 141.321 274.393 137.251 274.393 133.008C274.393 128.764 272.707 124.695 269.706 121.694C266.706 118.694 262.636 117.008 258.393 117.008ZM245.635 162.578C234.367 165.074 222.393 170.548 222.393 179.008V189.008H294.393V179.008C294.393 170.548 282.418 165.074 271.15 162.578C268.23 166.462 263.625 169.008 258.393 169.008C253.161 169.008 248.555 166.462 245.635 162.578Z" fill="#CCDBFD"/>
<path d="M363.393 117.008C359.149 117.008 355.079 118.694 352.079 121.694C349.078 124.695 347.393 128.764 347.393 133.008C347.393 137.251 349.078 141.321 352.079 144.322C355.079 147.322 359.149 149.008 363.393 149.008C367.636 149.008 371.706 147.322 374.706 144.322C377.707 141.321 379.393 137.251 379.393 133.008C379.393 128.764 377.707 124.695 374.706 121.694C371.706 118.694 367.636 117.008 363.393 117.008ZM350.635 162.578C339.367 165.074 327.393 170.548 327.393 179.008V189.008H399.393V179.008C399.393 170.548 387.418 165.074 376.15 162.578C373.23 166.462 368.625 169.008 363.393 169.008C358.161 169.008 353.555 166.462 350.635 162.578Z" fill="#CCDBFD"/>
<path d="M468.393 117.008C464.149 117.008 460.079 118.694 457.079 121.694C454.078 124.695 452.393 128.764 452.393 133.008C452.393 137.251 454.078 141.321 457.079 144.322C460.079 147.322 464.149 149.008 468.393 149.008C472.636 149.008 476.706 147.322 479.706 144.322C482.707 141.321 484.393 137.251 484.393 133.008C484.393 128.764 482.707 124.695 479.706 121.694C476.706 118.694 472.636 117.008 468.393 117.008ZM455.635 162.578C444.367 165.074 432.393 170.548 432.393 179.008V189.008H504.393V179.008C504.393 170.548 492.418 165.074 481.15 162.578C478.23 166.462 473.625 169.008 468.393 169.008C463.161 169.008 458.555 166.462 455.635 162.578Z" fill="#CCDBFD"/>
</svg>
