<svg width="1423" height="600" viewBox="0 0 1423 600" fill="none" xmlns="http://www.w3.org/2000/svg">
<path d="M21.9694 9.2C23.6174 9.2 24.9694 9.72 26.0254 10.76C27.0814 11.784 27.6094 13.112 27.6094 14.744C27.6094 16.376 27.0814 17.712 26.0254 18.752C24.9694 19.776 23.6174 20.288 21.9694 20.288C20.3214 20.288 18.9694 19.776 17.9134 18.752C16.8574 17.712 16.3294 16.376 16.3294 14.744C16.3294 13.48 16.6734 12.36 17.3614 11.384L22.8574 3.2H24.7534L20.6254 9.344C21.0574 9.248 21.5054 9.2 21.9694 9.2ZM19.0894 17.576C19.8254 18.296 20.7854 18.656 21.9694 18.656C23.1534 18.656 24.1054 18.296 24.8254 17.576C25.5614 16.856 25.9294 15.912 25.9294 14.744C25.9294 13.576 25.5614 12.632 24.8254 11.912C24.1054 11.192 23.1534 10.832 21.9694 10.832C20.7854 10.832 19.8254 11.192 19.0894 11.912C18.3694 12.632 18.0094 13.576 18.0094 14.744C18.0094 15.912 18.3694 16.856 19.0894 17.576ZM40.5759 17.936C39.4719 19.504 37.9119 20.288 35.8959 20.288C33.8799 20.288 32.3119 19.504 31.1919 17.936C30.0879 16.352 29.5359 14.24 29.5359 11.6C29.5359 8.96 30.0879 6.856 31.1919 5.288C32.3119 3.704 33.8799 2.912 35.8959 2.912C37.9119 2.912 39.4719 3.704 40.5759 5.288C41.6959 6.856 42.2559 8.96 42.2559 11.6C42.2559 14.24 41.6959 16.352 40.5759 17.936ZM32.4399 16.808C33.2719 18.04 34.4239 18.656 35.8959 18.656C37.3679 18.656 38.5119 18.04 39.3279 16.808C40.1599 15.576 40.5759 13.84 40.5759 11.6C40.5759 9.36 40.1599 7.624 39.3279 6.392C38.5119 5.16 37.3679 4.544 35.8959 4.544C34.4239 4.544 33.2719 5.16 32.4399 6.392C31.6239 7.624 31.2159 9.36 31.2159 11.6C31.2159 13.84 31.6239 15.576 32.4399 16.808ZM48.0964 10.112C47.0564 10.112 46.1844 9.768 45.4804 9.08C44.7764 8.376 44.4244 7.52 44.4244 6.512C44.4244 5.504 44.7764 4.656 45.4804 3.968C46.1844 3.264 47.0564 2.912 48.0964 2.912C49.1364 2.912 50.0084 3.264 50.7124 3.968C51.4164 4.656 51.7684 5.504 51.7684 6.512C51.7684 7.52 51.4244 8.376 50.7364 9.08C50.0484 9.768 49.1684 10.112 48.0964 10.112ZM46.5604 8.048C46.9604 8.464 47.4724 8.672 48.0964 8.672C48.7204 8.672 49.2324 8.464 49.6324 8.048C50.0324 7.632 50.2324 7.12 50.2324 6.512C50.2324 5.904 50.0324 5.392 49.6324 4.976C49.2324 4.56 48.7204 4.352 48.0964 4.352C47.4724 4.352 46.9604 4.56 46.5604 4.976C46.1604 5.392 45.9604 5.904 45.9604 6.512C45.9604 7.12 46.1604 7.632 46.5604 8.048ZM45.2644 17.72L56.5204 5.072L57.5524 5.648L46.2724 18.296L45.2644 17.72ZM57.5044 19.256C56.8004 19.944 55.9284 20.288 54.8884 20.288C53.8484 20.288 52.9764 19.944 52.2724 19.256C51.5684 18.552 51.2164 17.696 51.2164 16.688C51.2164 15.68 51.5684 14.832 52.2724 14.144C52.9764 13.44 53.8484 13.088 54.8884 13.088C55.9284 13.088 56.8004 13.44 57.5044 14.144C58.2084 14.832 58.5604 15.68 58.5604 16.688C58.5604 17.696 58.2084 18.552 57.5044 19.256ZM53.3524 18.224C53.7524 18.64 54.2644 18.848 54.8884 18.848C55.5124 18.848 56.0244 18.64 56.4244 18.224C56.8244 17.808 57.0244 17.296 57.0244 16.688C57.0244 16.08 56.8244 15.568 56.4244 15.152C56.0244 14.736 55.5124 14.528 54.8884 14.528C54.2644 14.528 53.7524 14.736 53.3524 15.152C52.9524 15.568 52.7524 16.08 52.7524 16.688C52.7524 17.296 52.9524 17.808 53.3524 18.224Z" fill="#004AF5"/>
<line x1="84" y1="11.75" x2="1423" y2="11.75" stroke="#004AF5" stroke-width="0.5"/>
<path d="M27.7341 207.056V208.64H25.5741V212H23.8941V208.64H15.0141V207.056L21.2541 195.2H23.1021L16.8621 207.056H23.8941V201.92H25.5741V207.056H27.7341ZM40.5759 209.936C39.4719 211.504 37.9119 212.288 35.8959 212.288C33.8799 212.288 32.3119 211.504 31.1919 209.936C30.0879 208.352 29.5359 206.24 29.5359 203.6C29.5359 200.96 30.0879 198.856 31.1919 197.288C32.3119 195.704 33.8799 194.912 35.8959 194.912C37.9119 194.912 39.4719 195.704 40.5759 197.288C41.6959 198.856 42.2559 200.96 42.2559 203.6C42.2559 206.24 41.6959 208.352 40.5759 209.936ZM32.4399 208.808C33.2719 210.04 34.4239 210.656 35.8959 210.656C37.3679 210.656 38.5119 210.04 39.3279 208.808C40.1599 207.576 40.5759 205.84 40.5759 203.6C40.5759 201.36 40.1599 199.624 39.3279 198.392C38.5119 197.16 37.3679 196.544 35.8959 196.544C34.4239 196.544 33.2719 197.16 32.4399 198.392C31.6239 199.624 31.2159 201.36 31.2159 203.6C31.2159 205.84 31.6239 207.576 32.4399 208.808ZM48.0964 202.112C47.0564 202.112 46.1844 201.768 45.4804 201.08C44.7764 200.376 44.4244 199.52 44.4244 198.512C44.4244 197.504 44.7764 196.656 45.4804 195.968C46.1844 195.264 47.0564 194.912 48.0964 194.912C49.1364 194.912 50.0084 195.264 50.7124 195.968C51.4164 196.656 51.7684 197.504 51.7684 198.512C51.7684 199.52 51.4244 200.376 50.7364 201.08C50.0484 201.768 49.1684 202.112 48.0964 202.112ZM46.5604 200.048C46.9604 200.464 47.4724 200.672 48.0964 200.672C48.7204 200.672 49.2324 200.464 49.6324 200.048C50.0324 199.632 50.2324 199.12 50.2324 198.512C50.2324 197.904 50.0324 197.392 49.6324 196.976C49.2324 196.56 48.7204 196.352 48.0964 196.352C47.4724 196.352 46.9604 196.56 46.5604 196.976C46.1604 197.392 45.9604 197.904 45.9604 198.512C45.9604 199.12 46.1604 199.632 46.5604 200.048ZM45.2644 209.72L56.5204 197.072L57.5524 197.648L46.2724 210.296L45.2644 209.72ZM57.5044 211.256C56.8004 211.944 55.9284 212.288 54.8884 212.288C53.8484 212.288 52.9764 211.944 52.2724 211.256C51.5684 210.552 51.2164 209.696 51.2164 208.688C51.2164 207.68 51.5684 206.832 52.2724 206.144C52.9764 205.44 53.8484 205.088 54.8884 205.088C55.9284 205.088 56.8004 205.44 57.5044 206.144C58.2084 206.832 58.5604 207.68 58.5604 208.688C58.5604 209.696 58.2084 210.552 57.5044 211.256ZM53.3524 210.224C53.7524 210.64 54.2644 210.848 54.8884 210.848C55.5124 210.848 56.0244 210.64 56.4244 210.224C56.8244 209.808 57.0244 209.296 57.0244 208.688C57.0244 208.08 56.8244 207.568 56.4244 207.152C56.0244 206.736 55.5124 206.528 54.8884 206.528C54.2644 206.528 53.7524 206.736 53.3524 207.152C52.9524 207.568 52.7524 208.08 52.7524 208.688C52.7524 209.296 52.9524 209.808 53.3524 210.224Z" fill="#004AF5"/>
<line x1="84" y1="203.75" x2="1423" y2="203.75" stroke="#004AF5" stroke-width="0.5"/>
<path d="M16.9209 404V402.488L22.9689 396.392C24.6969 394.664 25.5609 393.184 25.5609 391.952C25.5609 390.88 25.2249 390.048 24.5529 389.456C23.8969 388.848 23.1049 388.544 22.1769 388.544C20.4489 388.544 19.1929 389.336 18.4089 390.92L16.9929 390.08C17.5209 389.04 18.2409 388.256 19.1529 387.728C20.0649 387.184 21.0729 386.912 22.1769 386.912C23.5209 386.912 24.6969 387.368 25.7049 388.28C26.7289 389.176 27.2409 390.4 27.2409 391.952C27.2409 392.928 26.9689 393.864 26.4249 394.76C25.8809 395.656 25.1129 396.6 24.1209 397.592L19.3209 402.368H27.6009V404H16.9209ZM40.5759 401.936C39.4719 403.504 37.9119 404.288 35.8959 404.288C33.8799 404.288 32.3119 403.504 31.1919 401.936C30.0879 400.352 29.5359 398.24 29.5359 395.6C29.5359 392.96 30.0879 390.856 31.1919 389.288C32.3119 387.704 33.8799 386.912 35.8959 386.912C37.9119 386.912 39.4719 387.704 40.5759 389.288C41.6959 390.856 42.2559 392.96 42.2559 395.6C42.2559 398.24 41.6959 400.352 40.5759 401.936ZM32.4399 400.808C33.2719 402.04 34.4239 402.656 35.8959 402.656C37.3679 402.656 38.5119 402.04 39.3279 400.808C40.1599 399.576 40.5759 397.84 40.5759 395.6C40.5759 393.36 40.1599 391.624 39.3279 390.392C38.5119 389.16 37.3679 388.544 35.8959 388.544C34.4239 388.544 33.2719 389.16 32.4399 390.392C31.6239 391.624 31.2159 393.36 31.2159 395.6C31.2159 397.84 31.6239 399.576 32.4399 400.808ZM48.0964 394.112C47.0564 394.112 46.1844 393.768 45.4804 393.08C44.7764 392.376 44.4244 391.52 44.4244 390.512C44.4244 389.504 44.7764 388.656 45.4804 387.968C46.1844 387.264 47.0564 386.912 48.0964 386.912C49.1364 386.912 50.0084 387.264 50.7124 387.968C51.4164 388.656 51.7684 389.504 51.7684 390.512C51.7684 391.52 51.4244 392.376 50.7364 393.08C50.0484 393.768 49.1684 394.112 48.0964 394.112ZM46.5604 392.048C46.9604 392.464 47.4724 392.672 48.0964 392.672C48.7204 392.672 49.2324 392.464 49.6324 392.048C50.0324 391.632 50.2324 391.12 50.2324 390.512C50.2324 389.904 50.0324 389.392 49.6324 388.976C49.2324 388.56 48.7204 388.352 48.0964 388.352C47.4724 388.352 46.9604 388.56 46.5604 388.976C46.1604 389.392 45.9604 389.904 45.9604 390.512C45.9604 391.12 46.1604 391.632 46.5604 392.048ZM45.2644 401.72L56.5204 389.072L57.5524 389.648L46.2724 402.296L45.2644 401.72ZM57.5044 403.256C56.8004 403.944 55.9284 404.288 54.8884 404.288C53.8484 404.288 52.9764 403.944 52.2724 403.256C51.5684 402.552 51.2164 401.696 51.2164 400.688C51.2164 399.68 51.5684 398.832 52.2724 398.144C52.9764 397.44 53.8484 397.088 54.8884 397.088C55.9284 397.088 56.8004 397.44 57.5044 398.144C58.2084 398.832 58.5604 399.68 58.5604 400.688C58.5604 401.696 58.2084 402.552 57.5044 403.256ZM53.3524 402.224C53.7524 402.64 54.2644 402.848 54.8884 402.848C55.5124 402.848 56.0244 402.64 56.4244 402.224C56.8244 401.808 57.0244 401.296 57.0244 400.688C57.0244 400.08 56.8244 399.568 56.4244 399.152C56.0244 398.736 55.5124 398.528 54.8884 398.528C54.2644 398.528 53.7524 398.736 53.3524 399.152C52.9524 399.568 52.7524 400.08 52.7524 400.688C52.7524 401.296 52.9524 401.808 53.3524 402.224Z" fill="#004AF5"/>
<line x1="84" y1="395.75" x2="1423" y2="395.75" stroke="#004AF5" stroke-width="0.5"/>
<path d="M40.5759 593.936C39.4719 595.504 37.9119 596.288 35.8959 596.288C33.8799 596.288 32.3119 595.504 31.1919 593.936C30.0879 592.352 29.5359 590.24 29.5359 587.6C29.5359 584.96 30.0879 582.856 31.1919 581.288C32.3119 579.704 33.8799 578.912 35.8959 578.912C37.9119 578.912 39.4719 579.704 40.5759 581.288C41.6959 582.856 42.2559 584.96 42.2559 587.6C42.2559 590.24 41.6959 592.352 40.5759 593.936ZM32.4399 592.808C33.2719 594.04 34.4239 594.656 35.8959 594.656C37.3679 594.656 38.5119 594.04 39.3279 592.808C40.1599 591.576 40.5759 589.84 40.5759 587.6C40.5759 585.36 40.1599 583.624 39.3279 582.392C38.5119 581.16 37.3679 580.544 35.8959 580.544C34.4239 580.544 33.2719 581.16 32.4399 582.392C31.6239 583.624 31.2159 585.36 31.2159 587.6C31.2159 589.84 31.6239 591.576 32.4399 592.808ZM48.0964 586.112C47.0564 586.112 46.1844 585.768 45.4804 585.08C44.7764 584.376 44.4244 583.52 44.4244 582.512C44.4244 581.504 44.7764 580.656 45.4804 579.968C46.1844 579.264 47.0564 578.912 48.0964 578.912C49.1364 578.912 50.0084 579.264 50.7124 579.968C51.4164 580.656 51.7684 581.504 51.7684 582.512C51.7684 583.52 51.4244 584.376 50.7364 585.08C50.0484 585.768 49.1684 586.112 48.0964 586.112ZM46.5604 584.048C46.9604 584.464 47.4724 584.672 48.0964 584.672C48.7204 584.672 49.2324 584.464 49.6324 584.048C50.0324 583.632 50.2324 583.12 50.2324 582.512C50.2324 581.904 50.0324 581.392 49.6324 580.976C49.2324 580.56 48.7204 580.352 48.0964 580.352C47.4724 580.352 46.9604 580.56 46.5604 580.976C46.1604 581.392 45.9604 581.904 45.9604 582.512C45.9604 583.12 46.1604 583.632 46.5604 584.048ZM45.2644 593.72L56.5204 581.072L57.5524 581.648L46.2724 594.296L45.2644 593.72ZM57.5044 595.256C56.8004 595.944 55.9284 596.288 54.8884 596.288C53.8484 596.288 52.9764 595.944 52.2724 595.256C51.5684 594.552 51.2164 593.696 51.2164 592.688C51.2164 591.68 51.5684 590.832 52.2724 590.144C52.9764 589.44 53.8484 589.088 54.8884 589.088C55.9284 589.088 56.8004 589.44 57.5044 590.144C58.2084 590.832 58.5604 591.68 58.5604 592.688C58.5604 593.696 58.2084 594.552 57.5044 595.256ZM53.3524 594.224C53.7524 594.64 54.2644 594.848 54.8884 594.848C55.5124 594.848 56.0244 594.64 56.4244 594.224C56.8244 593.808 57.0244 593.296 57.0244 592.688C57.0244 592.08 56.8244 591.568 56.4244 591.152C56.0244 590.736 55.5124 590.528 54.8884 590.528C54.2644 590.528 53.7524 590.736 53.3524 591.152C52.9524 591.568 52.7524 592.08 52.7524 592.688C52.7524 593.296 52.9524 593.808 53.3524 594.224Z" fill="#004AF5"/>
<line x1="84" y1="587.75" x2="1423" y2="587.75" stroke="#004AF5" stroke-width="0.5"/>
</svg>
