<svg width="1423" height="600" viewBox="0 0 1423 600" fill="none" xmlns="http://www.w3.org/2000/svg">
<path d="M4.8 3.2H6.24V20H4.56V5.048L0.792 6.176L0.36 4.736L4.8 3.2ZM20.3963 17.936C19.2923 19.504 17.7323 20.288 15.7163 20.288C13.7003 20.288 12.1323 19.504 11.0123 17.936C9.90825 16.352 9.35625 14.24 9.35625 11.6C9.35625 8.96 9.90825 6.856 11.0123 5.288C12.1323 3.704 13.7003 2.912 15.7163 2.912C17.7323 2.912 19.2923 3.704 20.3963 5.288C21.5163 6.856 22.0763 8.96 22.0763 11.6C22.0763 14.24 21.5163 16.352 20.3963 17.936ZM12.2603 16.808C13.0923 18.04 14.2443 18.656 15.7163 18.656C17.1883 18.656 18.3323 18.04 19.1483 16.808C19.9803 15.576 20.3963 13.84 20.3963 11.6C20.3963 9.36 19.9803 7.624 19.1483 6.392C18.3323 5.16 17.1883 4.544 15.7163 4.544C14.2443 4.544 13.0923 5.16 12.2603 6.392C11.4443 7.624 11.0363 9.36 11.0363 11.6C11.0363 13.84 11.4443 15.576 12.2603 16.808ZM35.5134 17.936C34.4094 19.504 32.8494 20.288 30.8334 20.288C28.8174 20.288 27.2494 19.504 26.1294 17.936C25.0254 16.352 24.4734 14.24 24.4734 11.6C24.4734 8.96 25.0254 6.856 26.1294 5.288C27.2494 3.704 28.8174 2.912 30.8334 2.912C32.8494 2.912 34.4094 3.704 35.5134 5.288C36.6334 6.856 37.1934 8.96 37.1934 11.6C37.1934 14.24 36.6334 16.352 35.5134 17.936ZM27.3774 16.808C28.2094 18.04 29.3614 18.656 30.8334 18.656C32.3054 18.656 33.4494 18.04 34.2654 16.808C35.0974 15.576 35.5134 13.84 35.5134 11.6C35.5134 9.36 35.0974 7.624 34.2654 6.392C33.4494 5.16 32.3054 4.544 30.8334 4.544C29.3614 4.544 28.2094 5.16 27.3774 6.392C26.5614 7.624 26.1534 9.36 26.1534 11.6C26.1534 13.84 26.5614 15.576 27.3774 16.808ZM43.0339 10.112C41.9939 10.112 41.1219 9.768 40.4179 9.08C39.7139 8.376 39.3619 7.52 39.3619 6.512C39.3619 5.504 39.7139 4.656 40.4179 3.968C41.1219 3.264 41.9939 2.912 43.0339 2.912C44.0739 2.912 44.9459 3.264 45.6499 3.968C46.3539 4.656 46.7059 5.504 46.7059 6.512C46.7059 7.52 46.3619 8.376 45.6739 9.08C44.9859 9.768 44.1059 10.112 43.0339 10.112ZM41.4979 8.048C41.8979 8.464 42.4099 8.672 43.0339 8.672C43.6579 8.672 44.1699 8.464 44.5699 8.048C44.9699 7.632 45.1699 7.12 45.1699 6.512C45.1699 5.904 44.9699 5.392 44.5699 4.976C44.1699 4.56 43.6579 4.352 43.0339 4.352C42.4099 4.352 41.8979 4.56 41.4979 4.976C41.0979 5.392 40.8979 5.904 40.8979 6.512C40.8979 7.12 41.0979 7.632 41.4979 8.048ZM40.2019 17.72L51.4579 5.072L52.4899 5.648L41.2099 18.296L40.2019 17.72ZM52.4419 19.256C51.7379 19.944 50.8659 20.288 49.8259 20.288C48.7859 20.288 47.9139 19.944 47.2099 19.256C46.5059 18.552 46.1539 17.696 46.1539 16.688C46.1539 15.68 46.5059 14.832 47.2099 14.144C47.9139 13.44 48.7859 13.088 49.8259 13.088C50.8659 13.088 51.7379 13.44 52.4419 14.144C53.1459 14.832 53.4979 15.68 53.4979 16.688C53.4979 17.696 53.1459 18.552 52.4419 19.256ZM48.2899 18.224C48.6899 18.64 49.2019 18.848 49.8259 18.848C50.4499 18.848 50.9619 18.64 51.3619 18.224C51.7619 17.808 51.9619 17.296 51.9619 16.688C51.9619 16.08 51.7619 15.568 51.3619 15.152C50.9619 14.736 50.4499 14.528 49.8259 14.528C49.2019 14.528 48.6899 14.736 48.2899 15.152C47.8899 15.568 47.6899 16.08 47.6899 16.688C47.6899 17.296 47.8899 17.808 48.2899 18.224Z" fill="#004AF5"/>
<line x1="79" y1="11.75" x2="1423" y2="11.75" stroke="#004AF5" stroke-width="0.5"/>
<path d="M9.408 126.536C10.256 126.936 10.928 127.496 11.424 128.216C11.936 128.92 12.192 129.728 12.192 130.64C12.192 132.16 11.656 133.352 10.584 134.216C9.512 135.064 8.176 135.488 6.576 135.488C4.976 135.488 3.64 135.064 2.568 134.216C1.496 133.352 0.96 132.16 0.96 130.64C0.96 129.728 1.208 128.92 1.704 128.216C2.216 127.496 2.896 126.936 3.744 126.536C2.256 125.688 1.512 124.432 1.512 122.768C1.512 121.264 2.008 120.112 3 119.312C4.008 118.512 5.2 118.112 6.576 118.112C7.952 118.112 9.136 118.512 10.128 119.312C11.136 120.112 11.64 121.264 11.64 122.768C11.64 124.432 10.896 125.688 9.408 126.536ZM8.976 120.488C8.336 119.992 7.536 119.744 6.576 119.744C5.616 119.744 4.808 119.992 4.152 120.488C3.512 120.984 3.192 121.744 3.192 122.768C3.192 123.728 3.52 124.472 4.176 125C4.848 125.528 5.648 125.792 6.576 125.792C7.504 125.792 8.296 125.528 8.952 125C9.624 124.472 9.96 123.728 9.96 122.768C9.96 121.744 9.632 120.984 8.976 120.488ZM3.72 133.04C4.44 133.584 5.392 133.856 6.576 133.856C7.76 133.856 8.712 133.584 9.432 133.04C10.152 132.48 10.512 131.68 10.512 130.64C10.512 129.6 10.152 128.808 9.432 128.264C8.712 127.704 7.76 127.424 6.576 127.424C5.392 127.424 4.44 127.704 3.72 128.264C3 128.808 2.64 129.6 2.64 130.64C2.64 131.68 3 132.48 3.72 133.04ZM25.3884 133.136C24.2844 134.704 22.7244 135.488 20.7084 135.488C18.6924 135.488 17.1244 134.704 16.0044 133.136C14.9004 131.552 14.3484 129.44 14.3484 126.8C14.3484 124.16 14.9004 122.056 16.0044 120.488C17.1244 118.904 18.6924 118.112 20.7084 118.112C22.7244 118.112 24.2844 118.904 25.3884 120.488C26.5084 122.056 27.0684 124.16 27.0684 126.8C27.0684 129.44 26.5084 131.552 25.3884 133.136ZM17.2524 132.008C18.0844 133.24 19.2364 133.856 20.7084 133.856C22.1804 133.856 23.3244 133.24 24.1404 132.008C24.9724 130.776 25.3884 129.04 25.3884 126.8C25.3884 124.56 24.9724 122.824 24.1404 121.592C23.3244 120.36 22.1804 119.744 20.7084 119.744C19.2364 119.744 18.0844 120.36 17.2524 121.592C16.4364 122.824 16.0284 124.56 16.0284 126.8C16.0284 129.04 16.4364 130.776 17.2524 132.008ZM32.9089 125.312C31.8689 125.312 30.9969 124.968 30.2929 124.28C29.5889 123.576 29.2369 122.72 29.2369 121.712C29.2369 120.704 29.5889 119.856 30.2929 119.168C30.9969 118.464 31.8689 118.112 32.9089 118.112C33.9489 118.112 34.8209 118.464 35.5249 119.168C36.2289 119.856 36.5809 120.704 36.5809 121.712C36.5809 122.72 36.2369 123.576 35.5489 124.28C34.8609 124.968 33.9809 125.312 32.9089 125.312ZM31.3729 123.248C31.7729 123.664 32.2849 123.872 32.9089 123.872C33.5329 123.872 34.0449 123.664 34.4449 123.248C34.8449 122.832 35.0449 122.32 35.0449 121.712C35.0449 121.104 34.8449 120.592 34.4449 120.176C34.0449 119.76 33.5329 119.552 32.9089 119.552C32.2849 119.552 31.7729 119.76 31.3729 120.176C30.9729 120.592 30.7729 121.104 30.7729 121.712C30.7729 122.32 30.9729 122.832 31.3729 123.248ZM30.0769 132.92L41.3329 120.272L42.3649 120.848L31.0849 133.496L30.0769 132.92ZM42.3169 134.456C41.6129 135.144 40.7409 135.488 39.7009 135.488C38.6609 135.488 37.7889 135.144 37.0849 134.456C36.3809 133.752 36.0289 132.896 36.0289 131.888C36.0289 130.88 36.3809 130.032 37.0849 129.344C37.7889 128.64 38.6609 128.288 39.7009 128.288C40.7409 128.288 41.6129 128.64 42.3169 129.344C43.0209 130.032 43.3729 130.88 43.3729 131.888C43.3729 132.896 43.0209 133.752 42.3169 134.456ZM38.1649 133.424C38.5649 133.84 39.0769 134.048 39.7009 134.048C40.3249 134.048 40.8369 133.84 41.2369 133.424C41.6369 133.008 41.8369 132.496 41.8369 131.888C41.8369 131.28 41.6369 130.768 41.2369 130.352C40.8369 129.936 40.3249 129.728 39.7009 129.728C39.0769 129.728 38.5649 129.936 38.1649 130.352C37.7649 130.768 37.5649 131.28 37.5649 131.888C37.5649 132.496 37.7649 133.008 38.1649 133.424Z" fill="#004AF5"/>
<line x1="69" y1="126.95" x2="1423" y2="126.95" stroke="#004AF5" stroke-width="0.5"/>
<path d="M6.36 239.6C8.008 239.6 9.36 240.12 10.416 241.16C11.472 242.184 12 243.512 12 245.144C12 246.776 11.472 248.112 10.416 249.152C9.36 250.176 8.008 250.688 6.36 250.688C4.712 250.688 3.36 250.176 2.304 249.152C1.248 248.112 0.72 246.776 0.72 245.144C0.72 243.88 1.064 242.76 1.752 241.784L7.248 233.6H9.144L5.016 239.744C5.448 239.648 5.896 239.6 6.36 239.6ZM3.48 247.976C4.216 248.696 5.176 249.056 6.36 249.056C7.544 249.056 8.496 248.696 9.216 247.976C9.952 247.256 10.32 246.312 10.32 245.144C10.32 243.976 9.952 243.032 9.216 242.312C8.496 241.592 7.544 241.232 6.36 241.232C5.176 241.232 4.216 241.592 3.48 242.312C2.76 243.032 2.4 243.976 2.4 245.144C2.4 246.312 2.76 247.256 3.48 247.976ZM24.9666 248.336C23.8626 249.904 22.3026 250.688 20.2866 250.688C18.2706 250.688 16.7026 249.904 15.5826 248.336C14.4786 246.752 13.9266 244.64 13.9266 242C13.9266 239.36 14.4786 237.256 15.5826 235.688C16.7026 234.104 18.2706 233.312 20.2866 233.312C22.3026 233.312 23.8626 234.104 24.9666 235.688C26.0866 237.256 26.6466 239.36 26.6466 242C26.6466 244.64 26.0866 246.752 24.9666 248.336ZM16.8306 247.208C17.6626 248.44 18.8146 249.056 20.2866 249.056C21.7586 249.056 22.9026 248.44 23.7186 247.208C24.5506 245.976 24.9666 244.24 24.9666 242C24.9666 239.76 24.5506 238.024 23.7186 236.792C22.9026 235.56 21.7586 234.944 20.2866 234.944C18.8146 234.944 17.6626 235.56 16.8306 236.792C16.0146 238.024 15.6066 239.76 15.6066 242C15.6066 244.24 16.0146 245.976 16.8306 247.208ZM32.487 240.512C31.447 240.512 30.575 240.168 29.871 239.48C29.167 238.776 28.815 237.92 28.815 236.912C28.815 235.904 29.167 235.056 29.871 234.368C30.575 233.664 31.447 233.312 32.487 233.312C33.527 233.312 34.399 233.664 35.103 234.368C35.807 235.056 36.159 235.904 36.159 236.912C36.159 237.92 35.815 238.776 35.127 239.48C34.439 240.168 33.559 240.512 32.487 240.512ZM30.951 238.448C31.351 238.864 31.863 239.072 32.487 239.072C33.111 239.072 33.623 238.864 34.023 238.448C34.423 238.032 34.623 237.52 34.623 236.912C34.623 236.304 34.423 235.792 34.023 235.376C33.623 234.96 33.111 234.752 32.487 234.752C31.863 234.752 31.351 234.96 30.951 235.376C30.551 235.792 30.351 236.304 30.351 236.912C30.351 237.52 30.551 238.032 30.951 238.448ZM29.655 248.12L40.911 235.472L41.943 236.048L30.663 248.696L29.655 248.12ZM41.895 249.656C41.191 250.344 40.319 250.688 39.279 250.688C38.239 250.688 37.367 250.344 36.663 249.656C35.959 248.952 35.607 248.096 35.607 247.088C35.607 246.08 35.959 245.232 36.663 244.544C37.367 243.84 38.239 243.488 39.279 243.488C40.319 243.488 41.191 243.84 41.895 244.544C42.599 245.232 42.951 246.08 42.951 247.088C42.951 248.096 42.599 248.952 41.895 249.656ZM37.743 248.624C38.143 249.04 38.655 249.248 39.279 249.248C39.903 249.248 40.415 249.04 40.815 248.624C41.215 248.208 41.415 247.696 41.415 247.088C41.415 246.48 41.215 245.968 40.815 245.552C40.415 245.136 39.903 244.928 39.279 244.928C38.655 244.928 38.143 245.136 37.743 245.552C37.343 245.968 37.143 246.48 37.143 247.088C37.143 247.696 37.343 248.208 37.743 248.624Z" fill="#004AF5"/>
<line x1="69" y1="242.15" x2="1423" y2="242.15" stroke="#004AF5" stroke-width="0.5"/>
<path d="M13.32 360.656V362.24H11.16V365.6H9.48V362.24H0.6V360.656L6.84 348.8H8.688L2.448 360.656H9.48V355.52H11.16V360.656H13.32ZM26.1619 363.536C25.0579 365.104 23.4979 365.888 21.4819 365.888C19.4659 365.888 17.8979 365.104 16.7779 363.536C15.6739 361.952 15.1219 359.84 15.1219 357.2C15.1219 354.56 15.6739 352.456 16.7779 350.888C17.8979 349.304 19.4659 348.512 21.4819 348.512C23.4979 348.512 25.0579 349.304 26.1619 350.888C27.2819 352.456 27.8419 354.56 27.8419 357.2C27.8419 359.84 27.2819 361.952 26.1619 363.536ZM18.0259 362.408C18.8579 363.64 20.0099 364.256 21.4819 364.256C22.9539 364.256 24.0979 363.64 24.9139 362.408C25.7459 361.176 26.1619 359.44 26.1619 357.2C26.1619 354.96 25.7459 353.224 24.9139 351.992C24.0979 350.76 22.9539 350.144 21.4819 350.144C20.0099 350.144 18.8579 350.76 18.0259 351.992C17.2099 353.224 16.8019 354.96 16.8019 357.2C16.8019 359.44 17.2099 361.176 18.0259 362.408ZM33.6823 355.712C32.6423 355.712 31.7703 355.368 31.0663 354.68C30.3623 353.976 30.0103 353.12 30.0103 352.112C30.0103 351.104 30.3623 350.256 31.0663 349.568C31.7703 348.864 32.6423 348.512 33.6823 348.512C34.7223 348.512 35.5943 348.864 36.2983 349.568C37.0023 350.256 37.3543 351.104 37.3543 352.112C37.3543 353.12 37.0103 353.976 36.3223 354.68C35.6343 355.368 34.7543 355.712 33.6823 355.712ZM32.1463 353.648C32.5463 354.064 33.0583 354.272 33.6823 354.272C34.3063 354.272 34.8183 354.064 35.2183 353.648C35.6183 353.232 35.8183 352.72 35.8183 352.112C35.8183 351.504 35.6183 350.992 35.2183 350.576C34.8183 350.16 34.3063 349.952 33.6823 349.952C33.0583 349.952 32.5463 350.16 32.1463 350.576C31.7463 350.992 31.5463 351.504 31.5463 352.112C31.5463 352.72 31.7463 353.232 32.1463 353.648ZM30.8503 363.32L42.1063 350.672L43.1383 351.248L31.8583 363.896L30.8503 363.32ZM43.0903 364.856C42.3863 365.544 41.5143 365.888 40.4743 365.888C39.4343 365.888 38.5623 365.544 37.8583 364.856C37.1543 364.152 36.8023 363.296 36.8023 362.288C36.8023 361.28 37.1543 360.432 37.8583 359.744C38.5623 359.04 39.4343 358.688 40.4743 358.688C41.5143 358.688 42.3863 359.04 43.0903 359.744C43.7943 360.432 44.1463 361.28 44.1463 362.288C44.1463 363.296 43.7943 364.152 43.0903 364.856ZM38.9383 363.824C39.3383 364.24 39.8503 364.448 40.4743 364.448C41.0983 364.448 41.6103 364.24 42.0103 363.824C42.4103 363.408 42.6103 362.896 42.6103 362.288C42.6103 361.68 42.4103 361.168 42.0103 360.752C41.6103 360.336 41.0983 360.128 40.4743 360.128C39.8503 360.128 39.3383 360.336 38.9383 360.752C38.5383 361.168 38.3383 361.68 38.3383 362.288C38.3383 362.896 38.5383 363.408 38.9383 363.824Z" fill="#004AF5"/>
<line x1="70" y1="357.35" x2="1423" y2="357.35" stroke="#004AF5" stroke-width="0.5"/>
<path d="M0.96 480.8V479.288L7.008 473.192C8.736 471.464 9.6 469.984 9.6 468.752C9.6 467.68 9.264 466.848 8.592 466.256C7.936 465.648 7.144 465.344 6.216 465.344C4.488 465.344 3.232 466.136 2.448 467.72L1.032 466.88C1.56 465.84 2.28 465.056 3.192 464.528C4.104 463.984 5.112 463.712 6.216 463.712C7.56 463.712 8.736 464.168 9.744 465.08C10.768 465.976 11.28 467.2 11.28 468.752C11.28 469.728 11.008 470.664 10.464 471.56C9.92 472.456 9.152 473.4 8.16 474.392L3.36 479.168H11.64V480.8H0.96ZM24.615 478.736C23.511 480.304 21.951 481.088 19.935 481.088C17.919 481.088 16.351 480.304 15.231 478.736C14.127 477.152 13.575 475.04 13.575 472.4C13.575 469.76 14.127 467.656 15.231 466.088C16.351 464.504 17.919 463.712 19.935 463.712C21.951 463.712 23.511 464.504 24.615 466.088C25.735 467.656 26.295 469.76 26.295 472.4C26.295 475.04 25.735 477.152 24.615 478.736ZM16.479 477.608C17.311 478.84 18.463 479.456 19.935 479.456C21.407 479.456 22.551 478.84 23.367 477.608C24.199 476.376 24.615 474.64 24.615 472.4C24.615 470.16 24.199 468.424 23.367 467.192C22.551 465.96 21.407 465.344 19.935 465.344C18.463 465.344 17.311 465.96 16.479 467.192C15.663 468.424 15.255 470.16 15.255 472.4C15.255 474.64 15.663 476.376 16.479 477.608ZM32.1354 470.912C31.0954 470.912 30.2234 470.568 29.5194 469.88C28.8154 469.176 28.4634 468.32 28.4634 467.312C28.4634 466.304 28.8154 465.456 29.5194 464.768C30.2234 464.064 31.0954 463.712 32.1354 463.712C33.1754 463.712 34.0474 464.064 34.7514 464.768C35.4554 465.456 35.8074 466.304 35.8074 467.312C35.8074 468.32 35.4634 469.176 34.7754 469.88C34.0874 470.568 33.2074 470.912 32.1354 470.912ZM30.5994 468.848C30.9994 469.264 31.5114 469.472 32.1354 469.472C32.7594 469.472 33.2714 469.264 33.6714 468.848C34.0714 468.432 34.2714 467.92 34.2714 467.312C34.2714 466.704 34.0714 466.192 33.6714 465.776C33.2714 465.36 32.7594 465.152 32.1354 465.152C31.5114 465.152 30.9994 465.36 30.5994 465.776C30.1994 466.192 29.9994 466.704 29.9994 467.312C29.9994 467.92 30.1994 468.432 30.5994 468.848ZM29.3034 478.52L40.5594 465.872L41.5914 466.448L30.3114 479.096L29.3034 478.52ZM41.5434 480.056C40.8394 480.744 39.9674 481.088 38.9274 481.088C37.8874 481.088 37.0154 480.744 36.3114 480.056C35.6074 479.352 35.2554 478.496 35.2554 477.488C35.2554 476.48 35.6074 475.632 36.3114 474.944C37.0154 474.24 37.8874 473.888 38.9274 473.888C39.9674 473.888 40.8394 474.24 41.5434 474.944C42.2474 475.632 42.5994 476.48 42.5994 477.488C42.5994 478.496 42.2474 479.352 41.5434 480.056ZM37.3914 479.024C37.7914 479.44 38.3034 479.648 38.9274 479.648C39.5514 479.648 40.0634 479.44 40.4634 479.024C40.8634 478.608 41.0634 478.096 41.0634 477.488C41.0634 476.88 40.8634 476.368 40.4634 475.952C40.0634 475.536 39.5514 475.328 38.9274 475.328C38.3034 475.328 37.7914 475.536 37.3914 475.952C36.9914 476.368 36.7914 476.88 36.7914 477.488C36.7914 478.096 36.9914 478.608 37.3914 479.024Z" fill="#004AF5"/>
<line x1="69" y1="472.55" x2="1423" y2="472.55" stroke="#004AF5" stroke-width="0.5"/>
<path d="M12.24 593.936C11.136 595.504 9.576 596.288 7.56 596.288C5.544 596.288 3.976 595.504 2.856 593.936C1.752 592.352 1.2 590.24 1.2 587.6C1.2 584.96 1.752 582.856 2.856 581.288C3.976 579.704 5.544 578.912 7.56 578.912C9.576 578.912 11.136 579.704 12.24 581.288C13.36 582.856 13.92 584.96 13.92 587.6C13.92 590.24 13.36 592.352 12.24 593.936ZM4.104 592.808C4.936 594.04 6.088 594.656 7.56 594.656C9.032 594.656 10.176 594.04 10.992 592.808C11.824 591.576 12.24 589.84 12.24 587.6C12.24 585.36 11.824 583.624 10.992 582.392C10.176 581.16 9.032 580.544 7.56 580.544C6.088 580.544 4.936 581.16 4.104 582.392C3.288 583.624 2.88 585.36 2.88 587.6C2.88 589.84 3.288 591.576 4.104 592.808ZM19.7604 586.112C18.7204 586.112 17.8484 585.768 17.1444 585.08C16.4404 584.376 16.0884 583.52 16.0884 582.512C16.0884 581.504 16.4404 580.656 17.1444 579.968C17.8484 579.264 18.7204 578.912 19.7604 578.912C20.8004 578.912 21.6724 579.264 22.3764 579.968C23.0804 580.656 23.4324 581.504 23.4324 582.512C23.4324 583.52 23.0884 584.376 22.4004 585.08C21.7124 585.768 20.8324 586.112 19.7604 586.112ZM18.2244 584.048C18.6244 584.464 19.1364 584.672 19.7604 584.672C20.3844 584.672 20.8964 584.464 21.2964 584.048C21.6964 583.632 21.8964 583.12 21.8964 582.512C21.8964 581.904 21.6964 581.392 21.2964 580.976C20.8964 580.56 20.3844 580.352 19.7604 580.352C19.1364 580.352 18.6244 580.56 18.2244 580.976C17.8244 581.392 17.6244 581.904 17.6244 582.512C17.6244 583.12 17.8244 583.632 18.2244 584.048ZM16.9284 593.72L28.1844 581.072L29.2164 581.648L17.9364 594.296L16.9284 593.72ZM29.1684 595.256C28.4644 595.944 27.5924 596.288 26.5524 596.288C25.5124 596.288 24.6404 595.944 23.9364 595.256C23.2324 594.552 22.8804 593.696 22.8804 592.688C22.8804 591.68 23.2324 590.832 23.9364 590.144C24.6404 589.44 25.5124 589.088 26.5524 589.088C27.5924 589.088 28.4644 589.44 29.1684 590.144C29.8724 590.832 30.2244 591.68 30.2244 592.688C30.2244 593.696 29.8724 594.552 29.1684 595.256ZM25.0164 594.224C25.4164 594.64 25.9284 594.848 26.5524 594.848C27.1764 594.848 27.6884 594.64 28.0884 594.224C28.4884 593.808 28.6884 593.296 28.6884 592.688C28.6884 592.08 28.4884 591.568 28.0884 591.152C27.6884 590.736 27.1764 590.528 26.5524 590.528C25.9284 590.528 25.4164 590.736 25.0164 591.152C24.6164 591.568 24.4164 592.08 24.4164 592.688C24.4164 593.296 24.6164 593.808 25.0164 594.224Z" fill="#004AF5"/>
<line x1="56" y1="587.75" x2="1423" y2="587.75" stroke="#004AF5" stroke-width="0.5"/>
</svg>
