<svg width="1423" height="600" viewBox="0 0 1423 600" fill="none" xmlns="http://www.w3.org/2000/svg">
<path d="M24.5955 11.336C25.4435 11.736 26.1155 12.296 26.6115 13.016C27.1235 13.72 27.3795 14.528 27.3795 15.44C27.3795 16.96 26.8435 18.152 25.7715 19.016C24.6995 19.864 23.3635 20.288 21.7635 20.288C20.1635 20.288 18.8275 19.864 17.7555 19.016C16.6835 18.152 16.1475 16.96 16.1475 15.44C16.1475 14.528 16.3955 13.72 16.8915 13.016C17.4035 12.296 18.0835 11.736 18.9315 11.336C17.4435 10.488 16.6995 9.232 16.6995 7.568C16.6995 6.064 17.1955 4.912 18.1875 4.112C19.1955 3.312 20.3875 2.912 21.7635 2.912C23.1395 2.912 24.3235 3.312 25.3155 4.112C26.3235 4.912 26.8275 6.064 26.8275 7.568C26.8275 9.232 26.0835 10.488 24.5955 11.336ZM24.1635 5.288C23.5235 4.792 22.7235 4.544 21.7635 4.544C20.8035 4.544 19.9955 4.792 19.3395 5.288C18.6995 5.784 18.3795 6.544 18.3795 7.568C18.3795 8.528 18.7075 9.272 19.3635 9.8C20.0355 10.328 20.8355 10.592 21.7635 10.592C22.6915 10.592 23.4835 10.328 24.1395 9.8C24.8115 9.272 25.1475 8.528 25.1475 7.568C25.1475 6.544 24.8195 5.784 24.1635 5.288ZM18.9075 17.84C19.6275 18.384 20.5795 18.656 21.7635 18.656C22.9475 18.656 23.8995 18.384 24.6195 17.84C25.3395 17.28 25.6995 16.48 25.6995 15.44C25.6995 14.4 25.3395 13.608 24.6195 13.064C23.8995 12.504 22.9475 12.224 21.7635 12.224C20.5795 12.224 19.6275 12.504 18.9075 13.064C18.1875 13.608 17.8275 14.4 17.8275 15.44C17.8275 16.48 18.1875 17.28 18.9075 17.84ZM40.5759 17.936C39.4719 19.504 37.9119 20.288 35.8959 20.288C33.8799 20.288 32.3119 19.504 31.1919 17.936C30.0879 16.352 29.5359 14.24 29.5359 11.6C29.5359 8.96 30.0879 6.856 31.1919 5.288C32.3119 3.704 33.8799 2.912 35.8959 2.912C37.9119 2.912 39.4719 3.704 40.5759 5.288C41.6959 6.856 42.2559 8.96 42.2559 11.6C42.2559 14.24 41.6959 16.352 40.5759 17.936ZM32.4399 16.808C33.2719 18.04 34.4239 18.656 35.8959 18.656C37.3679 18.656 38.5119 18.04 39.3279 16.808C40.1599 15.576 40.5759 13.84 40.5759 11.6C40.5759 9.36 40.1599 7.624 39.3279 6.392C38.5119 5.16 37.3679 4.544 35.8959 4.544C34.4239 4.544 33.2719 5.16 32.4399 6.392C31.6239 7.624 31.2159 9.36 31.2159 11.6C31.2159 13.84 31.6239 15.576 32.4399 16.808ZM48.0964 10.112C47.0564 10.112 46.1844 9.768 45.4804 9.08C44.7764 8.376 44.4244 7.52 44.4244 6.512C44.4244 5.504 44.7764 4.656 45.4804 3.968C46.1844 3.264 47.0564 2.912 48.0964 2.912C49.1364 2.912 50.0084 3.264 50.7124 3.968C51.4164 4.656 51.7684 5.504 51.7684 6.512C51.7684 7.52 51.4244 8.376 50.7364 9.08C50.0484 9.768 49.1684 10.112 48.0964 10.112ZM46.5604 8.048C46.9604 8.464 47.4724 8.672 48.0964 8.672C48.7204 8.672 49.2324 8.464 49.6324 8.048C50.0324 7.632 50.2324 7.12 50.2324 6.512C50.2324 5.904 50.0324 5.392 49.6324 4.976C49.2324 4.56 48.7204 4.352 48.0964 4.352C47.4724 4.352 46.9604 4.56 46.5604 4.976C46.1604 5.392 45.9604 5.904 45.9604 6.512C45.9604 7.12 46.1604 7.632 46.5604 8.048ZM45.2644 17.72L56.5204 5.072L57.5524 5.648L46.2724 18.296L45.2644 17.72ZM57.5044 19.256C56.8004 19.944 55.9284 20.288 54.8884 20.288C53.8484 20.288 52.9764 19.944 52.2724 19.256C51.5684 18.552 51.2164 17.696 51.2164 16.688C51.2164 15.68 51.5684 14.832 52.2724 14.144C52.9764 13.44 53.8484 13.088 54.8884 13.088C55.9284 13.088 56.8004 13.44 57.5044 14.144C58.2084 14.832 58.5604 15.68 58.5604 16.688C58.5604 17.696 58.2084 18.552 57.5044 19.256ZM53.3524 18.224C53.7524 18.64 54.2644 18.848 54.8884 18.848C55.5124 18.848 56.0244 18.64 56.4244 18.224C56.8244 17.808 57.0244 17.296 57.0244 16.688C57.0244 16.08 56.8244 15.568 56.4244 15.152C56.0244 14.736 55.5124 14.528 54.8884 14.528C54.2644 14.528 53.7524 14.736 53.3524 15.152C52.9524 15.568 52.7524 16.08 52.7524 16.688C52.7524 17.296 52.9524 17.808 53.3524 18.224Z" fill="#0C1B3D"/>
<line x1="84" y1="11.75" x2="1423" y2="11.75" stroke="#0C1B3D" stroke-width="0.5"/>
<path d="M21.9694 153.2C23.6174 153.2 24.9694 153.72 26.0254 154.76C27.0814 155.784 27.6094 157.112 27.6094 158.744C27.6094 160.376 27.0814 161.712 26.0254 162.752C24.9694 163.776 23.6174 164.288 21.9694 164.288C20.3214 164.288 18.9694 163.776 17.9134 162.752C16.8574 161.712 16.3294 160.376 16.3294 158.744C16.3294 157.48 16.6734 156.36 17.3614 155.384L22.8574 147.2H24.7534L20.6254 153.344C21.0574 153.248 21.5054 153.2 21.9694 153.2ZM19.0894 161.576C19.8254 162.296 20.7854 162.656 21.9694 162.656C23.1534 162.656 24.1054 162.296 24.8254 161.576C25.5614 160.856 25.9294 159.912 25.9294 158.744C25.9294 157.576 25.5614 156.632 24.8254 155.912C24.1054 155.192 23.1534 154.832 21.9694 154.832C20.7854 154.832 19.8254 155.192 19.0894 155.912C18.3694 156.632 18.0094 157.576 18.0094 158.744C18.0094 159.912 18.3694 160.856 19.0894 161.576ZM40.5759 161.936C39.4719 163.504 37.9119 164.288 35.8959 164.288C33.8799 164.288 32.3119 163.504 31.1919 161.936C30.0879 160.352 29.5359 158.24 29.5359 155.6C29.5359 152.96 30.0879 150.856 31.1919 149.288C32.3119 147.704 33.8799 146.912 35.8959 146.912C37.9119 146.912 39.4719 147.704 40.5759 149.288C41.6959 150.856 42.2559 152.96 42.2559 155.6C42.2559 158.24 41.6959 160.352 40.5759 161.936ZM32.4399 160.808C33.2719 162.04 34.4239 162.656 35.8959 162.656C37.3679 162.656 38.5119 162.04 39.3279 160.808C40.1599 159.576 40.5759 157.84 40.5759 155.6C40.5759 153.36 40.1599 151.624 39.3279 150.392C38.5119 149.16 37.3679 148.544 35.8959 148.544C34.4239 148.544 33.2719 149.16 32.4399 150.392C31.6239 151.624 31.2159 153.36 31.2159 155.6C31.2159 157.84 31.6239 159.576 32.4399 160.808ZM48.0964 154.112C47.0564 154.112 46.1844 153.768 45.4804 153.08C44.7764 152.376 44.4244 151.52 44.4244 150.512C44.4244 149.504 44.7764 148.656 45.4804 147.968C46.1844 147.264 47.0564 146.912 48.0964 146.912C49.1364 146.912 50.0084 147.264 50.7124 147.968C51.4164 148.656 51.7684 149.504 51.7684 150.512C51.7684 151.52 51.4244 152.376 50.7364 153.08C50.0484 153.768 49.1684 154.112 48.0964 154.112ZM46.5604 152.048C46.9604 152.464 47.4724 152.672 48.0964 152.672C48.7204 152.672 49.2324 152.464 49.6324 152.048C50.0324 151.632 50.2324 151.12 50.2324 150.512C50.2324 149.904 50.0324 149.392 49.6324 148.976C49.2324 148.56 48.7204 148.352 48.0964 148.352C47.4724 148.352 46.9604 148.56 46.5604 148.976C46.1604 149.392 45.9604 149.904 45.9604 150.512C45.9604 151.12 46.1604 151.632 46.5604 152.048ZM45.2644 161.72L56.5204 149.072L57.5524 149.648L46.2724 162.296L45.2644 161.72ZM57.5044 163.256C56.8004 163.944 55.9284 164.288 54.8884 164.288C53.8484 164.288 52.9764 163.944 52.2724 163.256C51.5684 162.552 51.2164 161.696 51.2164 160.688C51.2164 159.68 51.5684 158.832 52.2724 158.144C52.9764 157.44 53.8484 157.088 54.8884 157.088C55.9284 157.088 56.8004 157.44 57.5044 158.144C58.2084 158.832 58.5604 159.68 58.5604 160.688C58.5604 161.696 58.2084 162.552 57.5044 163.256ZM53.3524 162.224C53.7524 162.64 54.2644 162.848 54.8884 162.848C55.5124 162.848 56.0244 162.64 56.4244 162.224C56.8244 161.808 57.0244 161.296 57.0244 160.688C57.0244 160.08 56.8244 159.568 56.4244 159.152C56.0244 158.736 55.5124 158.528 54.8884 158.528C54.2644 158.528 53.7524 158.736 53.3524 159.152C52.9524 159.568 52.7524 160.08 52.7524 160.688C52.7524 161.296 52.9524 161.808 53.3524 162.224Z" fill="#0C1B3D"/>
<line x1="84" y1="155.75" x2="1423" y2="155.75" stroke="#0C1B3D" stroke-width="0.5"/>
<path d="M27.7341 303.056V304.64H25.5741V308H23.8941V304.64H15.0141V303.056L21.2541 291.2H23.1021L16.8621 303.056H23.8941V297.92H25.5741V303.056H27.7341ZM40.5759 305.936C39.4719 307.504 37.9119 308.288 35.8959 308.288C33.8799 308.288 32.3119 307.504 31.1919 305.936C30.0879 304.352 29.5359 302.24 29.5359 299.6C29.5359 296.96 30.0879 294.856 31.1919 293.288C32.3119 291.704 33.8799 290.912 35.8959 290.912C37.9119 290.912 39.4719 291.704 40.5759 293.288C41.6959 294.856 42.2559 296.96 42.2559 299.6C42.2559 302.24 41.6959 304.352 40.5759 305.936ZM32.4399 304.808C33.2719 306.04 34.4239 306.656 35.8959 306.656C37.3679 306.656 38.5119 306.04 39.3279 304.808C40.1599 303.576 40.5759 301.84 40.5759 299.6C40.5759 297.36 40.1599 295.624 39.3279 294.392C38.5119 293.16 37.3679 292.544 35.8959 292.544C34.4239 292.544 33.2719 293.16 32.4399 294.392C31.6239 295.624 31.2159 297.36 31.2159 299.6C31.2159 301.84 31.6239 303.576 32.4399 304.808ZM48.0964 298.112C47.0564 298.112 46.1844 297.768 45.4804 297.08C44.7764 296.376 44.4244 295.52 44.4244 294.512C44.4244 293.504 44.7764 292.656 45.4804 291.968C46.1844 291.264 47.0564 290.912 48.0964 290.912C49.1364 290.912 50.0084 291.264 50.7124 291.968C51.4164 292.656 51.7684 293.504 51.7684 294.512C51.7684 295.52 51.4244 296.376 50.7364 297.08C50.0484 297.768 49.1684 298.112 48.0964 298.112ZM46.5604 296.048C46.9604 296.464 47.4724 296.672 48.0964 296.672C48.7204 296.672 49.2324 296.464 49.6324 296.048C50.0324 295.632 50.2324 295.12 50.2324 294.512C50.2324 293.904 50.0324 293.392 49.6324 292.976C49.2324 292.56 48.7204 292.352 48.0964 292.352C47.4724 292.352 46.9604 292.56 46.5604 292.976C46.1604 293.392 45.9604 293.904 45.9604 294.512C45.9604 295.12 46.1604 295.632 46.5604 296.048ZM45.2644 305.72L56.5204 293.072L57.5524 293.648L46.2724 306.296L45.2644 305.72ZM57.5044 307.256C56.8004 307.944 55.9284 308.288 54.8884 308.288C53.8484 308.288 52.9764 307.944 52.2724 307.256C51.5684 306.552 51.2164 305.696 51.2164 304.688C51.2164 303.68 51.5684 302.832 52.2724 302.144C52.9764 301.44 53.8484 301.088 54.8884 301.088C55.9284 301.088 56.8004 301.44 57.5044 302.144C58.2084 302.832 58.5604 303.68 58.5604 304.688C58.5604 305.696 58.2084 306.552 57.5044 307.256ZM53.3524 306.224C53.7524 306.64 54.2644 306.848 54.8884 306.848C55.5124 306.848 56.0244 306.64 56.4244 306.224C56.8244 305.808 57.0244 305.296 57.0244 304.688C57.0244 304.08 56.8244 303.568 56.4244 303.152C56.0244 302.736 55.5124 302.528 54.8884 302.528C54.2644 302.528 53.7524 302.736 53.3524 303.152C52.9524 303.568 52.7524 304.08 52.7524 304.688C52.7524 305.296 52.9524 305.808 53.3524 306.224Z" fill="#0C1B3D"/>
<line x1="84" y1="299.75" x2="1423" y2="299.75" stroke="#0C1B3D" stroke-width="0.5"/>
<path d="M16.9209 452V450.488L22.9689 444.392C24.6969 442.664 25.5609 441.184 25.5609 439.952C25.5609 438.88 25.2249 438.048 24.5529 437.456C23.8969 436.848 23.1049 436.544 22.1769 436.544C20.4489 436.544 19.1929 437.336 18.4089 438.92L16.9929 438.08C17.5209 437.04 18.2409 436.256 19.1529 435.728C20.0649 435.184 21.0729 434.912 22.1769 434.912C23.5209 434.912 24.6969 435.368 25.7049 436.28C26.7289 437.176 27.2409 438.4 27.2409 439.952C27.2409 440.928 26.9689 441.864 26.4249 442.76C25.8809 443.656 25.1129 444.6 24.1209 445.592L19.3209 450.368H27.6009V452H16.9209ZM40.5759 449.936C39.4719 451.504 37.9119 452.288 35.8959 452.288C33.8799 452.288 32.3119 451.504 31.1919 449.936C30.0879 448.352 29.5359 446.24 29.5359 443.6C29.5359 440.96 30.0879 438.856 31.1919 437.288C32.3119 435.704 33.8799 434.912 35.8959 434.912C37.9119 434.912 39.4719 435.704 40.5759 437.288C41.6959 438.856 42.2559 440.96 42.2559 443.6C42.2559 446.24 41.6959 448.352 40.5759 449.936ZM32.4399 448.808C33.2719 450.04 34.4239 450.656 35.8959 450.656C37.3679 450.656 38.5119 450.04 39.3279 448.808C40.1599 447.576 40.5759 445.84 40.5759 443.6C40.5759 441.36 40.1599 439.624 39.3279 438.392C38.5119 437.16 37.3679 436.544 35.8959 436.544C34.4239 436.544 33.2719 437.16 32.4399 438.392C31.6239 439.624 31.2159 441.36 31.2159 443.6C31.2159 445.84 31.6239 447.576 32.4399 448.808ZM48.0964 442.112C47.0564 442.112 46.1844 441.768 45.4804 441.08C44.7764 440.376 44.4244 439.52 44.4244 438.512C44.4244 437.504 44.7764 436.656 45.4804 435.968C46.1844 435.264 47.0564 434.912 48.0964 434.912C49.1364 434.912 50.0084 435.264 50.7124 435.968C51.4164 436.656 51.7684 437.504 51.7684 438.512C51.7684 439.52 51.4244 440.376 50.7364 441.08C50.0484 441.768 49.1684 442.112 48.0964 442.112ZM46.5604 440.048C46.9604 440.464 47.4724 440.672 48.0964 440.672C48.7204 440.672 49.2324 440.464 49.6324 440.048C50.0324 439.632 50.2324 439.12 50.2324 438.512C50.2324 437.904 50.0324 437.392 49.6324 436.976C49.2324 436.56 48.7204 436.352 48.0964 436.352C47.4724 436.352 46.9604 436.56 46.5604 436.976C46.1604 437.392 45.9604 437.904 45.9604 438.512C45.9604 439.12 46.1604 439.632 46.5604 440.048ZM45.2644 449.72L56.5204 437.072L57.5524 437.648L46.2724 450.296L45.2644 449.72ZM57.5044 451.256C56.8004 451.944 55.9284 452.288 54.8884 452.288C53.8484 452.288 52.9764 451.944 52.2724 451.256C51.5684 450.552 51.2164 449.696 51.2164 448.688C51.2164 447.68 51.5684 446.832 52.2724 446.144C52.9764 445.44 53.8484 445.088 54.8884 445.088C55.9284 445.088 56.8004 445.44 57.5044 446.144C58.2084 446.832 58.5604 447.68 58.5604 448.688C58.5604 449.696 58.2084 450.552 57.5044 451.256ZM53.3524 450.224C53.7524 450.64 54.2644 450.848 54.8884 450.848C55.5124 450.848 56.0244 450.64 56.4244 450.224C56.8244 449.808 57.0244 449.296 57.0244 448.688C57.0244 448.08 56.8244 447.568 56.4244 447.152C56.0244 446.736 55.5124 446.528 54.8884 446.528C54.2644 446.528 53.7524 446.736 53.3524 447.152C52.9524 447.568 52.7524 448.08 52.7524 448.688C52.7524 449.296 52.9524 449.808 53.3524 450.224Z" fill="#0C1B3D"/>
<line x1="84" y1="443.75" x2="1423" y2="443.75" stroke="#0C1B3D" stroke-width="0.5"/>
<path d="M40.5759 593.936C39.4719 595.504 37.9119 596.288 35.8959 596.288C33.8799 596.288 32.3119 595.504 31.1919 593.936C30.0879 592.352 29.5359 590.24 29.5359 587.6C29.5359 584.96 30.0879 582.856 31.1919 581.288C32.3119 579.704 33.8799 578.912 35.8959 578.912C37.9119 578.912 39.4719 579.704 40.5759 581.288C41.6959 582.856 42.2559 584.96 42.2559 587.6C42.2559 590.24 41.6959 592.352 40.5759 593.936ZM32.4399 592.808C33.2719 594.04 34.4239 594.656 35.8959 594.656C37.3679 594.656 38.5119 594.04 39.3279 592.808C40.1599 591.576 40.5759 589.84 40.5759 587.6C40.5759 585.36 40.1599 583.624 39.3279 582.392C38.5119 581.16 37.3679 580.544 35.8959 580.544C34.4239 580.544 33.2719 581.16 32.4399 582.392C31.6239 583.624 31.2159 585.36 31.2159 587.6C31.2159 589.84 31.6239 591.576 32.4399 592.808ZM48.0964 586.112C47.0564 586.112 46.1844 585.768 45.4804 585.08C44.7764 584.376 44.4244 583.52 44.4244 582.512C44.4244 581.504 44.7764 580.656 45.4804 579.968C46.1844 579.264 47.0564 578.912 48.0964 578.912C49.1364 578.912 50.0084 579.264 50.7124 579.968C51.4164 580.656 51.7684 581.504 51.7684 582.512C51.7684 583.52 51.4244 584.376 50.7364 585.08C50.0484 585.768 49.1684 586.112 48.0964 586.112ZM46.5604 584.048C46.9604 584.464 47.4724 584.672 48.0964 584.672C48.7204 584.672 49.2324 584.464 49.6324 584.048C50.0324 583.632 50.2324 583.12 50.2324 582.512C50.2324 581.904 50.0324 581.392 49.6324 580.976C49.2324 580.56 48.7204 580.352 48.0964 580.352C47.4724 580.352 46.9604 580.56 46.5604 580.976C46.1604 581.392 45.9604 581.904 45.9604 582.512C45.9604 583.12 46.1604 583.632 46.5604 584.048ZM45.2644 593.72L56.5204 581.072L57.5524 581.648L46.2724 594.296L45.2644 593.72ZM57.5044 595.256C56.8004 595.944 55.9284 596.288 54.8884 596.288C53.8484 596.288 52.9764 595.944 52.2724 595.256C51.5684 594.552 51.2164 593.696 51.2164 592.688C51.2164 591.68 51.5684 590.832 52.2724 590.144C52.9764 589.44 53.8484 589.088 54.8884 589.088C55.9284 589.088 56.8004 589.44 57.5044 590.144C58.2084 590.832 58.5604 591.68 58.5604 592.688C58.5604 593.696 58.2084 594.552 57.5044 595.256ZM53.3524 594.224C53.7524 594.64 54.2644 594.848 54.8884 594.848C55.5124 594.848 56.0244 594.64 56.4244 594.224C56.8244 593.808 57.0244 593.296 57.0244 592.688C57.0244 592.08 56.8244 591.568 56.4244 591.152C56.0244 590.736 55.5124 590.528 54.8884 590.528C54.2644 590.528 53.7524 590.736 53.3524 591.152C52.9524 591.568 52.7524 592.08 52.7524 592.688C52.7524 593.296 52.9524 593.808 53.3524 594.224Z" fill="#0C1B3D"/>
<line x1="84" y1="587.75" x2="1423" y2="587.75" stroke="#0C1B3D" stroke-width="0.5"/>
</svg>
