<svg width="187" height="56" viewBox="0 0 187 56" fill="none" xmlns="http://www.w3.org/2000/svg">
<g clip-path="url(#clip0_3668_25457)">
<path d="M174.486 0H11.9806C5.36389 0 0 5.36389 0 11.9806V43.2694C0 49.8861 5.36389 55.25 11.9806 55.25H174.486C181.103 55.25 186.467 49.8861 186.467 43.2694V11.9806C186.467 5.36389 181.103 0 174.486 0Z" fill="black"/>
<path d="M65.4971 14.1485C65.5226 14.6546 65.4451 15.1607 65.2693 15.6359C65.0934 16.1112 64.8228 16.5458 64.474 16.9134C64.0813 17.3203 63.6072 17.6399 63.0825 17.8511C62.5579 18.0623 61.9946 18.1604 61.4295 18.139C60.8603 18.1446 60.2956 18.0364 59.7688 17.8206C59.242 17.6048 58.7637 17.2859 58.3619 16.8826C57.9602 16.4792 57.6432 15.9996 57.4295 15.472C57.2158 14.9444 57.1097 14.3793 57.1176 13.8101C57.1097 13.2409 57.2158 12.6758 57.4295 12.1482C57.6432 11.6205 57.9602 11.1409 58.3619 10.7376C58.7637 10.3343 59.242 10.0153 59.7688 9.79957C60.2956 9.5838 60.8603 9.47555 61.4295 9.48118C62.0135 9.4798 62.5916 9.59809 63.1281 9.82875C63.6272 10.031 64.0714 10.3485 64.4243 10.7552L63.6965 11.4843C63.4191 11.1574 63.0703 10.8987 62.677 10.7281C62.2837 10.5575 61.8564 10.4796 61.4282 10.5004C60.9963 10.4971 60.5682 10.5812 60.1697 10.7476C59.7711 10.9141 59.4103 11.1593 59.109 11.4687C58.8076 11.7781 58.572 12.1453 58.4161 12.5481C58.2603 12.9509 58.1875 13.381 58.2021 13.8127C58.1919 14.4581 58.3735 15.0919 58.724 15.6339C59.0745 16.1759 59.578 16.6016 60.1708 16.8571C60.7636 17.1125 61.4188 17.1862 62.0535 17.0687C62.6882 16.9513 63.2737 16.648 63.7357 16.1973C64.1604 15.7386 64.4065 15.1429 64.4296 14.5183H61.4243V13.5239H65.4396C65.4774 13.73 65.4966 13.939 65.4971 14.1485Z" fill="white" stroke="white" stroke-width="0.448068" stroke-miterlimit="10"/>
<path d="M71.8619 10.6872H68.087V13.3162H71.4843V14.3119H68.087V16.9395H71.8619V17.9535H67.0273V9.66937H71.8619V10.6872Z" fill="white" stroke="white" stroke-width="0.448068" stroke-miterlimit="10"/>
<path d="M76.3549 17.9535H75.2887V10.6872H72.9746V9.66937H78.669V10.6872H76.3549V17.9535Z" fill="white" stroke="white" stroke-width="0.448068" stroke-miterlimit="10"/>
<path d="M82.7891 17.9535V9.66937H83.854V17.9535H82.7891Z" fill="white" stroke="white" stroke-width="0.448068" stroke-miterlimit="10"/>
<path d="M88.5775 17.9535H87.5113V10.6872H85.1973V9.66937H90.8916V10.6872H88.5775V17.9535Z" fill="white" stroke="white" stroke-width="0.448068" stroke-miterlimit="10"/>
<path d="M101.674 16.8861C100.867 17.6906 99.7743 18.1424 98.6351 18.1424C97.4958 18.1424 96.4031 17.6906 95.5965 16.8861C95.1975 16.482 94.8839 16.0018 94.6742 15.4741C94.4646 14.9464 94.3632 14.3819 94.3761 13.8142C94.3631 13.2463 94.4645 12.6816 94.6742 12.1536C94.8838 11.6257 95.1975 11.1453 95.5965 10.741C95.9948 10.3418 96.4679 10.0252 96.9888 9.80917C97.5096 9.59314 98.068 9.48193 98.6318 9.48193C99.1957 9.48193 99.754 9.59314 100.275 9.80917C100.796 10.0252 101.269 10.3418 101.667 10.741C102.067 11.1442 102.381 11.6235 102.591 12.1505C102.802 12.6776 102.904 13.2415 102.893 13.8089C102.906 14.3774 102.805 14.9427 102.596 15.4713C102.386 15.9999 102.073 16.481 101.674 16.8861ZM96.3831 16.1923C96.9804 16.7889 97.7902 17.1241 98.6344 17.1241C99.4787 17.1241 100.288 16.7889 100.886 16.1923C101.192 15.8786 101.431 15.5061 101.59 15.0974C101.748 14.6887 101.822 14.2522 101.807 13.8142C101.822 13.3761 101.748 12.9395 101.59 12.5308C101.432 12.1221 101.192 11.7497 100.886 11.4361C100.288 10.8394 99.4787 10.5043 98.6344 10.5043C97.7902 10.5043 96.9804 10.8394 96.3831 11.4361C96.0781 11.7503 95.8399 12.1229 95.6827 12.5316C95.5255 12.9403 95.4526 13.3766 95.4685 13.8142C95.4528 14.2517 95.5257 14.688 95.6829 15.0966C95.8401 15.5053 96.0782 15.878 96.3831 16.1923Z" fill="white" stroke="white" stroke-width="0.448068" stroke-miterlimit="10"/>
<path d="M104.389 17.9535V9.66937H105.686L109.708 16.1163H109.754L109.708 14.5196V9.66937H110.774V17.9535H109.662L105.454 11.1981H105.408L105.454 12.7962V17.9535H104.389Z" fill="white" stroke="white" stroke-width="0.448068" stroke-miterlimit="10"/>
<path d="M94.1123 30.0445C92.9501 30.0479 91.815 30.3956 90.8502 31.0437C89.8855 31.6918 89.1346 32.6113 88.6921 33.686C88.2497 34.7607 88.1357 35.9424 88.3645 37.0819C88.5932 38.2213 89.1546 39.2674 89.9776 40.0881C90.8006 40.9087 91.8483 41.467 92.9884 41.6925C94.1285 41.918 95.3099 41.8006 96.3833 41.355C97.4567 40.9095 98.3741 40.1559 99.0194 39.1893C99.6647 38.2227 100.009 37.0866 100.009 35.9244C100.021 35.1475 99.8768 34.3761 99.5845 33.6561C99.2922 32.9362 98.858 32.2824 98.3078 31.7338C97.7576 31.1851 97.1026 30.7528 96.3818 30.4626C95.661 30.1724 94.8892 30.0302 94.1123 30.0445ZM94.1123 39.4797C93.3972 39.5309 92.6833 39.3656 92.0635 39.0053C91.4437 38.6451 90.9468 38.1065 90.6374 37.4598C90.328 36.8132 90.2204 36.0883 90.3288 35.3796C90.4371 34.671 90.7563 34.0114 91.2448 33.4867C91.7333 32.962 92.3685 32.5965 93.0676 32.4379C93.7667 32.2792 94.4974 32.3348 95.1645 32.5972C95.8316 32.8597 96.4042 33.317 96.8078 33.9095C97.2114 34.502 97.4273 35.2023 97.4272 35.9192C97.4492 36.372 97.3802 36.8246 97.2245 37.2504C97.0687 37.6762 96.8294 38.0665 96.5204 38.3983C96.2115 38.7301 95.8393 38.9968 95.4257 39.1825C95.0121 39.3682 94.5655 39.4693 94.1123 39.4797ZM81.2523 30.0445C80.0901 30.0479 78.955 30.3956 77.9903 31.0437C77.0256 31.6918 76.2746 32.6113 75.8322 33.686C75.3897 34.7607 75.2757 35.9424 75.5045 37.0819C75.7333 38.2213 76.2946 39.2674 77.1176 40.0881C77.9406 40.9087 78.9883 41.467 80.1284 41.6925C81.2686 41.918 82.4499 41.8006 83.5234 41.355C84.5968 40.9095 85.5141 40.1559 86.1594 39.1893C86.8048 38.2227 87.1492 37.0866 87.1492 35.9244C87.1613 35.1475 87.0168 34.3761 86.7245 33.6561C86.4323 32.9362 85.9981 32.2824 85.4478 31.7338C84.8976 31.1851 84.2426 30.7528 83.5218 30.4626C82.801 30.1724 82.0292 30.0302 81.2523 30.0445ZM81.2523 39.4797C80.5373 39.5307 79.8235 39.3651 79.2039 39.0047C78.5843 38.6442 78.0875 38.1056 77.7783 37.4588C77.4691 36.8121 77.3617 36.0873 77.4702 35.3787C77.5787 34.6701 77.8981 34.0106 78.3866 33.4861C78.8752 32.9615 79.5104 32.5962 80.2095 32.4377C80.9085 32.2791 81.6392 32.3348 82.3062 32.5973C82.9733 32.8598 83.5458 33.3171 83.9493 33.9096C84.3528 34.5021 84.5686 35.2023 84.5686 35.9192C84.5905 36.3721 84.5215 36.8249 84.3657 37.2507C84.2099 37.6766 83.9704 38.0669 83.6613 38.3988C83.3522 38.7306 82.9799 38.9972 82.5661 39.1829C82.1524 39.3685 81.7057 39.4695 81.2523 39.4797ZM65.9503 31.8464V34.3381H71.9138C71.8275 35.5065 71.3491 36.6116 70.5562 37.4741C69.959 38.0841 69.2406 38.562 68.4472 38.8771C67.6538 39.1922 66.8032 39.3374 65.9503 39.3034C64.1916 39.3034 62.5049 38.6047 61.2613 37.3611C60.0177 36.1175 59.3191 34.4309 59.3191 32.6722C59.3191 30.9134 60.0177 29.2268 61.2613 27.9832C62.5049 26.7396 64.1916 26.041 65.9503 26.041C67.6246 26.0194 69.2399 26.6594 70.4451 27.8219L72.2025 26.0645C71.3803 25.2501 70.4037 24.6081 69.3301 24.1762C68.2565 23.7443 67.1074 23.5311 65.9503 23.5492C64.7429 23.5347 63.5448 23.7601 62.4252 24.2121C61.3056 24.6641 60.2868 25.3338 59.428 26.1825C58.5691 27.0311 57.8872 28.0418 57.4218 29.1559C56.9564 30.27 56.7168 31.4654 56.7168 32.6728C56.7168 33.8802 56.9564 35.0756 57.4218 36.1897C57.8872 37.3038 58.5691 38.3145 59.428 39.1631C60.2868 40.0118 61.3056 40.6815 62.4252 41.1335C63.5448 41.5856 64.7429 41.8109 65.9503 41.7964C67.1317 41.8453 68.3099 41.6424 69.407 41.2013C70.504 40.7603 71.4948 40.091 72.3136 39.238C73.7675 37.6515 74.5424 35.5586 74.4722 33.4078C74.4791 32.8856 74.4353 32.364 74.3415 31.8503L65.9503 31.8464ZM128.532 33.7815C128.179 32.7175 127.507 31.7879 126.607 31.1191C125.707 30.4503 124.623 30.0746 123.503 30.0432C122.747 30.048 122.001 30.2059 121.309 30.5074C120.616 30.809 119.992 31.2479 119.474 31.7975C118.956 32.3472 118.555 32.9962 118.295 33.7053C118.036 34.4145 117.922 35.1689 117.962 35.9231C117.945 36.6959 118.083 37.4643 118.369 38.1824C118.655 38.9005 119.083 39.5535 119.628 40.1024C120.172 40.6513 120.821 41.0848 121.537 41.377C122.253 41.6692 123.02 41.8141 123.793 41.803C124.76 41.8084 125.714 41.5734 126.568 41.1191C127.423 40.6648 128.151 40.0054 128.687 39.2001L126.686 37.8647C126.385 38.3629 125.961 38.7745 125.454 39.0592C124.947 39.3439 124.374 39.492 123.793 39.4889C123.194 39.5116 122.603 39.3539 122.095 39.0364C121.587 38.7188 121.186 38.256 120.944 37.7079L128.8 34.4596L128.532 33.7815ZM120.521 35.7415C120.494 35.3147 120.552 34.8869 120.693 34.4829C120.833 34.0789 121.052 33.7069 121.337 33.3885C121.623 33.0701 121.969 32.8117 122.355 32.6284C122.741 32.4451 123.16 32.3405 123.588 32.3207C124.033 32.2913 124.478 32.3937 124.865 32.6151C125.253 32.8365 125.567 33.1672 125.768 33.5659L120.521 35.7415ZM114.134 41.4384H116.715V24.1698H114.134V41.4384ZM109.906 31.3577H109.817C109.424 30.9326 108.945 30.5961 108.411 30.3708C107.878 30.1455 107.303 30.0365 106.724 30.051C105.209 30.115 103.777 30.7618 102.727 31.8566C101.678 32.9513 101.092 34.4092 101.092 35.9257C101.092 37.4422 101.678 38.9001 102.727 39.9948C103.777 41.0895 105.209 41.7364 106.724 41.8003C107.305 41.8158 107.883 41.7044 108.417 41.474C108.951 41.2436 109.429 40.8998 109.817 40.4663H109.906V41.3117C109.906 43.5591 108.704 44.7612 106.77 44.7612C106.125 44.746 105.499 44.539 104.972 44.1667C104.444 43.7943 104.04 43.2735 103.81 42.6706L101.563 43.6048C101.986 44.6363 102.708 45.5178 103.636 46.1363C104.563 46.7549 105.655 47.0823 106.77 47.0766C109.796 47.0766 112.356 45.2969 112.356 40.9563V30.4012H109.908L109.906 31.3577ZM106.946 39.4797C106.054 39.4033 105.224 38.9951 104.619 38.3358C104.014 37.6765 103.678 36.8141 103.678 35.9192C103.678 35.0242 104.014 34.1618 104.619 33.5026C105.224 32.8433 106.054 32.435 106.946 32.3586C107.39 32.3805 107.825 32.4915 108.225 32.685C108.625 32.8785 108.981 33.1505 109.274 33.4848C109.567 33.8191 109.789 34.2089 109.928 34.6309C110.067 35.053 110.119 35.4986 110.082 35.9414C110.117 36.3817 110.062 36.8244 109.922 37.2431C109.781 37.6619 109.558 38.0479 109.265 38.3783C108.971 38.7086 108.615 38.9765 108.216 39.1657C107.817 39.355 107.384 39.4618 106.942 39.4797H106.946ZM140.622 24.1698H134.446V41.4371H137.024V34.8961H140.622C141.35 34.9337 142.078 34.823 142.761 34.5704C143.444 34.3179 144.069 33.929 144.598 33.4273C145.126 32.9256 145.547 32.3216 145.834 31.6521C146.122 30.9826 146.27 30.2616 146.27 29.5329C146.27 28.8043 146.122 28.0833 145.834 27.4138C145.547 26.7443 145.126 26.1403 144.598 25.6386C144.069 25.1369 143.444 24.748 142.761 24.4955C142.078 24.2429 141.35 24.1322 140.622 24.1698ZM140.689 32.4918H137.03V26.5714H140.689C141.474 26.5714 142.227 26.8833 142.782 27.4383C143.337 27.9933 143.648 28.7461 143.648 29.531C143.648 30.3159 143.337 31.0687 142.782 31.6237C142.227 32.1787 141.474 32.4905 140.689 32.4905V32.4918ZM156.617 30.0092C155.676 29.9538 154.74 30.1745 153.923 30.6441C153.106 31.1137 152.444 31.8118 152.019 32.6526L154.307 33.6077C154.533 33.191 154.877 32.8494 155.294 32.6246C155.712 32.3997 156.186 32.3014 156.659 32.3416C157.312 32.2781 157.964 32.4762 158.472 32.8925C158.98 33.3089 159.303 33.9095 159.369 34.5629V34.7406C158.541 34.3008 157.618 34.0719 156.681 34.0742C154.215 34.0742 151.704 35.4292 151.704 37.9627C151.728 38.4964 151.859 39.0198 152.089 39.5019C152.319 39.984 152.644 40.415 153.044 40.7692C153.443 41.1235 153.91 41.3938 154.417 41.5642C154.923 41.7346 155.458 41.8016 155.991 41.7611C156.64 41.7993 157.287 41.6629 157.866 41.366C158.444 41.0691 158.932 40.6226 159.28 40.073H159.367V41.4057H161.85V34.7889C161.856 31.7235 159.568 30.0131 156.613 30.0131L156.617 30.0092ZM156.306 39.4719C155.462 39.4719 154.284 39.0499 154.284 38.0059C154.284 36.6731 155.75 36.1622 157.017 36.1622C157.838 36.1404 158.651 36.3399 159.369 36.7397C159.275 37.4895 158.912 38.18 158.348 38.683C157.785 39.1861 157.058 39.4678 156.302 39.4758L156.306 39.4719ZM170.923 30.3855L167.969 37.8726H167.879L164.813 30.3855H162.037L166.635 40.8491L164.014 46.6689H166.701L173.789 30.3855H170.923ZM147.708 41.4332H150.285V24.1698H147.708V41.4332Z" fill="white"/>
<path d="M14.4135 10.4134C13.9607 10.955 13.7321 11.6492 13.7745 12.3538V42.9004C13.7323 43.605 13.9608 44.2992 14.4135 44.8408L14.5154 44.9401L31.6324 27.8231V27.4193L14.5154 10.3024L14.4135 10.4134Z" fill="url(#paint0_linear_3668_25457)"/>
<path d="M37.3324 33.533L31.6289 27.8295V27.4258L37.3389 21.7197L37.4696 21.7929L44.2275 25.6331C46.1574 26.7294 46.1574 28.5234 44.2275 29.621L37.4696 33.4612L37.3324 33.533Z" fill="url(#paint1_linear_3668_25457)"/>
<path d="M37.4619 33.4608L31.6291 27.624L14.4141 44.8416C14.8077 45.1896 15.3109 45.3886 15.836 45.4041C16.3612 45.4196 16.8752 45.2506 17.2887 44.9266L37.4658 33.4621" fill="url(#paint2_linear_3668_25457)"/>
<path d="M37.4619 21.7927L17.2848 10.3269C16.8712 10.0028 16.3572 9.83387 15.8321 9.84938C15.3069 9.8649 14.8038 10.0639 14.4102 10.4118L31.6291 27.6268L37.4619 21.7927Z" fill="url(#paint3_linear_3668_25457)"/>
<path opacity="0.2" d="M37.3325 33.3336L17.2834 44.7315C16.8863 45.0339 16.4015 45.199 15.9023 45.2019C15.4031 45.2047 14.9165 45.0451 14.516 44.7471L14.4141 44.8491L14.516 44.9497C14.9165 45.2476 15.4031 45.4072 15.9023 45.4044C16.4015 45.4016 16.8863 45.2365 17.2834 44.934L37.4606 33.4695L37.3325 33.3336Z" fill="black"/>
<path opacity="0.12" d="M14.4135 44.6438C13.961 44.1021 13.7324 43.408 13.7746 42.7034V42.9046C13.732 43.6093 13.9606 44.3035 14.4135 44.845L14.5154 44.7431L14.4135 44.6438Z" fill="black"/>
<path opacity="0.12" d="M44.2174 29.4184L37.3262 33.3318L37.4568 33.4625L44.2148 29.6223C44.6136 29.4496 44.9588 29.173 45.2141 28.8213C45.4695 28.4696 45.6257 28.0558 45.6665 27.6231C45.5812 28.0145 45.4059 28.3805 45.1543 28.6922C44.9028 29.0039 44.582 29.2525 44.2174 29.4184Z" fill="black"/>
<path opacity="0.25" d="M17.2831 10.5273L44.2182 25.832C44.5826 25.9974 44.9034 26.2455 45.155 26.5568C45.4065 26.868 45.5819 27.2337 45.6672 27.6247C45.6262 27.1931 45.4701 26.7804 45.2153 26.4297C44.9604 26.0789 44.616 25.803 44.2182 25.6308L17.2831 10.3261C15.3532 9.22981 13.7734 10.1405 13.7734 12.3514V12.5526C13.7734 10.3418 15.3532 9.43103 17.2831 10.5273Z" fill="#202325"/>
</g>
<defs>
<linearGradient id="paint0_linear_3668_25457" x1="30.114" y1="150.204" x2="2.7052" y2="142.919" gradientUnits="userSpaceOnUse">
<stop stop-color="#00A0FF"/>
<stop offset="0.007" stop-color="#00A1FF"/>
<stop offset="0.26" stop-color="#00BEFF"/>
<stop offset="0.512" stop-color="#00D2FF"/>
<stop offset="0.76" stop-color="#00DFFF"/>
<stop offset="1" stop-color="#00E3FF"/>
</linearGradient>
<linearGradient id="paint1_linear_3668_25457" x1="46.7425" y1="134.561" x2="13.2988" y2="134.561" gradientUnits="userSpaceOnUse">
<stop stop-color="#FFE000"/>
<stop offset="0.409" stop-color="#FFBD00"/>
<stop offset="0.775" stop-color="#FFA500"/>
<stop offset="1" stop-color="#FF9C00"/>
</linearGradient>
<linearGradient id="paint2_linear_3668_25457" x1="34.2847" y1="131.501" x2="12.2689" y2="94.4573" gradientUnits="userSpaceOnUse">
<stop stop-color="#FF3A44"/>
<stop offset="1" stop-color="#C31162"/>
</linearGradient>
<linearGradient id="paint3_linear_3668_25457" x1="10.0764" y1="162.067" x2="19.9122" y2="145.524" gradientUnits="userSpaceOnUse">
<stop stop-color="#32A071"/>
<stop offset="0.068" stop-color="#2DA771"/>
<stop offset="0.476" stop-color="#15CF74"/>
<stop offset="0.801" stop-color="#06E775"/>
<stop offset="1" stop-color="#00F076"/>
</linearGradient>
<clipPath id="clip0_3668_25457">
<rect width="186.467" height="55.25" fill="white"/>
</clipPath>
</defs>
</svg>
