<svg width="1423" height="600" viewBox="0 0 1423 600" fill="none" xmlns="http://www.w3.org/2000/svg">
<path d="M1.20656 3.2H11.5266V4.784L5.19056 20H3.43856L9.77456 4.784H1.20656V3.2ZM24.2634 17.936C23.1594 19.504 21.5994 20.288 19.5834 20.288C17.5674 20.288 15.9994 19.504 14.8794 17.936C13.7754 16.352 13.2234 14.24 13.2234 11.6C13.2234 8.96 13.7754 6.856 14.8794 5.288C15.9994 3.704 17.5674 2.912 19.5834 2.912C21.5994 2.912 23.1594 3.704 24.2634 5.288C25.3834 6.856 25.9434 8.96 25.9434 11.6C25.9434 14.24 25.3834 16.352 24.2634 17.936ZM16.1274 16.808C16.9594 18.04 18.1114 18.656 19.5834 18.656C21.0554 18.656 22.1994 18.04 23.0154 16.808C23.8474 15.576 24.2634 13.84 24.2634 11.6C24.2634 9.36 23.8474 7.624 23.0154 6.392C22.1994 5.16 21.0554 4.544 19.5834 4.544C18.1114 4.544 16.9594 5.16 16.1274 6.392C15.3114 7.624 14.9034 9.36 14.9034 11.6C14.9034 13.84 15.3114 15.576 16.1274 16.808ZM38.5166 20H36.4046L30.4046 14.216V20H28.8206V3.2H30.4046V13.304L36.1166 8H38.2766L32.0846 13.76L38.5166 20Z" fill="#004AF5"/>
<line x1="63" y1="11.75" x2="1423" y2="11.75" stroke="#004AF5" stroke-width="0.5"/>
<path d="M6.65688 91.4861C8.30488 91.4861 9.65688 92.0061 10.7129 93.0461C11.7689 94.0701 12.2969 95.3981 12.2969 97.0301C12.2969 98.6621 11.7689 99.9981 10.7129 101.038C9.65688 102.062 8.30488 102.574 6.65688 102.574C5.00888 102.574 3.65688 102.062 2.60088 101.038C1.54488 99.9981 1.01688 98.6621 1.01688 97.0301C1.01688 95.7661 1.36088 94.6461 2.04888 93.6701L7.54488 85.4861H9.44088L5.31288 91.6301C5.74488 91.5341 6.19288 91.4861 6.65688 91.4861ZM3.77688 99.8621C4.51288 100.582 5.47288 100.942 6.65688 100.942C7.84088 100.942 8.79288 100.582 9.51288 99.8621C10.2489 99.1421 10.6169 98.1981 10.6169 97.0301C10.6169 95.8621 10.2489 94.9181 9.51288 94.1981C8.79288 93.4781 7.84088 93.1181 6.65688 93.1181C5.47288 93.1181 4.51288 93.4781 3.77688 94.1981C3.05688 94.9181 2.69688 95.8621 2.69688 97.0301C2.69688 98.1981 3.05688 99.1421 3.77688 99.8621ZM25.2634 100.222C24.1594 101.79 22.5994 102.574 20.5834 102.574C18.5674 102.574 16.9994 101.79 15.8794 100.222C14.7754 98.6381 14.2234 96.5261 14.2234 93.8861C14.2234 91.2461 14.7754 89.1421 15.8794 87.5741C16.9994 85.9901 18.5674 85.1981 20.5834 85.1981C22.5994 85.1981 24.1594 85.9901 25.2634 87.5741C26.3834 89.1421 26.9434 91.2461 26.9434 93.8861C26.9434 96.5261 26.3834 98.6381 25.2634 100.222ZM17.1274 99.0941C17.9594 100.326 19.1114 100.942 20.5834 100.942C22.0554 100.942 23.1994 100.326 24.0154 99.0941C24.8474 97.8621 25.2634 96.1261 25.2634 93.8861C25.2634 91.6461 24.8474 89.9101 24.0154 88.6781C23.1994 87.4461 22.0554 86.8301 20.5834 86.8301C19.1114 86.8301 17.9594 87.4461 17.1274 88.6781C16.3114 89.9101 15.9034 91.6461 15.9034 93.8861C15.9034 96.1261 16.3114 97.8621 17.1274 99.0941ZM39.5166 102.286H37.4046L31.4046 96.5021V102.286H29.8206V85.4861H31.4046V95.5901L37.1166 90.2861H39.2766L33.0846 96.0461L39.5166 102.286Z" fill="#004AF5"/>
<line x1="64" y1="94.0361" x2="1423" y2="94.0361" stroke="#004AF5" stroke-width="0.5"/>
<path d="M6.65688 174.539C8.22488 174.539 9.55288 175.003 10.6409 175.931C11.7449 176.843 12.2969 178.099 12.2969 179.699C12.2969 181.299 11.7449 182.563 10.6409 183.491C9.55288 184.403 8.22488 184.859 6.65688 184.859C5.39288 184.859 4.26488 184.555 3.27288 183.947C2.28088 183.323 1.60888 182.435 1.25688 181.283L2.67288 180.467C2.91288 181.363 3.38488 182.051 4.08888 182.531C4.80888 182.995 5.66488 183.227 6.65688 183.227C7.80888 183.227 8.75288 182.923 9.48888 182.315C10.2409 181.691 10.6169 180.819 10.6169 179.699C10.6169 178.579 10.2409 177.715 9.48888 177.107C8.75288 176.483 7.80888 176.171 6.65688 176.171H2.09688L2.69688 167.771H11.6969V169.355H4.18488L3.82487 174.539H6.65688ZM25.2634 182.507C24.1594 184.075 22.5994 184.859 20.5834 184.859C18.5674 184.859 16.9994 184.075 15.8794 182.507C14.7754 180.923 14.2234 178.811 14.2234 176.171C14.2234 173.531 14.7754 171.427 15.8794 169.859C16.9994 168.275 18.5674 167.483 20.5834 167.483C22.5994 167.483 24.1594 168.275 25.2634 169.859C26.3834 171.427 26.9434 173.531 26.9434 176.171C26.9434 178.811 26.3834 180.923 25.2634 182.507ZM17.1274 181.379C17.9594 182.611 19.1114 183.227 20.5834 183.227C22.0554 183.227 23.1994 182.611 24.0154 181.379C24.8474 180.147 25.2634 178.411 25.2634 176.171C25.2634 173.931 24.8474 172.195 24.0154 170.963C23.1994 169.731 22.0554 169.115 20.5834 169.115C19.1114 169.115 17.9594 169.731 17.1274 170.963C16.3114 172.195 15.9034 173.931 15.9034 176.171C15.9034 178.411 16.3114 180.147 17.1274 181.379ZM39.5166 184.571H37.4046L31.4046 178.787V184.571H29.8206V167.771H31.4046V177.875L37.1166 172.571H39.2766L33.0846 178.331L39.5166 184.571Z" fill="#004AF5"/>
<line x1="64" y1="176.321" x2="1423" y2="176.321" stroke="#004AF5" stroke-width="0.5"/>
<path d="M13.4216 261.913V263.497H11.2616V266.857H9.58156V263.497H0.701563V261.913L6.94156 250.057H8.78956L2.54956 261.913H9.58156V256.777H11.2616V261.913H13.4216ZM26.2634 264.793C25.1594 266.361 23.5994 267.145 21.5834 267.145C19.5674 267.145 17.9994 266.361 16.8794 264.793C15.7754 263.209 15.2234 261.097 15.2234 258.457C15.2234 255.817 15.7754 253.713 16.8794 252.145C17.9994 250.561 19.5674 249.769 21.5834 249.769C23.5994 249.769 25.1594 250.561 26.2634 252.145C27.3834 253.713 27.9434 255.817 27.9434 258.457C27.9434 261.097 27.3834 263.209 26.2634 264.793ZM18.1274 263.665C18.9594 264.897 20.1114 265.513 21.5834 265.513C23.0554 265.513 24.1994 264.897 25.0154 263.665C25.8474 262.433 26.2634 260.697 26.2634 258.457C26.2634 256.217 25.8474 254.481 25.0154 253.249C24.1994 252.017 23.0554 251.401 21.5834 251.401C20.1114 251.401 18.9594 252.017 18.1274 253.249C17.3114 254.481 16.9034 256.217 16.9034 258.457C16.9034 260.697 17.3114 262.433 18.1274 263.665ZM40.5166 266.857H38.4046L32.4046 261.073V266.857H30.8206V250.057H32.4046V260.161L38.1166 254.857H40.2766L34.0846 260.617L40.5166 266.857Z" fill="#004AF5"/>
<line x1="65" y1="258.607" x2="1423" y2="258.607" stroke="#004AF5" stroke-width="0.5"/>
<path d="M7.42488 339.327C8.76888 339.503 9.87288 340.023 10.7369 340.887C11.6169 341.735 12.0569 342.863 12.0569 344.271C12.0569 345.871 11.5049 347.135 10.4009 348.063C9.31288 348.975 7.98488 349.431 6.41688 349.431C5.16888 349.431 4.05688 349.143 3.08088 348.567C2.10488 347.991 1.41688 347.167 1.01688 346.095L2.40888 345.279C2.68088 346.111 3.16888 346.743 3.87288 347.175C4.57688 347.591 5.42488 347.799 6.41688 347.799C7.56888 347.799 8.51288 347.495 9.24888 346.887C10.0009 346.263 10.3769 345.391 10.3769 344.271C10.3769 343.151 10.0009 342.287 9.24888 341.679C8.51288 341.055 7.56888 340.743 6.41688 340.743V340.719L6.39288 340.743H5.93688L5.21688 339.639L9.39288 333.927H1.49688V332.343H11.3369V333.927L7.42488 339.327ZM25.2634 347.079C24.1594 348.647 22.5994 349.431 20.5834 349.431C18.5674 349.431 16.9994 348.647 15.8794 347.079C14.7754 345.495 14.2234 343.383 14.2234 340.743C14.2234 338.103 14.7754 335.999 15.8794 334.431C16.9994 332.847 18.5674 332.055 20.5834 332.055C22.5994 332.055 24.1594 332.847 25.2634 334.431C26.3834 335.999 26.9434 338.103 26.9434 340.743C26.9434 343.383 26.3834 345.495 25.2634 347.079ZM17.1274 345.951C17.9594 347.183 19.1114 347.799 20.5834 347.799C22.0554 347.799 23.1994 347.183 24.0154 345.951C24.8474 344.719 25.2634 342.983 25.2634 340.743C25.2634 338.503 24.8474 336.767 24.0154 335.535C23.1994 334.303 22.0554 333.687 20.5834 333.687C19.1114 333.687 17.9594 334.303 17.1274 335.535C16.3114 336.767 15.9034 338.503 15.9034 340.743C15.9034 342.983 16.3114 344.719 17.1274 345.951ZM39.5166 349.143H37.4046L31.4046 343.359V349.143H29.8206V332.343H31.4046V342.447L37.1166 337.143H39.2766L33.0846 342.903L39.5166 349.143Z" fill="#004AF5"/>
<line x1="64" y1="340.893" x2="1423" y2="340.893" stroke="#004AF5" stroke-width="0.5"/>
<path d="M1.54594 431.429V429.917L7.59394 423.821C9.32194 422.093 10.1859 420.613 10.1859 419.381C10.1859 418.309 9.84994 417.477 9.17794 416.885C8.52194 416.277 7.72994 415.973 6.80194 415.973C5.07394 415.973 3.81794 416.765 3.03394 418.349L1.61794 417.509C2.14594 416.469 2.86594 415.685 3.77794 415.157C4.68994 414.613 5.69794 414.341 6.80194 414.341C8.14594 414.341 9.32194 414.797 10.3299 415.709C11.3539 416.605 11.8659 417.829 11.8659 419.381C11.8659 420.357 11.5939 421.293 11.0499 422.189C10.5059 423.085 9.73794 424.029 8.74594 425.021L3.94594 429.797H12.2259V431.429H1.54594ZM25.2009 429.365C24.0969 430.933 22.5369 431.717 20.5209 431.717C18.5049 431.717 16.9369 430.933 15.8169 429.365C14.7129 427.781 14.1609 425.669 14.1609 423.029C14.1609 420.389 14.7129 418.285 15.8169 416.717C16.9369 415.133 18.5049 414.341 20.5209 414.341C22.5369 414.341 24.0969 415.133 25.2009 416.717C26.3209 418.285 26.8809 420.389 26.8809 423.029C26.8809 425.669 26.3209 427.781 25.2009 429.365ZM17.0649 428.237C17.8969 429.469 19.0489 430.085 20.5209 430.085C21.9929 430.085 23.1369 429.469 23.9529 428.237C24.7849 427.005 25.2009 425.269 25.2009 423.029C25.2009 420.789 24.7849 419.053 23.9529 417.821C23.1369 416.589 21.9929 415.973 20.5209 415.973C19.0489 415.973 17.8969 416.589 17.0649 417.821C16.2489 419.053 15.8409 420.789 15.8409 423.029C15.8409 425.269 16.2489 427.005 17.0649 428.237ZM41.7581 431.429H39.5501L31.6781 423.293V431.429H29.9981V414.629H31.6781V422.309L39.3101 414.629H41.5181L33.4541 422.789L41.7581 431.429Z" fill="#004AF5"/>
<line x1="66" y1="423.179" x2="1423" y2="423.179" stroke="#004AF5" stroke-width="0.5"/>
<path d="M5.60469 496.914H7.04469V513.714H5.36469V498.762L1.59669 499.89L1.16469 498.45L5.60469 496.914ZM21.2009 511.65C20.0969 513.218 18.5369 514.002 16.5209 514.002C14.5049 514.002 12.9369 513.218 11.8169 511.65C10.7129 510.066 10.1609 507.954 10.1609 505.314C10.1609 502.674 10.7129 500.57 11.8169 499.002C12.9369 497.418 14.5049 496.626 16.5209 496.626C18.5369 496.626 20.0969 497.418 21.2009 499.002C22.3209 500.57 22.8809 502.674 22.8809 505.314C22.8809 507.954 22.3209 510.066 21.2009 511.65ZM13.0649 510.522C13.8969 511.754 15.0489 512.37 16.5209 512.37C17.9929 512.37 19.1369 511.754 19.9529 510.522C20.7849 509.29 21.2009 507.554 21.2009 505.314C21.2009 503.074 20.7849 501.338 19.9529 500.106C19.1369 498.874 17.9929 498.258 16.5209 498.258C15.0489 498.258 13.8969 498.874 13.0649 500.106C12.2489 501.338 11.8409 503.074 11.8409 505.314C11.8409 507.554 12.2489 509.29 13.0649 510.522ZM37.7581 513.714H35.5501L27.6781 505.578V513.714H25.9981V496.914H27.6781V504.594L35.3101 496.914H37.5181L29.4541 505.074L37.7581 513.714Z" fill="#004AF5"/>
<line x1="62" y1="505.464" x2="1423" y2="505.464" stroke="#004AF5" stroke-width="0.5"/>
<path d="M12.5759 593.936C11.4719 595.504 9.91194 596.288 7.89594 596.288C5.87994 596.288 4.31194 595.504 3.19194 593.936C2.08794 592.352 1.53594 590.24 1.53594 587.6C1.53594 584.96 2.08794 582.856 3.19194 581.288C4.31194 579.704 5.87994 578.912 7.89594 578.912C9.91194 578.912 11.4719 579.704 12.5759 581.288C13.6959 582.856 14.2559 584.96 14.2559 587.6C14.2559 590.24 13.6959 592.352 12.5759 593.936ZM4.43994 592.808C5.27194 594.04 6.42394 594.656 7.89594 594.656C9.36794 594.656 10.5119 594.04 11.3279 592.808C12.1599 591.576 12.5759 589.84 12.5759 587.6C12.5759 585.36 12.1599 583.624 11.3279 582.392C10.5119 581.16 9.36794 580.544 7.89594 580.544C6.42394 580.544 5.27194 581.16 4.43994 582.392C3.62394 583.624 3.21594 585.36 3.21594 587.6C3.21594 589.84 3.62394 591.576 4.43994 592.808ZM20.0964 586.112C19.0564 586.112 18.1844 585.768 17.4804 585.08C16.7764 584.376 16.4244 583.52 16.4244 582.512C16.4244 581.504 16.7764 580.656 17.4804 579.968C18.1844 579.264 19.0564 578.912 20.0964 578.912C21.1364 578.912 22.0084 579.264 22.7124 579.968C23.4164 580.656 23.7684 581.504 23.7684 582.512C23.7684 583.52 23.4244 584.376 22.7364 585.08C22.0484 585.768 21.1684 586.112 20.0964 586.112ZM18.5604 584.048C18.9604 584.464 19.4724 584.672 20.0964 584.672C20.7204 584.672 21.2324 584.464 21.6324 584.048C22.0324 583.632 22.2324 583.12 22.2324 582.512C22.2324 581.904 22.0324 581.392 21.6324 580.976C21.2324 580.56 20.7204 580.352 20.0964 580.352C19.4724 580.352 18.9604 580.56 18.5604 580.976C18.1604 581.392 17.9604 581.904 17.9604 582.512C17.9604 583.12 18.1604 583.632 18.5604 584.048ZM17.2644 593.72L28.5204 581.072L29.5524 581.648L18.2724 594.296L17.2644 593.72ZM29.5044 595.256C28.8004 595.944 27.9284 596.288 26.8884 596.288C25.8484 596.288 24.9764 595.944 24.2724 595.256C23.5684 594.552 23.2164 593.696 23.2164 592.688C23.2164 591.68 23.5684 590.832 24.2724 590.144C24.9764 589.44 25.8484 589.088 26.8884 589.088C27.9284 589.088 28.8004 589.44 29.5044 590.144C30.2084 590.832 30.5604 591.68 30.5604 592.688C30.5604 593.696 30.2084 594.552 29.5044 595.256ZM25.3524 594.224C25.7524 594.64 26.2644 594.848 26.8884 594.848C27.5124 594.848 28.0244 594.64 28.4244 594.224C28.8244 593.808 29.0244 593.296 29.0244 592.688C29.0244 592.08 28.8244 591.568 28.4244 591.152C28.0244 590.736 27.5124 590.528 26.8884 590.528C26.2644 590.528 25.7524 590.736 25.3524 591.152C24.9524 591.568 24.7524 592.08 24.7524 592.688C24.7524 593.296 24.9524 593.808 25.3524 594.224Z" fill="#004AF5"/>
<line x1="56" y1="587.75" x2="1423" y2="587.75" stroke="#004AF5" stroke-width="0.5"/>
</svg>
