<svg width="55" height="124" viewBox="0 0 55 124" fill="none" xmlns="http://www.w3.org/2000/svg">
<circle cx="24.7546" cy="30.864" r="12.3445" fill="white"/>
<rect x="5.42188" y="17.0645" width="39.6431" height="4.67307" transform="rotate(-6.33264 5.42188 17.0645)" fill="white"/>
<rect x="4.74023" y="8.16016" width="12.773" height="4.67307" transform="rotate(64.8524 4.74023 8.16016)" fill="white"/>
<rect width="15.2622" height="4.67307" transform="matrix(-0.216139 0.976363 0.976363 0.216139 44.0742 1.42383)" fill="white"/>
<rect x="28.5332" y="39.75" width="39.6431" height="7.55439" transform="rotate(90 28.5332 39.75)" fill="white"/>
<rect x="27.957" y="64.9707" width="30.1999" height="7.55439" transform="rotate(67.4869 27.957 64.9707)" fill="white"/>
<rect x="28.4961" y="63.1367" width="30.1999" height="7.55439" transform="rotate(95.6251 28.4961 63.1367)" fill="white"/>
<rect x="25.541" y="93.1934" width="30.1999" height="7.55439" transform="rotate(123.596 25.541 93.1934)" fill="white"/>
<rect x="13.1738" y="121.32" width="12.7702" height="7.55439" transform="rotate(-146.404 13.1738 121.32)" fill="white"/>
<rect x="31.9648" y="115.506" width="12.7702" height="7.55439" fill="white"/>
<rect x="39.5176" y="92.8594" width="30.1999" height="7.55439" transform="rotate(90 39.5176 92.8594)" fill="white"/>
<rect x="52.6465" y="41.625" width="31.8678" height="7.55439" transform="rotate(148.271 52.6465 41.625)" fill="white"/>
<rect x="47.1465" y="44.5137" width="25.1366" height="7.55439" transform="rotate(-114.656 47.1465 44.5137)" fill="white"/>
<rect width="17.4401" height="7.55439" transform="matrix(0.160108 -0.987099 -0.987099 -0.160108 8.81836 46.3945)" fill="white"/>
<rect width="25.1366" height="7.55439" transform="matrix(0.850544 0.525904 0.525904 -0.850544 1.36328 45.1641)" fill="white"/>
</svg>
