<svg width="32" height="70" viewBox="0 0 32 70" fill="none" xmlns="http://www.w3.org/2000/svg">
<circle cx="14.6973" cy="17.1543" r="7.0762" fill="black"/>
<rect x="3.61328" y="9.24414" width="22.7246" height="2.67874" transform="rotate(-6.33264 3.61328 9.24414)" fill="black"/>
<rect x="3.22266" y="4.14062" width="7.32182" height="2.67874" transform="rotate(64.8524 3.22266 4.14062)" fill="black"/>
<rect width="8.74873" height="2.67874" transform="matrix(-0.216139 0.976363 0.976363 0.216139 25.7695 0.279297)" fill="black"/>
<rect x="16.8633" y="22.248" width="22.7246" height="4.33039" transform="rotate(90 16.8633 22.248)" fill="black"/>
<rect x="16.5312" y="36.7051" width="17.3115" height="4.33039" transform="rotate(67.4869 16.5312 36.7051)" fill="black"/>
<rect x="16.8398" y="35.6543" width="17.3115" height="4.33039" transform="rotate(95.6251 16.8398 35.6543)" fill="black"/>
<rect x="15.1484" y="52.8828" width="17.3115" height="4.33039" transform="rotate(123.596 15.1484 52.8828)" fill="black"/>
<rect x="8.05859" y="69.0059" width="7.32024" height="4.33039" transform="rotate(-146.404 8.05859 69.0059)" fill="black"/>
<rect x="18.8281" y="65.6738" width="7.32024" height="4.33039" fill="black"/>
<rect x="23.1602" y="52.6914" width="17.3115" height="4.33039" transform="rotate(90 23.1602 52.6914)" fill="black"/>
<rect x="30.6836" y="23.3223" width="18.2675" height="4.33039" transform="rotate(148.271 30.6836 23.3223)" fill="black"/>
<rect x="27.5312" y="24.9785" width="14.409" height="4.33039" transform="rotate(-114.656 27.5312 24.9785)" fill="black"/>
<rect width="9.99713" height="4.33039" transform="matrix(0.160108 -0.987099 -0.987099 -0.160108 5.5625 26.0566)" fill="black"/>
<rect width="14.409" height="4.33039" transform="matrix(0.850544 0.525904 0.525904 -0.850544 1.28906 25.3516)" fill="black"/>
</svg>
