<svg width="480" height="480" viewBox="0 0 480 480" fill="none" xmlns="http://www.w3.org/2000/svg">
<path d="M239.611 0C189.012 -6.03379e-07 139.713 16.0184 98.778 45.7594C57.8431 75.5003 27.3743 117.437 11.7385 165.559C-3.89722 213.681 -3.89722 265.517 11.7385 313.639C27.3743 361.761 57.8431 403.698 98.778 433.439L239.611 239.599V0Z" fill="#0C1B3D"/>
<path d="M239.611 0C277.422 4.50894e-07 314.697 8.9488 348.387 26.1147C382.077 43.2807 411.226 68.1764 433.451 98.7663C455.675 129.356 470.345 164.772 476.26 202.118C482.175 239.463 479.167 277.679 467.483 313.639C455.799 349.6 435.77 382.285 409.033 409.021C382.296 435.758 349.612 455.787 313.651 467.471C277.69 479.156 239.475 482.163 202.129 476.248C164.784 470.333 129.368 455.664 98.7781 433.439L239.611 239.599V0Z" fill="#004AF5"/>
</svg>
