<svg width="30" height="30" viewBox="0 0 30 30" fill="none" xmlns="http://www.w3.org/2000/svg">
<g clip-path="url(#clip0_2403_59)">
<path d="M23.7212 0.31543C20.6016 0.31543 18.0733 2.84375 18.0733 5.96334C18.0733 6.06042 18.1042 6.14866 18.1086 6.24574L9.24846 10.6935C8.2689 9.86834 7.029 9.35209 5.64791 9.35209C2.52832 9.35209 0 11.8804 0 15C0 18.1196 2.52832 20.6479 5.64791 20.6479C7.029 20.6479 8.2689 20.1317 9.24846 19.3065L18.1086 23.7543C18.1042 23.8513 18.0733 23.9396 18.0733 24.0367C18.0733 27.1562 20.6016 29.6846 23.7212 29.6846C26.8408 29.6846 29.3691 27.1562 29.3691 24.0367C29.3691 20.9171 26.8408 18.3887 23.7212 18.3887C22.3401 18.3887 21.1002 18.905 20.1207 19.7301L11.2605 15.2824C11.2649 15.1853 11.2958 15.0971 11.2958 15C11.2958 14.9029 11.2649 14.8147 11.2605 14.7176L20.1207 10.2699C21.1002 11.095 22.3401 11.6113 23.7212 11.6113C26.8408 11.6113 29.3691 9.08293 29.3691 5.96334C29.3691 2.84375 26.8408 0.31543 23.7212 0.31543Z" fill="white"/>
</g>
<defs>
<clipPath id="clip0_2403_59">
<rect width="29.3691" height="29.3691" fill="white" transform="translate(0 0.31543)"/>
</clipPath>
</defs>
</svg>
