<svg width="25" height="25" viewBox="0 0 25 25" fill="none" xmlns="http://www.w3.org/2000/svg">
<g clip-path="url(#clip0_2399_64)">
<path d="M12.4131 0C5.55599 0 0 5.55599 0 12.4131C0 19.2702 5.55599 24.8262 12.4131 24.8262C19.2702 24.8262 24.8262 19.2702 24.8262 12.4131C24.8262 5.55599 19.2702 0 12.4131 0ZM12.4131 2.06885C18.1267 2.06885 22.7573 6.69951 22.7573 12.4131C22.7573 18.1267 18.1267 22.7573 12.4131 22.7573C6.69951 22.7573 2.06885 18.1267 2.06885 12.4131C2.06885 6.69951 6.69951 2.06885 12.4131 2.06885ZM12.4131 6.01259C12.2232 6.01259 12.0656 6.00855 11.8959 6.04491C11.7262 6.08128 11.5686 6.17422 11.4433 6.27119C11.3181 6.36817 11.2251 6.50152 11.1524 6.6591C11.0796 6.81669 11.0554 7.00256 11.0554 7.24097C11.0554 7.47533 11.0796 7.6612 11.1524 7.82283C11.2251 7.98446 11.3181 8.11376 11.4433 8.21074C11.5686 8.30772 11.7262 8.36429 11.8959 8.40469C12.0656 8.4451 12.2232 8.46935 12.4131 8.46935C12.599 8.46935 12.797 8.4451 12.9626 8.40469C13.1283 8.36429 13.2576 8.30772 13.3829 8.21074C13.5081 8.11376 13.6011 7.98446 13.6738 7.82283C13.7465 7.66524 13.8031 7.47533 13.8031 7.24097C13.8031 7.00256 13.7465 6.81669 13.6738 6.6591C13.6011 6.50152 13.5081 6.36817 13.3829 6.27119C13.2576 6.17422 13.1283 6.08128 12.9626 6.04491C12.797 6.00855 12.599 6.01259 12.4131 6.01259ZM11.1524 9.47144V18.7489H13.6738V9.47144H11.1524Z" fill="#009FE3"/>
</g>
<defs>
<clipPath id="clip0_2399_64">
<rect width="24.8262" height="24.8262" fill="white"/>
</clipPath>
</defs>
</svg>
