<svg width="1729" height="348" viewBox="0 0 1729 348" fill="none" xmlns="http://www.w3.org/2000/svg">
<g opacity="0.1" clip-path="url(#clip0_1911_1916)">
<path d="M279.123 1.23077C120.945 -8.75463 -9.42574 121.761 0.548531 280.116C8.79582 410.704 114.636 516.66 245.077 524.918C403.256 534.938 533.625 404.388 523.652 246.032C515.403 115.445 409.563 9.48724 279.123 1.23077ZM280.287 486.634C142.232 497.538 27.8984 383.04 38.7891 244.833C47.3535 136.122 135.36 48.0175 243.949 39.4436C382.004 28.5407 496.337 143.002 485.446 281.209C476.882 389.92 388.911 478.024 280.287 486.6V486.634Z" fill="white"/>
<path d="M434.472 191.74H398.91C396.761 191.74 394.681 192.587 393.165 194.104L255.499 331.923C252.328 335.1 247.181 335.1 244.045 331.923L233.612 321.479C230.441 318.304 225.296 318.304 222.157 321.479L204.395 339.263C201.223 342.438 201.223 347.59 204.395 350.73L244.045 390.425C247.218 393.6 252.363 393.6 255.499 390.425L279.009 366.891H279.043L440.218 205.572C445.329 200.455 441.698 191.705 434.472 191.705V191.74Z" fill="white"/>
<path d="M317.322 191.74H281.762C279.611 191.74 277.533 192.587 276.017 194.104L196.892 273.318C193.72 276.493 188.574 276.493 185.438 273.318L175.005 262.872C171.833 259.697 166.687 259.697 163.551 262.872L145.787 280.655C142.615 283.833 142.615 288.982 145.787 292.123L185.438 331.817C188.61 334.995 193.755 334.995 196.892 331.817L220.364 308.319H220.401L323.103 205.572C328.213 200.455 324.584 191.705 317.359 191.705L317.322 191.74Z" fill="white"/>
<path d="M200.536 191.74H164.974C162.824 191.74 160.745 192.587 159.229 194.104L138.47 214.887C135.298 218.063 130.152 218.063 127.015 214.887L116.689 204.548C113.517 201.373 108.371 201.373 105.234 204.548L87.4709 222.331C84.2988 225.506 84.2988 230.658 87.4709 233.799L127.086 273.458C130.258 276.634 135.404 276.634 138.54 273.458L162.049 249.923L206.316 205.572C211.427 200.455 207.796 191.705 200.571 191.705L200.536 191.74Z" fill="white"/>
<path d="M1451.87 243.233V129.295H1487.16V397.837H1451.87V276.994H1321.44V397.837H1285.76V129.295H1321.44V243.233H1451.87Z" fill="white"/>
<path d="M1728 397.837H1688.49L1628.26 295.024H1564.96V397.837H1529.28V129.295H1636.7C1659.72 129.295 1679.41 137.479 1695.78 153.847C1712.14 169.96 1720.33 189.525 1720.33 212.543C1720.33 229.934 1715.09 245.791 1704.6 260.114C1693.86 274.691 1680.56 284.794 1664.7 290.421L1728 397.837ZM1636.7 162.671H1564.96V262.799H1636.7C1650 262.799 1661.25 257.941 1670.46 248.221C1679.92 238.503 1684.65 226.61 1684.65 212.543C1684.65 198.477 1679.92 186.712 1670.46 177.249C1661.25 167.53 1650 162.671 1636.7 162.671Z" fill="white"/>
<path d="M579.617 127.6H677.238C701.837 127.6 722.462 135.927 739.118 152.582C755.772 169.237 764.101 189.735 764.101 214.076C764.101 238.418 755.772 258.917 739.118 275.57C722.462 292.226 701.837 300.553 677.238 300.553H615.361V396.638H579.617V127.6ZM615.361 267.116H677.238C692.356 267.116 704.655 262.12 714.136 252.126C723.873 241.621 728.742 228.938 728.742 214.076C728.742 198.703 723.873 186.019 714.136 176.027C704.398 166.034 692.099 161.037 677.238 161.037H615.361V267.116Z" fill="white"/>
<path d="M931.95 237.546V204.493H965.389V396.663H931.95V363.611C915.553 388.975 891.34 401.659 859.311 401.659C832.151 401.659 809.219 391.924 790.513 372.449C771.553 352.72 762.072 328.763 762.072 300.577C762.072 272.649 771.553 248.82 790.513 229.09C809.474 209.361 832.406 199.496 859.311 199.496C891.34 199.496 915.553 212.179 931.95 237.546ZM863.538 369.376C883.011 369.376 899.282 362.842 912.35 349.774C925.418 336.194 931.95 319.795 931.95 300.577C931.95 281.105 925.418 264.834 912.35 251.766C899.282 238.443 883.011 231.781 863.538 231.781C844.321 231.781 828.179 238.443 815.111 251.766C802.043 264.834 795.509 281.105 795.509 300.577C795.509 319.795 802.043 336.194 815.111 349.774C828.179 362.842 844.321 369.376 863.538 369.376Z" fill="white"/>
<path d="M1017.59 169.489C1011.18 169.489 1005.8 167.312 1001.44 162.956C997.087 158.6 994.91 153.347 994.91 147.198C994.91 141.048 997.087 135.796 1001.44 131.44C1005.8 126.828 1011.18 124.521 1017.59 124.521C1023.74 124.521 1028.99 126.828 1033.34 131.44C1037.7 135.796 1039.88 141.048 1039.88 147.198C1039.88 153.347 1037.7 158.6 1033.34 162.956C1028.99 167.312 1023.74 169.489 1017.59 169.489ZM1034.11 396.635H1000.68V204.465H1034.11V396.635Z" fill="white"/>
<path d="M1228.87 237.522V127.6H1262.31V396.638H1228.87V363.586C1212.48 388.951 1188.26 401.634 1156.23 401.634C1129.07 401.634 1106.14 391.899 1087.43 372.425C1068.47 352.695 1058.99 328.739 1058.99 300.553C1058.99 272.624 1068.47 248.795 1087.43 229.065C1106.4 209.336 1129.33 199.471 1156.23 199.471C1188.26 199.471 1212.48 212.155 1228.87 237.522ZM1160.46 369.351C1179.93 369.351 1196.2 362.817 1209.27 349.749C1222.34 336.169 1228.87 319.77 1228.87 300.553C1228.87 281.08 1222.34 264.809 1209.27 251.741C1196.2 238.418 1179.93 231.757 1160.46 231.757C1141.24 231.757 1125.1 238.418 1112.03 251.741C1098.97 264.809 1092.43 281.08 1092.43 300.553C1092.43 319.77 1098.97 336.169 1112.03 349.749C1125.1 362.817 1141.24 369.351 1160.46 369.351Z" fill="white"/>
</g>
<defs>
<clipPath id="clip0_1911_1916">
<rect width="1728" height="527.04" fill="white" transform="translate(0.0117188 0.03125)"/>
</clipPath>
</defs>
</svg>
