<svg width="1763" height="1293" viewBox="0 0 1763 1293" fill="none" xmlns="http://www.w3.org/2000/svg">
<g opacity="0.1">
<path d="M109.111 32.5244C121.618 49.4432 138.207 62.1335 153.665 76.0295C163.24 84.6467 171.948 94.2446 181.02 103.423C181.92 104.332 182.648 105.416 183.393 106.343C183.119 106.809 183.035 107.16 182.859 107.216C151.878 116.348 130.41 136.99 114.776 164.46C102.81 185.502 96.0681 208.244 93.7439 232.287C93.1246 238.75 92.2524 245.198 92.1522 251.667C92.0869 255.23 92.7106 259.134 94.2159 262.311C96.4933 267.086 101.048 269.164 106.37 268.781C111.861 268.386 115.927 265.448 117.938 260.395C119.184 257.262 119.709 253.755 120.135 250.379C124.085 219.095 135.484 191.043 156.106 166.958C163.75 158.02 172.954 150.923 182.667 144.419C188.364 140.6 193.954 136.61 200.086 132.359C202.147 136.48 204.028 140.476 206.126 144.338C208.098 147.97 211.237 150.07 215.459 149.89C219.668 149.703 222.57 147.311 224.364 143.559C224.882 142.496 225.466 141.336 225.497 140.203C225.684 134.419 226.384 128.556 225.647 122.886C223.924 109.626 217.76 98.1415 208.686 88.6502C195.765 75.1477 182.668 61.7343 168.769 49.2698C153.182 35.2746 138.777 20.4456 127.399 2.76421C126.918 2.02252 126.181 1.4278 125.575 0.769412C120.079 11.3283 114.595 21.9264 109.111 32.5244Z" fill="#004AF5"/>
<path d="M0.113299 243.167C12.5672 250.828 31.3516 249.429 43.4924 239.476C56.7783 228.586 63.1015 214.109 62.5731 197.074C62.0829 180.914 54.2625 166.784 46.9569 152.641C41.5857 163.021 36.2212 173.388 30.85 183.768C35.6048 188.317 38.4324 193.909 39.7412 200.146C42.9668 215.567 28.0425 232.567 11.5729 224.39C11.1123 224.168 10.5308 224.18 9.9896 224.081C6.69974 230.438 3.40316 236.809 0.113299 243.167Z" fill="#004AF5"/>
<path d="M752.232 680.622C757.743 701.525 764.132 721.328 774.288 739.824C773.285 740.347 772.66 740.8 771.956 741.031C756.075 746.484 744.963 757.462 737.005 772.023C736.251 773.418 735.656 774.945 735.313 776.487C734.57 779.872 735.345 782.868 738.193 784.97C741.117 787.144 744.43 787.437 747.433 785.404C749.687 783.876 751.7 781.809 753.41 779.636C760.402 770.774 767.893 762.616 778.444 757.877C781.898 756.325 783.708 756.535 785.389 760.264C790.858 772.417 796.863 784.319 802.293 796.485C807.512 808.178 819.592 811.767 829.995 804.108C833.18 801.756 836.07 798.904 838.768 795.985C850.519 783.271 862.117 770.412 873.842 757.651C877.899 753.238 882.14 749.002 886.273 744.661C900.52 729.668 918.387 722.449 938.229 719.459C938.867 719.359 939.521 719.384 940.617 719.339C940.586 720.877 940.57 722.29 940.509 723.697C939.693 740.83 938.021 757.983 938.243 775.091C938.505 794.699 940.147 814.31 941.79 833.856C942.67 844.412 954.097 849.482 963.316 843.326C969.309 839.319 974.844 834.248 979.628 828.806C987.457 819.931 994.618 810.428 1001.89 801.065C1014.24 785.142 1028.52 771.307 1045.1 759.917C1054.96 753.151 1064.82 746.384 1074.74 739.716C1092.12 728.031 1111.02 719.642 1131.16 714.659C1141.21 712.174 1151.69 710.968 1162.03 710.481C1177.55 709.75 1193.09 710.171 1208.62 710.108C1209.4 710.1 1210.2 710.132 1210.98 710.223C1216.7 710.952 1217.8 710.116 1218.19 704.203C1218.59 698.192 1216.19 693.181 1210.9 690.773C1204.89 688.027 1198.49 685.343 1192 684.549C1178.46 682.9 1164.76 681.922 1151.09 681.744C1124.97 681.435 1100.57 689.47 1077.22 700.732C1054.74 711.581 1033.5 724.737 1013.21 739.43C994.42 753.049 980.101 770.914 966.941 789.809C965.652 791.671 964.306 793.487 962.96 795.303C962.846 795.459 962.497 795.443 961.891 795.609C961.814 794.28 961.658 793.009 961.69 791.753C962.522 766.859 964.75 742.126 971.445 717.935C975.286 704.07 967.758 691.811 953.673 690.589C921.335 687.807 890.813 693.27 865.84 716.483C850.857 730.417 837.109 745.702 822.81 760.387C821.797 761.433 820.829 762.519 819.437 764.014C818.616 762.614 817.951 761.575 817.364 760.478C813.778 753.862 810.567 747.026 806.58 740.682C790.452 715.029 781.371 686.758 776.223 656.951C775.724 654.081 775.271 651.185 774.472 648.392C771.279 637.152 760.516 631.929 750.27 637.587C744.993 640.493 740.195 645.02 736.327 649.762C708.94 683.297 690.659 721.328 681.32 763.574C679.278 772.799 677.501 782.111 676.266 791.473C672.749 818.102 676.473 843.684 684.953 869.032C701.803 919.374 732.217 960.569 767.034 999.1C779.629 1013.04 792.262 1027 804 1041.65C810.263 1049.47 815.094 1058.58 819.845 1067.5C824.733 1076.7 825.553 1086.67 822.383 1096.89C821.669 1099.18 821.154 1101.52 820.685 1103.88C820 1107.27 820.475 1110.38 823.844 1112.04C827.161 1113.67 830.162 1112.43 832.348 1109.78C837.918 1103.01 842.166 1095.52 843.887 1086.79C846.101 1075.44 844.577 1064.37 840.303 1053.99C836.746 1045.37 832.762 1036.67 827.347 1029.19C815.792 1013.21 803.725 997.555 790.905 982.606C772.608 961.27 756.699 938.21 741.508 914.612C737.053 907.696 733.771 899.897 730.661 892.205C726.094 880.948 722.109 869.447 717.98 858.004C709.992 835.886 708.071 813.072 711.703 789.743C715.753 763.721 721.886 738.198 732.998 714.177C737.961 703.455 744.382 693.404 750.173 683.061C750.542 682.442 751.136 681.923 752.232 680.622Z" fill="#004AF5"/>
<path d="M736.714 540.845C731.012 531.171 725.056 521.201 719.323 511.115C718.869 510.32 719.454 508.117 720.256 507.544C725.941 503.466 731.483 499.033 737.658 495.9C746.154 491.595 755.207 488.452 763.922 484.574C766.895 483.245 769.881 481.544 772.303 479.386C776.297 475.8 777.511 471.056 775.633 465.948C773.805 460.965 769.88 458.802 764.721 458.11C762.55 457.827 760.053 456.881 758.514 455.376C748.238 445.362 738.016 435.277 728.144 424.862C724.758 421.28 722.422 416.677 719.67 412.501C718.582 410.851 717.777 409 716.642 407.408C713.854 403.46 710.065 401.318 705.122 402.007C700.303 402.677 697.371 405.725 695.714 410.157C693.907 415.006 692.46 420.042 690.234 424.691C683.968 437.746 677.347 450.635 670.907 463.617C669.513 466.438 668.344 469.36 666.727 472.989C661.181 467.713 655.859 463.048 651.006 457.916C639.604 445.853 628.519 433.492 617.15 421.396C613.279 417.268 609.119 413.385 604.818 409.709C597.139 403.132 585.358 405.143 579.064 413.9C574.895 419.685 573.765 426.285 574.116 433.207C574.718 444.725 577.269 455.85 581.8 466.335C589.209 483.435 596.545 500.612 605.042 517.154C613.671 533.946 623.447 550.129 633.192 566.311C637.394 573.298 642.563 579.713 647.62 586.12C655.118 595.636 661.311 605.811 665.16 617.394C666.813 622.369 669.897 624.641 674.034 624.343C678.171 624.044 681.716 620.853 681.929 615.772C682.14 610.822 682.04 605.464 680.386 600.933C677.325 592.527 673.173 584.528 669.216 576.498C664.03 565.954 658.509 555.583 653.31 545.065C648.618 535.584 643.94 526.11 639.634 516.45C630.911 496.907 622.424 477.255 613.956 457.597C612.826 454.985 612.345 452.099 611.324 448.457C613.525 450.007 615.261 451.038 616.765 452.327C630.575 464.12 644.326 475.998 658.15 487.766C660.198 489.518 660.433 491.271 659.494 493.685C657.949 497.648 656.553 501.672 655.273 505.723C653.099 512.574 655.401 518.659 660.845 520.883C666.398 523.147 672.663 520.819 675.553 514.256C679.2 506.008 682.333 497.495 684.941 488.858C690.883 469.142 700.39 450.99 708.892 432.384C708.98 432.183 709.287 432.062 709.544 431.881C722.512 442.085 735.474 452.303 749.057 462.99C746.626 464.154 745.224 464.846 743.815 465.518C728.68 472.748 714.203 481.011 702.486 493.372C700.659 495.294 698.934 497.334 697.434 499.508C692.912 506.133 693.249 511.663 697.57 518.266C706.083 531.306 714.281 544.546 722.703 557.638C724.1 559.828 724.115 561.533 722.646 563.772C720.457 567.089 718.498 570.59 716.81 574.199C714.778 578.536 715.544 582.575 718.428 585.171C721.44 587.867 725.856 588.323 729.761 585.383C733.856 582.295 738.066 578.953 741.043 574.841C756.383 553.775 775.744 536.454 793.25 517.416C817.832 490.668 834.745 460.381 839.43 423.947C840.033 419.216 840.326 414.424 840.326 409.661C840.332 381.419 827.998 360.337 804.343 345.394C787.587 334.812 769.359 327.769 750.953 320.914C738.239 316.181 725.525 311.415 713.083 306.031C705.868 302.907 699.035 298.827 692.339 294.671C682.289 288.448 676.893 279.13 675.778 267.248C675.051 259.506 675.141 251.856 677.851 244.442C679.892 238.89 682.693 238.082 687.501 241.345C688.842 242.253 690.425 242.792 691.9 243.506C692.482 241.813 693.44 240.15 693.601 238.42C694.335 230.692 689.934 224.278 682.156 221.391C672.792 217.913 663.078 220.566 656.409 228.502C650.702 235.272 648.053 243.294 647.445 251.944C645.459 280.481 656.324 302.351 680.533 317.549C695.491 326.936 711.842 333.189 728.057 339.8C743.666 346.163 759.585 351.863 774.816 359.019C784.003 363.345 792.318 369.641 800.704 375.514C806.659 379.683 810.646 385.701 812.932 392.668C822.433 421.496 820.913 449.416 804.281 475.565C800.131 482.102 794.75 488.085 789.082 493.391C771.961 509.35 754.479 524.808 736.714 540.845Z" fill="#004AF5"/>
<path d="M1156.01 673.282C1150.31 663.608 1144.35 653.637 1138.62 643.551C1138.16 642.756 1138.75 640.554 1139.55 639.981C1145.23 635.902 1150.78 631.469 1156.95 628.337C1165.45 624.032 1174.5 620.889 1183.21 617.011C1186.19 615.682 1189.17 613.98 1191.6 611.823C1195.59 608.237 1196.8 603.493 1194.93 598.385C1193.1 593.401 1189.17 591.239 1184.01 590.547C1181.84 590.263 1179.35 589.317 1177.81 587.812C1167.53 577.798 1157.31 567.713 1147.44 557.298C1144.05 553.717 1141.72 549.114 1138.96 544.938C1137.88 543.287 1137.07 541.437 1135.94 539.844C1133.15 535.896 1129.36 533.755 1124.42 534.443C1119.6 535.114 1116.66 538.161 1115.01 542.594C1113.2 547.443 1111.75 552.478 1109.53 557.127C1103.26 570.183 1096.64 583.071 1090.2 596.053C1088.81 598.875 1087.64 601.796 1086.02 605.426C1080.47 600.15 1075.15 595.484 1070.3 590.353C1058.9 578.289 1047.81 565.929 1036.44 553.833C1032.57 549.704 1028.41 545.821 1024.11 542.146C1016.43 535.568 1004.65 537.58 998.357 546.336C994.188 552.122 993.058 558.722 993.409 565.644C994.011 577.161 996.562 588.287 1001.09 598.772C1008.5 615.872 1015.84 633.049 1024.33 649.591C1032.96 666.383 1042.74 682.565 1052.48 698.747C1056.69 705.734 1061.86 712.149 1066.91 718.557C1074.41 728.072 1080.6 738.248 1084.45 749.83C1086.11 754.806 1089.19 757.077 1093.33 756.779C1097.46 756.481 1101.01 753.289 1101.22 748.209C1101.43 743.259 1101.33 737.9 1099.68 733.37C1096.62 724.963 1092.47 716.964 1088.51 708.935C1083.32 698.391 1077.8 688.019 1072.6 677.501C1067.91 668.02 1063.23 658.546 1058.93 648.886C1050.2 629.343 1041.72 609.691 1033.25 590.033C1032.12 587.422 1031.64 584.536 1030.62 580.893C1032.82 582.444 1034.55 583.474 1036.06 584.763C1049.87 596.557 1063.62 608.435 1077.44 620.202C1079.49 621.954 1079.73 623.707 1078.79 626.122C1077.24 630.085 1075.85 634.108 1074.57 638.159C1072.39 645.01 1074.69 651.096 1080.14 653.319C1085.69 655.583 1091.96 653.255 1094.85 646.692C1098.49 638.445 1101.63 629.931 1104.23 621.294C1110.18 601.578 1119.68 583.427 1128.18 564.821C1128.27 564.619 1128.58 564.498 1128.84 564.318C1141.81 574.522 1154.77 584.739 1168.35 595.426C1165.92 596.591 1164.52 597.282 1163.11 597.954C1147.97 605.185 1133.5 613.448 1121.78 625.808C1119.95 627.73 1118.23 629.771 1116.73 631.944C1112.2 638.569 1112.54 644.1 1116.86 650.702C1125.38 663.743 1133.57 676.983 1142 690.075C1143.39 692.264 1143.41 693.97 1141.94 696.209C1139.75 699.525 1137.79 703.027 1136.1 706.636C1134.07 710.973 1134.84 715.012 1137.72 717.608C1140.73 720.304 1145.15 720.76 1149.05 717.82C1153.15 714.731 1157.36 711.39 1160.34 707.277C1175.68 686.212 1195.04 668.891 1212.54 649.853C1237.12 623.105 1254.04 592.817 1258.72 556.383C1259.33 551.653 1259.62 546.861 1259.62 542.098C1259.62 513.855 1247.29 492.773 1223.64 477.83C1206.88 467.248 1188.65 460.206 1170.25 453.351C1157.53 448.617 1144.82 443.851 1132.38 438.467C1125.16 435.344 1118.33 431.264 1111.63 427.107C1101.58 420.885 1096.19 411.567 1095.07 399.685C1094.34 391.942 1094.43 384.293 1097.14 376.879C1099.18 371.327 1101.99 370.519 1106.79 373.781C1108.14 374.69 1109.72 375.228 1111.19 375.942C1111.77 374.249 1112.73 372.586 1112.89 370.857C1113.63 363.129 1109.23 356.715 1101.45 353.828C1092.08 350.35 1082.37 353.003 1075.7 360.939C1070 367.708 1067.35 375.731 1066.74 384.381C1064.75 412.917 1075.62 434.788 1099.83 449.985C1114.78 459.373 1131.14 465.626 1147.35 472.237C1162.96 478.6 1178.88 484.3 1194.11 491.456C1203.3 495.782 1211.61 502.078 1220 507.95C1225.95 512.119 1229.94 518.137 1232.23 525.105C1241.73 553.933 1240.21 581.853 1223.57 608.001C1219.42 614.539 1214.04 620.521 1208.38 625.828C1191.25 641.786 1173.77 657.245 1156.01 673.282Z" fill="#004AF5"/>
<path d="M1088.22 1063.13C1077.19 1061.04 1065.76 1058.95 1054.4 1056.62C1053.5 1056.43 1052.23 1054.54 1052.33 1053.56C1053.01 1046.6 1053.32 1039.51 1055.04 1032.8C1057.4 1023.57 1061 1014.69 1063.82 1005.58C1064.78 1002.47 1065.47 999.103 1065.45 995.859C1065.38 990.492 1062.61 986.453 1057.53 984.499C1052.58 982.59 1048.37 984.117 1044.45 987.541C1042.8 988.988 1040.44 990.243 1038.3 990.409C1024 991.539 1009.67 992.582 995.334 993.144C990.409 993.331 985.408 992.054 980.453 991.372C978.494 991.103 976.572 990.489 974.627 990.293C969.819 989.789 965.712 991.227 962.973 995.399C960.301 999.465 960.662 1003.68 962.903 1007.85C965.36 1012.4 968.194 1016.81 970.224 1021.55C975.914 1034.86 981.246 1048.33 986.767 1061.73C987.97 1064.64 989.397 1067.45 991.061 1071.05C983.439 1071.75 976.422 1072.68 969.364 1072.95C952.777 1073.57 936.175 1073.77 919.585 1074.35C913.929 1074.54 908.267 1075.11 902.668 1075.92C892.66 1077.36 886.41 1087.55 888.848 1098.05C890.453 1105 894.672 1110.2 900.111 1114.5C909.17 1121.63 919.22 1127.05 930.092 1130.55C947.836 1136.24 965.59 1142.05 983.632 1146.56C1001.95 1151.13 1020.56 1154.44 1039.16 1157.78C1047.18 1159.22 1055.41 1159.56 1063.56 1159.98C1075.66 1160.61 1087.4 1162.65 1098.64 1167.39C1103.48 1169.43 1107.22 1168.6 1109.72 1165.3C1112.22 1161.99 1112.16 1157.22 1108.48 1153.71C1104.89 1150.29 1100.8 1146.83 1096.3 1145.09C1087.96 1141.86 1079.2 1139.71 1070.56 1137.39C1059.21 1134.34 1047.77 1131.66 1036.43 1128.64C1026.21 1125.92 1016 1123.2 1005.9 1120.07C985.449 1113.75 965.075 1107.19 944.709 1100.6C942 1099.73 939.512 1098.19 936.1 1096.56C938.717 1095.93 940.635 1095.3 942.596 1095.02C960.567 1092.4 978.563 1089.89 996.524 1087.24C999.191 1086.86 1000.66 1087.84 1001.86 1090.13C1003.82 1093.91 1005.93 1097.61 1008.13 1101.24C1011.85 1107.39 1017.95 1109.67 1023.21 1107.04C1028.57 1104.35 1030.95 1098.11 1027.92 1091.61C1024.12 1083.43 1019.78 1075.46 1015 1067.81C1004.09 1050.35 996.698 1031.24 988.306 1012.58C988.212 1012.38 988.324 1012.07 988.357 1011.76C1004.58 1008.73 1020.8 1005.71 1037.79 1002.54C1037.07 1005.14 1036.66 1006.65 1036.24 1008.15C1031.71 1024.3 1028.38 1040.63 1029.96 1057.59C1030.2 1060.23 1030.6 1062.87 1031.24 1065.43C1033.25 1073.2 1037.63 1076.59 1045.44 1077.69C1060.86 1079.88 1076.22 1082.44 1091.62 1084.73C1094.19 1085.13 1095.48 1086.24 1096.19 1088.82C1097.25 1092.65 1098.59 1096.43 1100.19 1100.08C1102.11 1104.47 1105.66 1106.55 1109.51 1106.09C1113.52 1105.6 1116.78 1102.58 1117.14 1097.71C1117.51 1092.59 1117.77 1087.22 1116.64 1082.27C1110.91 1056.85 1110.64 1030.88 1107.85 1005.16C1103.93 969.049 1092.3 936.369 1067.98 908.836C1064.82 905.264 1061.41 901.886 1057.83 898.748C1036.59 880.132 1012.6 875.517 985.774 883.462C966.774 889.092 949.465 898.161 932.179 907.488C920.241 913.932 908.278 920.354 896.029 926.165C888.926 929.533 881.354 931.985 873.815 934.282C862.512 937.741 851.947 935.659 842.275 928.668C835.972 924.113 830.278 919.004 826.488 912.08C823.656 906.886 824.894 904.247 830.517 902.78C832.084 902.37 833.532 901.535 835.041 900.896C834.151 899.342 833.532 897.526 832.337 896.265C827.008 890.62 819.283 889.704 811.987 893.651C803.199 898.403 798.794 907.457 800.368 917.704C801.7 926.457 805.988 933.736 812.093 939.894C832.249 960.192 855.859 966.433 883.243 958.238C900.161 953.174 915.639 944.995 931.297 937.155C946.369 929.608 961.146 921.39 976.566 914.65C985.874 910.59 996.088 908.486 1006.03 906.047C1013.09 904.316 1020.25 905.283 1026.99 908.154C1054.94 920.005 1074.94 939.547 1083.64 969.288C1085.83 976.718 1086.78 984.707 1087.04 992.468C1087.76 1015.86 1087.86 1039.2 1088.22 1063.13Z" fill="#004AF5"/>
<path d="M417.427 129.54C441.034 123.872 465.527 124.833 488.448 115.492C489.451 117.82 490.524 119.918 491.306 122.131C495.843 134.947 500.269 147.788 504.832 160.584C505.771 163.227 504.969 164.554 502.702 166.102C492.473 173.135 482.34 180.334 472.316 187.672C469.662 189.617 467.158 192.004 465.201 194.641C461.554 199.523 460.945 205.03 463.868 210.491C466.785 215.933 471.732 218.758 477.706 218.1C482.354 217.585 487.284 216.304 491.332 214.019C502.235 207.849 512.756 200.983 523.392 194.31C527.544 191.697 531.575 188.873 536.479 185.604C542.753 198.406 548.762 210.64 554.915 223.197C552.971 224.248 551.627 225.063 550.214 225.725C540.049 230.469 529.809 235.041 519.74 239.95C515.446 242.042 511.16 244.403 507.453 247.395C501.083 252.543 499.447 260.672 502.744 267.255C506.042 273.839 513.407 277.053 521.457 274.931C525.557 273.851 529.728 272.476 533.387 270.371C547.144 262.442 560.951 254.573 574.261 245.916C584.689 239.135 587.518 227.078 582.463 215.836C575.86 201.121 569.238 186.413 562.523 171.757C554.455 154.177 545.243 149.726 526.389 154.071C525.751 154.222 525.108 154.287 524.142 154.435C523.359 152.254 522.569 150.153 521.837 148.033C516.713 133.072 508.867 119.489 501.497 105.588C495.366 94.0378 486.242 92.95 475.434 93.8439C464.305 94.754 453.174 95.7629 442.056 96.7785C431.188 97.7573 420.308 98.6636 409.456 99.8334C390.857 101.839 385.487 117.724 386.774 130.965C387.221 135.576 388.461 140.183 389.921 144.588C400.385 176.098 410.308 207.827 421.787 238.967C429.837 260.817 439.521 282.087 449.452 303.168C466.261 338.874 480.752 375.273 487.299 414.511C488.127 419.502 489.414 424.432 490.781 429.303C491.469 431.699 492.549 434.1 493.97 436.129C497.049 440.526 501.438 442.549 506.818 441.417C512.19 440.298 515.429 436.682 516.566 431.398C517.091 428.949 517.174 426.337 516.967 423.841C515.286 403.246 511.717 383.051 503.826 363.854C494.204 340.427 484.991 316.813 474.741 293.676C461.416 263.62 451.94 232.173 441.014 201.27C433.154 179.02 426.079 156.496 418.668 134.081C418.2 132.694 417.889 131.289 417.427 129.54Z" fill="#004AF5"/>
<path d="M268.474 330.804C270.112 336.993 271.295 343.363 273.534 349.312C275.816 355.366 278.522 361.457 282.167 366.748C289.254 377.025 300.548 377.111 308.065 366.897C320.568 349.933 330.558 331.451 338.723 312.026C341.647 305.076 344.421 298.066 346.987 290.982C348.028 288.115 348.746 285.015 348.867 281.99C349.025 277.849 345.742 275.282 341.967 276.901C338.786 278.259 335.452 280.423 333.401 283.15C321.126 299.481 309.2 316.093 297.144 332.604C296.451 333.564 295.764 334.51 294.592 336.141C293.858 334.325 293.229 333.099 292.85 331.801C290.409 323.327 288.218 314.783 285.54 306.387C284.299 302.506 282.66 298.537 280.314 295.271C274.815 287.601 264.802 286.943 258.095 293.721C255.49 296.345 253.375 299.607 251.626 302.891C245.808 313.818 240.229 324.884 234.599 335.924C232.09 340.835 229.814 341.46 225.772 337.666C212.548 325.232 203.172 310.215 198.132 292.652C189.541 262.736 196.27 235.557 215.043 211.106C225.199 197.884 239.687 196.936 251.794 208.04C257.937 213.673 262.618 220.418 265.462 228.366C267.269 233.373 266.658 234.776 262.028 237.572C261.796 237.702 261.583 237.892 261.333 237.963C258.222 238.807 255.118 239.637 252.013 240.468C251.139 236.894 249.558 233.322 249.605 229.741C249.665 225.883 248.606 222.731 245.519 221.434C243.029 220.38 239.535 220.441 236.92 221.341C234.845 222.053 232.773 224.503 231.806 226.657C227.823 235.528 225.845 244.836 227.882 254.503C230.063 264.811 237.807 271.505 248.121 272.469C265.231 274.063 287.972 258.624 292.277 241.774C293.551 236.775 293.784 230.871 292.446 225.972C287.371 207.306 277.607 191.388 261.862 180.086C240.309 164.627 214.011 167.025 194.875 185.931C169.69 210.787 150.076 258.521 172.864 307.267C182.367 327.59 196.468 344.1 214.532 357.136C220.268 361.273 226.649 363.59 233.911 362.875C234.691 362.794 235.507 362.899 236.289 363.037C244.617 364.542 248.868 362.636 253.15 355.154C257.092 348.265 260.847 341.262 264.706 334.312C265.338 333.187 266.028 332.075 266.685 330.963C267.275 330.901 267.871 330.859 268.474 330.804Z" fill="#004AF5"/>
<path d="M563.146 524.474C555.126 522.763 547.178 520.504 539.05 519.472C524.913 517.669 510.674 518.604 496.514 520.732C451.757 527.474 409.773 542.684 370.743 566.605C357.111 574.954 344.476 584.669 335.072 598.078C333.531 600.271 332.168 602.623 331.024 605.055C324.46 618.898 328.243 632.716 341.508 639.496C348.003 642.807 355.484 644.808 362.756 645.864C377.403 647.998 392.127 646.88 406.763 643.612C410.727 642.723 414.93 643.127 418.892 642.304C462.136 633.343 503.358 618.573 541.575 595.283C551.998 588.934 561.866 581.745 569.519 571.94C571.824 568.99 573.96 565.802 575.563 562.422C582.727 547.386 577.748 533.183 562.878 525.588C562.991 525.212 563.072 524.836 563.146 524.474ZM552.183 554.249C549.52 557.264 547.239 560.795 544.131 563.196C534.497 570.623 525.026 578.485 514.647 584.624C480.944 604.52 444.001 614.971 406.327 622.071C393.528 624.485 380.073 622.901 366.931 622.75C363.334 622.709 359.695 621.528 356.237 620.373C351.057 618.628 350.477 616.708 353.969 612.217C356.503 608.951 359.323 605.633 362.655 603.331C372.223 596.722 381.708 589.803 391.943 584.475C427.867 565.711 465.959 553.917 505.612 548.041C515.625 546.558 525.842 546.282 535.963 546.19C540.722 546.147 545.493 547.68 550.189 548.824C552.908 549.463 553.636 551.41 552.183 554.249Z" fill="#004AF5"/>
<path d="M1503.47 592.724C1495.45 591.013 1487.51 588.754 1479.38 587.722C1465.24 585.919 1451 586.854 1436.84 588.982C1392.09 595.724 1350.1 610.934 1311.07 634.855C1297.44 643.204 1284.8 652.919 1275.4 666.328C1273.86 668.521 1272.5 670.873 1271.35 673.305C1264.79 687.148 1268.57 700.966 1281.84 707.746C1288.33 711.057 1295.81 713.058 1303.08 714.114C1317.73 716.248 1332.45 715.13 1347.09 711.862C1351.05 710.973 1355.26 711.377 1359.22 710.554C1402.46 701.593 1443.69 686.823 1481.9 663.533C1492.33 657.184 1502.19 649.995 1509.85 640.19C1512.15 637.24 1514.29 634.052 1515.89 630.672C1523.06 615.636 1518.08 601.433 1503.21 593.838C1503.32 593.462 1503.4 593.086 1503.47 592.724ZM1492.51 622.499C1489.85 625.514 1487.57 629.045 1484.46 631.446C1474.82 638.873 1465.35 646.735 1454.98 652.874C1421.27 672.77 1384.33 683.221 1346.66 690.321C1333.86 692.735 1320.4 691.151 1307.26 691C1303.66 690.959 1300.02 689.778 1296.57 688.623C1291.39 686.878 1290.81 684.958 1294.3 680.467C1296.83 677.201 1299.65 673.883 1302.98 671.581C1312.55 664.972 1322.04 658.053 1332.27 652.725C1368.2 633.961 1406.29 622.167 1445.94 616.291C1455.95 614.808 1466.17 614.532 1476.29 614.44C1481.05 614.397 1485.82 615.93 1490.52 617.074C1493.24 617.713 1493.96 619.66 1492.51 622.499Z" fill="#004AF5"/>
<path d="M1371.91 784.034C1378.99 779.725 1386.15 777.116 1393.79 775.914C1421.99 771.496 1446.9 778.949 1468.45 796.993C1485.66 811.421 1500.68 828.045 1512.22 847.525C1516.5 854.743 1519.9 862.585 1523 870.438C1527.83 882.737 1526.67 895.212 1522.01 907.507C1521.69 908.351 1521.19 909.135 1520.47 910.521C1519.61 908.934 1518.97 907.703 1518.29 906.492C1508.89 889.361 1499.8 872.042 1489.96 855.184C1485.95 848.302 1480.57 842.185 1475.36 836.122C1471.86 832.058 1467.19 831.581 1463.65 833.913C1460.1 836.251 1458.53 840.858 1460.38 845.692C1462.12 850.243 1464.33 854.653 1466.79 858.841C1470.41 864.972 1474.34 870.922 1478.32 876.826C1490.04 894.208 1498.92 913.061 1506.43 932.659C1506.84 933.77 1507.28 934.888 1507.82 935.948C1512.72 945.564 1525.23 946.697 1530.64 937.3C1544.51 913.278 1552.94 887.659 1542.81 860.5C1526.81 817.611 1500.3 783.042 1459.22 761.837C1438.45 751.119 1415.98 747.368 1392.48 750.938C1380.31 752.78 1369.33 757.325 1359.9 765.606C1353.48 771.264 1350.03 778.431 1348.53 786.673C1347.84 790.46 1349.69 793.339 1352.15 795.907C1356.71 800.654 1361.31 805.355 1365.79 810.173C1389.5 835.737 1407.72 864.904 1420.94 897.338C1422.23 900.528 1423.46 903.751 1424.93 906.85C1427.04 911.272 1430.27 913.222 1434.23 912.756C1438.11 912.31 1441.54 909.125 1442.5 904.585C1443.04 901.998 1443.4 899.252 1443.12 896.665C1442.65 892.595 1442.13 888.38 1440.65 884.631C1427.01 850.371 1409.01 818.929 1382.42 793.189C1379.17 790.11 1375.67 787.326 1371.91 784.034Z" fill="#004AF5"/>
<path d="M927.738 471.304C928.436 473.064 929.057 474.501 929.58 475.971C946.616 524.076 963.672 572.175 980.623 620.319C982.689 626.185 983.858 632.402 986.094 638.19C987.518 641.874 989.613 645.673 992.424 648.31C996.11 651.767 1001.08 651.825 1005.77 649.487C1010.44 647.142 1013.15 643.144 1013.25 637.952C1013.3 635.115 1012.66 632.085 1011.6 629.455C1004.04 610.668 996.057 592.064 988.676 573.205C973.812 535.218 959.236 497.113 944.608 459.015C943.619 456.437 942.918 453.71 942.471 450.963C941.043 442.264 932.715 435.189 924.403 440.548C923.869 440.888 923.145 441.063 922.516 441.054C912.238 440.982 903.811 445.965 896.304 452.34C861.143 482.145 834.864 518.113 823.04 563.409C820.506 573.14 819.949 583.478 819.476 593.559C819.104 601.561 822.504 605.885 827.679 606.747C833.138 607.657 837.347 604.389 840.329 596.805C841.164 594.689 841.897 592.52 842.526 590.33C853.526 552.402 873.385 519.958 902.255 493.143C909.504 486.418 917.088 480.05 924.546 473.549C925.42 472.769 926.452 472.187 927.738 471.304Z" fill="#004AF5"/>
<path d="M430.644 720.802C431.342 722.562 431.963 723.999 432.486 725.469C449.522 773.574 466.578 821.673 483.529 869.817C485.595 875.683 486.764 881.901 489 887.688C490.424 891.372 492.519 895.172 495.33 897.808C499.016 901.265 503.989 901.323 508.676 898.985C513.349 896.64 516.052 892.642 516.156 887.45C516.21 884.613 515.569 881.583 514.509 878.953C506.946 860.166 498.963 841.562 491.583 822.703C476.718 784.716 462.142 746.611 447.514 708.513C446.525 705.935 445.824 703.208 445.377 700.462C443.95 691.762 435.621 684.687 427.309 690.046C426.775 690.386 426.051 690.561 425.422 690.552C415.144 690.48 406.717 695.463 399.211 701.838C364.049 731.643 337.77 767.611 325.946 812.907C323.413 822.638 322.855 832.976 322.382 843.057C322.011 851.059 325.41 855.383 330.585 856.245C336.044 857.155 340.253 853.887 343.235 846.303C344.07 844.187 344.803 842.018 345.432 839.828C356.432 801.901 376.291 769.456 405.161 742.641C412.41 735.916 419.994 729.548 427.452 723.047C428.327 722.267 429.359 721.685 430.644 720.802Z" fill="#004AF5"/>
<path d="M1368.86 916.615C1374.38 905.055 1376.69 892.852 1375.2 880.26C1371.98 853.189 1361.55 829.705 1340.3 811.982C1339.09 810.98 1337.87 809.919 1336.5 809.195C1332.39 807.018 1328.43 804.972 1325.17 801.246C1322.01 797.637 1316.92 797.549 1312.61 799.397C1307.07 801.775 1301.14 804.116 1296.67 807.97C1278.03 824.056 1259.78 840.589 1241.62 857.221C1237.08 861.38 1233.06 866.275 1229.58 871.364C1227.91 873.817 1227.55 877.496 1227.49 880.636C1227.45 882.689 1228.7 884.982 1229.93 886.786C1242.83 905.595 1258.22 921.86 1278.91 931.992C1296.55 940.609 1315.48 943.223 1335.01 940.681C1350.37 938.685 1361.51 930.275 1368.86 916.615ZM1323.47 825.192C1327.13 830.604 1330.96 836.09 1334.6 841.69C1341.31 852 1346.86 862.878 1350.46 874.722C1353.38 884.337 1353.77 893.946 1350.31 903.565C1346.83 913.209 1340.35 919.064 1329.84 919.542C1315.51 920.186 1301.7 918.019 1289.1 910.976C1277.09 904.251 1267.01 895.037 1257.83 884.814C1257.69 884.656 1257.73 884.318 1257.79 884.677C1279.69 864.836 1301.36 845.22 1323.47 825.192Z" fill="#004AF5"/>
<path d="M1668.52 920.655C1666.09 915.257 1664.27 910.424 1661.82 905.962C1656.13 895.55 1645.78 893.672 1636.93 901.892C1632.53 905.986 1628.71 911.049 1625.67 916.279C1620.77 924.688 1616.71 933.584 1612.3 942.276C1611.77 943.327 1611.22 944.353 1610.36 946.024C1609.38 944.425 1608.54 943.31 1607.96 942.085C1597.08 918.987 1567.03 922.05 1555.43 941.662C1544.64 959.903 1538.36 979.866 1534.13 1000.48C1533.86 1001.76 1533.86 1003.14 1533.96 1004.45C1534.24 1008.76 1536.63 1011.96 1540.29 1013.04C1543.89 1014.09 1548.09 1012.88 1550.3 1009.19C1553.09 1004.53 1555.41 999.517 1557.52 994.501C1561.82 984.291 1565.64 973.883 1570.1 963.739C1571.95 959.533 1574.44 955.374 1577.47 951.937C1582.21 946.529 1586.85 947.224 1590.11 953.449C1593.21 959.372 1595.98 965.49 1598.87 971.524C1599.61 973.063 1600.24 974.648 1600.97 976.201C1603.28 981.075 1606.83 984.304 1612.47 984.139C1618.09 983.967 1621.74 980.545 1623.88 975.542C1627.6 966.821 1631.03 957.982 1634.68 949.222C1637.61 942.194 1640.61 935.204 1643.67 928.228C1644.61 926.079 1645.8 924.062 1646.88 921.972C1647.37 921.98 1647.86 921.982 1648.35 921.99C1650.13 927.994 1652.03 933.959 1653.65 940.014C1654.71 943.955 1655.21 948.058 1656.2 952.032C1657.45 957.033 1660.41 960.568 1665.65 961.324C1670.85 962.08 1675.26 959.792 1677.63 955.24C1682.08 946.745 1685.98 937.953 1689.92 929.194C1695.82 916.039 1701.42 902.74 1707.46 889.657C1709.28 885.712 1712.07 882.176 1714.63 878.613C1717.44 874.704 1721.41 873.33 1726.06 873.665C1733.77 874.213 1739.93 877.929 1745.23 883.172C1748.72 886.637 1751.9 890.447 1755.6 894.514C1758.04 889.787 1760.51 885.15 1762.8 880.429C1763.1 879.821 1762.81 878.545 1762.33 878.013C1753.27 868.062 1743.4 859.278 1729.78 856.219C1714.59 852.795 1702.53 857.433 1693.29 872.703C1684.74 886.811 1677.93 901.978 1670.37 916.677C1669.76 917.82 1669.28 918.996 1668.52 920.655Z" fill="#004AF5"/>
<path d="M1137.05 794.705C1138.39 798.051 1139.28 800.764 1140.53 803.28C1142.96 808.181 1145.2 813.249 1148.25 817.74C1152.94 824.647 1160.34 826.645 1167.85 822.895C1172.35 820.643 1176.57 817.495 1180.35 814.104C1188.49 806.816 1196.17 799.032 1204.21 791.626C1219.98 777.071 1237.58 765.192 1256.55 755.35C1259.54 753.792 1262.52 751.982 1265.07 749.767C1269.09 746.288 1268.69 742.004 1264.41 738.889C1260.67 736.173 1256.3 735.642 1252.08 736.795C1244.92 738.768 1237.68 740.811 1230.9 743.842C1206.05 754.916 1185.28 771.693 1167.07 791.889C1165.4 793.741 1163.63 795.522 1161.9 797.309C1161.75 797.463 1161.44 797.448 1160.58 797.675C1159.41 793.158 1158.16 788.655 1157.07 784.113C1156.24 780.675 1155.8 777.129 1154.82 773.742C1151.75 763.286 1142.5 757.977 1132.29 761.805C1126.55 763.956 1121.07 767.58 1116.34 771.592C1103.2 782.734 1092.83 796.424 1082.92 810.466C1080.87 813.377 1078.78 816.289 1077.05 819.384C1073.65 825.471 1074.1 831.97 1077.99 836.733C1082.08 841.725 1089.05 843.96 1095.31 840.983C1099.92 838.79 1104.5 835.632 1107.84 831.798C1115.26 823.254 1121.86 814.011 1128.83 805.076C1131.37 801.76 1133.99 798.535 1137.05 794.705Z" fill="#004AF5"/>
<path d="M362.777 498.722C371.601 480.446 375.525 461.694 374.394 442.156C374.115 437.282 372.619 432.371 370.826 427.85C368.631 422.331 364.513 420.958 358.886 422.776C358.143 423.018 357.386 423.318 356.637 423.359C335.581 424.181 320.791 436.058 310.102 453.533C295.214 477.868 291.02 504.423 295.084 532.121C295.943 537.987 300.569 541.897 307.12 542.914C313.488 543.918 319.436 542.184 325.051 539.074C337.976 531.902 347.779 521.219 356.223 509.124C358.647 505.632 360.76 501.946 362.777 498.722ZM316.485 517.32C320.047 497.771 323.915 479.189 336.086 463.502C339.824 458.695 344.262 454.647 349.782 451.719C352.017 474.02 335.351 507.174 316.485 517.32Z" fill="#004AF5"/>
<path d="M365.241 219.318C365.943 214.723 366.555 210.427 367.238 206.15C368.135 200.523 367.723 195.122 365.308 189.949C361.53 181.837 354.958 177.566 346.344 176.868C341.36 176.473 338.978 174.009 338.38 169.497C337.681 164.308 337.118 159.075 337.024 153.838C336.922 148.68 335.684 145.839 332.21 145.142C328.621 144.417 324.881 146.57 323.71 151.168C320.408 164.12 322.011 176.311 330.174 187.036C333.205 191.018 337.687 192.353 342.5 192.922C350.671 193.916 351.511 195.221 349.37 203.406C347.594 210.17 345.376 216.853 344.009 223.698C342.7 230.245 344.476 236.155 350.4 239.778C352.664 241.163 355.43 241.954 358.074 242.387C361.154 242.88 361.953 244.295 362.055 247.336C362.211 252.047 362.746 256.806 363.663 261.417C365.189 269.119 369.74 274.15 377.732 275.084C381.379 275.51 382.262 277.198 381.67 280.553C381.137 283.544 380.809 286.576 380.596 289.602C379.872 300.095 385.21 307.996 395.057 311.138C400.034 312.729 400.824 313.974 398.523 318.825C395.152 325.931 393.48 333.274 393.763 341.071C393.978 346.945 398.283 349.649 402.996 346.21C416.022 336.73 423.917 322.066 417.036 305.158C414.49 298.899 409.827 294.893 403.363 293.404C399.201 292.448 398.666 290.431 399.239 286.426C400.068 280.715 400.366 274.844 400.045 269.112C399.592 260.833 395.707 256.508 387.697 254.58C385.192 253.973 384.659 252.761 384.804 250.456C385.025 247.04 385.253 243.579 385.03 240.18C384.263 228.8 378.732 222.457 367.759 219.964C367.132 219.837 366.532 219.658 365.241 219.318Z" fill="#004AF5"/>
<path d="M1104.2 863.401C1104.9 858.806 1105.51 854.51 1106.19 850.233C1107.09 844.606 1106.68 839.205 1104.26 834.032C1100.48 825.92 1093.91 821.649 1085.3 820.951C1080.32 820.556 1077.93 818.092 1077.33 813.58C1076.64 808.391 1076.07 803.158 1075.98 797.921C1075.88 792.763 1074.64 789.922 1071.17 789.225C1067.58 788.5 1063.84 790.653 1062.67 795.251C1059.36 808.203 1060.97 820.394 1069.13 831.119C1072.16 835.101 1076.64 836.436 1081.46 837.005C1089.63 837.999 1090.47 839.304 1088.33 847.489C1086.55 854.253 1084.33 860.936 1082.96 867.781C1081.66 874.328 1083.43 880.238 1089.36 883.861C1091.62 885.246 1094.38 886.037 1097.03 886.47C1100.11 886.963 1100.91 888.378 1101.01 891.419C1101.17 896.13 1101.7 900.889 1102.62 905.5C1104.14 913.202 1108.69 918.233 1116.69 919.167C1120.33 919.593 1121.22 921.281 1120.62 924.636C1120.09 927.627 1119.76 930.659 1119.55 933.685C1118.83 944.178 1124.16 952.079 1134.01 955.221C1138.99 956.812 1139.78 958.057 1137.48 962.908C1134.11 970.014 1132.43 977.357 1132.72 985.154C1132.93 991.028 1137.24 993.732 1141.95 990.293C1154.98 980.813 1162.87 966.149 1155.99 949.241C1153.45 942.982 1148.78 938.976 1142.32 937.487C1138.16 936.531 1137.62 934.514 1138.19 930.509C1139.02 924.798 1139.32 918.927 1139 913.195C1138.55 904.916 1134.66 900.591 1126.65 898.663C1124.15 898.056 1123.61 896.844 1123.76 894.539C1123.98 891.123 1124.21 887.662 1123.98 884.263C1123.22 872.883 1117.69 866.54 1106.71 864.047C1106.09 863.92 1105.49 863.741 1104.2 863.401Z" fill="#004AF5"/>
<path d="M542.488 340.178C539.418 338.92 536.435 337.344 533.247 336.438C525.311 334.201 519.185 340.079 520.541 348.457C521.337 353.401 524.054 357.123 527.832 360.021C548.766 376.064 569.286 369.098 582.942 348.606C593.101 333.367 592.514 316.621 582.398 301.792C575.601 291.824 565.169 288.113 553.595 292.015C541.538 296.082 532.932 304.482 527.132 315.905C524.664 320.765 525.514 325.82 528.798 329.091C532.038 332.322 537.058 333.067 541.731 330.242C546.107 327.593 550.102 324.235 554.303 321.247C561.605 316.076 563.717 316.756 564.926 325.603C565.433 329.323 565.157 333.729 563.656 337.121C560.381 344.524 553.218 346.508 546.318 342.822C544.958 342.101 543.659 341.264 542.332 340.478C542.385 340.406 542.439 340.302 542.488 340.178Z" fill="#004AF5"/>
<path d="M447.611 437.506C455.407 422.243 457.44 406.497 450.199 390.044C448.74 386.708 447.106 383.381 445.137 380.307C442.448 376.122 438.15 375.771 433.812 376.584C421.543 378.865 412.01 385.437 404.285 394.672C398.821 401.214 396.361 408.964 395.66 417.395C394.519 431.417 397.79 444.846 402.787 457.935C406.19 466.829 416.963 469.051 423.851 462.72C425.314 461.373 426.905 460.142 428.556 459.024C437.868 452.748 442.627 447.403 447.611 437.506ZM415.096 442.575C411.224 422.934 416.145 408.189 429.05 402.178C432.39 418.206 426.569 435.346 415.096 442.575Z" fill="#004AF5"/>
<path d="M910.465 643.401C887.547 636.749 866.453 635.678 846.543 647.602C833.963 655.134 823.644 665.236 815.307 677.242C810.943 683.542 811.074 690.005 815.387 694.661C819.667 699.284 826.538 700.269 832.947 696.768C836.043 695.083 838.902 692.901 841.657 690.666C845.733 687.34 849.668 683.844 853.557 680.308C865.488 669.478 879.476 663.618 895.72 662.44C903.611 661.87 911.444 660.391 919.256 659.08C922.793 658.486 921.958 655.418 920.679 653.877C917.34 649.92 913.454 646.413 910.465 643.401Z" fill="#004AF5"/>
<path d="M1380.91 995.183C1386.06 980.836 1397 973.404 1411.46 970.842C1420.8 969.186 1430.3 968.345 1439.77 967.484C1442.66 967.221 1443.91 966.06 1442.24 963.933C1439.4 960.322 1436.4 956.279 1432.53 954.097C1413.32 943.259 1379.78 949.205 1365.37 965.585C1359.43 972.353 1354.93 980.062 1354.03 989.092C1353.58 993.54 1354.08 998.678 1355.94 1002.68C1360.15 1011.73 1371.52 1011.85 1376.65 1003.35C1378.23 1000.74 1379.49 997.919 1380.91 995.183Z" fill="#004AF5"/>
<path d="M1053.45 633.874C1053.63 631.169 1054.47 628.308 1053.9 625.77C1048.18 600.382 1040.85 575.595 1026.6 553.501C1024.71 550.559 1022.46 548.296 1018.68 548.782C1014.7 549.293 1012.01 551.926 1011.39 555.634C1010.49 561.033 1009.53 566.691 1010.28 571.99C1011.24 578.824 1013.45 585.567 1015.87 592.059C1020.55 604.619 1025.64 617.028 1030.87 629.36C1032.16 632.386 1034.19 635.465 1036.68 637.51C1042.01 641.871 1049.68 639.847 1053.45 633.874Z" fill="#004AF5"/>
<path d="M451.128 842.873C448.542 842.187 445.944 840.83 443.359 840.919C417.504 841.826 391.884 844.452 367.398 854.423C364.14 855.74 361.461 857.547 361.126 861.373C360.769 865.408 362.748 868.566 366.213 869.872C371.26 871.766 376.544 873.776 381.846 874.026C388.682 874.353 395.698 873.427 402.514 872.246C415.704 869.957 428.833 867.24 441.916 864.374C445.129 863.662 448.55 862.232 451.069 860.143C456.439 855.689 456.117 847.722 451.128 842.873Z" fill="#004AF5"/>
<path d="M879.999 551.835C878.479 555.689 876.615 559.448 875.529 563.41C873.768 569.751 876.436 575.489 881.691 577.809C886.81 580.075 892.702 578.384 896.231 572.859C902.502 563.047 908.412 552.983 914.438 543.011C914.985 542.113 915.345 541.069 915.673 540.057C917.61 534.041 915.914 528.506 911.277 525.624C906.453 522.629 900.289 523.331 896.242 528.34C891.541 534.14 887.557 540.544 883.33 546.723C882.195 548.381 881.303 550.198 880.303 551.942C880.193 551.902 880.096 551.869 879.999 551.835Z" fill="#004AF5"/>
<path d="M522.844 463.066C521.562 462.918 519.208 462.344 516.891 462.402C497.417 462.925 479.533 468.797 462.493 477.329C457.749 479.708 456.069 484.3 457.989 488.402C459.909 492.505 464.557 494.249 469.593 492.232C485.667 485.793 502.395 481.836 519.7 479.9C524.975 479.312 528.077 476.551 528.578 472.477C529.092 468.538 527.339 465.65 522.844 463.066Z" fill="#004AF5"/>
<path d="M301.007 136.742C304.881 128.898 307.429 120.725 308.144 112.041C308.415 108.774 308.252 105.721 305.274 103.904C302.145 101.992 298.942 102.785 295.98 104.724C290.2 108.532 285.861 113.815 283.121 120.153C280.757 125.647 278.793 131.38 277.415 137.174C275.977 143.261 278.587 148.083 283.227 149.819C287.879 151.561 292.91 149.589 296.369 144.483C298.057 141.998 299.465 139.335 301.007 136.742Z" fill="#004AF5"/>
<path d="M653.35 386.545C652.667 388.794 651.888 390.706 651.534 392.669C649.981 401.159 655.683 406.289 663.46 403.487C664.065 403.276 664.694 403.078 665.236 402.699C674.733 396.022 682.188 387.19 688.16 377.016C690.218 373.502 689.553 369.676 687.244 366.674C684.918 363.645 681.718 362.918 677.984 363.859C677.376 364.018 676.731 364.19 676.179 364.53C667.067 370.173 659.741 377.94 653.35 386.545Z" fill="#004AF5"/>
<path d="M527.129 965.238C528.473 968.583 529.355 971.296 530.614 973.812C533.036 978.713 535.276 983.781 538.33 988.273C543.016 995.179 550.419 997.178 557.931 993.427C562.429 991.175 566.65 988.027 570.433 984.637C578.568 977.348 586.251 969.564 594.285 962.158C610.061 947.603 627.656 935.724 646.628 925.882C649.623 924.324 652.605 922.514 655.152 920.299C659.174 916.82 658.766 912.536 654.485 909.421C650.754 906.706 646.376 906.174 642.157 907.327C635.002 909.3 627.761 911.343 620.976 914.374C596.134 925.448 575.361 942.225 557.149 962.421C555.482 964.274 553.708 966.054 551.978 967.841C551.834 967.995 551.52 967.98 550.662 968.207C549.488 963.691 548.244 959.187 547.149 954.646C546.32 951.207 545.884 947.662 544.9 944.274C541.825 933.818 532.577 928.509 522.369 932.337C516.635 934.489 511.153 938.113 506.42 942.124C493.28 953.267 482.912 966.956 473.005 980.998C470.951 983.91 468.865 986.821 467.134 989.916C463.727 996.004 464.18 1002.5 468.075 1007.27C472.158 1012.26 479.132 1014.49 485.39 1011.52C490.003 1009.32 494.583 1006.16 497.92 1002.33C505.336 993.786 511.938 984.544 518.913 975.608C521.45 972.292 524.068 969.068 527.129 965.238Z" fill="#004AF5"/>
</g>
</svg>
