<svg width="55" height="55" viewBox="0 0 55 55" fill="none" xmlns="http://www.w3.org/2000/svg">
<rect width="55" height="55" rx="27.5" fill="white"/>
<path d="M27.5 17.5C30.217 17.5 30.556 17.51 31.622 17.56C32.687 17.61 33.412 17.777 34.05 18.025C34.71 18.279 35.266 18.623 35.822 19.178C36.3305 19.6779 36.724 20.2826 36.975 20.95C37.222 21.587 37.39 22.313 37.44 23.378C37.487 24.444 37.5 24.783 37.5 27.5C37.5 30.217 37.49 30.556 37.44 31.622C37.39 32.687 37.222 33.412 36.975 34.05C36.7247 34.7178 36.3311 35.3226 35.822 35.822C35.322 36.3303 34.7173 36.7238 34.05 36.975C33.413 37.222 32.687 37.39 31.622 37.44C30.556 37.487 30.217 37.5 27.5 37.5C24.783 37.5 24.444 37.49 23.378 37.44C22.313 37.39 21.588 37.222 20.95 36.975C20.2823 36.7245 19.6775 36.3309 19.178 35.822C18.6694 35.3222 18.2759 34.7175 18.025 34.05C17.777 33.413 17.61 32.687 17.56 31.622C17.513 30.556 17.5 30.217 17.5 27.5C17.5 24.783 17.51 24.444 17.56 23.378C17.61 22.312 17.777 21.588 18.025 20.95C18.2752 20.2822 18.6688 19.6773 19.178 19.178C19.6777 18.6692 20.2824 18.2757 20.95 18.025C21.588 17.777 22.312 17.61 23.378 17.56C24.444 17.513 24.783 17.5 27.5 17.5ZM27.5 22.5C26.1739 22.5 24.9021 23.0268 23.9645 23.9645C23.0268 24.9021 22.5 26.1739 22.5 27.5C22.5 28.8261 23.0268 30.0979 23.9645 31.0355C24.9021 31.9732 26.1739 32.5 27.5 32.5C28.8261 32.5 30.0979 31.9732 31.0355 31.0355C31.9732 30.0979 32.5 28.8261 32.5 27.5C32.5 26.1739 31.9732 24.9021 31.0355 23.9645C30.0979 23.0268 28.8261 22.5 27.5 22.5ZM34 22.25C34 21.9185 33.8683 21.6005 33.6339 21.3661C33.3995 21.1317 33.0815 21 32.75 21C32.4185 21 32.1005 21.1317 31.8661 21.3661C31.6317 21.6005 31.5 21.9185 31.5 22.25C31.5 22.5815 31.6317 22.8995 31.8661 23.1339C32.1005 23.3683 32.4185 23.5 32.75 23.5C33.0815 23.5 33.3995 23.3683 33.6339 23.1339C33.8683 22.8995 34 22.5815 34 22.25ZM27.5 24.5C28.2956 24.5 29.0587 24.8161 29.6213 25.3787C30.1839 25.9413 30.5 26.7044 30.5 27.5C30.5 28.2956 30.1839 29.0587 29.6213 29.6213C29.0587 30.1839 28.2956 30.5 27.5 30.5C26.7044 30.5 25.9413 30.1839 25.3787 29.6213C24.8161 29.0587 24.5 28.2956 24.5 27.5C24.5 26.7044 24.8161 25.9413 25.3787 25.3787C25.9413 24.8161 26.7044 24.5 27.5 24.5Z" fill="#1464F4"/>
</svg>
