<svg width="675" height="200" viewBox="0 0 675 200" fill="none" xmlns="http://www.w3.org/2000/svg">
<path d="M45.1399 78.3264L43.6598 6.77498H0V194.189H45.1399V120.458C46.2499 63.435 68.4498 44.9115 128.02 41.2795V3.86934C74.7397 3.86934 55.1298 23.8456 46.6198 78.3264H45.1399Z" fill="#0898A0"/>
<path d="M148.436 194.189H193.576V6.77498H148.436V194.189Z" fill="#0898A0"/>
<path d="M310.487 200C364.506 200 396.326 178.208 396.326 141.524C396.326 113.557 378.196 97.5762 340.826 89.5857L290.507 79.0528C274.597 75.4207 265.717 67.4302 265.717 57.2605C265.717 42.3691 280.887 33.2889 306.047 33.2889C333.796 33.2889 350.076 46.3643 350.076 67.7934H393.366C393.366 25.6616 360.436 0.963716 304.567 0.963716C253.507 0.963716 221.317 23.4824 221.317 58.3501C221.317 86.6801 242.407 104.477 277.187 111.378L325.286 121.548C344.896 125.906 351.556 132.081 351.556 143.34C351.556 158.595 336.016 167.675 310.856 167.675C280.147 167.675 262.757 155.326 261.277 133.17H216.877C218.357 176.028 251.657 200 310.487 200Z" fill="#0898A0"/>
<path d="M601.054 94.3074C601.054 42.7323 565.164 0.963716 506.704 0.963716C447.874 0.963716 409.025 38.737 409.025 99.7554C409.025 165.859 448.614 200 508.924 200C551.474 200 593.654 174.939 599.574 128.812H558.504C553.694 149.878 535.564 165.496 508.924 165.496C476.364 165.496 453.424 145.156 452.314 108.836H601.054V94.3074ZM504.854 35.4682C534.824 35.4682 554.434 53.6284 556.654 83.7744H452.314C454.534 51.8124 476.734 35.4682 504.854 35.4682Z" fill="#0898A0"/>
<path d="M674.984 28.7687C674.984 44.6572 661.863 57.5374 645.678 57.5374C629.492 57.5374 616.371 44.6572 616.371 28.7687C616.371 12.8802 629.492 0 645.678 0C661.863 0 674.984 12.8802 674.984 28.7687Z" fill="#0898A0"/>
</svg>
