<svg width="1019" height="462" viewBox="0 0 1019 462" fill="none" xmlns="http://www.w3.org/2000/svg">
<g opacity="0.1">
<path d="M67.4934 823.28C79.5081 810.783 94.4088 802.173 108.514 792.458C117.252 786.433 125.385 779.514 133.771 772.977C134.603 772.329 135.314 771.521 136.02 770.843C135.846 770.433 135.815 770.137 135.677 770.072C111.331 759.324 95.9791 740.181 86.1181 716.076C78.5734 697.613 75.4767 678.315 76.1281 658.423C76.3076 653.077 76.2789 647.716 76.8832 642.419C77.2079 639.501 78.1316 636.378 79.6987 633.941C82.0661 630.281 86.0081 629.066 90.3162 629.944C94.7611 630.849 97.7719 633.681 98.8791 638.023C99.5648 640.715 99.622 643.636 99.6116 646.44C99.5201 672.421 105.859 696.552 120.154 718.419C125.452 726.534 132.22 733.309 139.467 739.654C143.716 743.379 147.86 747.232 152.42 751.356C154.541 748.207 156.502 745.141 158.626 742.209C160.622 739.45 163.41 738.067 166.841 738.662C170.26 739.262 172.378 741.523 173.446 744.78C173.756 745.703 174.11 746.713 174.016 747.642C173.554 752.388 173.505 757.253 172.301 761.808C169.487 772.459 163.231 781.19 154.811 787.983C142.821 797.645 130.696 807.216 118.017 815.926C103.796 825.708 90.4528 836.297 79.2797 849.537C78.8079 850.092 78.143 850.5 77.5781 850.974C74.2071 841.763 70.8502 832.522 67.4934 823.28Z" fill="#FCBF23"/>
<path d="M0.775565 639.602C11.7644 634.663 26.9648 637.799 35.8293 647.219C45.53 657.527 49.161 670.026 46.9222 683.89C44.8074 697.042 36.9185 707.758 29.4486 718.54C26.1609 709.488 22.8773 700.449 19.5896 691.397C23.9574 688.184 26.861 683.915 28.592 678.958C32.8635 666.7 22.4722 651.226 8.14743 656.16C7.74749 656.292 7.27357 656.221 6.8209 656.245C4.80716 650.701 2.7893 645.146 0.775565 639.602Z" fill="#FCBF23"/>
<path d="M661.74 361.94C668.46 345.445 675.781 329.942 686.041 315.906C685.278 315.372 684.815 314.936 684.264 314.673C671.866 308.532 663.951 298.383 658.993 285.641C658.525 284.421 658.201 283.11 658.084 281.814C657.836 278.97 658.788 276.604 661.337 275.188C663.958 273.722 666.695 273.834 668.934 275.814C670.614 277.302 672.039 279.203 673.206 281.161C677.979 289.143 683.234 296.604 691.353 301.596C694.01 303.23 695.512 303.251 697.28 300.382C703.038 291.032 709.208 281.944 714.935 272.579C720.44 263.578 730.691 261.927 738.379 269.289C740.732 271.549 742.792 274.185 744.686 276.856C752.939 288.492 761.052 300.23 769.279 311.9C772.125 315.937 775.141 319.848 778.058 323.833C788.109 337.596 801.942 345.389 817.838 349.937C818.349 350.086 818.886 350.136 819.777 350.288C819.914 349.028 820.051 347.872 820.15 346.716C821.301 332.63 821.755 318.437 823.751 304.482C826.045 288.488 829.467 272.637 832.883 256.841C834.722 248.309 844.597 245.378 851.477 251.386C855.949 255.296 859.933 260.027 863.265 264.981C868.72 273.064 873.564 281.587 878.51 290.01C886.915 304.331 897.117 317.15 909.455 328.216C916.794 334.79 924.133 341.365 931.533 347.866C944.496 359.258 959.046 368.117 974.976 374.326C982.925 377.423 991.36 379.52 999.753 381.014C1012.36 383.258 1025.1 384.562 1037.78 386.261C1038.42 386.35 1039.08 386.409 1039.73 386.417C1044.48 386.429 1045.29 387.229 1044.98 392.102C1044.67 397.055 1042.17 400.895 1037.59 402.301C1032.39 403.908 1026.88 405.422 1021.49 405.382C1010.26 405.294 998.952 404.638 987.767 403.335C966.391 400.816 947.302 391.662 929.424 379.984C912.208 368.734 896.241 355.731 881.222 341.572C867.315 328.452 857.51 312.335 848.762 295.5C847.906 293.842 846.999 292.215 846.091 290.588C846.015 290.449 845.728 290.424 845.25 290.225C845.046 291.302 844.784 292.324 844.677 293.354C842.716 313.783 841.913 334.23 844.818 354.706C846.485 366.442 839.034 375.661 827.395 375.166C800.677 374.008 776.317 366.306 758.374 344.69C747.608 331.715 737.997 317.767 727.87 304.251C727.154 303.289 726.478 302.299 725.499 300.93C724.68 301.987 724.026 302.765 723.43 303.599C719.798 308.625 716.449 313.87 712.519 318.631C696.619 337.881 686.2 360.018 678.831 383.827C678.119 386.119 677.442 388.437 676.493 390.635C672.691 399.481 663.343 402.606 655.571 396.896C651.568 393.962 648.128 389.754 645.47 385.469C626.649 355.163 615.746 322.148 612.597 286.638C611.907 278.883 611.442 271.086 611.427 263.305C611.378 241.174 617.134 220.666 626.752 200.853C645.861 161.506 675.082 131.072 707.619 103.281C719.389 93.2276 731.192 83.1617 742.337 72.4339C748.285 66.7085 753.199 59.7755 758.027 52.9896C762.995 45.9982 764.725 37.9313 763.218 29.2509C762.877 27.3026 762.706 25.3314 762.572 23.3594C762.373 20.5103 763.09 18.0233 766.019 17.0237C768.903 16.0404 771.223 17.3728 772.728 19.7733C776.56 25.8973 779.238 32.4666 779.717 39.7827C780.323 49.2925 777.903 58.1765 773.31 66.2026C769.489 72.8673 765.31 79.5589 760.092 85.0965C748.955 96.9281 737.435 108.436 725.374 119.29C708.16 134.784 692.715 151.938 677.799 169.608C673.425 174.788 669.916 180.812 666.558 186.767C661.633 195.48 657.156 204.455 652.569 213.367C643.695 230.593 639.706 249.03 640.199 268.478C640.748 290.171 643.051 311.676 649.583 332.482C652.501 341.77 656.681 350.663 660.316 359.729C660.552 360.274 660.982 360.761 661.74 361.94Z" fill="#FCBF23"/>
<path d="M634.233 474.507C628.548 481.806 622.623 489.321 616.869 496.954C616.414 497.556 616.658 499.417 617.253 499.971C621.466 503.907 625.524 508.116 630.237 511.331C636.722 515.75 643.786 519.279 650.496 523.372C652.784 524.773 655.043 526.48 656.794 528.5C659.677 531.854 660.166 535.859 658.089 539.834C656.067 543.712 652.63 545.063 648.342 545.081C646.537 545.082 644.397 545.59 642.979 546.656C633.521 553.749 624.098 560.905 614.927 568.368C611.78 570.935 609.384 574.448 606.692 577.569C605.628 578.802 604.774 580.229 603.678 581.409C600.98 584.339 597.657 585.687 593.692 584.6C589.825 583.542 587.753 580.74 586.869 576.943C585.906 572.789 585.258 568.521 583.933 564.486C580.197 553.154 576.155 541.92 572.27 530.629C571.43 528.176 570.784 525.665 569.848 522.528C564.757 526.25 559.913 529.498 555.404 533.176C544.807 541.823 534.438 550.748 523.866 559.425C520.265 562.388 516.454 565.12 512.55 567.667C505.577 572.227 496.164 569.333 491.95 561.511C489.158 556.341 488.934 550.828 489.956 545.209C491.67 535.862 494.934 527.042 499.749 518.955C507.616 505.769 515.433 492.512 524.13 479.896C532.962 467.091 542.668 454.906 552.346 442.717C556.522 437.453 561.425 432.76 566.237 428.061C573.373 421.081 579.513 413.424 583.886 404.368C585.765 400.478 588.526 398.949 591.875 399.631C595.223 400.314 597.782 403.298 597.417 407.472C597.064 411.539 596.414 415.906 594.582 419.433C591.189 425.977 586.947 432.073 582.862 438.214C577.506 446.28 571.895 454.168 566.531 462.211C561.692 469.46 556.864 476.705 552.321 484.142C543.12 499.185 534.101 514.342 525.096 529.507C523.896 531.521 523.197 533.828 521.976 536.696C523.939 535.662 525.467 535.005 526.832 534.111C539.368 525.939 551.864 517.693 564.408 509.544C566.267 508.329 566.645 506.922 566.134 504.849C565.292 501.447 564.578 498.012 563.961 494.566C562.912 488.737 565.439 484.009 570.123 482.769C574.9 481.509 579.772 484.076 581.438 489.745C583.543 496.871 585.199 504.16 586.415 511.493C589.179 528.234 595.021 544.074 599.994 560.179C600.045 560.353 600.283 560.484 600.474 560.659C612.152 553.697 623.827 546.723 636.06 539.432C634.197 538.222 633.124 537.508 632.045 536.81C620.445 529.296 609.492 521.009 601.229 509.666C599.941 507.902 598.747 506.052 597.752 504.116C594.76 498.223 595.623 493.74 599.853 488.804C608.193 479.051 616.296 469.103 624.566 459.298C625.94 457.658 626.133 456.266 625.17 454.28C623.733 451.338 622.504 448.269 621.508 445.141C620.307 441.382 621.362 438.163 623.994 436.348C626.741 434.464 630.398 434.56 633.276 437.377C636.295 440.335 639.381 443.512 641.377 447.188C651.677 466.028 665.659 482.234 677.944 499.648C695.192 524.111 705.799 550.653 705.762 580.921C705.754 584.85 705.484 588.797 704.979 592.688C701.988 615.766 689.673 631.684 668.759 641.385C653.946 648.254 638.305 652.075 622.538 655.723C611.647 658.242 600.753 660.788 590.015 663.867C583.789 665.654 577.772 668.263 571.86 670.949C562.988 674.967 557.59 682.009 555.419 691.599C554.004 697.848 553.266 704.108 554.694 710.454C555.772 715.207 557.975 716.165 562.25 714.009C563.443 713.409 564.793 713.137 566.074 712.71C566.37 714.155 566.976 715.615 566.924 717.045C566.704 723.438 562.427 728.212 555.766 729.746C547.746 731.594 540.09 728.396 535.482 721.204C531.538 715.067 530.224 708.231 530.645 701.098C532.049 677.571 543.247 660.853 564.641 651.003C577.858 644.919 591.882 641.544 605.833 637.863C619.262 634.319 632.874 631.35 646.078 627.119C654.044 624.559 661.506 620.296 668.982 616.387C674.29 613.612 678.185 609.118 680.793 603.667C691.614 581.12 693.334 558.145 682.518 535.015C679.82 529.233 676.058 523.774 671.99 518.836C659.693 503.98 647.048 489.495 634.233 474.507Z" fill="#FCBF23"/>
<path d="M990.887 410.771C985.202 418.07 979.277 425.585 973.523 433.218C973.068 433.82 973.312 435.681 973.907 436.235C978.119 440.171 982.178 444.38 986.891 447.595C993.376 452.014 1000.44 455.543 1007.15 459.636C1009.44 461.037 1011.7 462.744 1013.45 464.764C1016.33 468.118 1016.82 472.123 1014.74 476.098C1012.72 479.976 1009.28 481.326 1005 481.345C1003.19 481.346 1001.05 481.854 999.633 482.92C990.175 490.013 980.752 497.169 971.581 504.632C968.434 507.199 966.038 510.712 963.346 513.833C962.282 515.066 961.427 516.493 960.331 517.673C957.634 520.603 954.311 521.952 950.345 520.864C946.479 519.806 944.406 517.004 943.523 513.207C942.56 509.053 941.912 504.785 940.587 500.75C936.851 489.418 932.809 478.184 928.924 466.893C928.084 464.44 927.438 461.929 926.502 458.792C921.411 462.514 916.567 465.762 912.058 469.44C901.461 478.088 891.092 487.012 880.52 495.689C876.919 498.652 873.108 501.384 869.204 503.931C862.231 508.491 852.818 505.597 848.604 497.775C845.812 492.605 845.588 487.092 846.61 481.473C848.323 472.126 851.588 463.306 856.403 455.219C864.27 442.033 872.087 428.776 880.784 416.16C889.616 403.355 899.321 391.17 909 378.981C913.175 373.717 918.079 369.024 922.891 364.325C930.027 357.345 936.166 349.688 940.54 340.632C942.419 336.742 945.18 335.213 948.529 335.895C951.877 336.578 954.435 339.562 954.071 343.736C953.718 347.803 953.068 352.17 951.235 355.697C947.843 362.241 943.601 368.337 939.516 374.478C934.16 382.544 928.549 390.432 923.185 398.475C918.346 405.724 913.518 412.969 908.975 420.406C899.774 435.449 890.755 450.606 881.75 465.771C880.55 467.785 879.851 470.092 878.63 472.96C880.593 471.926 882.121 471.269 883.486 470.375C896.022 462.203 908.517 453.957 921.061 445.808C922.921 444.594 923.299 443.186 922.788 441.114C921.946 437.711 921.232 434.276 920.615 430.83C919.566 425.001 922.093 420.273 926.777 419.033C931.554 417.773 936.426 420.34 938.092 426.009C940.197 433.135 941.853 440.424 943.069 447.757C945.832 464.498 951.675 480.338 956.648 496.443C956.699 496.617 956.937 496.748 957.128 496.923C968.806 489.961 980.481 482.987 992.714 475.696C990.851 474.486 989.778 473.772 988.699 473.074C977.099 465.56 966.146 457.273 957.883 445.93C956.594 444.166 955.401 442.316 954.406 440.38C951.414 434.487 952.276 430.004 956.507 425.068C964.847 415.315 972.95 405.367 981.22 395.562C982.594 393.922 982.787 392.53 981.824 390.544C980.387 387.602 979.158 384.533 978.162 381.405C976.961 377.646 978.016 374.427 980.648 372.612C983.395 370.728 987.052 370.824 989.93 373.641C992.949 376.599 996.035 379.776 998.031 383.452C1008.33 402.292 1022.31 418.498 1034.6 435.912C1051.85 460.375 1062.45 486.917 1062.42 517.185C1062.41 521.114 1062.14 525.061 1061.63 528.952C1058.64 552.03 1046.33 567.948 1025.41 577.649C1010.6 584.518 994.959 588.339 979.192 591.987C968.301 594.506 957.407 597.052 946.669 600.131C940.443 601.918 934.426 604.527 928.514 607.213C919.642 611.231 914.244 618.273 912.073 627.863C910.657 634.113 909.919 640.372 911.347 646.718C912.426 651.471 914.629 652.428 918.904 650.273C920.097 649.673 921.446 649.4 922.727 648.974C923.024 650.419 923.63 651.879 923.578 653.309C923.358 659.702 919.081 664.476 912.42 666.01C904.399 667.858 896.744 664.66 892.136 657.468C888.192 651.331 886.878 644.495 887.299 637.362C888.703 613.835 899.901 597.117 921.294 587.267C934.512 581.183 948.536 577.808 962.487 574.127C975.916 570.583 989.528 567.614 1002.73 563.383C1010.7 560.823 1018.16 556.56 1025.64 552.651C1030.94 549.876 1034.84 545.382 1037.45 539.931C1048.27 517.384 1049.99 494.409 1039.17 471.279C1036.47 465.497 1032.71 460.038 1028.64 455.1C1016.35 440.244 1003.7 425.759 990.887 410.771Z" fill="#FCBF23"/>
<path d="M976.853 85.0353C967.617 85.5697 958.06 86.0657 948.527 86.7673C947.774 86.8214 946.535 88.2317 946.511 89.0442C946.326 94.8062 945.834 100.633 946.522 106.296C947.472 114.086 949.473 121.724 950.816 129.469C951.269 132.113 951.474 134.937 951.109 137.585C950.486 141.964 947.796 144.971 943.438 146.028C939.188 147.062 935.908 145.368 933.068 142.154C931.878 140.798 930.085 139.522 928.349 139.159C916.781 136.719 905.19 134.347 893.533 132.366C889.528 131.691 885.306 132.204 881.185 132.236C879.556 132.248 877.92 132.546 876.31 132.499C872.329 132.401 869.125 130.79 867.329 127.091C865.578 123.485 866.319 120.08 868.593 116.913C871.083 113.452 873.866 110.152 876.027 106.496C882.09 96.2186 887.876 85.7753 893.808 75.4126C895.1 73.1639 896.563 71.0237 898.306 68.2524C892.151 66.8762 886.516 65.3729 880.778 64.4047C867.291 62.133 853.745 60.2148 840.251 57.9806C835.65 57.225 831.084 56.1582 826.596 54.9003C818.571 52.6607 814.544 43.674 817.651 35.3494C819.7 29.842 823.699 26.0412 828.598 23.1071C836.758 18.2365 845.543 14.8799 854.799 13.1721C869.901 10.4004 885.024 7.54316 900.244 5.77208C915.696 3.97684 931.257 3.24659 946.803 2.49424C953.513 2.16657 960.275 2.76173 966.981 3.28492C976.933 4.05243 986.738 3.6245 996.432 0.946535C1000.6 -0.203955 1003.57 0.86546 1005.26 3.83398C1006.95 6.80252 1006.39 10.693 1003.01 13.1693C999.722 15.5841 996.009 17.9731 992.148 18.9189C984.991 20.6795 977.61 21.506 970.299 22.4802C960.703 23.7667 951.072 24.7448 941.488 26.0101C932.846 27.1473 924.215 28.2902 915.628 29.774C898.25 32.7667 880.906 35.9705 863.566 39.1908C861.26 39.6153 859.064 40.6093 856.102 41.5816C858.173 42.3767 859.675 43.0924 861.247 43.5305C875.654 47.5745 890.091 51.5388 904.487 55.604C906.625 56.2023 907.933 55.5592 909.155 53.809C911.159 50.9338 913.273 48.1325 915.458 45.3984C919.151 40.768 924.372 39.5527 928.391 42.259C932.488 45.0218 933.768 50.378 930.601 55.3663C926.629 61.6458 922.238 67.6949 917.522 73.4417C906.752 86.5522 898.688 101.385 889.852 115.738C889.754 115.891 889.812 116.157 889.806 116.415C902.739 120.612 915.678 124.798 929.223 129.194C928.905 126.995 928.735 125.718 928.549 124.446C926.557 110.77 925.573 97.0706 928.659 83.3807C929.137 81.2486 929.742 79.1318 930.542 77.108C933.003 70.9743 936.943 68.6687 943.444 68.5975C956.275 68.4437 969.098 67.9826 981.922 67.7424C984.062 67.6944 985.236 66.9227 986.095 64.8902C987.361 61.8704 988.859 58.9235 990.555 56.1128C992.592 52.7325 995.708 51.4049 998.808 52.188C1002.03 53.0134 1004.37 55.827 1004.15 59.848C1003.92 64.0677 1003.56 68.4824 1002.11 72.4061C994.726 92.5684 991.75 113.765 986.748 134.481C979.713 163.575 966.739 189.044 943.949 208.961C940.988 211.544 937.842 213.943 934.582 216.127C915.252 229.085 895.165 230.312 874.086 220.974C859.158 214.358 845.977 205.111 832.842 195.656C823.771 189.125 814.677 182.608 805.285 176.561C799.838 173.055 793.911 170.249 787.994 167.572C779.126 163.547 770.272 164.127 761.628 168.814C755.995 171.867 750.8 175.437 746.968 180.693C744.104 184.636 744.835 186.924 749.274 188.719C750.511 189.221 751.605 190.057 752.77 190.739C751.879 191.914 751.18 193.332 750.07 194.236C745.117 198.283 738.708 198.212 733.164 194.213C726.488 189.398 723.849 181.532 726.222 173.327C728.239 166.316 732.515 160.823 738.157 156.439C756.779 141.991 776.733 139.397 798.24 148.998C811.526 154.93 823.306 163.255 835.268 171.322C846.783 179.087 857.986 187.37 869.87 194.513C877.045 198.818 885.168 201.621 893.035 204.668C898.62 206.832 904.567 206.801 910.386 205.17C934.476 198.451 952.89 184.605 963.16 161.227C965.731 155.388 967.358 148.96 968.391 142.647C971.462 123.608 974.025 104.551 976.853 85.0353Z" fill="#FCBF23"/>
<path d="M329.712 776.715C348.4 783.851 368.515 785.664 386.253 795.728C387.32 793.932 388.419 792.332 389.292 790.607C394.359 780.616 399.338 770.593 404.424 760.621C405.472 758.561 404.957 757.392 403.269 755.887C395.657 749.055 388.141 742.098 380.728 735.038C378.766 733.168 376.973 730.951 375.654 728.589C373.192 724.213 373.278 719.648 376.246 715.496C379.207 711.36 383.548 709.576 388.36 710.747C392.104 711.661 395.996 713.231 399.062 715.527C407.316 721.725 415.184 728.451 423.166 735.032C426.282 737.608 429.277 740.343 432.937 743.534C439.422 733.739 445.629 724.38 451.989 714.772C450.512 713.707 449.5 712.899 448.415 712.208C440.613 707.254 432.731 702.432 425.024 697.352C421.737 695.188 418.486 692.804 415.775 689.965C411.115 685.083 410.641 678.268 414.034 673.238C417.427 668.208 423.785 666.364 430.138 668.951C433.374 670.269 436.636 671.835 439.403 673.943C449.802 681.881 460.249 689.775 470.206 698.261C478.008 704.908 479.04 715.06 473.717 723.71C466.761 735.033 459.79 746.348 452.749 757.611C444.291 771.12 436.292 773.78 421.347 768.229C420.842 768.039 420.323 767.917 419.55 767.694C418.679 769.393 417.81 771.026 416.987 772.681C411.214 784.362 403.361 794.628 395.865 805.204C389.63 813.992 382.06 813.913 373.323 812.036C364.326 810.112 355.338 808.107 346.361 806.098C337.584 804.145 328.79 802.25 320.047 800.143C305.063 796.531 302.36 782.982 304.816 772.3C305.671 768.579 307.173 764.947 308.833 761.502C320.726 736.865 332.199 711.992 344.882 687.765C353.778 670.765 363.947 654.413 374.298 638.241C391.82 610.848 407.522 582.644 417.034 551.276C418.24 547.286 419.815 543.395 421.448 539.559C422.264 537.674 423.402 535.827 424.778 534.32C427.76 531.054 431.562 529.867 435.837 531.362C440.108 532.846 442.371 536.145 442.739 540.583C442.909 542.64 442.7 544.782 442.266 546.8C438.707 563.45 433.649 579.573 425.165 594.422C414.817 612.543 404.784 630.861 393.955 648.68C379.878 671.824 368.8 696.514 356.594 720.607C347.812 737.953 339.641 755.607 331.208 773.137C330.678 774.22 330.275 775.335 329.712 776.715Z" fill="#FCBF23"/>
<path d="M229.352 596.461C231.347 591.578 232.989 586.498 235.449 581.875C237.956 577.17 240.814 572.48 244.353 568.544C251.234 560.898 260.472 562.026 265.53 571.169C273.947 586.357 280.15 602.518 284.761 619.257C286.412 625.245 287.935 631.268 289.281 637.328C289.827 639.781 290.085 642.39 289.863 644.875C289.552 648.276 286.598 650.025 283.685 648.302C281.23 646.854 278.735 644.733 277.348 642.287C269.051 627.64 261.068 612.802 252.969 598.031C252.504 597.174 252.043 596.327 251.259 594.871C250.466 596.276 249.823 597.212 249.375 598.232C246.482 604.897 243.785 611.646 240.706 618.223C239.28 621.262 237.521 624.331 235.257 626.751C229.95 632.435 221.698 631.91 216.937 625.661C215.087 623.24 213.705 620.35 212.624 617.481C209.03 607.936 205.645 598.302 202.215 588.684C200.687 584.405 198.893 583.653 195.188 586.324C183.064 595.081 173.809 606.357 167.828 620.173C157.634 643.706 160.25 666.628 172.996 688.599C179.892 700.479 191.629 702.792 202.699 695.002C208.316 691.051 212.857 686.036 216.024 679.844C218.031 675.944 217.681 674.733 214.194 671.958C214.019 671.826 213.865 671.649 213.668 671.564C211.216 670.545 208.767 669.537 206.319 668.529C205.225 671.356 203.554 674.107 203.213 677.038C202.853 680.197 201.653 682.66 198.993 683.392C196.847 683.99 193.998 683.569 191.957 682.556C190.337 681.754 188.904 679.533 188.342 677.67C186.029 669.999 185.4 662.184 188.09 654.501C190.966 646.309 198.003 641.661 206.533 641.967C220.683 642.48 237.626 657.508 239.357 671.732C239.868 675.952 239.432 680.802 237.819 684.662C231.691 699.376 222.025 711.347 207.96 718.912C188.71 729.257 167.476 724.508 153.846 707.029C135.904 684.048 124.941 642.964 148.732 605.551C158.652 589.953 171.925 577.958 188.069 569.223C193.194 566.451 198.655 565.235 204.512 566.59C205.141 566.738 205.819 566.739 206.472 566.709C213.437 566.363 216.708 568.371 219.413 574.939C221.904 580.986 224.229 587.107 226.645 593.195C227.042 594.181 227.488 595.163 227.907 596.141C228.382 596.254 228.865 596.352 229.352 596.461Z" fill="#FCBF23"/>
<path d="M490.673 469.471C483.939 470.018 477.205 471.021 470.454 471.002C458.711 470.975 447.175 468.701 435.831 465.46C399.976 455.203 367.284 438.322 337.929 414.635C327.677 406.368 318.383 397.089 312.121 385.134C311.095 383.179 310.231 381.113 309.554 379.005C305.659 366.997 310.216 356.107 321.774 351.974C327.432 349.958 333.757 349.117 339.811 349.025C352.006 348.836 363.918 351.311 375.53 355.534C378.675 356.681 382.152 356.796 385.302 357.889C419.687 369.799 451.802 386.24 480.559 409.324C488.402 415.618 495.703 422.539 500.916 431.362C502.486 434.017 503.894 436.849 504.845 439.781C509.104 452.827 503.529 463.904 490.572 468.532C490.625 468.851 490.651 469.167 490.673 469.471ZM484.874 443.978C483.018 441.232 481.529 438.105 479.244 435.814C472.16 428.724 465.255 421.295 457.426 415.177C431.998 395.345 402.92 382.886 372.889 373.089C362.687 369.758 351.525 369.625 340.77 368.355C337.827 368.006 334.729 368.586 331.781 369.162C327.363 370.039 326.686 371.546 329.062 375.586C330.786 378.524 332.739 381.534 335.217 383.768C342.334 390.184 349.35 396.843 357.148 402.283C384.511 421.425 414.385 435.103 446.162 444.111C454.187 446.385 462.506 447.694 470.766 448.843C474.65 449.383 478.711 448.636 482.669 448.2C484.959 447.967 485.761 446.453 484.874 443.978Z" fill="#FCBF23"/>
<path d="M1266.26 513.454C1259.52 514.002 1252.79 515.004 1246.04 514.985C1234.3 514.958 1222.76 512.685 1211.42 509.444C1175.56 499.187 1142.87 482.305 1113.51 458.619C1103.26 450.351 1093.97 441.072 1087.71 429.118C1086.68 427.162 1085.82 425.096 1085.14 422.988C1081.24 410.98 1085.8 400.091 1097.36 395.958C1103.02 393.941 1109.34 393.101 1115.4 393.008C1127.59 392.819 1139.5 395.294 1151.12 399.517C1154.26 400.664 1157.74 400.78 1160.89 401.872C1195.27 413.782 1227.39 430.223 1256.14 453.307C1263.99 459.602 1271.29 466.522 1276.5 475.346C1278.07 478.001 1279.48 480.832 1280.43 483.764C1284.69 496.81 1279.11 507.887 1266.16 512.516C1266.21 512.835 1266.24 513.15 1266.26 513.454ZM1260.46 487.962C1258.6 485.216 1257.11 482.089 1254.83 479.797C1247.74 472.707 1240.84 465.278 1233.01 459.161C1207.58 439.329 1178.51 426.87 1148.47 417.072C1138.27 413.742 1127.11 413.608 1116.36 412.338C1113.41 411.99 1110.31 412.569 1107.37 413.146C1102.95 414.022 1102.27 415.53 1104.65 419.569C1106.37 422.507 1108.32 425.518 1110.8 427.752C1117.92 434.167 1124.94 440.827 1132.73 446.266C1160.1 465.409 1189.97 479.087 1221.75 488.094C1229.77 490.368 1238.09 491.678 1246.35 492.826C1250.23 493.367 1254.3 492.62 1258.25 492.183C1260.54 491.95 1261.35 490.436 1260.46 487.962Z" fill="#FCBF23"/>
<path d="M1179.05 343.177C1184.38 347.449 1189.95 350.341 1196.07 352.133C1218.64 358.735 1239.79 355.287 1259.31 342.829C1274.9 332.866 1288.94 320.876 1300.44 306.183C1304.69 300.739 1308.3 294.691 1311.67 288.604C1316.92 279.067 1317.3 268.75 1314.8 258.21C1314.62 257.486 1314.3 256.792 1313.86 255.584C1312.99 256.789 1312.33 257.726 1311.65 258.645C1302.15 271.645 1292.88 284.832 1283.06 297.564C1279.05 302.761 1274.01 307.188 1269.1 311.589C1265.81 314.539 1261.95 314.433 1259.31 312.153C1256.65 309.866 1255.86 305.934 1257.88 302.181C1259.79 298.647 1262.06 295.279 1264.51 292.117C1268.12 287.491 1271.97 283.047 1275.84 278.645C1287.26 265.684 1296.52 251.222 1304.73 236.005C1305.19 235.141 1305.66 234.273 1306.22 233.465C1311.24 226.128 1321.58 226.529 1325.01 234.782C1333.79 255.881 1337.97 277.709 1326.8 298.825C1309.18 332.173 1283.85 357.607 1248.04 370.577C1229.93 377.131 1211.17 377.812 1192.35 372.402C1182.6 369.607 1174.11 364.728 1167.29 356.961C1162.63 351.656 1160.58 345.434 1160.23 338.541C1160.07 335.373 1161.88 333.217 1164.17 331.38C1168.4 327.985 1172.65 324.632 1176.82 321.169C1198.91 302.797 1216.89 280.896 1231.13 255.797C1232.53 253.328 1233.87 250.825 1235.41 248.449C1237.6 245.059 1240.44 243.808 1243.63 244.609C1246.75 245.385 1249.21 248.351 1249.52 252.163C1249.69 254.334 1249.69 256.617 1249.18 258.699C1248.37 261.976 1247.49 265.364 1245.89 268.271C1231.11 294.818 1213.06 318.6 1188.61 336.812C1185.62 338.982 1182.47 340.887 1179.05 343.177Z" fill="#FCBF23"/>
<path d="M782.943 551.592C783.7 550.228 784.36 549.12 784.943 547.975C803.966 510.475 823.005 472.982 841.963 435.442C844.273 430.868 845.888 425.911 848.329 421.42C849.883 418.56 851.998 415.678 854.575 413.822C857.953 411.389 862.023 411.868 865.604 414.276C869.175 416.688 870.958 420.241 870.493 424.495C870.236 426.819 869.391 429.226 868.246 431.263C860.073 445.812 851.576 460.166 843.546 474.793C827.37 504.256 811.418 533.845 795.424 563.424C794.342 565.425 793.48 567.579 792.824 569.775C790.734 576.733 783.179 581.63 776.955 576.37C776.555 576.035 775.982 575.815 775.467 575.756C767.061 574.725 760.704 569.759 755.247 563.753C729.678 535.669 712.021 503.493 707.164 465.227C706.126 457.007 706.768 448.501 707.451 440.213C707.996 433.635 711.232 430.462 715.552 430.307C720.109 430.143 723.202 433.26 724.834 439.773C725.292 441.59 725.66 443.441 725.942 445.296C730.907 477.454 743.692 506.071 764.437 531.044C769.647 537.308 775.169 543.316 780.573 549.419C781.205 550.149 781.986 550.734 782.943 551.592Z" fill="#FCBF23"/>
<path d="M403.232 294.995C403.989 293.631 404.648 292.522 405.232 291.377C424.255 253.877 443.294 216.385 462.252 178.844C464.562 174.27 466.177 169.314 468.618 164.822C470.172 161.963 472.287 159.081 474.864 157.224C478.242 154.791 482.312 155.271 485.893 157.678C489.463 160.09 491.247 163.644 490.781 167.898C490.525 170.221 489.68 172.629 488.535 174.666C480.362 189.214 471.865 203.569 463.834 218.195C447.659 247.658 431.707 277.247 415.713 306.826C414.631 308.827 413.769 310.981 413.113 313.178C411.023 320.135 403.468 325.032 397.244 319.772C396.844 319.437 396.271 319.218 395.756 319.158C387.35 318.127 380.993 313.161 375.536 307.156C349.967 279.072 332.309 246.895 327.453 208.629C326.415 200.409 327.057 191.903 327.74 183.615C328.285 177.037 331.521 173.865 335.841 173.709C340.398 173.545 343.49 176.662 345.123 183.175C345.581 184.993 345.949 186.843 346.231 188.699C351.196 220.856 363.981 249.473 384.726 274.447C389.936 280.711 395.457 286.719 400.862 292.822C401.493 293.552 402.275 294.137 403.232 294.995Z" fill="#FCBF23"/>
<path d="M1190.62 234.521C1193.91 244.553 1194.5 254.77 1191.95 264.901C1186.45 286.678 1175.43 304.761 1156.18 316.988C1155.09 317.679 1153.98 318.416 1152.79 318.862C1149.2 320.205 1145.75 321.457 1142.69 324.156C1139.72 326.769 1135.55 326.301 1132.23 324.334C1127.95 321.803 1123.35 319.261 1120.11 315.638C1106.59 300.517 1093.43 285.072 1080.35 269.556C1077.08 265.675 1074.32 261.25 1072.02 256.723C1070.91 254.54 1071.01 251.496 1071.29 248.923C1071.48 247.242 1072.74 245.501 1073.94 244.158C1086.48 230.157 1100.77 218.499 1118.76 212.415C1134.08 207.246 1149.83 207.118 1165.51 211.266C1177.86 214.527 1186.07 222.58 1190.62 234.521ZM1143.84 304.409C1147.4 300.375 1151.11 296.299 1154.68 292.109C1161.26 284.397 1166.95 276.096 1171.14 266.801C1174.55 259.254 1175.89 251.444 1174.08 243.217C1172.26 234.968 1167.59 229.497 1159.05 227.991C1147.41 225.945 1135.89 226.25 1124.86 230.669C1114.33 234.89 1105.11 241.349 1096.53 248.729C1096.39 248.842 1096.39 249.124 1096.48 248.836C1112.27 267.372 1127.89 285.698 1143.84 304.409Z" fill="#FCBF23"/>
<path d="M1435.91 263.009C1433.35 267.162 1431.35 270.918 1428.87 274.304C1423.12 282.208 1414.46 282.645 1408.11 274.99C1404.94 271.177 1402.36 266.635 1400.43 262.039C1397.31 254.648 1394.94 246.949 1392.26 239.378C1391.94 238.463 1391.6 237.567 1391.07 236.11C1390.1 237.313 1389.29 238.134 1388.69 239.074C1377.35 256.794 1353.13 251.104 1345.73 233.848C1338.85 217.798 1335.83 200.82 1334.56 183.53C1334.48 182.45 1334.62 181.328 1334.84 180.269C1335.53 176.77 1337.83 174.415 1340.92 173.922C1343.98 173.444 1347.28 174.873 1348.7 178.122C1350.48 182.232 1351.85 186.571 1353.04 190.895C1355.47 199.693 1357.49 208.603 1360.06 217.364C1361.12 220.998 1362.72 224.66 1364.82 227.789C1368.13 232.712 1371.99 232.636 1375.32 227.896C1378.48 223.384 1381.39 218.679 1384.39 214.056C1385.15 212.876 1385.84 211.647 1386.6 210.456C1389.01 206.719 1392.25 204.457 1396.84 205.19C1401.41 205.926 1404.04 209.111 1405.25 213.426C1407.37 220.946 1409.23 228.532 1411.28 236.077C1412.93 242.131 1414.64 248.16 1416.4 254.185C1416.94 256.04 1417.7 257.815 1418.36 259.637C1418.77 259.683 1419.16 259.733 1419.57 259.779C1421.66 255.062 1423.84 250.389 1425.81 245.613C1427.09 242.505 1427.94 239.206 1429.17 236.064C1430.72 232.11 1433.51 229.536 1437.87 229.473C1442.21 229.408 1445.57 231.745 1447.02 235.716C1449.75 243.129 1452.01 250.727 1454.3 258.302C1457.72 269.677 1460.88 281.137 1464.43 292.468C1465.5 295.884 1467.41 299.07 1469.12 302.253C1471 305.745 1474.1 307.289 1477.93 307.508C1484.29 307.878 1489.72 305.496 1494.61 301.774C1497.83 299.313 1500.83 296.536 1504.28 293.605C1505.78 297.728 1507.3 301.778 1508.68 305.88C1508.86 306.408 1508.48 307.42 1508.03 307.803C1499.58 314.974 1490.58 321.104 1479.12 322.158C1466.35 323.344 1456.98 318.275 1451.05 304.818C1445.57 292.384 1441.61 279.268 1436.99 266.456C1436.62 265.457 1436.35 264.446 1435.91 263.009Z" fill="#FCBF23"/>
<path d="M988.277 309.544C989.73 306.954 990.739 304.83 992.034 302.908C994.534 299.16 996.902 295.257 999.873 291.911C1004.43 286.765 1010.7 285.917 1016.44 289.778C1019.87 292.096 1022.99 295.115 1025.72 298.287C1031.59 305.106 1037.05 312.281 1042.82 319.185C1054.17 332.751 1067.29 344.324 1081.75 354.379C1084.03 355.969 1086.27 357.764 1088.12 359.844C1091.04 363.114 1090.25 366.571 1086.42 368.662C1083.08 370.485 1079.45 370.455 1076.12 369.066C1070.49 366.694 1064.79 364.257 1059.56 361.06C1040.44 349.377 1025.25 333.465 1012.51 315.03C1011.34 313.34 1010.08 311.697 1008.86 310.053C1008.76 309.912 1008.5 309.891 1007.82 309.615C1006.38 313.18 1004.89 316.728 1003.51 320.323C1002.47 323.044 1001.74 325.895 1000.57 328.559C996.953 336.776 988.833 340.133 980.898 335.923C976.441 333.556 972.346 330.014 968.904 326.234C959.349 315.735 952.33 303.45 945.724 290.925C944.355 288.328 942.959 285.728 941.873 283.015C939.735 277.68 940.795 272.418 944.482 268.939C948.348 265.293 954.284 264.207 959.082 267.303C962.618 269.584 966.026 272.65 968.345 276.138C973.498 283.905 977.913 292.158 982.664 300.199C984.385 303.178 986.183 306.09 988.277 309.544Z" fill="#FCBF23"/>
<path d="M324.219 469.258C329.49 485.128 330.707 500.866 327.711 516.71C326.965 520.664 325.222 524.518 323.277 528.021C320.898 532.298 317.388 532.983 312.983 530.901C312.401 530.624 311.815 530.299 311.207 530.186C294.09 527.28 283.265 516.007 276.384 500.594C266.8 479.131 266.19 456.988 272.45 434.787C273.774 430.084 277.969 427.38 283.429 427.244C288.739 427.099 293.415 429.148 297.673 432.284C307.473 439.516 314.35 449.284 319.966 460.063C321.577 463.173 322.913 466.409 324.219 469.258ZM288.366 449.151C289.203 465.502 290.392 481.096 298.673 495.205C301.217 499.529 304.414 503.308 308.615 506.286C312.806 488.301 302.706 459.442 288.366 449.151Z" fill="#FCBF23"/>
<path d="M296.594 697.821C296.68 701.65 296.724 705.226 296.828 708.793C296.965 713.486 296.055 717.855 293.533 721.826C289.585 728.054 283.762 730.846 276.65 730.503C272.536 730.297 270.327 732.058 269.36 735.681C268.239 739.847 267.224 744.063 266.591 748.332C265.961 752.536 264.648 754.726 261.736 754.927C258.726 755.138 255.898 752.983 255.429 749.101C254.105 738.168 256.708 728.377 264.516 720.479C267.415 717.547 271.219 716.932 275.212 716.977C281.994 717.032 282.818 716.055 281.937 709.14C281.204 703.424 280.101 697.728 279.71 691.99C279.335 686.502 281.413 681.861 286.638 679.529C288.635 678.637 290.978 678.285 293.185 678.212C295.754 678.135 296.556 677.064 296.962 674.59C297.59 670.757 298.532 666.926 299.77 663.255C301.834 657.124 306.086 653.496 312.716 653.58C315.741 653.619 316.641 652.333 316.513 649.529C316.395 647.028 316.449 644.516 316.596 642.021C317.117 633.37 322.317 627.481 330.696 625.958C334.932 625.186 335.71 624.252 334.344 620.044C332.344 613.881 331.756 607.703 332.815 601.362C333.614 596.585 337.418 594.833 340.904 598.143C350.542 607.271 355.437 620.09 348.021 633.176C345.277 638.02 341.042 640.798 335.602 641.33C332.1 641.669 331.449 643.26 331.493 646.593C331.564 651.348 331.185 656.177 330.314 660.826C329.066 667.543 325.433 670.665 318.683 671.391C316.572 671.621 316.007 672.555 315.882 674.454C315.7 677.268 315.519 680.121 314.976 682.874C313.143 692.091 307.95 696.688 298.72 697.56C298.194 697.598 297.685 697.681 296.594 697.821Z" fill="#FCBF23"/>
<path d="M968.72 249.927C968.806 253.756 968.851 257.332 968.954 260.899C969.091 265.591 968.181 269.961 965.66 273.932C961.712 280.159 955.889 282.952 948.776 282.608C944.662 282.403 942.454 284.164 941.486 287.787C940.365 291.953 939.35 296.169 938.717 300.438C938.087 304.642 936.774 306.832 933.862 307.033C930.852 307.244 928.024 305.089 927.555 301.207C926.231 290.273 928.834 280.482 936.642 272.585C939.541 269.653 943.345 269.038 947.338 269.083C954.12 269.138 954.944 268.161 954.064 261.246C953.33 255.53 952.227 249.834 951.836 244.096C951.461 238.608 953.539 233.967 958.764 231.635C960.761 230.743 963.104 230.391 965.311 230.318C967.88 230.241 968.682 229.17 969.089 226.696C969.716 222.863 970.658 219.031 971.896 215.36C973.96 209.23 978.212 205.601 984.842 205.686C987.867 205.725 988.767 204.439 988.639 201.635C988.521 199.134 988.575 196.622 988.723 194.127C989.244 185.476 994.443 179.586 1002.82 178.064C1007.06 177.292 1007.84 176.358 1006.47 172.15C1004.47 165.987 1003.88 159.809 1004.94 153.468C1005.74 148.691 1009.54 146.939 1013.03 150.249C1022.67 159.377 1027.56 172.196 1020.15 185.282C1017.4 190.126 1013.17 192.904 1007.73 193.436C1004.23 193.775 1003.57 195.366 1003.62 198.699C1003.69 203.454 1003.31 208.283 1002.44 212.932C1001.19 219.649 997.559 222.771 990.81 223.497C988.698 223.727 988.134 224.661 988.008 226.56C987.826 229.374 987.645 232.226 987.102 234.98C985.269 244.197 980.076 248.793 970.846 249.666C970.32 249.704 969.811 249.787 968.72 249.927Z" fill="#FCBF23"/>
<path d="M454.242 617.868C451.601 618.57 448.996 619.542 446.295 619.944C439.573 620.93 435.191 615.477 437.188 608.776C438.363 604.82 440.977 602.067 444.372 600.1C463.179 589.212 479.207 597.08 488.192 615.273C494.876 628.802 492.62 642.424 482.781 653.467C476.17 660.892 467.252 662.817 458.209 658.4C448.789 653.798 442.647 646.022 439.12 636.073C437.62 631.84 438.85 627.8 441.88 625.475C444.871 623.179 449.051 623.102 452.57 625.907C455.864 628.535 458.773 631.703 461.888 634.59C467.306 639.59 469.104 639.258 471.03 632.158C471.84 629.172 472.081 625.543 471.214 622.612C469.324 616.215 463.682 613.834 457.653 616.114C456.465 616.559 455.314 617.105 454.147 617.607C454.183 617.671 454.216 617.762 454.242 617.868Z" fill="#FCBF23"/>
<path d="M387.044 528.276C391.795 541.575 391.786 554.657 384.123 567.332C382.577 569.903 380.889 572.449 378.954 574.751C376.313 577.886 372.764 577.717 369.305 576.592C359.522 573.427 352.43 567.045 347.098 558.681C343.327 552.756 342.139 546.162 342.461 539.198C343.016 527.62 347.113 516.994 352.585 506.829C356.309 499.923 365.347 499.25 370.303 505.154C371.356 506.409 372.526 507.584 373.757 508.673C380.699 514.789 384.021 519.661 387.044 528.276ZM361.013 520.686C355.766 536.323 358.223 548.894 368.13 555.175C372.559 542.432 369.621 527.81 361.013 520.686Z" fill="#FCBF23"/>
<path d="M787.084 409.139C767.652 412.143 750.303 410.781 735.299 398.926C725.818 391.436 718.459 382.087 712.92 371.393C710.022 365.782 710.815 360.515 714.833 357.168C718.821 353.844 724.54 353.769 729.405 357.31C731.756 359.015 733.86 361.101 735.874 363.22C738.853 366.369 741.697 369.643 744.499 372.945C753.099 383.06 763.907 389.332 777.056 392.018C783.442 393.321 789.686 395.36 795.93 397.26C798.757 398.121 797.75 400.539 796.542 401.662C793.393 404.541 789.846 406.995 787.084 409.139Z" fill="#FCBF23"/>
<path d="M1208.8 171.602C1211.49 183.871 1219.64 191.105 1231.18 194.731C1238.64 197.075 1246.32 198.771 1253.96 200.479C1256.29 201 1257.19 202.082 1255.6 203.642C1252.9 206.291 1250.02 209.277 1246.63 210.65C1229.78 217.467 1203 209.05 1192.97 194.138C1188.83 187.978 1185.97 181.201 1186.19 173.728C1186.3 170.045 1187.25 165.9 1189.19 162.831C1193.6 155.88 1202.9 156.987 1206.19 164.475C1207.21 166.78 1207.93 169.216 1208.8 171.602Z" fill="#FCBF23"/>
<path d="M902.908 432.091C902.771 434.321 903.146 436.747 902.411 438.76C895.051 458.899 886.427 478.374 872.439 494.916C870.585 497.119 868.503 498.729 865.47 497.931C862.271 497.092 860.349 494.654 860.236 491.559C860.078 487.053 859.891 482.327 861.065 478.077C862.575 472.595 865.095 467.319 867.761 462.272C872.923 452.506 878.398 442.906 883.976 433.384C885.352 431.049 887.335 428.748 889.593 427.341C894.406 424.343 900.46 426.81 902.908 432.091Z" fill="#FCBF23"/>
<path d="M432.919 197.424C430.733 197.71 428.466 198.543 426.363 198.196C405.333 194.713 384.677 189.849 365.727 179.104C363.205 177.682 361.208 175.921 361.34 172.76C361.476 169.425 363.429 167.055 366.398 166.355C370.723 165.343 375.254 164.261 379.613 164.619C385.233 165.077 390.867 166.577 396.312 168.266C406.846 171.535 417.286 175.148 427.672 178.878C430.222 179.8 432.866 181.332 434.702 183.305C438.617 187.515 437.509 193.991 432.919 197.424Z" fill="#FCBF23"/>
<path d="M752.476 480.726C751.643 477.416 750.519 474.146 750.052 470.793C749.286 465.426 752.075 461.02 756.614 459.682C761.037 458.373 765.673 460.38 767.97 465.269C772.053 473.951 775.815 482.802 779.681 491.589C780.032 492.381 780.216 493.272 780.376 494.134C781.321 499.255 779.348 503.598 775.253 505.461C770.994 507.396 766.031 506.169 763.257 501.647C760.031 496.409 757.455 490.753 754.656 485.256C753.904 483.781 753.369 482.202 752.736 480.67C752.642 480.691 752.559 480.709 752.476 480.726Z" fill="#FCBF23"/>
<path d="M451.227 515.373C450.164 515.358 448.179 515.577 446.293 515.284C430.436 512.79 416.446 506.095 403.427 497.316C399.804 494.869 398.918 490.939 400.922 487.79C402.926 484.642 406.908 483.709 410.81 485.892C423.261 492.858 436.509 497.867 450.444 501.284C454.692 502.324 456.934 504.909 456.911 508.291C456.913 511.564 455.174 513.738 451.227 515.373Z" fill="#FCBF23"/>
<path d="M235.348 758.48C237.681 765.301 238.896 772.249 238.558 779.421C238.434 782.119 237.976 784.597 235.35 785.766C232.591 786.995 230.058 786.008 227.843 784.109C223.524 780.385 220.539 775.607 218.973 770.138C217.624 765.398 216.627 760.505 216.116 755.625C215.587 750.499 218.231 746.835 222.206 745.909C226.192 744.979 230.094 747.124 232.379 751.663C233.494 753.873 234.362 756.198 235.348 758.48Z" fill="#FCBF23"/>
<path d="M549.747 591.742C549.428 589.832 548.994 588.187 548.913 586.546C548.545 579.444 553.748 575.857 559.805 578.971C560.277 579.208 560.77 579.437 561.172 579.804C568.224 586.267 573.38 594.274 577.179 603.221C578.489 606.311 577.539 609.366 575.334 611.575C573.113 613.803 570.42 614.057 567.469 612.892C566.989 612.698 566.48 612.489 566.066 612.152C559.219 606.575 554.057 599.451 549.747 591.742Z" fill="#FCBF23"/>
<path d="M507.999 105.501C509.453 102.911 510.461 100.787 511.756 98.8649C514.256 95.1173 516.624 91.2137 519.595 87.8677C524.157 82.7216 530.418 81.8737 536.158 85.7354C539.594 88.0527 542.71 91.0724 545.441 94.2442C551.315 101.063 556.767 108.238 562.546 115.142C573.892 128.708 587.009 140.281 601.467 150.336C603.75 151.926 605.994 153.721 607.84 155.801C610.758 159.071 609.97 162.528 606.142 164.619C602.805 166.442 599.171 166.412 595.846 165.023C590.208 162.652 584.509 160.214 579.287 157.017C560.163 145.334 544.969 129.422 532.23 110.987C531.065 109.297 529.803 107.654 528.58 106.01C528.478 105.869 528.22 105.848 527.543 105.572C526.105 109.137 524.611 112.685 523.234 116.28C522.192 119.001 521.46 121.852 520.296 124.516C516.675 132.733 508.555 136.09 500.62 131.88C496.162 129.513 492.068 125.971 488.626 122.191C479.071 111.692 472.052 99.407 465.446 86.882C464.077 84.2851 462.681 81.685 461.595 78.9722C459.457 73.6367 460.516 68.3747 464.204 64.8958C468.07 61.2504 474.006 60.1639 478.804 63.2602C482.34 65.5412 485.748 68.6075 488.067 72.0945C493.221 79.8623 497.635 88.115 502.386 96.1562C504.107 99.1347 505.905 102.047 507.999 105.501Z" fill="#FCBF23"/>
</g>
</svg>
