<svg width="1019" height="462" viewBox="0 0 1019 462" fill="none" xmlns="http://www.w3.org/2000/svg">
<g opacity="0.1">
<path d="M66.9934 823.28C79.0081 810.783 93.9088 802.173 108.014 792.458C116.752 786.433 124.885 779.514 133.271 772.977C134.103 772.329 134.814 771.521 135.52 770.843C135.346 770.433 135.315 770.137 135.177 770.072C110.831 759.324 95.4791 740.181 85.6181 716.076C78.0734 697.613 74.9767 678.315 75.6281 658.423C75.8076 653.077 75.7789 647.716 76.3832 642.419C76.7079 639.501 77.6316 636.378 79.1987 633.941C81.5661 630.281 85.5081 629.066 89.8162 629.944C94.2611 630.849 97.2719 633.681 98.3791 638.023C99.0648 640.715 99.122 643.636 99.1116 646.44C99.0201 672.421 105.359 696.552 119.654 718.419C124.952 726.534 131.72 733.309 138.967 739.654C143.216 743.379 147.36 747.232 151.92 751.356C154.041 748.207 156.002 745.141 158.126 742.209C160.122 739.45 162.91 738.067 166.341 738.662C169.76 739.262 171.878 741.523 172.946 744.78C173.256 745.703 173.61 746.713 173.516 747.642C173.054 752.388 173.005 757.253 171.801 761.808C168.987 772.459 162.731 781.19 154.311 787.983C142.321 797.645 130.196 807.216 117.517 815.926C103.296 825.708 89.9528 836.297 78.7797 849.537C78.3079 850.092 77.643 850.5 77.0781 850.974C73.7071 841.763 70.3502 832.522 66.9934 823.28Z" fill="#004AF5"/>
<path d="M0.275565 639.602C11.2644 634.663 26.4648 637.799 35.3293 647.219C45.03 657.527 48.661 670.026 46.4222 683.89C44.3074 697.042 36.4185 707.758 28.9486 718.54C25.6609 709.488 22.3773 700.449 19.0896 691.397C23.4574 688.184 26.361 683.915 28.092 678.958C32.3635 666.7 21.9722 651.226 7.64743 656.16C7.24749 656.292 6.77357 656.221 6.3209 656.245C4.30716 650.701 2.2893 645.146 0.275565 639.602Z" fill="#004AF5"/>
<path d="M661.24 361.94C667.96 345.445 675.281 329.942 685.541 315.906C684.778 315.372 684.315 314.936 683.764 314.673C671.366 308.532 663.451 298.383 658.493 285.641C658.025 284.421 657.701 283.11 657.584 281.814C657.336 278.97 658.288 276.604 660.837 275.188C663.458 273.722 666.195 273.834 668.434 275.814C670.114 277.302 671.539 279.203 672.706 281.161C677.479 289.143 682.734 296.604 690.853 301.596C693.51 303.23 695.012 303.251 696.78 300.382C702.538 291.032 708.708 281.944 714.435 272.579C719.94 263.578 730.191 261.927 737.879 269.289C740.232 271.549 742.292 274.185 744.186 276.856C752.439 288.492 760.552 300.23 768.779 311.9C771.625 315.937 774.641 319.848 777.558 323.833C787.609 337.596 801.442 345.389 817.338 349.937C817.849 350.086 818.386 350.136 819.277 350.288C819.414 349.028 819.551 347.872 819.65 346.716C820.801 332.63 821.255 318.437 823.251 304.482C825.545 288.488 828.967 272.637 832.383 256.841C834.222 248.309 844.097 245.378 850.977 251.386C855.449 255.296 859.433 260.027 862.765 264.981C868.22 273.064 873.064 281.587 878.01 290.01C886.415 304.331 896.617 317.15 908.955 328.216C916.294 334.79 923.633 341.365 931.033 347.866C943.996 359.258 958.546 368.117 974.476 374.326C982.425 377.423 990.86 379.52 999.253 381.014C1011.86 383.258 1024.6 384.562 1037.28 386.261C1037.92 386.35 1038.58 386.409 1039.23 386.417C1043.98 386.429 1044.79 387.229 1044.48 392.102C1044.17 397.055 1041.67 400.895 1037.09 402.301C1031.89 403.908 1026.38 405.422 1020.99 405.382C1009.76 405.294 998.452 404.638 987.267 403.335C965.891 400.816 946.802 391.662 928.924 379.984C911.708 368.734 895.741 355.731 880.722 341.572C866.815 328.452 857.01 312.335 848.262 295.5C847.406 293.842 846.499 292.215 845.591 290.588C845.515 290.449 845.228 290.424 844.75 290.225C844.546 291.302 844.284 292.324 844.177 293.354C842.216 313.783 841.413 334.23 844.318 354.706C845.985 366.442 838.534 375.661 826.895 375.166C800.177 374.008 775.817 366.306 757.874 344.69C747.108 331.715 737.497 317.767 727.37 304.251C726.654 303.289 725.978 302.299 724.999 300.93C724.18 301.987 723.526 302.765 722.93 303.599C719.298 308.625 715.949 313.87 712.019 318.631C696.119 337.881 685.7 360.018 678.331 383.827C677.619 386.119 676.942 388.437 675.993 390.635C672.191 399.481 662.843 402.606 655.071 396.896C651.068 393.962 647.628 389.754 644.97 385.469C626.149 355.163 615.246 322.148 612.097 286.638C611.407 278.883 610.942 271.086 610.927 263.305C610.878 241.174 616.634 220.666 626.252 200.853C645.361 161.506 674.582 131.072 707.119 103.281C718.889 93.2276 730.692 83.1617 741.837 72.4339C747.785 66.7085 752.699 59.7755 757.527 52.9896C762.495 45.9982 764.225 37.9313 762.718 29.2509C762.377 27.3026 762.206 25.3314 762.072 23.3594C761.873 20.5103 762.59 18.0233 765.519 17.0237C768.403 16.0404 770.723 17.3728 772.228 19.7733C776.06 25.8973 778.738 32.4666 779.217 39.7827C779.823 49.2925 777.403 58.1765 772.81 66.2026C768.989 72.8673 764.81 79.5589 759.592 85.0965C748.455 96.9281 736.935 108.436 724.874 119.29C707.66 134.784 692.215 151.938 677.299 169.608C672.925 174.788 669.416 180.812 666.058 186.767C661.133 195.48 656.656 204.455 652.069 213.367C643.195 230.593 639.206 249.03 639.699 268.478C640.248 290.171 642.551 311.676 649.083 332.482C652.001 341.77 656.181 350.663 659.816 359.729C660.052 360.274 660.482 360.761 661.24 361.94Z" fill="#004AF5"/>
<path d="M633.733 474.507C628.048 481.806 622.123 489.321 616.369 496.954C615.914 497.556 616.158 499.417 616.753 499.971C620.966 503.907 625.024 508.116 629.737 511.331C636.222 515.75 643.286 519.279 649.996 523.372C652.284 524.773 654.543 526.48 656.294 528.5C659.177 531.854 659.666 535.859 657.589 539.834C655.567 543.712 652.13 545.063 647.842 545.081C646.037 545.082 643.897 545.59 642.479 546.656C633.021 553.749 623.598 560.905 614.427 568.368C611.28 570.935 608.884 574.448 606.192 577.569C605.128 578.802 604.274 580.229 603.178 581.409C600.48 584.339 597.157 585.687 593.192 584.6C589.325 583.542 587.253 580.74 586.369 576.943C585.406 572.789 584.758 568.521 583.433 564.486C579.697 553.154 575.655 541.92 571.77 530.629C570.93 528.176 570.284 525.665 569.348 522.528C564.257 526.25 559.413 529.498 554.904 533.176C544.307 541.823 533.938 550.748 523.366 559.425C519.765 562.388 515.954 565.12 512.05 567.667C505.077 572.227 495.664 569.333 491.45 561.511C488.658 556.341 488.434 550.828 489.456 545.209C491.17 535.862 494.434 527.042 499.249 518.955C507.116 505.769 514.933 492.512 523.63 479.896C532.462 467.091 542.168 454.906 551.846 442.717C556.022 437.453 560.925 432.76 565.737 428.061C572.873 421.081 579.013 413.424 583.386 404.368C585.265 400.478 588.026 398.949 591.375 399.631C594.723 400.314 597.282 403.298 596.917 407.472C596.564 411.539 595.914 415.906 594.082 419.433C590.689 425.977 586.447 432.073 582.362 438.214C577.006 446.28 571.395 454.168 566.031 462.211C561.192 469.46 556.364 476.705 551.821 484.142C542.62 499.185 533.601 514.342 524.596 529.507C523.396 531.521 522.697 533.828 521.476 536.696C523.439 535.662 524.967 535.005 526.332 534.111C538.868 525.939 551.364 517.693 563.908 509.544C565.767 508.329 566.145 506.922 565.634 504.849C564.792 501.447 564.078 498.012 563.461 494.566C562.412 488.737 564.939 484.009 569.623 482.769C574.4 481.509 579.272 484.076 580.938 489.745C583.043 496.871 584.699 504.16 585.915 511.493C588.679 528.234 594.521 544.074 599.494 560.179C599.545 560.353 599.783 560.484 599.974 560.659C611.652 553.697 623.327 546.723 635.56 539.432C633.697 538.222 632.624 537.508 631.545 536.81C619.945 529.296 608.992 521.009 600.729 509.666C599.441 507.902 598.247 506.052 597.252 504.116C594.26 498.223 595.123 493.74 599.353 488.804C607.693 479.051 615.796 469.103 624.066 459.298C625.44 457.658 625.633 456.266 624.67 454.28C623.233 451.338 622.004 448.269 621.008 445.141C619.807 441.382 620.862 438.163 623.494 436.348C626.241 434.464 629.898 434.56 632.776 437.377C635.795 440.335 638.881 443.512 640.877 447.188C651.177 466.028 665.159 482.234 677.444 499.648C694.692 524.111 705.299 550.653 705.262 580.921C705.254 584.85 704.984 588.797 704.479 592.688C701.488 615.766 689.173 631.684 668.259 641.385C653.446 648.254 637.805 652.075 622.038 655.723C611.147 658.242 600.253 660.788 589.515 663.867C583.289 665.654 577.272 668.263 571.36 670.949C562.488 674.967 557.09 682.009 554.919 691.599C553.504 697.848 552.766 704.108 554.194 710.454C555.272 715.207 557.475 716.165 561.75 714.009C562.943 713.409 564.293 713.137 565.574 712.71C565.87 714.155 566.476 715.615 566.424 717.045C566.204 723.438 561.927 728.212 555.266 729.746C547.246 731.594 539.59 728.396 534.982 721.204C531.038 715.067 529.724 708.231 530.145 701.098C531.549 677.571 542.747 660.853 564.141 651.003C577.358 644.919 591.382 641.544 605.333 637.863C618.762 634.319 632.374 631.35 645.578 627.119C653.544 624.559 661.006 620.296 668.482 616.387C673.79 613.612 677.685 609.118 680.293 603.667C691.114 581.12 692.834 558.145 682.018 535.015C679.32 529.233 675.558 523.774 671.49 518.836C659.193 503.98 646.548 489.495 633.733 474.507Z" fill="#004AF5"/>
<path d="M990.387 410.771C984.702 418.07 978.777 425.585 973.023 433.218C972.568 433.82 972.812 435.681 973.407 436.235C977.619 440.171 981.678 444.38 986.391 447.595C992.876 452.014 999.94 455.543 1006.65 459.636C1008.94 461.037 1011.2 462.744 1012.95 464.764C1015.83 468.118 1016.32 472.123 1014.24 476.098C1012.22 479.976 1008.78 481.326 1004.5 481.345C1002.69 481.346 1000.55 481.854 999.133 482.92C989.675 490.013 980.252 497.169 971.081 504.632C967.934 507.199 965.538 510.712 962.846 513.833C961.782 515.066 960.927 516.493 959.831 517.673C957.134 520.603 953.811 521.952 949.845 520.864C945.979 519.806 943.906 517.004 943.023 513.207C942.06 509.053 941.412 504.785 940.087 500.75C936.351 489.418 932.309 478.184 928.424 466.893C927.584 464.44 926.938 461.929 926.002 458.792C920.911 462.514 916.067 465.762 911.558 469.44C900.961 478.088 890.592 487.012 880.02 495.689C876.419 498.652 872.608 501.384 868.704 503.931C861.731 508.491 852.318 505.597 848.104 497.775C845.312 492.605 845.088 487.092 846.11 481.473C847.823 472.126 851.088 463.306 855.903 455.219C863.77 442.033 871.587 428.776 880.284 416.16C889.116 403.355 898.821 391.17 908.5 378.981C912.675 373.717 917.579 369.024 922.391 364.325C929.527 357.345 935.666 349.688 940.04 340.632C941.919 336.742 944.68 335.213 948.029 335.895C951.377 336.578 953.935 339.562 953.571 343.736C953.218 347.803 952.568 352.17 950.735 355.697C947.343 362.241 943.101 368.337 939.016 374.478C933.66 382.544 928.049 390.432 922.685 398.475C917.846 405.724 913.018 412.969 908.475 420.406C899.274 435.449 890.255 450.606 881.25 465.771C880.05 467.785 879.351 470.092 878.13 472.96C880.093 471.926 881.621 471.269 882.986 470.375C895.522 462.203 908.017 453.957 920.561 445.808C922.421 444.594 922.799 443.186 922.288 441.114C921.446 437.711 920.732 434.276 920.115 430.83C919.066 425.001 921.593 420.273 926.277 419.033C931.054 417.773 935.926 420.34 937.592 426.009C939.697 433.135 941.353 440.424 942.569 447.757C945.332 464.498 951.175 480.338 956.148 496.443C956.199 496.617 956.437 496.748 956.628 496.923C968.306 489.961 979.981 482.987 992.214 475.696C990.351 474.486 989.278 473.772 988.199 473.074C976.599 465.56 965.646 457.273 957.383 445.93C956.094 444.166 954.901 442.316 953.906 440.38C950.914 434.487 951.776 430.004 956.007 425.068C964.347 415.315 972.45 405.367 980.72 395.562C982.094 393.922 982.287 392.53 981.324 390.544C979.887 387.602 978.658 384.533 977.662 381.405C976.461 377.646 977.516 374.427 980.148 372.612C982.895 370.728 986.552 370.824 989.43 373.641C992.449 376.599 995.535 379.776 997.531 383.452C1007.83 402.292 1021.81 418.498 1034.1 435.912C1051.35 460.375 1061.95 486.917 1061.92 517.185C1061.91 521.114 1061.64 525.061 1061.13 528.952C1058.14 552.03 1045.83 567.948 1024.91 577.649C1010.1 584.518 994.459 588.339 978.692 591.987C967.801 594.506 956.907 597.052 946.169 600.131C939.943 601.918 933.926 604.527 928.014 607.213C919.142 611.231 913.744 618.273 911.573 627.863C910.157 634.113 909.419 640.372 910.847 646.718C911.926 651.471 914.129 652.428 918.404 650.273C919.597 649.673 920.946 649.4 922.227 648.974C922.524 650.419 923.13 651.879 923.078 653.309C922.858 659.702 918.581 664.476 911.92 666.01C903.899 667.858 896.244 664.66 891.636 657.468C887.692 651.331 886.378 644.495 886.799 637.362C888.203 613.835 899.401 597.117 920.794 587.267C934.012 581.183 948.036 577.808 961.987 574.127C975.416 570.583 989.028 567.614 1002.23 563.383C1010.2 560.823 1017.66 556.56 1025.14 552.651C1030.44 549.876 1034.34 545.382 1036.95 539.931C1047.77 517.384 1049.49 494.409 1038.67 471.279C1035.97 465.497 1032.21 460.038 1028.14 455.1C1015.85 440.244 1003.2 425.759 990.387 410.771Z" fill="#004AF5"/>
<path d="M976.353 85.0353C967.117 85.5697 957.56 86.0657 948.027 86.7673C947.274 86.8214 946.035 88.2317 946.011 89.0442C945.826 94.8062 945.334 100.633 946.022 106.296C946.972 114.086 948.973 121.724 950.316 129.469C950.769 132.113 950.974 134.937 950.609 137.585C949.986 141.964 947.296 144.971 942.938 146.028C938.688 147.062 935.408 145.368 932.568 142.154C931.378 140.798 929.585 139.522 927.849 139.159C916.281 136.719 904.69 134.347 893.033 132.366C889.028 131.691 884.806 132.204 880.685 132.236C879.056 132.248 877.42 132.546 875.81 132.499C871.829 132.401 868.625 130.79 866.829 127.091C865.078 123.485 865.819 120.08 868.093 116.913C870.583 113.452 873.366 110.152 875.527 106.496C881.59 96.2186 887.376 85.7753 893.308 75.4126C894.6 73.1639 896.063 71.0237 897.806 68.2524C891.651 66.8762 886.016 65.3729 880.278 64.4047C866.791 62.133 853.245 60.2148 839.751 57.9806C835.15 57.225 830.584 56.1582 826.096 54.9003C818.071 52.6607 814.044 43.674 817.151 35.3494C819.2 29.842 823.199 26.0412 828.098 23.1071C836.258 18.2365 845.043 14.8799 854.299 13.1721C869.401 10.4004 884.524 7.54316 899.744 5.77208C915.196 3.97684 930.757 3.24659 946.303 2.49424C953.013 2.16657 959.775 2.76173 966.481 3.28492C976.433 4.05243 986.238 3.6245 995.932 0.946535C1000.1 -0.203955 1003.07 0.86546 1004.76 3.83398C1006.45 6.80252 1005.89 10.693 1002.51 13.1693C999.222 15.5841 995.509 17.9731 991.648 18.9189C984.491 20.6795 977.11 21.506 969.799 22.4802C960.203 23.7667 950.572 24.7448 940.988 26.0101C932.346 27.1473 923.715 28.2902 915.128 29.774C897.75 32.7667 880.406 35.9705 863.066 39.1908C860.76 39.6153 858.564 40.6093 855.602 41.5816C857.673 42.3767 859.175 43.0924 860.747 43.5305C875.154 47.5745 889.591 51.5388 903.987 55.604C906.125 56.2023 907.433 55.5592 908.655 53.809C910.659 50.9338 912.773 48.1325 914.958 45.3984C918.651 40.768 923.872 39.5527 927.891 42.259C931.988 45.0218 933.268 50.378 930.101 55.3663C926.129 61.6458 921.738 67.6949 917.022 73.4417C906.252 86.5522 898.188 101.385 889.352 115.738C889.254 115.891 889.312 116.157 889.306 116.415C902.239 120.612 915.178 124.798 928.723 129.194C928.405 126.995 928.235 125.718 928.049 124.446C926.057 110.77 925.073 97.0706 928.159 83.3807C928.637 81.2486 929.242 79.1318 930.042 77.108C932.503 70.9743 936.443 68.6687 942.944 68.5975C955.775 68.4437 968.598 67.9826 981.422 67.7424C983.562 67.6944 984.736 66.9227 985.595 64.8902C986.861 61.8704 988.359 58.9235 990.055 56.1128C992.092 52.7325 995.208 51.4049 998.308 52.188C1001.53 53.0134 1003.87 55.827 1003.65 59.848C1003.42 64.0677 1003.06 68.4824 1001.61 72.4061C994.226 92.5684 991.25 113.765 986.248 134.481C979.213 163.575 966.239 189.044 943.449 208.961C940.488 211.544 937.342 213.943 934.082 216.127C914.752 229.085 894.665 230.312 873.586 220.974C858.658 214.358 845.477 205.111 832.342 195.656C823.271 189.125 814.177 182.608 804.785 176.561C799.338 173.055 793.411 170.249 787.494 167.572C778.626 163.547 769.772 164.127 761.128 168.814C755.495 171.867 750.3 175.437 746.468 180.693C743.604 184.636 744.335 186.924 748.774 188.719C750.011 189.221 751.105 190.057 752.27 190.739C751.379 191.914 750.68 193.332 749.57 194.236C744.617 198.283 738.208 198.212 732.664 194.213C725.988 189.398 723.349 181.532 725.722 173.327C727.739 166.316 732.015 160.823 737.657 156.439C756.279 141.991 776.233 139.397 797.74 148.998C811.026 154.93 822.806 163.255 834.768 171.322C846.283 179.087 857.486 187.37 869.37 194.513C876.545 198.818 884.668 201.621 892.535 204.668C898.12 206.832 904.067 206.801 909.886 205.17C933.976 198.451 952.39 184.605 962.66 161.227C965.231 155.388 966.858 148.96 967.891 142.647C970.962 123.608 973.525 104.551 976.353 85.0353Z" fill="#004AF5"/>
<path d="M329.212 776.715C347.9 783.851 368.015 785.664 385.753 795.728C386.82 793.932 387.919 792.332 388.792 790.607C393.859 780.616 398.838 770.593 403.924 760.621C404.972 758.561 404.457 757.392 402.769 755.887C395.157 749.055 387.641 742.098 380.228 735.038C378.266 733.168 376.473 730.951 375.154 728.589C372.692 724.213 372.778 719.648 375.746 715.496C378.707 711.36 383.048 709.576 387.86 710.747C391.604 711.661 395.496 713.231 398.562 715.527C406.816 721.725 414.684 728.451 422.666 735.032C425.782 737.608 428.777 740.343 432.437 743.534C438.922 733.739 445.129 724.38 451.489 714.772C450.012 713.707 449 712.899 447.915 712.208C440.113 707.254 432.231 702.432 424.524 697.352C421.237 695.188 417.986 692.804 415.275 689.965C410.615 685.083 410.141 678.268 413.534 673.238C416.927 668.208 423.285 666.364 429.638 668.951C432.874 670.269 436.136 671.835 438.903 673.943C449.302 681.881 459.749 689.775 469.706 698.261C477.508 704.908 478.54 715.06 473.217 723.71C466.261 735.033 459.29 746.348 452.249 757.611C443.791 771.12 435.792 773.78 420.847 768.229C420.342 768.039 419.823 767.917 419.05 767.694C418.179 769.393 417.31 771.026 416.487 772.681C410.714 784.362 402.861 794.628 395.365 805.204C389.13 813.992 381.56 813.913 372.823 812.036C363.826 810.112 354.838 808.107 345.861 806.098C337.084 804.145 328.29 802.25 319.547 800.143C304.563 796.531 301.86 782.982 304.316 772.3C305.171 768.579 306.673 764.947 308.333 761.502C320.226 736.865 331.699 711.992 344.382 687.765C353.278 670.765 363.447 654.413 373.798 638.241C391.32 610.848 407.022 582.644 416.534 551.276C417.74 547.286 419.315 543.395 420.948 539.559C421.764 537.674 422.902 535.827 424.278 534.32C427.26 531.054 431.062 529.867 435.337 531.362C439.608 532.846 441.871 536.145 442.239 540.583C442.409 542.64 442.2 544.782 441.766 546.8C438.207 563.45 433.149 579.573 424.665 594.422C414.317 612.543 404.284 630.861 393.455 648.68C379.378 671.824 368.3 696.514 356.094 720.607C347.312 737.953 339.141 755.607 330.708 773.137C330.178 774.22 329.775 775.335 329.212 776.715Z" fill="#004AF5"/>
<path d="M228.852 596.461C230.847 591.578 232.489 586.498 234.949 581.875C237.456 577.17 240.314 572.48 243.853 568.544C250.734 560.898 259.972 562.026 265.03 571.169C273.447 586.357 279.65 602.518 284.261 619.257C285.912 625.245 287.435 631.268 288.781 637.328C289.327 639.781 289.585 642.39 289.363 644.875C289.052 648.276 286.098 650.025 283.185 648.302C280.73 646.854 278.235 644.733 276.848 642.287C268.551 627.64 260.568 612.802 252.469 598.031C252.004 597.174 251.543 596.327 250.759 594.871C249.966 596.276 249.323 597.212 248.875 598.232C245.982 604.897 243.285 611.646 240.206 618.223C238.78 621.262 237.021 624.331 234.757 626.751C229.45 632.435 221.198 631.91 216.437 625.661C214.587 623.24 213.205 620.35 212.124 617.481C208.53 607.936 205.145 598.302 201.715 588.684C200.187 584.405 198.393 583.653 194.688 586.324C182.564 595.081 173.309 606.357 167.328 620.173C157.134 643.706 159.75 666.628 172.496 688.599C179.392 700.479 191.129 702.792 202.199 695.002C207.816 691.051 212.357 686.036 215.524 679.844C217.531 675.944 217.181 674.733 213.694 671.958C213.519 671.826 213.365 671.649 213.168 671.564C210.716 670.545 208.267 669.537 205.819 668.529C204.725 671.356 203.054 674.107 202.713 677.038C202.353 680.197 201.153 682.66 198.493 683.392C196.347 683.99 193.498 683.569 191.457 682.556C189.837 681.754 188.404 679.533 187.842 677.67C185.529 669.999 184.9 662.184 187.59 654.501C190.466 646.309 197.503 641.661 206.033 641.967C220.183 642.48 237.126 657.508 238.857 671.732C239.368 675.952 238.932 680.802 237.319 684.662C231.191 699.376 221.525 711.347 207.46 718.912C188.21 729.257 166.976 724.508 153.346 707.029C135.404 684.048 124.441 642.964 148.232 605.551C158.152 589.953 171.425 577.958 187.569 569.223C192.694 566.451 198.155 565.235 204.012 566.59C204.641 566.738 205.319 566.739 205.972 566.709C212.937 566.363 216.208 568.371 218.913 574.939C221.404 580.986 223.729 587.107 226.145 593.195C226.542 594.181 226.988 595.163 227.407 596.141C227.882 596.254 228.365 596.352 228.852 596.461Z" fill="#004AF5"/>
<path d="M490.173 469.471C483.439 470.018 476.705 471.021 469.954 471.002C458.211 470.975 446.675 468.701 435.331 465.46C399.476 455.203 366.784 438.322 337.429 414.635C327.177 406.368 317.883 397.089 311.621 385.134C310.595 383.179 309.731 381.113 309.054 379.005C305.159 366.997 309.716 356.107 321.274 351.974C326.932 349.958 333.257 349.117 339.311 349.025C351.506 348.836 363.418 351.311 375.03 355.534C378.175 356.681 381.652 356.796 384.802 357.889C419.187 369.799 451.302 386.24 480.059 409.324C487.902 415.618 495.203 422.539 500.416 431.362C501.986 434.017 503.394 436.849 504.345 439.781C508.604 452.827 503.029 463.904 490.072 468.532C490.125 468.851 490.151 469.167 490.173 469.471ZM484.374 443.978C482.518 441.232 481.029 438.105 478.744 435.814C471.66 428.724 464.755 421.295 456.926 415.177C431.498 395.345 402.42 382.886 372.389 373.089C362.187 369.758 351.025 369.625 340.27 368.355C337.327 368.006 334.229 368.586 331.281 369.162C326.863 370.039 326.186 371.546 328.562 375.586C330.286 378.524 332.239 381.534 334.717 383.768C341.834 390.184 348.85 396.843 356.648 402.283C384.011 421.425 413.885 435.103 445.662 444.111C453.687 446.385 462.006 447.694 470.266 448.843C474.15 449.383 478.211 448.636 482.169 448.2C484.459 447.967 485.261 446.453 484.374 443.978Z" fill="#004AF5"/>
<path d="M1265.76 513.454C1259.02 514.002 1252.29 515.004 1245.54 514.985C1233.8 514.958 1222.26 512.685 1210.92 509.444C1175.06 499.187 1142.37 482.305 1113.01 458.619C1102.76 450.351 1093.47 441.072 1087.21 429.118C1086.18 427.162 1085.32 425.096 1084.64 422.988C1080.74 410.98 1085.3 400.091 1096.86 395.958C1102.52 393.941 1108.84 393.101 1114.9 393.008C1127.09 392.819 1139 395.294 1150.62 399.517C1153.76 400.664 1157.24 400.78 1160.39 401.872C1194.77 413.782 1226.89 430.223 1255.64 453.307C1263.49 459.602 1270.79 466.522 1276 475.346C1277.57 478.001 1278.98 480.832 1279.93 483.764C1284.19 496.81 1278.61 507.887 1265.66 512.516C1265.71 512.835 1265.74 513.15 1265.76 513.454ZM1259.96 487.962C1258.1 485.216 1256.61 482.089 1254.33 479.797C1247.24 472.707 1240.34 465.278 1232.51 459.161C1207.08 439.329 1178.01 426.87 1147.97 417.072C1137.77 413.742 1126.61 413.608 1115.86 412.338C1112.91 411.99 1109.81 412.569 1106.87 413.146C1102.45 414.022 1101.77 415.53 1104.15 419.569C1105.87 422.507 1107.82 425.518 1110.3 427.752C1117.42 434.167 1124.44 440.827 1132.23 446.266C1159.6 465.409 1189.47 479.087 1221.25 488.094C1229.27 490.368 1237.59 491.678 1245.85 492.826C1249.73 493.367 1253.8 492.62 1257.75 492.183C1260.04 491.95 1260.85 490.436 1259.96 487.962Z" fill="#004AF5"/>
<path d="M1178.55 343.177C1183.88 347.449 1189.45 350.341 1195.57 352.133C1218.14 358.735 1239.29 355.287 1258.81 342.829C1274.4 332.866 1288.44 320.876 1299.94 306.183C1304.19 300.739 1307.8 294.691 1311.17 288.604C1316.42 279.067 1316.8 268.75 1314.3 258.21C1314.12 257.486 1313.8 256.792 1313.36 255.584C1312.49 256.789 1311.83 257.726 1311.15 258.645C1301.65 271.645 1292.38 284.832 1282.56 297.564C1278.55 302.761 1273.51 307.188 1268.6 311.589C1265.31 314.539 1261.45 314.433 1258.81 312.153C1256.15 309.866 1255.36 305.934 1257.38 302.181C1259.29 298.647 1261.56 295.279 1264.01 292.117C1267.62 287.491 1271.47 283.047 1275.34 278.645C1286.76 265.684 1296.02 251.222 1304.23 236.005C1304.69 235.141 1305.16 234.273 1305.72 233.465C1310.74 226.128 1321.08 226.529 1324.51 234.782C1333.29 255.881 1337.47 277.709 1326.3 298.825C1308.68 332.173 1283.35 357.607 1247.54 370.577C1229.43 377.131 1210.67 377.812 1191.85 372.402C1182.1 369.607 1173.61 364.728 1166.79 356.961C1162.13 351.656 1160.08 345.434 1159.73 338.541C1159.57 335.373 1161.38 333.217 1163.67 331.38C1167.9 327.985 1172.15 324.632 1176.32 321.169C1198.41 302.797 1216.39 280.896 1230.63 255.797C1232.03 253.328 1233.37 250.825 1234.91 248.449C1237.1 245.059 1239.94 243.808 1243.13 244.609C1246.25 245.385 1248.71 248.351 1249.02 252.163C1249.19 254.334 1249.19 256.617 1248.68 258.699C1247.87 261.976 1246.99 265.364 1245.39 268.271C1230.61 294.818 1212.56 318.6 1188.11 336.812C1185.12 338.982 1181.97 340.887 1178.55 343.177Z" fill="#004AF5"/>
<path d="M782.443 551.592C783.2 550.228 783.86 549.12 784.443 547.975C803.466 510.475 822.505 472.982 841.463 435.442C843.773 430.868 845.388 425.911 847.829 421.42C849.383 418.56 851.498 415.678 854.075 413.822C857.453 411.389 861.523 411.868 865.104 414.276C868.675 416.688 870.458 420.241 869.993 424.495C869.736 426.819 868.891 429.226 867.746 431.263C859.573 445.812 851.076 460.166 843.046 474.793C826.87 504.256 810.918 533.845 794.924 563.424C793.842 565.425 792.98 567.579 792.324 569.775C790.234 576.733 782.679 581.63 776.455 576.37C776.055 576.035 775.482 575.815 774.967 575.756C766.561 574.725 760.204 569.759 754.747 563.753C729.178 535.669 711.521 503.493 706.664 465.227C705.626 457.007 706.268 448.501 706.951 440.213C707.496 433.635 710.732 430.462 715.052 430.307C719.609 430.143 722.702 433.26 724.334 439.773C724.792 441.59 725.16 443.441 725.442 445.296C730.407 477.454 743.192 506.071 763.937 531.044C769.147 537.308 774.669 543.316 780.073 549.419C780.705 550.149 781.486 550.734 782.443 551.592Z" fill="#004AF5"/>
<path d="M402.732 294.995C403.489 293.631 404.148 292.522 404.732 291.377C423.755 253.877 442.794 216.385 461.752 178.844C464.062 174.27 465.677 169.314 468.118 164.822C469.672 161.963 471.787 159.081 474.364 157.224C477.742 154.791 481.812 155.271 485.393 157.678C488.963 160.09 490.747 163.644 490.281 167.898C490.025 170.221 489.18 172.629 488.035 174.666C479.862 189.214 471.365 203.569 463.334 218.195C447.159 247.658 431.207 277.247 415.213 306.826C414.131 308.827 413.269 310.981 412.613 313.178C410.523 320.135 402.968 325.032 396.744 319.772C396.344 319.437 395.771 319.218 395.256 319.158C386.85 318.127 380.493 313.161 375.036 307.156C349.467 279.072 331.809 246.895 326.953 208.629C325.915 200.409 326.557 191.903 327.24 183.615C327.785 177.037 331.021 173.865 335.341 173.709C339.898 173.545 342.99 176.662 344.623 183.175C345.081 184.993 345.449 186.843 345.731 188.699C350.696 220.856 363.481 249.473 384.226 274.447C389.436 280.711 394.957 286.719 400.362 292.822C400.993 293.552 401.775 294.137 402.732 294.995Z" fill="#004AF5"/>
<path d="M1190.12 234.521C1193.41 244.553 1194 254.77 1191.45 264.901C1185.95 286.678 1174.93 304.761 1155.68 316.988C1154.59 317.679 1153.48 318.416 1152.29 318.862C1148.7 320.205 1145.25 321.457 1142.19 324.156C1139.22 326.769 1135.05 326.301 1131.73 324.334C1127.45 321.803 1122.85 319.261 1119.61 315.638C1106.09 300.517 1092.93 285.072 1079.85 269.556C1076.58 265.675 1073.82 261.25 1071.52 256.723C1070.41 254.54 1070.51 251.496 1070.79 248.923C1070.98 247.242 1072.24 245.501 1073.44 244.158C1085.98 230.157 1100.27 218.499 1118.26 212.415C1133.58 207.246 1149.33 207.118 1165.01 211.266C1177.36 214.527 1185.57 222.58 1190.12 234.521ZM1143.34 304.409C1146.9 300.375 1150.61 296.299 1154.18 292.109C1160.76 284.397 1166.45 276.096 1170.64 266.801C1174.05 259.254 1175.39 251.444 1173.58 243.217C1171.76 234.968 1167.09 229.497 1158.55 227.991C1146.91 225.945 1135.39 226.25 1124.36 230.669C1113.83 234.89 1104.61 241.349 1096.03 248.729C1095.89 248.842 1095.89 249.124 1095.98 248.836C1111.77 267.372 1127.39 285.698 1143.34 304.409Z" fill="#004AF5"/>
<path d="M1435.41 263.009C1432.85 267.162 1430.85 270.918 1428.37 274.304C1422.62 282.208 1413.96 282.645 1407.61 274.99C1404.44 271.177 1401.86 266.635 1399.93 262.039C1396.81 254.648 1394.44 246.949 1391.76 239.378C1391.44 238.463 1391.1 237.567 1390.57 236.11C1389.6 237.313 1388.79 238.134 1388.19 239.074C1376.85 256.794 1352.63 251.104 1345.23 233.848C1338.35 217.798 1335.33 200.82 1334.06 183.53C1333.98 182.45 1334.12 181.328 1334.34 180.269C1335.03 176.77 1337.33 174.415 1340.42 173.922C1343.48 173.444 1346.78 174.873 1348.2 178.122C1349.98 182.232 1351.35 186.571 1352.54 190.895C1354.97 199.693 1356.99 208.603 1359.56 217.364C1360.62 220.998 1362.22 224.66 1364.32 227.789C1367.63 232.712 1371.49 232.636 1374.82 227.896C1377.98 223.384 1380.89 218.679 1383.89 214.056C1384.65 212.876 1385.34 211.647 1386.1 210.456C1388.51 206.719 1391.75 204.457 1396.34 205.19C1400.91 205.926 1403.54 209.111 1404.75 213.426C1406.87 220.946 1408.73 228.532 1410.78 236.077C1412.43 242.131 1414.14 248.16 1415.9 254.185C1416.44 256.04 1417.2 257.815 1417.86 259.637C1418.27 259.683 1418.66 259.733 1419.07 259.779C1421.16 255.062 1423.34 250.389 1425.31 245.613C1426.59 242.505 1427.44 239.206 1428.67 236.064C1430.22 232.11 1433.01 229.536 1437.37 229.473C1441.71 229.408 1445.07 231.745 1446.52 235.716C1449.25 243.129 1451.51 250.727 1453.8 258.302C1457.22 269.677 1460.38 281.137 1463.93 292.468C1465 295.884 1466.91 299.07 1468.62 302.253C1470.5 305.745 1473.6 307.289 1477.43 307.508C1483.79 307.878 1489.22 305.496 1494.11 301.774C1497.33 299.313 1500.33 296.536 1503.78 293.605C1505.28 297.728 1506.8 301.778 1508.18 305.88C1508.36 306.408 1507.98 307.42 1507.53 307.803C1499.08 314.974 1490.08 321.104 1478.62 322.158C1465.85 323.344 1456.48 318.275 1450.55 304.818C1445.07 292.384 1441.11 279.268 1436.49 266.456C1436.12 265.457 1435.85 264.446 1435.41 263.009Z" fill="#004AF5"/>
<path d="M987.777 309.544C989.23 306.954 990.239 304.83 991.534 302.908C994.034 299.16 996.402 295.257 999.373 291.911C1003.93 286.765 1010.2 285.917 1015.94 289.778C1019.37 292.096 1022.49 295.115 1025.22 298.287C1031.09 305.106 1036.55 312.281 1042.32 319.185C1053.67 332.751 1066.79 344.324 1081.25 354.379C1083.53 355.969 1085.77 357.764 1087.62 359.844C1090.54 363.114 1089.75 366.571 1085.92 368.662C1082.58 370.485 1078.95 370.455 1075.62 369.066C1069.99 366.694 1064.29 364.257 1059.06 361.06C1039.94 349.377 1024.75 333.465 1012.01 315.03C1010.84 313.34 1009.58 311.697 1008.36 310.053C1008.26 309.912 1008 309.891 1007.32 309.615C1005.88 313.18 1004.39 316.728 1003.01 320.323C1001.97 323.044 1001.24 325.895 1000.07 328.559C996.453 336.776 988.333 340.133 980.398 335.923C975.941 333.556 971.846 330.014 968.404 326.234C958.849 315.735 951.83 303.45 945.224 290.925C943.855 288.328 942.459 285.728 941.373 283.015C939.235 277.68 940.295 272.418 943.982 268.939C947.848 265.293 953.784 264.207 958.582 267.303C962.118 269.584 965.526 272.65 967.845 276.138C972.998 283.905 977.413 292.158 982.164 300.199C983.885 303.178 985.683 306.09 987.777 309.544Z" fill="#004AF5"/>
<path d="M323.719 469.258C328.99 485.128 330.207 500.866 327.211 516.71C326.465 520.664 324.722 524.518 322.777 528.021C320.398 532.298 316.888 532.983 312.483 530.901C311.901 530.624 311.315 530.299 310.707 530.186C293.59 527.28 282.765 516.007 275.884 500.594C266.3 479.131 265.69 456.988 271.95 434.787C273.274 430.084 277.469 427.38 282.929 427.244C288.239 427.099 292.915 429.148 297.173 432.284C306.973 439.516 313.85 449.284 319.466 460.063C321.077 463.173 322.413 466.409 323.719 469.258ZM287.866 449.151C288.703 465.502 289.892 481.096 298.173 495.205C300.717 499.529 303.914 503.308 308.115 506.286C312.306 488.301 302.206 459.442 287.866 449.151Z" fill="#004AF5"/>
<path d="M296.094 697.821C296.18 701.65 296.224 705.226 296.328 708.793C296.465 713.486 295.555 717.855 293.033 721.826C289.085 728.054 283.262 730.846 276.15 730.503C272.036 730.297 269.827 732.058 268.86 735.681C267.739 739.847 266.724 744.063 266.091 748.332C265.461 752.536 264.148 754.726 261.236 754.927C258.226 755.138 255.398 752.983 254.929 749.101C253.605 738.168 256.208 728.377 264.016 720.479C266.915 717.547 270.719 716.932 274.712 716.977C281.494 717.032 282.318 716.055 281.437 709.14C280.704 703.424 279.601 697.728 279.21 691.99C278.835 686.502 280.913 681.861 286.138 679.529C288.135 678.637 290.478 678.285 292.685 678.212C295.254 678.135 296.056 677.064 296.462 674.59C297.09 670.757 298.032 666.926 299.27 663.255C301.334 657.124 305.586 653.496 312.216 653.58C315.241 653.619 316.141 652.333 316.013 649.529C315.895 647.028 315.949 644.516 316.096 642.021C316.617 633.37 321.817 627.481 330.196 625.958C334.432 625.186 335.21 624.252 333.844 620.044C331.844 613.881 331.256 607.703 332.315 601.362C333.114 596.585 336.918 594.833 340.404 598.143C350.042 607.271 354.937 620.09 347.521 633.176C344.777 638.02 340.542 640.798 335.102 641.33C331.6 641.669 330.949 643.26 330.993 646.593C331.064 651.348 330.685 656.177 329.814 660.826C328.566 667.543 324.933 670.665 318.183 671.391C316.072 671.621 315.507 672.555 315.382 674.454C315.2 677.268 315.019 680.121 314.476 682.874C312.643 692.091 307.45 696.688 298.22 697.56C297.694 697.598 297.185 697.681 296.094 697.821Z" fill="#004AF5"/>
<path d="M968.22 249.927C968.306 253.756 968.351 257.332 968.454 260.899C968.591 265.591 967.681 269.961 965.16 273.932C961.212 280.159 955.389 282.952 948.276 282.608C944.162 282.403 941.954 284.164 940.986 287.787C939.865 291.953 938.85 296.169 938.217 300.438C937.587 304.642 936.274 306.832 933.362 307.033C930.352 307.244 927.524 305.089 927.055 301.207C925.731 290.273 928.334 280.482 936.142 272.585C939.041 269.653 942.845 269.038 946.838 269.083C953.62 269.138 954.444 268.161 953.564 261.246C952.83 255.53 951.727 249.834 951.336 244.096C950.961 238.608 953.039 233.967 958.264 231.635C960.261 230.743 962.604 230.391 964.811 230.318C967.38 230.241 968.182 229.17 968.589 226.696C969.216 222.863 970.158 219.031 971.396 215.36C973.46 209.23 977.712 205.601 984.342 205.686C987.367 205.725 988.267 204.439 988.139 201.635C988.021 199.134 988.075 196.622 988.223 194.127C988.744 185.476 993.943 179.586 1002.32 178.064C1006.56 177.292 1007.34 176.358 1005.97 172.15C1003.97 165.987 1003.38 159.809 1004.44 153.468C1005.24 148.691 1009.04 146.939 1012.53 150.249C1022.17 159.377 1027.06 172.196 1019.65 185.282C1016.9 190.126 1012.67 192.904 1007.23 193.436C1003.73 193.775 1003.07 195.366 1003.12 198.699C1003.19 203.454 1002.81 208.283 1001.94 212.932C1000.69 219.649 997.059 222.771 990.31 223.497C988.198 223.727 987.634 224.661 987.508 226.56C987.326 229.374 987.145 232.226 986.602 234.98C984.769 244.197 979.576 248.793 970.346 249.666C969.82 249.704 969.311 249.787 968.22 249.927Z" fill="#004AF5"/>
<path d="M453.742 617.868C451.101 618.57 448.496 619.542 445.795 619.944C439.073 620.93 434.691 615.477 436.688 608.776C437.863 604.82 440.477 602.067 443.872 600.1C462.679 589.212 478.707 597.08 487.692 615.273C494.376 628.802 492.12 642.424 482.281 653.467C475.67 660.892 466.752 662.817 457.709 658.4C448.289 653.798 442.147 646.022 438.62 636.073C437.12 631.84 438.35 627.8 441.38 625.475C444.371 623.179 448.551 623.102 452.07 625.907C455.364 628.535 458.273 631.703 461.388 634.59C466.806 639.59 468.604 639.258 470.53 632.158C471.34 629.172 471.581 625.543 470.714 622.612C468.824 616.215 463.182 613.834 457.153 616.114C455.965 616.559 454.814 617.105 453.647 617.607C453.683 617.671 453.716 617.762 453.742 617.868Z" fill="#004AF5"/>
<path d="M386.544 528.276C391.295 541.575 391.286 554.657 383.623 567.332C382.077 569.903 380.389 572.449 378.454 574.751C375.813 577.886 372.264 577.717 368.805 576.592C359.022 573.427 351.93 567.045 346.598 558.681C342.827 552.756 341.639 546.162 341.961 539.198C342.516 527.62 346.613 516.994 352.085 506.829C355.809 499.923 364.847 499.25 369.803 505.154C370.856 506.409 372.026 507.584 373.257 508.673C380.199 514.789 383.521 519.661 386.544 528.276ZM360.513 520.686C355.266 536.323 357.723 548.894 367.63 555.175C372.059 542.432 369.121 527.81 360.513 520.686Z" fill="#004AF5"/>
<path d="M786.584 409.139C767.152 412.143 749.803 410.781 734.799 398.926C725.318 391.436 717.959 382.087 712.42 371.393C709.522 365.782 710.315 360.515 714.333 357.168C718.321 353.844 724.04 353.769 728.905 357.31C731.256 359.015 733.36 361.101 735.374 363.22C738.353 366.369 741.197 369.643 743.999 372.945C752.599 383.06 763.407 389.332 776.556 392.018C782.942 393.321 789.186 395.36 795.43 397.26C798.257 398.121 797.25 400.539 796.042 401.662C792.893 404.541 789.346 406.995 786.584 409.139Z" fill="#004AF5"/>
<path d="M1208.3 171.602C1210.99 183.871 1219.14 191.105 1230.68 194.731C1238.14 197.075 1245.82 198.771 1253.46 200.479C1255.79 201 1256.69 202.082 1255.1 203.642C1252.4 206.291 1249.52 209.277 1246.13 210.65C1229.28 217.467 1202.5 209.05 1192.47 194.138C1188.33 187.978 1185.47 181.201 1185.69 173.728C1185.8 170.045 1186.75 165.9 1188.69 162.831C1193.1 155.88 1202.4 156.987 1205.69 164.475C1206.71 166.78 1207.43 169.216 1208.3 171.602Z" fill="#004AF5"/>
<path d="M902.408 432.091C902.271 434.321 902.646 436.747 901.911 438.76C894.551 458.899 885.927 478.374 871.939 494.916C870.085 497.119 868.003 498.729 864.97 497.931C861.771 497.092 859.849 494.654 859.736 491.559C859.578 487.053 859.391 482.327 860.565 478.077C862.075 472.595 864.595 467.319 867.261 462.272C872.423 452.506 877.898 442.906 883.476 433.384C884.852 431.049 886.835 428.748 889.093 427.341C893.906 424.343 899.96 426.81 902.408 432.091Z" fill="#004AF5"/>
<path d="M432.419 197.424C430.233 197.71 427.966 198.543 425.863 198.196C404.833 194.713 384.177 189.849 365.227 179.104C362.705 177.682 360.708 175.921 360.84 172.76C360.976 169.425 362.929 167.055 365.898 166.355C370.223 165.343 374.754 164.261 379.113 164.619C384.733 165.077 390.367 166.577 395.812 168.266C406.346 171.535 416.786 175.148 427.172 178.878C429.722 179.8 432.366 181.332 434.202 183.305C438.117 187.515 437.009 193.991 432.419 197.424Z" fill="#004AF5"/>
<path d="M751.976 480.726C751.143 477.416 750.019 474.146 749.552 470.793C748.786 465.426 751.575 461.02 756.114 459.682C760.537 458.373 765.173 460.38 767.47 465.269C771.553 473.951 775.315 482.802 779.181 491.589C779.532 492.381 779.716 493.272 779.876 494.134C780.821 499.255 778.848 503.598 774.753 505.461C770.494 507.396 765.531 506.169 762.757 501.647C759.531 496.409 756.955 490.753 754.156 485.256C753.404 483.781 752.869 482.202 752.236 480.67C752.142 480.691 752.059 480.709 751.976 480.726Z" fill="#004AF5"/>
<path d="M450.727 515.373C449.664 515.358 447.679 515.577 445.793 515.284C429.936 512.79 415.946 506.095 402.927 497.316C399.304 494.869 398.418 490.939 400.422 487.79C402.426 484.642 406.408 483.709 410.31 485.892C422.761 492.858 436.009 497.867 449.944 501.284C454.192 502.324 456.434 504.909 456.411 508.291C456.413 511.564 454.674 513.738 450.727 515.373Z" fill="#004AF5"/>
<path d="M234.848 758.48C237.181 765.301 238.396 772.249 238.058 779.421C237.934 782.119 237.476 784.597 234.85 785.766C232.091 786.995 229.558 786.008 227.343 784.109C223.024 780.385 220.039 775.607 218.473 770.138C217.124 765.398 216.127 760.505 215.616 755.625C215.087 750.499 217.731 746.835 221.706 745.909C225.692 744.979 229.594 747.124 231.879 751.663C232.994 753.873 233.862 756.198 234.848 758.48Z" fill="#004AF5"/>
<path d="M549.247 591.742C548.928 589.832 548.494 588.187 548.413 586.546C548.045 579.444 553.248 575.857 559.305 578.971C559.777 579.208 560.27 579.437 560.672 579.804C567.724 586.267 572.88 594.274 576.679 603.221C577.989 606.311 577.039 609.366 574.834 611.575C572.613 613.803 569.92 614.057 566.969 612.892C566.489 612.698 565.98 612.489 565.566 612.152C558.719 606.575 553.557 599.451 549.247 591.742Z" fill="#004AF5"/>
<path d="M507.499 105.501C508.953 102.911 509.961 100.787 511.256 98.8649C513.756 95.1173 516.124 91.2137 519.095 87.8677C523.657 82.7216 529.918 81.8737 535.658 85.7354C539.094 88.0527 542.21 91.0724 544.941 94.2442C550.815 101.063 556.267 108.238 562.046 115.142C573.392 128.708 586.509 140.281 600.967 150.336C603.25 151.926 605.494 153.721 607.34 155.801C610.258 159.071 609.47 162.528 605.642 164.619C602.305 166.442 598.671 166.412 595.346 165.023C589.708 162.652 584.009 160.214 578.787 157.017C559.663 145.334 544.469 129.422 531.73 110.987C530.565 109.297 529.303 107.654 528.08 106.01C527.978 105.869 527.72 105.848 527.043 105.572C525.605 109.137 524.111 112.685 522.734 116.28C521.692 119.001 520.96 121.852 519.796 124.516C516.175 132.733 508.055 136.09 500.12 131.88C495.662 129.513 491.568 125.971 488.126 122.191C478.571 111.692 471.552 99.407 464.946 86.882C463.577 84.2851 462.181 81.685 461.095 78.9722C458.957 73.6367 460.016 68.3747 463.704 64.8958C467.57 61.2504 473.506 60.1639 478.304 63.2602C481.84 65.5412 485.248 68.6075 487.567 72.0945C492.721 79.8623 497.135 88.115 501.886 96.1562C503.607 99.1347 505.405 102.047 507.499 105.501Z" fill="#004AF5"/>
</g>
</svg>
