<svg width="949" height="468" viewBox="0 0 949 468" fill="none" xmlns="http://www.w3.org/2000/svg">
<g opacity="0.2">
<path d="M66.9348 823.477C78.9495 810.979 93.8502 802.37 107.956 792.655C116.693 786.63 124.827 779.711 133.213 773.174C134.045 772.526 134.755 771.718 135.461 771.04C135.287 770.63 135.256 770.334 135.118 770.269C110.772 759.521 95.4205 740.377 85.5595 716.273C78.0148 697.81 74.9181 678.512 75.5695 658.62C75.749 653.273 75.7203 647.913 76.3246 642.616C76.6493 639.698 77.573 636.574 79.1401 634.138C81.5075 630.477 85.4495 629.263 89.7576 630.141C94.2025 631.045 97.2133 633.878 98.3205 638.22C99.0062 640.912 99.0634 643.833 99.053 646.637C98.9615 672.618 105.3 696.749 119.596 718.616C124.893 726.731 131.661 733.505 138.908 739.85C143.158 743.575 147.302 747.429 151.861 751.553C153.983 748.403 155.944 745.338 158.067 742.405C160.064 739.647 162.852 738.263 166.282 738.859C169.702 739.458 171.819 741.72 172.888 744.977C173.198 745.9 173.552 746.909 173.457 747.839C172.996 752.585 172.946 757.449 171.742 762.005C168.929 772.656 162.673 781.387 154.252 788.179C142.262 797.842 130.137 807.412 117.458 816.123C103.238 825.905 89.8942 836.494 78.7211 849.734C78.2493 850.289 77.5844 850.697 77.0195 851.171C73.6485 841.96 70.2916 832.718 66.9348 823.477Z" fill="#FCBF23"/>
<path d="M0.216971 639.799C11.2058 634.859 26.4062 637.995 35.2707 647.416C44.9714 657.724 48.6024 670.223 46.3637 684.086C44.2488 697.239 36.3599 707.955 28.8901 718.736C25.6023 709.685 22.3187 700.645 19.031 691.594C23.3988 688.381 26.3024 684.112 28.0334 679.155C32.3049 666.897 21.9136 651.422 7.58884 656.357C7.18889 656.489 6.71498 656.418 6.2623 656.442C4.24856 650.898 2.23071 645.342 0.216971 639.799Z" fill="#FCBF23"/>
<path d="M661.181 362.137C667.902 345.642 675.223 330.138 685.483 316.103C684.719 315.569 684.257 315.132 683.705 314.869C671.308 308.729 663.392 298.58 658.435 285.838C657.966 284.618 657.642 283.307 657.526 282.011C657.278 279.167 658.229 276.8 660.779 275.385C663.399 273.919 666.137 274.031 668.375 276.011C670.055 277.498 671.48 279.4 672.647 281.357C677.42 289.34 682.675 296.801 690.794 301.793C693.451 303.427 694.953 303.448 696.722 300.579C702.48 291.229 708.649 282.141 714.377 272.776C719.882 263.775 730.133 262.124 737.821 269.486C740.174 271.745 742.233 274.382 744.127 277.053C752.38 288.689 760.493 300.426 768.72 312.097C771.567 316.134 774.583 320.044 777.499 324.03C787.55 337.792 801.384 345.586 817.28 350.134C817.79 350.283 818.327 350.332 819.218 350.485C819.356 349.225 819.493 348.069 819.592 346.913C820.743 332.827 821.196 318.634 823.192 304.679C825.486 288.685 828.908 272.834 832.325 257.037C834.164 248.506 844.039 245.575 850.918 251.583C855.39 255.493 859.374 260.223 862.706 265.178C868.162 273.26 873.005 281.784 877.951 290.207C886.356 304.528 896.559 317.347 908.896 328.412C916.235 334.987 923.574 341.562 930.975 348.063C943.938 359.455 958.488 368.314 974.417 374.522C982.367 377.619 990.801 379.717 999.194 381.211C1011.8 383.454 1024.54 384.759 1037.22 386.458C1037.86 386.547 1038.52 386.605 1039.17 386.614C1043.92 386.626 1044.73 387.425 1044.42 392.299C1044.11 397.252 1041.61 401.092 1037.04 402.498C1031.83 404.104 1026.32 405.619 1020.94 405.579C1009.7 405.491 998.393 404.835 987.208 403.531C965.832 401.013 946.744 391.859 928.865 380.181C911.649 368.931 895.683 355.928 880.664 341.769C866.756 328.649 856.952 312.532 848.203 295.697C847.347 294.038 846.44 292.412 845.533 290.785C845.457 290.645 845.169 290.621 844.691 290.421C844.488 291.499 844.226 292.521 844.119 293.551C842.157 313.98 841.354 334.426 844.259 354.903C845.927 366.639 838.475 375.858 826.836 375.362C800.118 374.205 775.758 366.503 757.815 344.887C747.05 331.912 737.438 317.964 727.312 304.448C726.595 303.486 725.919 302.496 724.941 301.127C724.122 302.183 723.467 302.962 722.872 303.796C719.24 308.822 715.891 314.066 711.96 318.827C696.061 338.078 685.641 360.215 678.273 384.024C677.561 386.316 676.883 388.634 675.934 390.832C672.133 399.677 662.784 402.803 655.013 397.093C651.009 394.159 647.569 389.951 644.911 385.666C626.09 355.359 615.187 322.344 612.038 286.835C611.349 279.08 610.884 271.282 610.868 263.502C610.819 241.37 616.576 220.862 626.193 201.05C645.302 161.702 674.523 131.268 707.06 103.478C718.83 93.4244 730.633 83.3584 741.778 72.6306C747.726 66.9052 752.64 59.9723 757.468 53.1864C762.437 46.195 764.166 38.1281 762.659 29.4477C762.319 27.4993 762.147 25.5282 762.013 23.5562C761.814 20.7071 762.531 18.2201 765.46 17.2205C768.344 16.2372 770.664 17.5696 772.169 19.9701C776.002 26.0941 778.679 32.6634 779.159 39.9795C779.764 49.4892 777.344 58.3733 772.751 66.3994C768.93 73.0641 764.751 79.7557 759.533 85.2933C748.396 97.1249 736.876 108.632 724.815 119.487C707.601 134.98 692.156 152.135 677.24 169.805C672.867 174.985 669.357 181.008 666 186.964C661.074 195.677 656.598 204.652 652.01 213.564C643.137 230.79 639.148 249.227 639.64 268.675C640.189 290.367 642.493 311.873 649.025 332.679C651.942 341.966 656.123 350.86 659.757 359.926C659.993 360.471 660.424 360.958 661.181 362.137Z" fill="#FCBF23"/>
<path d="M633.674 474.703C627.989 482.003 622.065 489.518 616.31 497.151C615.855 497.753 616.099 499.614 616.694 500.168C620.907 504.103 624.965 508.313 629.678 511.528C636.163 515.947 643.227 519.475 649.937 523.569C652.225 524.97 654.485 526.677 656.235 528.697C659.118 532.051 659.607 536.056 657.531 540.03C655.508 543.908 652.072 545.259 647.783 545.277C645.979 545.278 643.838 545.787 642.421 546.853C632.962 553.945 623.54 561.102 614.368 568.564C611.222 571.132 608.825 574.645 606.133 577.765C605.069 578.999 604.215 580.425 603.119 581.606C600.422 584.536 597.099 585.884 593.133 584.797C589.266 583.738 587.194 580.937 586.31 577.14C585.348 572.986 584.7 568.718 583.374 564.683C579.639 553.35 575.597 542.117 571.711 530.826C570.871 528.373 570.226 525.861 569.29 522.724C564.199 526.447 559.355 529.695 554.845 533.373C544.249 542.02 533.88 550.944 523.307 559.622C519.707 562.585 515.895 565.316 511.991 567.864C505.019 572.423 495.606 569.53 491.392 561.707C488.599 556.538 488.376 551.025 489.397 545.406C491.111 536.059 494.376 527.239 499.19 519.152C507.058 505.966 514.874 492.708 523.572 480.093C532.404 467.288 542.109 455.102 551.788 442.913C555.963 437.65 560.866 432.957 565.679 428.258C572.814 421.278 578.954 413.62 583.328 404.565C585.206 400.675 587.967 399.146 591.316 399.828C594.665 400.511 597.223 403.495 596.858 407.669C596.506 411.736 595.855 416.103 594.023 419.63C590.63 426.174 586.389 432.269 582.304 438.411C576.948 446.476 571.337 454.365 565.972 462.408C561.133 469.657 556.305 476.902 551.763 484.339C542.562 499.382 533.542 514.539 524.538 529.704C523.338 531.718 522.638 534.025 521.418 536.893C523.381 535.859 524.908 535.202 526.274 534.308C538.809 526.136 551.305 517.889 563.849 509.74C565.708 508.526 566.086 507.119 565.575 505.046C564.733 501.644 564.019 498.208 563.403 494.763C562.353 488.934 564.88 484.206 569.564 482.966C574.342 481.705 579.214 484.272 580.879 489.942C582.985 497.067 584.641 504.356 585.856 511.69C588.62 528.431 594.463 544.271 599.436 560.376C599.486 560.55 599.725 560.681 599.915 560.856C611.594 553.894 623.268 546.92 635.501 539.628C633.638 538.419 632.566 537.705 631.486 537.007C619.887 529.493 608.934 521.206 600.671 509.863C599.382 508.099 598.189 506.248 597.194 504.313C594.202 498.42 595.064 493.937 599.294 489C607.634 479.248 615.737 469.299 624.007 459.495C625.381 457.854 625.574 456.463 624.612 454.477C623.175 451.535 621.946 448.466 620.949 445.338C619.749 441.579 620.803 438.36 623.435 436.544C626.183 434.661 629.839 434.757 632.718 437.573C635.736 440.531 638.822 443.709 640.818 447.384C651.118 466.224 665.1 482.431 677.385 499.844C694.633 524.308 705.24 550.85 705.204 581.117C705.195 585.047 704.926 588.994 704.42 592.885C701.429 615.963 689.115 631.88 668.201 641.581C653.387 648.45 637.746 652.271 621.979 655.92C611.088 658.439 600.194 660.985 589.456 664.064C583.23 665.851 577.214 668.46 571.302 671.146C562.43 675.164 557.032 682.206 554.86 691.796C553.445 698.045 552.707 704.305 554.135 710.651C555.213 715.404 557.417 716.361 561.691 714.205C562.884 713.605 564.234 713.333 565.515 712.907C565.811 714.351 566.418 715.812 566.365 717.242C566.146 723.634 561.869 728.408 555.208 729.943C547.187 731.791 539.531 728.593 534.924 721.401C530.979 715.264 529.665 708.428 530.086 701.295C531.49 677.768 542.688 661.049 564.082 651.2C577.3 645.116 591.324 641.741 605.274 638.059C618.703 634.516 632.315 631.547 645.52 627.315C653.486 624.756 660.947 620.493 668.423 616.584C673.731 613.809 677.627 609.315 680.234 603.864C691.056 581.317 692.775 558.342 681.959 535.211C679.262 529.43 675.499 523.97 671.431 519.033C659.134 504.177 646.489 489.692 633.674 474.703Z" fill="#FCBF23"/>
<path d="M990.328 410.967C984.643 418.267 978.719 425.782 972.964 433.415C972.509 434.017 972.753 435.878 973.348 436.432C977.561 440.367 981.619 444.577 986.332 447.792C992.817 452.211 999.881 455.739 1006.59 459.833C1008.88 461.234 1011.14 462.941 1012.89 464.961C1015.77 468.315 1016.26 472.32 1014.18 476.294C1012.16 480.172 1008.73 481.523 1004.44 481.541C1002.63 481.542 1000.49 482.051 999.075 483.117C989.616 490.209 980.194 497.366 971.022 504.828C967.876 507.396 965.479 510.909 962.787 514.029C961.723 515.263 960.869 516.689 959.773 517.87C957.075 520.8 953.753 522.148 949.787 521.061C945.92 520.002 943.848 517.201 942.964 513.404C942.002 509.25 941.354 504.982 940.028 500.947C936.293 489.614 932.25 478.381 928.365 467.09C927.525 464.637 926.88 462.125 925.944 458.988C920.853 462.711 916.009 465.959 911.499 469.637C900.903 478.284 890.534 487.208 879.961 495.886C876.361 498.849 872.549 501.58 868.645 504.127C861.673 508.687 852.26 505.794 848.046 497.971C845.253 492.802 845.03 487.289 846.051 481.67C847.765 472.323 851.03 463.503 855.844 455.416C863.712 442.23 871.528 428.972 880.226 416.357C889.058 403.552 898.763 391.366 908.441 379.177C912.617 373.914 917.52 369.221 922.333 364.522C929.468 357.542 935.608 349.884 939.981 340.829C941.86 336.939 944.621 335.41 947.97 336.092C951.319 336.775 953.877 339.759 953.512 343.933C953.159 348 952.509 352.367 950.677 355.894C947.284 362.438 943.043 368.533 938.958 374.675C933.601 382.74 927.991 390.629 922.626 398.672C917.787 405.921 912.959 413.166 908.417 420.603C899.216 435.646 890.196 450.803 881.192 465.968C879.992 467.982 879.292 470.289 878.072 473.157C880.034 472.123 881.562 471.466 882.928 470.572C895.463 462.4 907.959 454.153 920.503 446.005C922.362 444.79 922.74 443.383 922.229 441.31C921.387 437.908 920.673 434.472 920.057 431.027C919.007 425.198 921.534 420.47 926.218 419.23C930.996 417.969 935.868 420.536 937.533 426.206C939.638 433.331 941.295 440.62 942.51 447.954C945.274 464.695 951.117 480.535 956.09 496.64C956.14 496.814 956.378 496.945 956.569 497.12C968.248 490.158 979.922 483.184 992.155 475.892C990.292 474.683 989.22 473.969 988.14 473.271C976.541 465.757 965.588 457.47 957.325 446.127C956.036 444.363 954.843 442.512 953.847 440.577C950.856 434.684 951.718 430.201 955.948 425.264C964.288 415.512 972.391 405.563 980.661 395.759C982.035 394.118 982.228 392.727 981.266 390.741C979.829 387.799 978.599 384.73 977.603 381.602C976.403 377.843 977.457 374.624 980.089 372.808C982.836 370.925 986.493 371.021 989.372 373.837C992.39 376.795 995.476 379.973 997.472 383.648C1007.77 402.488 1021.75 418.695 1034.04 436.108C1051.29 460.572 1061.89 487.114 1061.86 517.381C1061.85 521.311 1061.58 525.257 1061.07 529.149C1058.08 552.227 1045.77 568.144 1024.85 577.845C1010.04 584.714 994.4 588.535 978.633 592.184C967.742 594.703 956.848 597.249 946.11 600.328C939.884 602.115 933.868 604.724 927.956 607.41C919.083 611.428 913.686 618.47 911.514 628.06C910.099 634.309 909.361 640.569 910.789 646.915C911.867 651.668 914.071 652.625 918.345 650.47C919.538 649.87 920.888 649.597 922.169 649.17C922.465 650.615 923.072 652.076 923.019 653.506C922.8 659.899 918.523 664.672 911.862 666.207C903.841 668.055 896.185 664.857 891.578 657.665C887.633 651.528 886.319 644.692 886.74 637.559C888.144 614.032 899.342 597.313 920.736 587.464C933.954 581.38 947.977 578.005 961.928 574.323C975.357 570.78 988.969 567.811 1002.17 563.579C1010.14 561.02 1017.6 556.757 1025.08 552.848C1030.38 550.073 1034.28 545.579 1036.89 540.128C1047.71 517.581 1049.43 494.606 1038.61 471.475C1035.92 465.694 1032.15 460.234 1028.09 455.297C1015.79 440.441 1003.14 425.956 990.328 410.967Z" fill="#FCBF23"/>
<path d="M976.295 85.2321C967.058 85.7664 957.501 86.2625 947.968 86.9641C947.216 87.0182 945.976 88.4285 945.952 89.241C945.768 95.003 945.276 100.829 945.964 106.493C946.913 114.283 948.914 121.921 950.257 129.666C950.711 132.31 950.916 135.134 950.55 137.782C949.927 142.16 947.237 145.167 942.879 146.225C938.629 147.259 935.349 145.565 932.509 142.351C931.319 140.995 929.526 139.719 927.79 139.356C916.223 136.915 904.631 134.544 892.974 132.563C888.969 131.888 884.747 132.401 880.627 132.433C878.998 132.445 877.362 132.742 875.751 132.696C871.77 132.598 868.566 130.987 866.771 127.288C865.019 123.682 865.76 120.277 868.034 117.11C870.525 113.649 873.308 110.349 875.469 106.693C881.531 96.4154 887.317 85.9721 893.249 75.6094C894.541 73.3607 896.004 71.2205 897.747 68.4491C891.593 67.0729 885.958 65.5697 880.219 64.6015C866.732 62.3298 853.187 60.4116 839.693 58.1773C835.092 57.4218 830.525 56.355 826.037 55.0971C818.012 52.8575 813.986 43.8707 817.093 35.5462C819.141 30.0388 823.14 26.238 828.04 23.3039C836.199 18.4332 844.985 15.0767 854.24 13.3689C869.343 10.5972 884.465 7.73994 899.686 5.96885C915.137 4.17362 930.699 3.44337 946.245 2.69102C952.955 2.36335 959.716 2.95851 966.422 3.48169C976.374 4.24921 986.18 3.82128 995.873 1.14331C1000.04 -0.00717754 1003.01 1.06224 1004.7 4.03076C1006.39 6.9993 1005.83 10.8898 1002.45 13.3661C999.163 15.7809 995.45 18.1699 991.59 19.1156C984.432 20.8763 977.052 21.7028 969.741 22.677C960.144 23.9635 950.514 24.9416 940.929 26.2069C932.288 27.3441 923.656 28.487 915.07 29.9708C897.691 32.9634 880.347 36.1673 863.007 39.3875C860.701 39.8121 858.505 40.8061 855.544 41.7783C857.615 42.5735 859.116 43.2892 860.688 43.7273C875.095 47.7713 889.532 51.7356 903.928 55.8008C906.066 56.399 907.374 55.756 908.596 54.0057C910.6 51.1306 912.714 48.3293 914.9 45.5952C918.592 40.9648 923.814 39.7495 927.833 42.4558C931.929 45.2186 933.209 50.5747 930.042 55.5631C926.07 61.8425 921.679 67.8917 916.964 73.6385C906.193 86.7489 898.129 101.582 889.293 115.935C889.195 116.088 889.253 116.354 889.248 116.612C902.18 120.809 915.119 124.994 928.665 129.39C928.347 127.192 928.177 125.915 927.991 124.643C925.998 110.967 925.014 97.2673 928.101 83.5775C928.578 81.4454 929.184 79.3286 929.984 77.3048C932.444 71.1711 936.385 68.8654 942.886 68.7942C955.717 68.6405 968.54 68.1794 981.364 67.9392C983.503 67.8911 984.677 67.1194 985.536 65.087C986.802 62.0672 988.301 59.1203 989.997 56.3096C992.033 52.9293 995.149 51.6016 998.25 52.3848C1001.48 53.2101 1003.81 56.0238 1003.59 60.0447C1003.36 64.2645 1003 68.6792 1001.55 72.6028C994.168 92.7652 991.191 113.962 986.189 134.677C979.155 163.771 966.18 189.24 943.39 209.158C940.429 211.741 937.283 214.139 934.023 216.324C914.694 229.282 894.606 230.508 873.528 221.17C858.599 214.555 845.418 205.308 832.284 195.853C823.212 189.321 814.119 182.805 804.726 176.757C799.279 173.252 793.352 170.446 787.436 167.769C778.567 163.744 769.714 164.324 761.069 169.01C755.436 172.064 750.241 175.634 746.41 180.89C743.545 184.833 744.277 187.121 748.715 188.916C749.952 189.417 751.047 190.253 752.212 190.936C751.32 192.111 750.622 193.529 749.511 194.432C744.558 198.48 738.149 198.409 732.606 194.409C725.93 189.595 723.291 181.729 725.664 173.524C727.68 166.513 731.956 161.019 737.599 156.636C756.221 142.188 776.175 139.594 797.681 149.195C810.967 155.127 822.747 163.452 834.71 171.518C846.224 179.284 857.427 187.567 869.312 194.71C876.486 199.014 884.61 201.818 892.476 204.865C898.061 207.029 904.009 206.997 909.827 205.367C933.917 198.648 952.331 184.801 962.601 161.423C965.173 155.584 966.8 149.157 967.833 142.844C970.903 123.805 973.466 104.748 976.295 85.2321Z" fill="#FCBF23"/>
<path d="M329.153 776.912C347.841 784.048 367.956 785.86 385.695 795.924C386.761 794.129 387.86 792.529 388.734 790.803C393.801 780.813 398.779 770.79 403.865 760.818C404.913 758.758 404.398 757.589 402.71 756.083C395.098 749.252 387.582 742.294 380.17 735.235C378.207 733.364 376.415 731.148 375.095 728.786C372.634 724.41 372.72 719.845 375.688 715.693C378.648 711.556 382.99 709.773 387.802 710.944C391.545 711.858 395.437 713.427 398.503 715.724C406.757 721.922 414.625 728.648 422.608 735.229C425.724 737.804 428.718 740.54 432.378 743.731C438.863 733.936 445.07 724.577 451.43 714.969C449.953 713.904 448.941 713.096 447.857 712.405C440.055 707.451 432.172 702.628 424.466 697.549C421.179 695.384 417.927 693.001 415.216 690.162C410.557 685.28 410.082 678.465 413.475 673.435C416.868 668.405 423.227 666.56 429.579 669.148C432.815 670.466 436.078 672.032 438.844 674.14C449.243 682.078 459.691 689.972 469.648 698.458C477.449 705.105 478.482 715.257 473.159 723.907C466.203 735.229 459.232 746.545 452.19 757.808C443.732 771.317 435.733 773.977 420.789 768.426C420.283 768.235 419.765 768.114 418.991 767.891C418.12 769.589 417.251 771.222 416.429 772.877C410.655 784.559 402.802 794.825 395.306 805.401C389.071 814.189 381.501 814.11 372.765 812.233C363.767 810.309 354.779 808.304 345.802 806.294C337.026 804.342 328.232 802.447 319.489 800.34C304.504 796.728 301.802 783.179 304.257 772.496C305.112 768.776 306.614 765.143 308.274 761.699C320.167 737.061 331.641 712.189 344.324 687.962C353.219 670.962 363.389 654.61 373.739 638.437C391.262 611.045 406.964 582.841 416.476 551.473C417.681 547.483 419.256 543.592 420.89 539.756C421.706 537.871 422.843 536.024 424.22 534.517C427.202 531.251 431.003 530.064 435.278 531.559C439.55 533.043 441.812 536.341 442.181 540.78C442.35 542.837 442.141 544.979 441.707 546.997C438.148 563.647 433.09 579.77 424.606 594.619C414.259 612.74 404.226 631.058 393.396 648.876C379.32 672.021 368.241 696.711 356.035 720.804C347.253 738.15 339.083 755.804 330.649 773.333C330.119 774.417 329.716 775.532 329.153 776.912Z" fill="#FCBF23"/>
<path d="M228.793 596.658C230.788 591.775 232.431 586.695 234.891 582.072C237.397 577.367 240.255 572.677 243.795 568.74C250.676 561.095 259.913 562.223 264.972 571.366C273.389 586.554 279.591 602.715 284.202 619.454C285.853 625.442 287.377 631.465 288.722 637.525C289.268 639.978 289.526 642.587 289.304 645.072C288.994 648.472 286.039 650.221 283.126 648.498C280.672 647.051 278.176 644.929 276.79 642.483C268.493 627.837 260.51 612.998 252.41 598.228C251.946 597.37 251.485 596.524 250.7 595.068C249.908 596.473 249.264 597.409 248.817 598.429C245.923 605.094 243.226 611.843 240.147 618.42C238.722 621.458 236.962 624.528 234.698 626.948C229.391 632.632 221.14 632.107 216.378 625.858C214.528 623.437 213.146 620.547 212.066 617.678C208.471 608.133 205.086 598.498 201.657 588.88C200.128 584.602 198.334 583.85 194.629 586.521C182.505 595.278 173.25 606.554 167.269 620.37C157.076 643.903 159.691 666.825 172.437 688.796C179.333 700.676 191.07 702.988 202.141 695.199C207.758 691.248 212.298 686.233 215.466 680.041C217.473 676.141 217.122 674.93 213.636 672.154C213.46 672.023 213.306 671.845 213.11 671.761C210.657 670.741 208.209 669.734 205.76 668.726C204.666 671.553 202.996 674.304 202.655 677.235C202.295 680.394 201.094 682.857 198.435 683.589C196.288 684.187 193.44 683.766 191.398 682.753C189.778 681.951 188.345 679.729 187.784 677.867C185.47 670.196 184.841 662.38 187.531 654.698C190.407 646.506 197.444 641.858 205.974 642.164C220.124 642.677 237.068 657.704 238.798 671.929C239.309 676.149 238.873 680.998 237.26 684.859C231.133 699.573 221.466 711.544 207.402 719.109C188.151 729.454 166.918 724.704 153.287 707.226C135.345 684.245 124.382 643.16 148.173 605.748C158.094 590.15 171.367 578.155 187.51 569.419C192.636 566.648 198.096 565.431 203.954 566.786C204.583 566.935 205.26 566.936 205.914 566.906C212.878 566.56 216.15 568.568 218.855 575.135C221.345 581.183 223.671 587.304 226.087 593.391C226.483 594.378 226.929 595.36 227.348 596.338C227.824 596.451 228.306 596.549 228.793 596.658Z" fill="#FCBF23"/>
<path d="M490.115 469.668C483.38 470.215 476.646 471.217 469.895 471.199C458.153 471.172 446.617 468.898 435.273 465.657C399.417 455.4 366.725 438.519 337.371 414.832C327.118 406.564 317.824 397.285 311.563 385.331C310.537 383.376 309.672 381.31 308.995 379.201C305.101 367.194 309.658 356.304 321.215 352.171C326.874 350.155 333.199 349.314 339.253 349.222C351.447 349.032 363.359 351.508 374.972 355.731C378.116 356.877 381.594 356.993 384.744 358.086C419.128 369.996 451.244 386.436 480 409.521C487.844 415.815 495.144 422.736 500.357 431.559C501.928 434.214 503.335 437.046 504.287 439.978C508.545 453.023 502.971 464.101 490.014 468.729C490.067 469.048 490.093 469.364 490.115 469.668ZM484.316 444.175C482.459 441.429 480.97 438.302 478.685 436.011C471.601 428.92 464.697 421.491 456.867 415.374C431.439 395.542 402.361 383.083 372.331 373.286C362.129 369.955 350.966 369.822 340.212 368.552C337.269 368.203 334.17 368.782 331.222 369.359C326.804 370.235 326.127 371.743 328.504 375.783C330.228 378.72 332.18 381.731 334.659 383.965C341.775 390.38 348.792 397.04 356.59 402.479C383.952 421.622 413.827 435.3 445.603 444.307C453.628 446.582 461.947 447.891 470.207 449.04C474.091 449.58 478.152 448.833 482.111 448.397C484.4 448.163 485.202 446.65 484.316 444.175Z" fill="#FCBF23"/>
<path d="M1265.7 513.651C1258.97 514.198 1252.23 515.201 1245.48 515.182C1233.74 515.155 1222.2 512.881 1210.86 509.641C1175 499.384 1142.31 482.502 1112.96 458.815C1102.7 450.548 1093.41 441.269 1087.15 429.315C1086.12 427.359 1085.26 425.293 1084.58 423.185C1080.69 411.177 1085.24 400.288 1096.8 396.154C1102.46 394.138 1108.78 393.297 1114.84 393.205C1127.03 393.016 1138.94 395.491 1150.56 399.714C1153.7 400.861 1157.18 400.976 1160.33 402.069C1194.71 413.979 1226.83 430.42 1255.59 453.504C1263.43 459.798 1270.73 466.719 1275.94 475.543C1277.51 478.198 1278.92 481.029 1279.87 483.961C1284.13 497.007 1278.56 508.084 1265.6 512.712C1265.65 513.031 1265.68 513.347 1265.7 513.651ZM1259.9 488.159C1258.04 485.412 1256.55 482.286 1254.27 479.994C1247.19 472.904 1240.28 465.475 1232.45 459.358C1207.02 439.526 1177.95 427.067 1147.92 417.269C1137.71 413.939 1126.55 413.805 1115.8 412.535C1112.85 412.187 1109.76 412.766 1106.81 413.342C1102.39 414.219 1101.71 415.726 1104.09 419.766C1105.81 422.704 1107.76 425.714 1110.24 427.949C1117.36 434.364 1124.38 441.023 1132.17 446.463C1159.54 465.605 1189.41 479.284 1221.19 488.291C1229.21 490.565 1237.53 491.875 1245.79 493.023C1249.68 493.563 1253.74 492.817 1257.7 492.38C1259.99 492.147 1260.79 490.633 1259.9 488.159Z" fill="#FCBF23"/>
<path d="M1178.49 343.374C1183.82 347.646 1189.39 350.537 1195.51 352.33C1218.08 358.932 1239.23 355.484 1258.75 343.026C1274.34 333.063 1288.38 321.073 1299.88 306.38C1304.14 300.935 1307.74 294.888 1311.11 288.8C1316.37 279.264 1316.74 268.947 1314.24 258.407C1314.07 257.683 1313.74 256.989 1313.3 255.78C1312.43 256.986 1311.77 257.923 1311.09 258.841C1301.59 271.842 1292.32 285.029 1282.5 297.76C1278.49 302.958 1273.45 307.385 1268.54 311.786C1265.25 314.736 1261.39 314.63 1258.75 312.35C1256.09 310.063 1255.3 306.131 1257.32 302.377C1259.23 298.844 1261.5 295.476 1263.95 292.314C1267.56 287.688 1271.41 283.244 1275.28 278.842C1286.7 265.881 1295.96 251.419 1304.17 236.202C1304.63 235.338 1305.1 234.47 1305.66 233.662C1310.69 226.325 1321.02 226.725 1324.45 234.978C1333.23 256.077 1337.41 277.906 1326.24 299.022C1308.62 332.37 1283.29 357.804 1247.48 370.773C1229.37 377.327 1210.61 378.009 1191.79 372.599C1182.04 369.803 1173.55 364.925 1166.73 357.158C1162.07 351.853 1160.02 345.631 1159.67 338.737C1159.51 335.57 1161.32 333.413 1163.61 331.577C1167.84 328.182 1172.1 324.828 1176.26 321.366C1198.35 302.994 1216.33 281.093 1230.57 255.993C1231.97 253.524 1233.31 251.022 1234.85 248.645C1237.04 245.256 1239.88 244.004 1243.07 244.806C1246.19 245.582 1248.65 248.548 1248.96 252.359C1249.13 254.531 1249.13 256.813 1248.62 258.896C1247.81 262.172 1246.94 265.561 1245.33 268.467C1230.55 295.014 1212.51 318.797 1188.05 337.009C1185.06 339.179 1181.92 341.084 1178.49 343.374Z" fill="#FCBF23"/>
<path d="M782.384 551.789C783.141 550.425 783.801 549.317 784.384 548.171C803.408 510.672 822.447 473.179 841.405 435.638C843.715 431.065 845.329 426.108 847.771 421.617C849.325 418.757 851.44 415.875 854.016 414.019C857.395 411.585 861.465 412.065 865.046 414.473C868.616 416.885 870.4 420.438 869.934 424.692C869.678 427.015 868.832 429.423 867.687 431.46C859.514 446.008 851.018 460.363 842.987 474.99C826.812 504.453 810.86 534.042 794.865 563.62C793.784 565.621 792.922 567.776 792.265 569.972C790.176 576.93 782.62 581.827 776.396 576.566C775.997 576.232 775.424 576.012 774.909 575.953C766.503 574.921 760.146 569.956 754.688 563.95C729.12 535.866 711.462 503.69 706.606 465.424C705.568 457.203 706.209 448.697 706.892 440.41C707.437 433.832 710.674 430.659 714.993 430.504C719.55 430.34 722.643 433.456 724.275 439.97C724.733 441.787 725.102 443.637 725.383 445.493C730.348 477.651 743.133 506.268 763.879 531.241C769.089 537.505 774.61 543.513 780.014 549.616C780.646 550.346 781.428 550.931 782.384 551.789Z" fill="#FCBF23"/>
<path d="M402.673 295.192C403.43 293.828 404.09 292.719 404.673 291.574C423.696 254.074 442.735 216.582 461.693 179.041C464.004 174.467 465.618 169.511 468.059 165.019C469.613 162.159 471.729 159.277 474.305 157.421C477.684 154.988 481.753 155.467 485.335 157.875C488.905 160.287 490.689 163.84 490.223 168.094C489.967 170.418 489.121 172.826 487.976 174.862C479.803 189.411 471.307 203.766 463.276 218.392C447.101 247.855 431.148 277.444 415.154 307.023C414.072 309.024 413.211 311.178 412.554 313.375C410.465 320.332 402.909 325.229 396.685 319.969C396.285 319.634 395.712 319.414 395.198 319.355C386.791 318.324 380.434 313.358 374.977 307.353C349.408 279.269 331.751 247.092 326.895 208.826C325.857 200.606 326.498 192.1 327.181 183.812C327.726 177.234 330.962 174.062 335.282 173.906C339.839 173.742 342.932 176.859 344.564 183.372C345.022 185.19 345.39 187.04 345.672 188.895C350.637 221.053 363.422 249.67 384.168 274.644C389.377 280.908 394.899 286.916 400.303 293.018C400.935 293.748 401.716 294.333 402.673 295.192Z" fill="#FCBF23"/>
<path d="M1190.06 234.718C1193.35 244.75 1193.95 254.967 1191.39 265.098C1185.89 286.875 1174.87 304.957 1155.63 317.184C1154.53 317.875 1153.42 318.613 1152.23 319.059C1148.64 320.402 1145.19 321.654 1142.13 324.353C1139.16 326.966 1134.99 326.498 1131.67 324.53C1127.39 322 1122.79 319.458 1119.55 315.835C1106.03 300.714 1092.87 285.268 1079.8 269.752C1076.52 265.872 1073.76 261.446 1071.46 256.919C1070.35 254.737 1070.45 251.693 1070.73 249.12C1070.92 247.439 1072.19 245.698 1073.38 244.355C1085.92 230.354 1100.22 218.696 1118.2 212.612C1133.52 207.442 1149.27 207.315 1164.96 211.463C1177.3 214.724 1185.51 222.777 1190.06 234.718ZM1143.28 304.605C1146.84 300.571 1150.56 296.496 1154.13 292.306C1160.7 284.593 1166.39 276.293 1170.59 266.998C1173.99 259.451 1175.33 251.641 1173.52 243.414C1171.7 235.165 1167.03 229.694 1158.49 228.187C1146.85 226.142 1135.33 226.447 1124.3 230.866C1113.77 235.086 1104.55 241.546 1095.97 248.926C1095.83 249.039 1095.83 249.32 1095.92 249.033C1111.71 267.569 1127.34 285.895 1143.28 304.605Z" fill="#FCBF23"/>
<path d="M1435.35 263.206C1432.79 267.359 1430.79 271.115 1428.31 274.501C1422.56 282.405 1413.91 282.842 1407.55 275.186C1404.38 271.374 1401.8 266.832 1399.87 262.236C1396.76 254.845 1394.39 247.146 1391.7 239.575C1391.38 238.66 1391.04 237.764 1390.51 236.306C1389.54 237.509 1388.74 238.331 1388.14 239.271C1376.79 256.99 1352.57 251.3 1345.17 234.045C1338.29 217.995 1335.27 201.017 1334 183.727C1333.92 182.647 1334.07 181.524 1334.28 180.465C1334.97 176.967 1337.27 174.612 1340.37 174.119C1343.42 173.641 1346.72 175.07 1348.14 178.319C1349.92 182.429 1351.29 186.768 1352.48 191.091C1354.91 199.89 1356.93 208.799 1359.5 217.561C1360.57 221.195 1362.16 224.857 1364.26 227.986C1367.57 232.908 1371.43 232.833 1374.76 228.093C1377.92 223.581 1380.83 218.876 1383.83 214.252C1384.6 213.072 1385.28 211.844 1386.04 210.653C1388.45 206.916 1391.69 204.654 1396.28 205.387C1400.85 206.123 1403.48 209.307 1404.69 213.623C1406.81 221.143 1408.68 228.729 1410.72 236.274C1412.37 242.327 1414.08 248.357 1415.85 254.382C1416.38 256.237 1417.14 258.012 1417.8 259.834C1418.21 259.88 1418.6 259.93 1419.01 259.976C1421.1 255.259 1423.28 250.586 1425.25 245.81C1426.53 242.702 1427.38 239.403 1428.61 236.261C1430.16 232.307 1432.96 229.732 1437.32 229.67C1441.65 229.605 1445.01 231.942 1446.46 235.913C1449.19 243.326 1451.45 250.924 1453.74 258.498C1457.17 269.874 1460.32 281.334 1463.88 292.665C1464.94 296.081 1466.85 299.267 1468.56 302.45C1470.44 305.942 1473.54 307.486 1477.37 307.705C1483.74 308.075 1489.16 305.692 1494.05 301.97C1497.27 299.51 1500.27 296.733 1503.72 293.802C1505.22 297.925 1506.74 301.975 1508.12 306.077C1508.3 306.604 1507.92 307.617 1507.47 308C1499.02 315.17 1490.02 321.3 1478.56 322.355C1465.79 323.541 1456.43 318.472 1450.5 305.015C1445.01 292.581 1441.05 279.465 1436.44 266.652C1436.06 265.654 1435.79 264.643 1435.35 263.206Z" fill="#FCBF23"/>
<path d="M987.719 309.741C989.172 307.15 990.181 305.027 991.476 303.105C993.975 299.357 996.343 295.454 999.315 292.107C1003.88 286.961 1010.14 286.113 1015.88 289.975C1019.31 292.292 1022.43 295.312 1025.16 298.484C1031.03 305.302 1036.49 312.478 1042.27 319.381C1053.61 332.948 1066.73 344.521 1081.19 354.575C1083.47 356.166 1085.71 357.961 1087.56 360.041C1090.48 363.311 1089.69 366.768 1085.86 368.859C1082.52 370.682 1078.89 370.652 1075.57 369.262C1069.93 366.891 1064.23 364.454 1059.01 361.257C1039.88 349.574 1024.69 333.661 1011.95 315.227C1010.78 313.537 1009.52 311.894 1008.3 310.25C1008.2 310.108 1007.94 310.088 1007.26 309.811C1005.82 313.377 1004.33 316.925 1002.95 320.52C1001.91 323.241 1001.18 326.092 1000.02 328.756C996.394 336.973 988.275 340.33 980.339 336.12C975.882 333.753 971.787 330.21 968.346 326.431C958.791 315.932 951.771 303.647 945.166 291.122C943.796 288.525 942.4 285.925 941.315 283.212C939.176 277.876 940.236 272.614 943.924 269.136C947.79 265.49 953.725 264.404 958.523 267.5C962.059 269.781 965.467 272.847 967.787 276.334C972.94 284.102 977.354 292.355 982.105 300.396C983.827 303.374 985.624 306.287 987.719 309.741Z" fill="#FCBF23"/>
<path d="M323.66 469.455C328.931 485.324 330.149 501.063 327.152 516.907C326.406 520.861 324.663 524.715 322.718 528.218C320.34 532.495 316.829 533.18 312.424 531.098C311.843 530.821 311.256 530.495 310.648 530.383C293.531 527.477 282.706 516.204 275.825 500.791C266.242 479.328 265.632 457.184 271.891 434.984C273.215 430.281 277.41 427.577 282.871 427.441C288.18 427.296 292.856 429.344 297.114 432.481C306.915 439.712 313.792 449.481 319.408 460.26C321.018 463.37 322.354 466.606 323.66 469.455ZM287.808 449.347C288.644 465.699 289.834 481.293 298.114 495.402C300.659 499.726 303.856 503.505 308.056 506.483C312.247 488.498 302.147 459.639 287.808 449.347Z" fill="#FCBF23"/>
<path d="M296.035 698.018C296.122 701.847 296.166 705.423 296.27 708.99C296.406 713.682 295.497 718.052 292.975 722.023C289.027 728.25 283.204 731.043 276.091 730.699C271.977 730.494 269.769 732.255 268.802 735.878C267.68 740.043 266.665 744.26 266.033 748.529C265.402 752.733 264.09 754.922 261.177 755.124C258.168 755.335 255.34 753.18 254.871 749.298C253.546 738.364 256.15 728.573 263.957 720.676C266.856 717.744 270.66 717.129 274.653 717.174C281.435 717.229 282.26 716.252 281.379 709.337C280.645 703.621 279.542 697.925 279.151 692.187C278.776 686.699 280.854 682.058 286.079 679.726C288.076 678.834 290.419 678.481 292.626 678.409C295.195 678.332 295.998 677.261 296.404 674.787C297.032 670.954 297.973 667.122 299.212 663.451C301.275 657.32 305.527 653.692 312.157 653.777C315.182 653.816 316.083 652.53 315.955 649.726C315.837 647.225 315.89 644.713 316.038 642.218C316.559 633.567 321.758 627.677 330.138 626.155C334.374 625.383 335.151 624.449 333.786 620.241C331.785 614.078 331.197 607.9 332.256 601.559C333.055 596.782 336.86 595.03 340.345 598.34C349.984 607.467 354.879 620.287 347.463 633.373C344.719 638.217 340.484 640.995 335.044 641.527C331.541 641.866 330.89 643.457 330.934 646.79C331.005 651.545 330.626 656.374 329.756 661.023C328.507 667.74 324.874 670.862 318.125 671.588C316.013 671.818 315.449 672.752 315.323 674.651C315.141 677.465 314.96 680.317 314.417 683.071C312.584 692.288 307.391 696.884 298.161 697.757C297.635 697.795 297.126 697.878 296.035 698.018Z" fill="#FCBF23"/>
<path d="M968.162 250.124C968.248 253.953 968.292 257.529 968.396 261.096C968.532 265.788 967.623 270.158 965.101 274.129C961.153 280.356 955.33 283.149 948.218 282.805C944.103 282.6 941.895 284.36 940.928 287.984C939.806 292.149 938.791 296.366 938.159 300.634C937.528 304.839 936.216 307.028 933.303 307.23C930.294 307.441 927.466 305.285 926.997 301.404C925.672 290.47 928.276 280.679 936.083 272.782C938.982 269.849 942.786 269.235 946.78 269.28C953.561 269.334 954.386 268.357 953.505 261.443C952.771 255.727 951.668 250.031 951.278 244.293C950.903 238.805 952.98 234.164 958.205 231.832C960.202 230.94 962.546 230.587 964.752 230.514C967.321 230.438 968.124 229.366 968.53 226.892C969.158 223.06 970.099 219.228 971.338 215.557C973.401 209.426 977.654 205.798 984.283 205.883C987.308 205.921 988.209 204.636 988.081 201.832C987.963 199.331 988.016 196.819 988.164 194.324C988.685 185.673 993.885 179.783 1002.26 178.261C1006.5 177.489 1007.28 176.555 1005.91 172.347C1003.91 166.184 1003.32 160.006 1004.38 153.665C1005.18 148.888 1008.99 147.135 1012.47 150.445C1022.11 159.573 1027 172.393 1019.59 185.478C1016.84 190.323 1012.61 193.101 1007.17 193.632C1003.67 193.971 1003.02 195.563 1003.06 198.896C1003.13 203.651 1002.75 208.48 1001.88 213.129C1000.63 219.846 997 222.968 990.251 223.694C988.139 223.924 987.575 224.857 987.449 226.757C987.267 229.571 987.086 232.423 986.544 235.177C984.71 244.394 979.517 248.99 970.287 249.863C969.762 249.901 969.252 249.983 968.162 250.124Z" fill="#FCBF23"/>
<path d="M453.684 618.065C451.042 618.767 448.437 619.739 445.736 620.141C439.014 621.127 434.632 615.674 436.63 608.972C437.804 605.017 440.419 602.264 443.813 600.297C462.621 589.409 478.648 597.277 487.633 615.47C494.318 628.999 492.062 642.62 482.223 653.664C475.612 661.088 466.694 663.014 457.65 658.597C448.23 653.995 442.089 646.219 438.561 636.27C437.061 632.037 438.292 627.996 441.322 625.672C444.312 623.375 448.493 623.299 452.012 626.104C455.306 628.732 458.214 631.9 461.33 634.787C466.747 639.786 468.546 639.455 470.472 632.355C471.281 629.369 471.522 625.74 470.656 622.809C468.766 616.412 463.123 614.031 457.094 616.311C455.906 616.755 454.756 617.302 453.589 617.803C453.624 617.868 453.657 617.959 453.684 618.065Z" fill="#FCBF23"/>
<path d="M386.485 528.473C391.236 541.772 391.227 554.854 383.565 567.529C382.018 570.1 380.331 572.646 378.395 574.948C375.754 578.083 372.205 577.913 368.747 576.789C358.964 573.624 351.872 567.242 346.539 558.877C342.769 552.952 341.58 546.358 341.902 539.395C342.457 527.816 346.555 517.191 352.026 507.026C355.75 500.119 364.789 499.447 369.745 505.351C370.798 506.606 371.967 507.781 373.198 508.87C380.141 514.986 383.462 519.858 386.485 528.473ZM360.454 520.883C355.207 536.52 357.664 549.09 367.571 555.371C372 542.629 369.063 528.006 360.454 520.883Z" fill="#FCBF23"/>
<path d="M786.526 409.335C767.094 412.34 749.744 410.977 734.74 399.122C725.26 391.633 717.9 382.284 712.361 371.59C709.463 365.979 710.257 360.712 714.274 357.365C718.262 354.041 723.981 353.965 728.846 357.506C731.197 359.211 733.302 361.297 735.316 363.416C738.294 366.566 741.138 369.84 743.941 373.142C752.54 383.257 763.349 389.529 776.497 392.214C782.884 393.518 789.127 395.557 795.372 397.457C798.198 398.318 797.191 400.736 795.983 401.859C792.834 404.738 789.288 407.192 786.526 409.335Z" fill="#FCBF23"/>
<path d="M1208.24 171.799C1210.93 184.068 1219.09 191.301 1230.62 194.928C1238.08 197.272 1245.76 198.967 1253.4 200.675C1255.73 201.197 1256.63 202.279 1255.04 203.839C1252.34 206.488 1249.46 209.473 1246.07 210.847C1229.22 217.664 1202.44 209.247 1192.41 194.335C1188.28 188.175 1185.41 181.398 1185.63 173.925C1185.74 170.242 1186.69 166.097 1188.63 163.027C1193.04 156.077 1202.34 157.184 1205.63 164.672C1206.65 166.977 1207.38 169.413 1208.24 171.799Z" fill="#FCBF23"/>
<path d="M902.35 432.288C902.212 434.518 902.588 436.944 901.853 438.957C894.493 459.095 885.868 478.571 871.881 495.112C870.027 497.316 867.945 498.926 864.912 498.128C861.712 497.289 859.79 494.851 859.677 491.756C859.519 487.25 859.332 482.524 860.506 478.274C862.016 472.792 864.536 467.516 867.203 462.468C872.364 452.702 877.839 443.103 883.418 433.581C884.794 431.245 886.777 428.944 889.034 427.538C893.848 424.54 899.901 427.007 902.35 432.288Z" fill="#FCBF23"/>
<path d="M432.36 197.62C430.174 197.907 427.907 198.74 425.805 198.393C404.775 194.909 384.119 190.045 365.169 179.301C362.646 177.879 360.65 176.118 360.781 172.956C360.918 169.622 362.87 167.251 365.84 166.552C370.165 165.54 374.695 164.457 379.054 164.815C384.675 165.274 390.309 166.774 395.753 168.463C406.288 171.732 416.727 175.345 427.114 179.075C429.663 179.997 432.307 181.529 434.144 183.502C438.059 187.711 436.95 194.188 432.36 197.62Z" fill="#FCBF23"/>
<path d="M751.918 480.922C751.084 477.612 749.96 474.343 749.493 470.99C748.727 465.623 751.516 461.217 756.056 459.879C760.479 458.57 765.114 460.577 767.412 465.466C771.494 474.148 775.256 482.999 779.122 491.786C779.474 492.578 779.657 493.469 779.818 494.33C780.762 499.452 778.789 503.795 774.695 505.657C770.436 507.593 765.473 506.365 762.698 501.844C759.472 496.606 756.896 490.95 754.098 485.453C753.346 483.978 752.81 482.398 752.178 480.867C752.084 480.888 752.001 480.905 751.918 480.922Z" fill="#FCBF23"/>
<path d="M450.668 515.569C449.605 515.554 447.621 515.773 445.734 515.48C429.877 512.987 415.887 506.292 402.868 497.512C399.245 495.066 398.359 491.136 400.363 487.987C402.367 484.839 406.35 483.906 410.251 486.089C422.702 493.055 435.95 498.063 449.885 501.48C454.133 502.521 456.375 505.106 456.352 508.488C456.354 511.761 454.616 513.935 450.668 515.569Z" fill="#FCBF23"/>
<path d="M234.789 758.677C237.122 765.497 238.337 772.446 238 779.618C237.875 782.316 237.418 784.794 234.792 785.962C232.032 787.192 229.499 786.205 227.284 784.306C222.965 780.582 219.981 775.804 218.415 770.335C217.065 765.595 216.068 760.702 215.557 755.822C215.028 750.696 217.672 747.032 221.648 746.106C225.633 745.176 229.535 747.321 231.82 751.86C232.935 754.07 233.804 756.395 234.789 758.677Z" fill="#FCBF23"/>
<path d="M549.188 591.939C548.869 590.029 548.435 588.384 548.354 586.743C547.986 579.641 553.189 576.054 559.247 579.168C559.719 579.405 560.211 579.633 560.614 580C567.666 586.464 572.821 594.471 576.621 603.418C577.93 606.508 576.981 609.563 574.775 611.772C572.554 613.999 569.861 614.254 566.911 613.089C566.431 612.895 565.922 612.685 565.507 612.349C558.66 606.772 553.498 599.648 549.188 591.939Z" fill="#FCBF23"/>
<path d="M507.441 105.698C508.894 103.107 509.903 100.984 511.198 99.0617C513.697 95.314 516.065 91.4105 519.037 88.0645C523.598 82.9184 529.859 82.0704 535.599 85.9322C539.036 88.2494 542.151 91.2692 544.883 94.441C550.756 101.259 556.208 108.435 561.988 115.338C573.334 128.905 586.451 140.478 600.909 150.532C603.191 152.123 605.435 153.918 607.282 155.998C610.199 159.268 609.412 162.725 605.583 164.816C602.246 166.639 598.613 166.609 595.287 165.219C589.65 162.848 583.951 160.411 578.728 157.214C559.604 145.531 544.41 129.618 531.672 111.184C530.506 109.494 529.245 107.851 528.021 106.207C527.919 106.065 527.661 106.045 526.984 105.768C525.547 109.334 524.052 112.882 522.675 116.477C521.633 119.198 520.901 122.049 519.738 124.713C516.116 132.93 507.996 136.287 500.061 132.077C495.604 129.71 491.509 126.167 488.068 122.388C478.513 111.889 471.493 99.6037 464.888 87.0788C463.518 84.4819 462.122 81.8817 461.037 79.169C458.898 73.8335 459.958 68.5714 463.646 65.0925C467.511 61.4472 473.447 60.3607 478.245 63.457C481.781 65.738 485.189 68.8043 487.509 72.2912C492.662 80.0591 497.076 88.3118 501.827 96.353C503.548 99.3315 505.346 102.244 507.441 105.698Z" fill="#FCBF23"/>
</g>
</svg>
