<svg width="1729" height="1376" viewBox="0 0 1729 1376" fill="none" xmlns="http://www.w3.org/2000/svg">
<g opacity="0.1">
<path d="M-594.336 1106.08C-564.59 1091.47 -532.197 1085.72 -500.511 1077.47C-480.879 1072.35 -461.748 1065.23 -442.413 1058.95C-440.495 1058.33 -438.692 1057.35 -436.98 1056.59C-437.025 1055.74 -436.888 1055.19 -437.094 1054.98C-473.825 1019.78 -488.914 975.358 -490.9 925.61C-492.407 887.511 -485.376 850.815 -471.222 815.497C-467.41 806.007 -463.963 796.356 -459.42 787.233C-456.932 782.201 -453.233 777.192 -448.828 773.837C-442.184 768.804 -434.309 769.195 -427.141 773.584C-419.744 778.111 -416.183 785.165 -417.028 793.69C-417.553 798.975 -419.356 804.26 -421.205 809.293C-438.326 855.916 -442.687 903.412 -431.272 952.035C-427.049 970.073 -419.31 986.664 -410.43 1002.79C-405.225 1012.26 -400.294 1021.89 -394.793 1032.28C-388.926 1028 -383.401 1023.77 -377.671 1019.89C-372.284 1016.24 -366.371 1015.57 -360.596 1018.88C-354.843 1022.19 -352.514 1027.63 -352.72 1034.18C-352.766 1036.04 -352.788 1038.09 -353.565 1039.7C-357.491 1047.92 -360.755 1056.63 -365.892 1064.03C-377.9 1081.34 -394.838 1092.94 -414.402 1099.65C-442.253 1109.19 -470.286 1118.47 -498.753 1125.84C-530.69 1134.14 -561.577 1144.46 -590.295 1160.96C-591.505 1161.64 -592.966 1161.94 -594.29 1162.43C-594.336 1143.68 -594.336 1124.88 -594.336 1106.08Z" fill="#CCDBFD"/>
<path d="M-594.334 732.497C-571.365 730.794 -546.1 746.35 -536.32 769.062C-525.617 793.915 -527.251 818.745 -540.322 842.194C-552.706 864.446 -573.875 878.552 -594.334 893.05C-594.334 874.64 -594.334 856.254 -594.334 837.845C-584.389 834.922 -576.385 829.146 -570.039 821.368C-554.364 802.13 -562.936 767.544 -591.895 767.06C-592.701 767.037 -593.506 766.6 -594.334 766.347C-594.334 755.071 -594.334 743.772 -594.334 732.497Z" fill="#CCDBFD"/>
<path d="M774.537 664.979C797.379 639.727 820.653 616.648 848.249 598.124C847.226 596.667 846.679 595.58 845.86 594.748C827.592 575.623 819.993 552.221 819.401 526.089C819.356 523.591 819.629 521.024 820.266 518.619C821.677 513.347 824.93 509.716 830.436 508.837C836.101 507.912 840.947 509.901 843.677 514.919C845.724 518.689 847.044 523.036 847.863 527.315C851.23 544.774 855.803 561.609 867.132 575.878C870.841 580.549 873.525 581.567 878.576 577.566C895.025 564.523 912.042 552.221 928.445 539.132C944.212 526.551 963.709 530.275 972.718 548.521C975.471 554.117 977.45 560.199 979.111 566.234C986.346 592.528 993.262 618.914 1000.43 645.254C1002.91 654.365 1005.78 663.361 1008.41 672.426C1017.49 703.714 1037.26 726.747 1062.86 745.293C1063.68 745.895 1064.61 746.334 1066.11 747.19C1067.18 745.016 1068.18 743.027 1069.11 741.015C1080.37 716.456 1090.45 691.25 1103.15 667.477C1117.71 640.235 1134.2 613.988 1150.65 587.833C1159.52 573.704 1179.18 574.883 1187.62 590.169C1193.1 600.113 1197.18 611.213 1199.93 622.29C1204.46 640.374 1207.6 658.851 1210.99 677.213C1216.74 708.432 1226.71 738.125 1241.65 766.06C1250.55 782.664 1259.44 799.268 1268.5 815.779C1284.36 844.709 1304.72 870.124 1329.29 891.677C1341.55 902.43 1355.34 911.703 1369.44 919.866C1390.63 932.123 1412.67 942.783 1434.35 954.115C1435.44 954.693 1436.58 955.225 1437.74 955.664C1446.27 958.786 1447.21 960.752 1443.48 969.308C1439.68 978.003 1432.69 983.276 1423.55 982.813C1413.15 982.305 1402.25 981.426 1392.6 977.841C1372.47 970.349 1352.59 961.792 1333.34 952.149C1296.57 933.672 1268.25 904.765 1243.75 872.112C1220.15 840.662 1199.95 806.876 1182.21 771.633C1165.78 738.98 1158.68 703.622 1153.95 667.662C1153.5 664.124 1152.93 660.609 1152.36 657.094C1152.31 656.793 1151.81 656.562 1151.08 655.891C1150.01 657.695 1148.88 659.36 1148.01 661.141C1131.15 696.568 1116.37 732.783 1108.22 771.471C1103.56 793.648 1084.15 805.35 1063.56 796.863C1016.31 777.345 977.564 747.606 959.432 697.054C948.557 666.714 940.39 635.379 931.016 604.484C930.356 602.287 929.788 600.067 928.923 596.968C926.762 598.332 925.078 599.304 923.463 600.414C913.658 607.074 904.216 614.312 894.047 620.301C852.913 644.513 819.743 677.49 790.963 715.462C788.188 719.116 785.458 722.839 782.318 726.169C769.714 739.581 750.877 739.096 740.639 723.764C735.361 715.878 731.925 706.073 729.946 696.638C715.909 629.898 717.865 563.459 735.383 497.599C739.205 483.215 743.46 468.9 748.51 454.909C762.866 415.111 786.595 382.018 816.808 352.696C876.824 294.466 949.194 258.853 1025.8 230.155C1053.51 219.772 1081.28 209.388 1108.31 197.386C1122.74 190.981 1136.09 181.73 1149.2 172.688C1162.69 163.369 1171.06 150.003 1174.02 133.422C1174.68 129.699 1175.65 126.045 1176.7 122.414C1178.2 117.165 1181.11 113.164 1187.03 113.28C1192.85 113.395 1196.15 117.303 1197.29 122.599C1200.18 136.104 1200.7 149.656 1196.79 163.115C1191.67 180.597 1181.52 194.981 1168.03 206.405C1156.82 215.887 1144.94 225.183 1131.95 231.727C1104.22 245.718 1076.01 258.876 1047.25 270.508C1006.21 287.112 967.258 307.856 928.923 329.871C917.684 336.323 907.447 344.856 897.527 353.366C882.99 365.808 869.089 379.012 855.029 392.032C827.842 417.192 808.641 447.717 796.833 482.983C783.66 522.32 773.764 562.465 771.921 604.114C771.102 622.706 772.808 641.415 773.422 660.077C773.491 661.21 773.946 662.366 774.537 664.979Z" fill="#CCDBFD"/>
<path d="M651.642 849.29C636.663 858.696 621.113 868.333 605.791 878.292C604.58 879.076 603.804 882.58 604.512 883.964C609.513 893.785 614.057 903.998 620.428 912.85C629.196 925.023 639.586 935.974 648.971 947.708C652.168 951.719 655.113 956.261 656.94 961.033C659.931 968.941 658.196 976.456 651.871 982.243C645.705 987.891 638.65 988.076 630.931 985.309C627.689 984.133 623.51 983.649 620.268 984.641C598.644 991.211 577.042 997.92 555.692 1005.34C548.362 1007.9 541.763 1012.65 534.89 1016.5C532.172 1018.02 529.706 1020.03 526.966 1021.43C520.207 1024.94 513.357 1025.19 506.94 1020.65C500.683 1016.22 498.788 1009.84 499.679 1002.44C500.661 994.346 502.282 986.254 502.533 978.139C503.218 955.339 503.286 932.515 503.675 909.692C503.766 904.735 504.246 899.802 504.611 893.554C493.034 896.92 482.21 899.594 471.706 903.26C447.022 911.882 422.567 921.15 397.905 929.841C389.502 932.815 380.871 935.236 372.194 937.265C356.689 940.907 341.664 929.564 339.198 912.758C337.554 901.646 340.75 891.595 346.254 882.165C355.433 866.489 367.056 852.771 380.985 841.383C403.728 822.824 426.426 804.104 450.288 787.113C474.515 769.869 499.907 754.307 525.253 738.723C536.191 731.991 548.065 726.758 559.779 721.456C577.156 713.571 593.186 703.819 606.955 690.402C612.869 684.638 618.829 683.693 624.401 687.105C629.972 690.517 632.621 697.549 629.242 704.811C625.954 711.888 621.935 719.311 616.34 724.453C605.973 733.997 594.373 742.181 583.025 750.55C568.137 761.547 552.906 772.059 538.018 783.01C524.591 792.877 511.187 802.744 498.172 813.142C471.821 834.167 445.721 855.515 419.644 876.886C416.173 879.722 413.41 883.41 409.345 887.768C413.547 887.191 416.721 887.007 419.758 886.292C447.616 879.791 475.451 873.128 503.309 866.673C507.442 865.705 509.041 863.422 509.475 859.365C510.183 852.702 511.142 846.063 512.283 839.469C514.201 828.311 521.828 821.464 531.053 822.294C540.461 823.147 547.54 830.939 546.832 842.213C545.964 856.391 544.183 870.569 541.58 884.54C535.62 916.424 535.78 948.699 534.204 980.883C534.182 981.229 534.524 981.621 534.753 982.059C560.281 977.171 585.81 972.261 612.55 967.143C609.992 963.754 608.531 961.771 607.047 959.811C591.108 938.74 576.837 916.7 569.392 890.926C568.228 886.914 567.292 882.811 566.766 878.684C565.237 866.143 569.712 858.65 580.536 852.541C601.886 840.461 622.939 827.873 644.198 815.654C647.738 813.603 648.994 811.228 648.56 807.032C647.897 800.808 647.692 794.491 647.943 788.22C648.24 780.681 652.236 775.586 658.15 774.042C664.316 772.451 670.823 775.01 674.157 781.949C677.651 789.234 681.122 796.958 682.309 804.865C688.52 845.44 703.066 883.687 713.775 922.994C728.8 978.208 730.536 1032.82 710.715 1087.19C708.135 1094.24 705.075 1101.16 701.627 1107.82C681.19 1147.33 648.674 1167.9 604.763 1171.68C573.662 1174.35 543.064 1171.01 512.352 1167.27C491.139 1164.69 469.902 1162.16 448.598 1160.68C436.244 1159.83 423.731 1160.59 411.355 1161.56C392.79 1162.99 378.496 1172.12 368.335 1187.93C361.713 1198.24 356.301 1209 354.725 1221.34C353.561 1230.58 356.895 1233.74 365.983 1232.66C368.517 1232.36 371.12 1232.75 373.701 1232.82C373.29 1235.61 373.427 1238.63 372.399 1241.16C367.832 1252.51 357.031 1258.29 344.062 1256.7C328.443 1254.79 316.774 1244.04 313.189 1228.11C310.107 1214.51 312.207 1201.37 317.619 1188.83C335.499 1147.47 366.531 1124.74 411.4 1121.01C439.122 1118.7 466.523 1121.79 493.993 1124.28C520.435 1126.68 546.832 1130.23 573.32 1131.24C589.304 1131.84 605.494 1129.05 621.478 1126.91C632.827 1125.39 642.76 1119.85 651.003 1111.76C685.163 1078.31 703.248 1038.15 698.91 989.528C697.837 977.379 694.64 965.114 690.552 953.587C678.153 918.867 664.886 884.586 651.642 849.29Z" fill="#CCDBFD"/>
<path d="M1334.09 967.547C1319.11 976.953 1303.56 986.59 1288.24 996.549C1287.03 997.333 1286.25 1000.84 1286.96 1002.22C1291.96 1012.04 1296.51 1022.25 1302.88 1031.11C1311.65 1043.28 1322.04 1054.23 1331.42 1065.96C1334.62 1069.98 1337.56 1074.52 1339.39 1079.29C1342.38 1087.2 1340.65 1094.71 1334.32 1100.5C1328.16 1106.15 1321.1 1106.33 1313.38 1103.57C1310.14 1102.39 1305.96 1101.91 1302.72 1102.9C1281.09 1109.47 1259.49 1116.18 1238.14 1123.6C1230.81 1126.16 1224.21 1130.91 1217.34 1134.76C1214.62 1136.28 1212.16 1138.29 1209.42 1139.69C1202.66 1143.2 1195.81 1143.45 1189.39 1138.91C1183.13 1134.48 1181.24 1128.1 1182.13 1120.7C1183.11 1112.6 1184.73 1104.51 1184.98 1096.4C1185.67 1073.6 1185.74 1050.77 1186.12 1027.95C1186.22 1022.99 1186.7 1018.06 1187.06 1011.81C1175.48 1015.18 1164.66 1017.85 1154.16 1021.52C1129.47 1030.14 1105.02 1039.41 1080.36 1048.1C1071.95 1051.07 1063.32 1053.49 1054.64 1055.52C1039.14 1059.16 1024.11 1047.82 1021.65 1031.01C1020 1019.9 1023.2 1009.85 1028.7 1000.42C1037.88 984.745 1049.51 971.028 1063.43 959.639C1086.18 941.081 1108.88 922.361 1132.74 905.37C1156.96 888.126 1182.36 872.564 1207.7 856.98C1218.64 850.248 1230.51 845.015 1242.23 839.712C1259.61 831.828 1275.64 822.076 1289.41 808.658C1295.32 802.895 1301.28 801.95 1306.85 805.362C1312.42 808.774 1315.07 815.805 1311.69 823.067C1308.4 830.145 1304.38 837.568 1298.79 842.709C1288.42 852.254 1276.82 860.438 1265.47 868.806C1250.59 879.803 1235.36 890.316 1220.47 901.267C1207.04 911.134 1193.64 921.001 1180.62 931.398C1154.27 952.424 1128.17 973.771 1102.09 995.143C1098.62 997.978 1095.86 1001.67 1091.8 1006.02C1096 1005.45 1099.17 1005.26 1102.21 1004.55C1130.07 998.047 1157.9 991.385 1185.76 984.93C1189.89 983.961 1191.49 981.679 1191.92 977.622C1192.63 970.959 1193.59 964.319 1194.73 957.726C1196.65 946.568 1204.28 939.721 1213.5 940.551C1222.91 941.404 1229.99 949.196 1229.28 960.469C1228.41 974.648 1226.63 988.826 1224.03 1002.8C1218.07 1034.68 1218.23 1066.96 1216.65 1099.14C1216.63 1099.49 1216.97 1099.88 1217.2 1100.32C1242.73 1095.43 1268.26 1090.52 1295 1085.4C1292.44 1082.01 1290.98 1080.03 1289.5 1078.07C1273.56 1057 1259.29 1034.96 1251.84 1009.18C1250.68 1005.17 1249.74 1001.07 1249.22 996.941C1247.69 984.399 1252.16 976.907 1262.99 970.798C1284.34 958.717 1305.39 946.13 1326.65 933.911C1330.19 931.859 1331.44 929.485 1331.01 925.289C1330.35 919.064 1330.14 912.747 1330.39 906.477C1330.69 898.938 1334.69 893.843 1340.6 892.299C1346.77 890.708 1353.27 893.267 1356.61 900.206C1360.1 907.491 1363.57 915.214 1364.76 923.122C1370.97 963.697 1385.52 1001.94 1396.22 1041.25C1411.25 1096.47 1412.99 1151.08 1393.17 1205.44C1390.58 1212.5 1387.53 1219.41 1384.08 1226.08C1363.64 1265.59 1331.12 1286.15 1287.21 1289.93C1256.11 1292.61 1225.51 1289.27 1194.8 1285.53C1173.59 1282.95 1152.35 1280.41 1131.05 1278.94C1118.69 1278.09 1106.18 1278.85 1093.8 1279.81C1075.24 1281.24 1060.95 1290.37 1050.78 1306.19C1044.16 1316.49 1038.75 1327.26 1037.17 1339.59C1036.01 1348.84 1039.34 1352 1048.43 1350.91C1050.97 1350.61 1053.57 1351.01 1056.15 1351.07C1055.74 1353.86 1055.88 1356.88 1054.85 1359.42C1050.28 1370.76 1039.48 1376.55 1026.51 1374.96C1010.89 1373.04 999.224 1362.3 995.639 1346.37C992.556 1332.77 994.657 1319.63 1000.07 1307.09C1017.95 1265.73 1048.98 1243 1093.85 1239.26C1121.57 1236.96 1148.97 1240.05 1176.44 1242.54C1202.89 1244.93 1229.28 1248.48 1255.77 1249.5C1271.75 1250.1 1287.94 1247.31 1303.93 1245.16C1315.28 1243.64 1325.21 1238.11 1333.45 1230.02C1367.61 1196.57 1385.7 1156.41 1381.36 1107.78C1380.29 1095.64 1377.09 1083.37 1373 1071.84C1360.6 1037.12 1347.34 1002.84 1334.09 967.547Z" fill="#CCDBFD"/>
<path d="M1521.48 373.093C1504.53 368.024 1487.04 362.678 1469.45 357.717C1468.06 357.323 1464.91 359.048 1464.34 360.492C1460.25 370.725 1455.56 380.873 1453.1 391.499C1449.72 406.116 1448.33 421.147 1445.69 435.939C1444.78 440.987 1443.3 446.195 1440.92 450.714C1436.94 458.175 1430.15 461.822 1421.63 460.878C1413.31 459.962 1408.53 454.777 1405.52 447.148C1404.27 443.935 1401.88 440.473 1399 438.687C1379.8 426.752 1360.52 414.925 1340.87 403.758C1334.12 399.931 1326.19 398.097 1318.77 395.464C1315.83 394.423 1312.7 393.89 1309.84 392.755C1302.75 389.981 1298.04 384.995 1297.23 377.176C1296.44 369.553 1299.99 363.919 1306.14 359.713C1312.88 355.119 1320.03 351.006 1326.3 345.847C1343.9 331.337 1361.11 316.349 1378.54 301.601C1382.33 298.403 1386.35 295.512 1391.29 291.67C1381.13 285.18 1371.99 278.802 1362.31 273.316C1339.56 260.432 1316.47 248.144 1293.68 235.323C1285.91 230.962 1278.4 226.065 1271.16 220.875C1258.2 211.613 1256.83 192.838 1267.84 179.908C1275.12 171.348 1284.79 167.129 1295.5 165.055C1313.35 161.629 1331.32 161.332 1349.07 164.304C1378.01 169.181 1407.05 173.917 1435.56 180.668C1464.49 187.528 1492.93 196.372 1521.35 205.166C1533.62 208.957 1545.39 214.44 1557.09 219.757C1574.48 227.631 1592.37 233.262 1611.54 234.777C1619.77 235.427 1624.41 239.287 1625.51 245.726C1626.62 252.166 1623.08 258.792 1615.39 261.035C1607.9 263.226 1599.67 265.095 1592.11 264.275C1578.1 262.767 1564.3 259.435 1550.53 256.413C1532.45 252.462 1514.5 247.934 1496.45 243.952C1480.18 240.355 1463.93 236.775 1447.53 233.837C1414.35 227.872 1381.1 222.308 1347.84 216.777C1343.42 216.035 1338.82 216.388 1332.87 216.202C1336.07 218.982 1338.3 221.248 1340.84 223.061C1364.09 239.731 1387.44 256.277 1410.65 272.977C1414.11 275.448 1416.88 275.146 1420.21 272.799C1425.69 268.941 1431.32 265.287 1437.03 261.8C1446.69 255.89 1456.86 257.115 1462.32 264.6C1467.88 272.239 1466.68 282.698 1457.73 289.594C1446.5 298.285 1434.66 306.288 1422.43 313.537C1394.53 330.065 1370.35 351.454 1345.11 371.477C1344.83 371.688 1344.76 372.204 1344.59 372.664C1365.08 388.645 1385.6 404.611 1407.07 421.351C1407.94 417.194 1408.46 414.788 1408.96 412.381C1414.31 386.507 1421.48 361.248 1435.96 338.665C1438.21 335.145 1440.68 331.737 1443.44 328.622C1451.86 319.207 1460.45 317.636 1472.17 321.751C1495.33 329.849 1518.67 337.39 1541.87 345.328C1545.75 346.639 1548.36 346.018 1551.23 342.927C1555.48 338.327 1560.09 334.01 1564.97 330.067C1570.84 325.322 1577.31 324.97 1582.36 328.401C1587.62 331.99 1589.99 338.571 1586.96 345.652C1583.79 353.08 1580.27 360.78 1575.1 366.884C1548.67 398.294 1529.49 434.438 1506.98 468.396C1475.35 516.082 1435.42 553.378 1381.47 574.293C1374.46 577.001 1367.24 579.257 1359.96 581.054C1316.77 591.721 1279.88 580.815 1248.1 550.279C1225.59 528.648 1207.94 503.43 1190.51 477.868C1178.47 460.211 1166.39 442.567 1153.46 425.57C1145.96 415.716 1137.14 406.806 1128.26 398.135C1114.95 385.113 1098.66 380.377 1080.07 383.156C1067.96 384.966 1056.29 387.99 1045.98 394.933C1038.25 400.149 1038.08 404.738 1044.88 410.86C1046.78 412.569 1048.2 414.785 1049.84 416.771C1047.48 418.301 1045.29 420.394 1042.71 421.292C1031.17 425.331 1019.7 421.021 1012.35 410.217C1003.5 397.208 1003.89 381.352 1013.51 368.158C1021.71 356.876 1032.97 349.796 1045.97 345.602C1088.86 331.796 1126.41 340.158 1158.79 371.446C1178.79 390.778 1194.52 413.424 1210.75 435.726C1226.37 457.195 1241.1 479.389 1257.79 499.981C1267.87 512.399 1280.64 522.738 1292.79 533.348C1301.41 540.881 1312.12 544.706 1323.64 545.574C1371.31 549.224 1413.43 536.363 1447.14 501.059C1455.57 492.246 1462.69 481.759 1468.67 471.089C1486.61 438.883 1503.66 406.314 1521.48 373.093Z" fill="#CCDBFD"/>
<path d="M-92.7796 1193.56C-63.857 1218.58 -28.8964 1234.96 -3.59204 1264.62C-0.503845 1262.09 2.51514 1259.93 5.21149 1257.4C20.8366 1242.76 36.3235 1228 51.9717 1213.4C55.1981 1210.38 55.0367 1207.95 52.9857 1204.14C43.7673 1186.9 34.8024 1169.49 26.0911 1151.97C23.7864 1147.33 22.0119 1142.17 21.1823 1137.07C19.6152 1127.6 22.7495 1119.45 30.7924 1113.93C38.8124 1108.43 47.7773 1108.06 55.659 1113.3C61.7892 1117.39 67.7581 1122.75 71.768 1128.87C82.5535 1145.4 92.3019 1162.62 102.35 1179.66C106.268 1186.32 109.863 1193.19 114.357 1201.31C132.402 1187.94 149.663 1175.18 167.362 1162.06C165.403 1159.19 164.113 1157.07 162.615 1155.12C151.829 1141.13 140.814 1127.32 130.282 1113.16C125.788 1107.13 121.501 1100.72 118.482 1093.85C113.297 1082.04 116.892 1069.48 126.272 1062.66C135.651 1055.84 148.28 1056.67 158.006 1065.47C162.961 1069.95 167.8 1074.89 171.395 1080.48C184.9 1101.53 198.52 1122.54 210.873 1144.29C220.552 1161.32 215.782 1180.24 200.572 1192.3C180.683 1208.11 160.771 1223.89 140.767 1239.53C116.754 1258.29 100.645 1257.85 77.4144 1238.12C76.6308 1237.45 75.778 1236.89 74.5336 1235.98C71.8602 1238.47 69.233 1240.83 66.6749 1243.27C48.6761 1260.49 27.8657 1273.81 7.4931 1287.92C-9.44562 1299.64 -22.9966 1294.56 -37.4694 1285.49C-52.3801 1276.16 -67.2217 1266.69 -82.0402 1257.22C-96.536 1247.98 -111.101 1238.84 -125.436 1229.35C-150.003 1213.08 -146.016 1186.97 -134.631 1169.37C-130.667 1163.25 -125.597 1157.7 -120.365 1152.59C-82.9159 1116.09 -46.0656 1078.88 -7.46368 1043.63C19.6152 1018.89 48.5609 996.144 77.7139 973.84C127.078 936.056 173.7 895.627 211.265 845.473C216.035 839.09 221.405 833.126 226.844 827.3C229.54 824.446 232.79 821.869 236.246 820.059C243.736 816.137 251.342 816.485 258.048 821.962C264.754 827.416 266.667 834.82 264.432 843.036C263.395 846.842 261.62 850.555 259.523 853.898C242.262 881.493 222.649 907.162 197.714 928.305C167.293 954.113 137.311 980.478 106.222 1005.43C65.8222 1037.83 29.8015 1074.96 -7.85547 1110.28C-34.9575 1135.72 -61.1606 1162.11 -87.7556 1188.1C-89.4149 1189.7 -90.8668 1191.45 -92.7796 1193.56Z" fill="#CCDBFD"/>
<path d="M-155.462 804.166C-148.69 796.694 -142.423 788.638 -134.986 781.937C-127.41 775.119 -119.215 768.557 -110.286 763.794C-92.9315 754.547 -77.0693 762.603 -73.9473 782.334C-68.7365 815.117 -68.1396 848.204 -70.7795 881.291C-71.7206 893.129 -72.9143 904.944 -74.4523 916.713C-75.0721 921.476 -76.3118 926.333 -78.3318 930.653C-81.1094 936.56 -87.5599 937.775 -91.6689 932.778C-95.1352 928.575 -98.2342 923.134 -99.1294 917.834C-104.478 886.101 -109.138 854.228 -114.05 822.402C-114.326 820.558 -114.601 818.736 -115.06 815.607C-117.402 817.615 -119.169 818.877 -120.639 820.418C-130.188 830.505 -139.439 840.872 -149.264 850.679C-153.809 855.209 -158.974 859.576 -164.621 862.448C-177.866 869.196 -192.351 862.868 -196.828 848.531C-198.572 842.974 -199.169 836.879 -199.238 831.018C-199.467 811.521 -199.261 792.001 -199.146 772.48C-199.1 763.794 -201.832 761.272 -210.234 763.654C-237.734 771.476 -261.723 785.696 -281.487 806.618C-315.163 842.25 -325.424 885.144 -316.861 932.941C-312.224 958.789 -292.643 970.605 -267.668 963.833C-254.997 960.401 -243.565 954.353 -233.832 945.293C-227.68 939.596 -227.519 937.191 -231.972 929.929C-232.202 929.579 -232.363 929.158 -232.661 928.878C-236.403 925.446 -240.144 922.037 -243.886 918.628C-247.697 922.994 -252.494 926.847 -255.02 931.89C-257.728 937.331 -261.493 940.973 -266.75 940.553C-270.996 940.226 -275.84 937.611 -278.847 934.459C-281.235 931.96 -282.359 927.033 -282.153 923.321C-281.303 908.027 -277.332 893.573 -267.484 881.524C-256.971 868.682 -241.292 864.923 -226.165 871.04C-201.074 881.198 -180.437 919.258 -186.612 945.947C-188.449 953.863 -192.397 962.292 -197.815 968.176C-218.429 990.615 -243.611 1005.82 -273.82 1010.23C-315.163 1016.25 -350.216 993.861 -363.3 953.559C-380.54 900.555 -373.424 819.577 -306.256 767.88C-278.25 746.328 -246.572 733.439 -211.863 728.279C-200.845 726.644 -190.239 728.022 -180.598 734.28C-179.565 734.957 -178.349 735.4 -177.155 735.774C-164.415 739.697 -159.846 745.441 -159.273 759.007C-158.745 771.499 -158.561 784.015 -158.194 796.53C-158.125 798.562 -157.964 800.617 -157.849 802.648C-157.069 803.162 -156.265 803.652 -155.462 804.166Z" fill="#CCDBFD"/>
<path d="M396.975 746.544C384.517 743.132 371.763 740.538 359.645 736.098C338.563 728.386 319.318 716.771 301.05 703.543C243.318 661.711 195.594 610.04 158.308 548.32C145.282 526.773 134.639 504.034 131.19 478.467C130.622 474.284 130.418 470.007 130.577 465.777C131.417 441.66 146.712 425.067 170.177 425.184C181.66 425.254 193.574 427.871 204.512 431.657C226.548 439.276 246.336 451.498 264.446 466.666C269.348 470.779 275.52 473.256 280.467 477.276C334.478 521.118 381.453 571.62 418.058 631.868C428.043 648.297 436.644 665.497 440.252 684.754C441.341 690.55 442.022 696.556 441.818 702.445C440.955 728.666 423.708 744.931 397.407 744.791C397.293 745.399 397.134 745.983 396.975 746.544ZM403.194 696.953C401.65 690.807 401.015 684.216 398.405 678.608C390.304 661.244 382.747 643.389 372.671 627.287C339.924 575.055 295.808 533.691 248.243 496.486C232.085 483.842 212.115 476.317 193.619 467.016C188.559 464.469 182.613 463.487 176.94 462.599C168.43 461.29 166.228 463.557 167.862 472.368C169.042 478.771 170.586 485.455 173.581 491.087C182.182 507.259 190.442 523.805 200.904 538.668C237.577 590.924 282.328 634.999 333.547 671.924C346.483 681.248 360.575 689.031 374.668 696.486C381.294 699.991 389.078 701.3 396.476 703.099C400.743 704.174 403.171 701.978 403.194 696.953Z" fill="#CCDBFD"/>
<path d="M1761.87 1331.78C1749.41 1328.37 1736.66 1325.78 1724.54 1321.34C1703.46 1313.62 1684.22 1302.01 1665.95 1288.78C1608.21 1246.95 1560.49 1195.28 1523.21 1133.56C1510.18 1112.01 1499.54 1089.27 1496.09 1063.71C1495.52 1059.52 1495.31 1055.25 1495.47 1051.02C1496.31 1026.9 1511.61 1010.31 1535.07 1010.42C1546.56 1010.49 1558.47 1013.11 1569.41 1016.9C1591.44 1024.51 1611.23 1036.74 1629.34 1051.9C1634.24 1056.02 1640.42 1058.49 1645.36 1062.51C1699.37 1106.36 1746.35 1156.86 1782.95 1217.11C1792.94 1233.54 1801.54 1250.74 1805.15 1269.99C1806.24 1275.79 1806.92 1281.79 1806.71 1287.68C1805.85 1313.9 1788.6 1330.17 1762.3 1330.03C1762.19 1330.64 1762.03 1331.22 1761.87 1331.78ZM1768.09 1282.19C1766.55 1276.05 1765.91 1269.45 1763.3 1263.85C1755.2 1246.48 1747.64 1228.63 1737.57 1212.53C1704.82 1160.29 1660.7 1118.93 1613.14 1081.72C1596.98 1069.08 1577.01 1061.56 1558.52 1052.25C1553.46 1049.71 1547.51 1048.73 1541.84 1047.84C1533.33 1046.53 1531.12 1048.8 1532.76 1057.61C1533.94 1064.01 1535.48 1070.69 1538.48 1076.33C1547.08 1092.5 1555.34 1109.04 1565.8 1123.91C1602.47 1176.16 1647.22 1220.24 1698.44 1257.16C1711.38 1266.49 1725.47 1274.27 1739.56 1281.72C1746.19 1285.23 1753.97 1286.54 1761.37 1288.34C1765.64 1289.41 1768.07 1287.22 1768.09 1282.19Z" fill="#CCDBFD"/>
<path d="M1716.3 968.901C1723.09 980.055 1731.22 988.889 1741.04 996.101C1777.3 1022.7 1817.54 1030.3 1860.74 1020.66C1895.27 1012.94 1928.32 1000.55 1958.56 981.655C1969.77 974.652 1980.2 966.141 1990.22 957.399C2005.89 943.694 2013.29 925.398 2015.68 904.83C2015.84 903.415 2015.71 901.954 2015.71 899.496C2013.36 901.096 2011.56 902.349 2009.74 903.554C1984.19 920.714 1958.93 938.361 1932.96 954.825C1922.37 961.55 1910.42 966.211 1898.73 970.918C1890.9 974.072 1884.02 971.359 1880.76 965.538C1877.48 959.695 1878.62 952.112 1884.7 946.686C1890.44 941.584 1896.73 937.016 1903.2 932.935C1912.69 926.975 1922.51 921.503 1932.35 916.123C1961.32 900.285 1987.4 880.342 2012.09 858.359C2013.47 857.107 2014.89 855.855 2016.41 854.765C2030.24 844.864 2048.55 852.33 2049.32 869.397C2051.33 913.039 2044.59 954.987 2010.74 985.643C1957.31 1034.06 1895.2 1063.23 1822.39 1063.16C1785.56 1063.12 1751.42 1052.1 1721.13 1030.1C1705.44 1018.71 1693.37 1004.4 1686.17 985.991C1681.28 973.423 1681.64 960.901 1685.51 948.286C1687.29 942.489 1691.96 939.799 1697.26 937.99C1707.08 934.651 1716.92 931.404 1726.67 927.903C1778.34 909.305 1824.94 881.687 1866.92 845.884C1871.04 842.359 1875.09 838.742 1879.4 835.472C1885.55 830.811 1891.47 830.417 1896.68 833.942C1901.78 837.374 1904.27 844.307 1902.33 851.357C1901.22 855.368 1899.74 859.472 1897.46 862.881C1893.86 868.238 1890.08 873.757 1885.3 877.931C1841.41 915.984 1793.47 946.941 1737.65 963.706C1730.86 965.654 1723.96 967.022 1716.3 968.901Z" fill="#CCDBFD"/>
<path d="M868.539 1084.86C870.789 1082.9 872.698 1081.34 874.493 1079.67C933.151 1024.7 991.831 969.759 1050.4 914.678C1057.53 907.967 1063.67 900.115 1070.99 893.638C1075.65 889.514 1081.33 885.716 1087.17 884.061C1094.83 881.894 1101.83 885.413 1106.69 892.077C1111.53 898.74 1112.42 906.29 1108.81 913.629C1106.83 917.637 1103.74 921.411 1100.35 924.324C1076.17 945.131 1051.53 965.379 1027.56 986.419C979.263 1028.8 931.287 1071.56 883.243 1114.27C879.993 1117.16 877.039 1120.46 874.425 1123.98C866.13 1135.12 849.358 1138.99 841.608 1125.47C841.108 1124.61 840.221 1123.84 839.335 1123.4C824.904 1116.06 816.722 1102.99 810.836 1088.64C783.223 1021.49 772.496 952.144 788.745 880.217C792.245 864.769 798.95 849.904 805.586 835.458C810.858 823.994 818.745 820.406 826.608 822.945C834.903 825.625 838.426 833.244 837.108 846.012C836.744 849.577 836.199 853.142 835.494 856.661C823.426 917.683 827.722 977.448 848.698 1035.86C853.971 1050.52 859.971 1064.92 865.698 1079.41C866.357 1081.13 867.38 1082.69 868.539 1084.86Z" fill="#CCDBFD"/>
<path d="M353.733 375.967C355.983 374.01 357.892 372.449 359.688 370.771C418.345 315.806 477.026 260.865 535.592 205.783C542.729 199.073 548.865 191.221 556.183 184.743C560.842 180.619 566.523 176.821 572.364 175.167C580.023 173 587.023 176.518 591.886 183.182C596.727 189.846 597.613 197.395 594 204.735C592.023 208.742 588.932 212.517 585.546 215.43C561.364 236.236 536.729 256.484 512.752 277.524C464.458 319.907 416.482 362.663 368.438 405.372C365.188 408.261 362.233 411.569 359.62 415.088C351.324 426.225 334.552 430.093 326.802 416.579C326.302 415.717 325.416 414.948 324.53 414.505C310.098 407.166 301.917 394.094 296.03 379.741C268.417 312.591 257.691 243.25 273.94 171.322C277.44 155.874 284.144 141.009 290.781 126.563C296.053 115.099 303.939 111.511 311.803 114.051C320.098 116.73 323.621 124.349 322.303 137.118C321.939 140.683 321.393 144.248 320.689 147.766C308.621 208.789 312.916 268.554 333.893 326.967C339.166 341.623 345.166 356.022 350.893 370.515C351.552 372.239 352.574 373.8 353.733 375.967Z" fill="#CCDBFD"/>
<path d="M1808.01 781.216C1807.38 801.388 1801.78 820.135 1790.58 836.673C1766.47 872.21 1734.88 897.512 1692.32 906.92C1689.9 907.449 1687.42 908.047 1684.99 908.07C1677.66 908.139 1670.65 908.139 1663.39 910.991C1656.35 913.751 1649.16 910.186 1644.47 904.482C1638.44 897.144 1631.84 889.577 1628.38 880.951C1613.95 844.953 1600.38 808.611 1587.02 772.199C1583.67 763.091 1581.6 753.338 1580.42 743.7C1579.85 739.054 1582.01 733.649 1584.2 729.209C1585.63 726.311 1589.05 724.011 1592.07 722.378C1623.73 705.403 1657.03 693.787 1693.32 694.592C1724.23 695.305 1752.61 705.357 1778.08 723.045C1798.14 736.961 1807.63 756.788 1808.01 781.216ZM1678.34 876.259C1687.38 871.336 1696.71 866.437 1705.86 861.239C1722.7 851.67 1738.34 840.468 1751.95 826.506C1762.99 815.166 1770.5 802.01 1772.62 786.046C1774.74 770.037 1769.91 757.156 1755.55 748.876C1735.97 737.605 1715.08 730.635 1692.36 731.372C1670.69 732.085 1649.91 737.674 1629.68 745.334C1629.36 745.449 1629.17 745.955 1629.52 745.495C1645.79 789.106 1661.91 832.234 1678.34 876.259Z" fill="#CCDBFD"/>
<path d="M2230.16 992.498C2222.85 998.289 2216.81 1003.73 2210.15 1008.2C2194.65 1018.65 2178.82 1013.79 2172.39 995.88C2169.19 986.962 2167.52 977.117 2167.04 967.597C2166.28 952.286 2167.04 936.905 2167.16 921.548C2167.18 919.695 2167.16 917.865 2167.16 914.9C2164.63 916.429 2162.64 917.378 2160.95 918.675C2129.01 943.113 2089.19 917.077 2087.16 881.243C2085.27 847.911 2090.93 815.435 2099.93 783.539C2100.49 781.547 2101.49 779.624 2102.57 777.864C2106.09 772.027 2111.75 769.294 2117.64 770.429C2123.44 771.564 2128.44 776.289 2128.87 783.053C2129.39 791.6 2129.01 800.286 2128.33 808.834C2126.96 826.23 2124.77 843.556 2123.66 860.975C2123.21 868.202 2123.69 875.823 2125.42 882.818C2128.15 893.821 2135.14 896.207 2144.21 889.86C2152.83 883.814 2161.13 877.259 2169.55 870.912C2171.69 869.291 2173.72 867.53 2175.86 865.886C2182.63 860.743 2189.94 858.798 2197.7 863.106C2205.44 867.414 2208.08 874.85 2207.45 883.397C2206.34 898.291 2204.74 913.139 2203.5 928.034C2202.51 939.986 2201.65 951.938 2200.88 963.914C2200.63 967.597 2200.84 971.28 2200.84 974.986C2201.53 975.334 2202.21 975.681 2202.91 976.029C2209.75 968.917 2216.72 961.945 2223.37 954.648C2227.7 949.9 2231.38 944.526 2235.64 939.685C2241.01 933.593 2247.71 930.79 2255.59 933.523C2263.41 936.233 2267.93 942.627 2267.95 950.711C2268.02 965.813 2267.11 980.939 2266.28 996.042C2265.02 1018.72 2263.21 1041.37 2262.2 1064.05C2261.88 1070.88 2263.23 1077.86 2264.23 1084.69C2265.33 1092.19 2269.89 1096.99 2276.63 1099.88C2287.82 1104.7 2299.12 1103.96 2310.34 1100.46C2317.74 1098.15 2324.93 1095.11 2333.05 1092.1C2333.05 1100.49 2333.14 1108.76 2332.94 1117.03C2332.92 1118.09 2331.59 1119.67 2330.53 1120.06C2310.65 1127.43 2290.48 1132.57 2269.21 1126.99C2245.48 1120.78 2231.97 1105.56 2230.09 1077.51C2228.36 1051.59 2229.8 1025.44 2229.87 999.4C2229.85 997.362 2230.03 995.37 2230.16 992.498Z" fill="#CCDBFD"/>
<path d="M1395.47 783.956C1399.77 780.25 1402.97 777.092 1406.55 774.484C1413.49 769.381 1420.29 763.913 1427.82 759.84C1439.37 753.57 1451.18 756.133 1458.97 766.818C1463.63 773.225 1467.26 780.684 1470.1 788.166C1476.2 804.252 1481.31 820.703 1487.19 836.88C1498.72 868.662 1514.74 898.018 1534.16 925.521C1537.22 929.868 1540.08 934.559 1542.04 939.501C1545.15 947.281 1541.48 952.978 1533.23 954.237C1526.05 955.335 1519.54 952.91 1514.47 948.242C1505.89 940.302 1497.24 932.202 1489.94 923.05C1463.2 889.575 1446.29 851.066 1435.43 809.629C1434.44 805.831 1433.25 802.055 1432.12 798.303C1432.03 797.982 1431.58 797.776 1430.54 796.838C1425.63 802.307 1420.63 807.707 1415.81 813.267C1412.16 817.477 1408.99 822.122 1405.16 826.149C1393.29 838.55 1376.51 839.283 1365 826.538C1358.53 819.376 1353.48 810.338 1349.77 801.3C1339.45 776.2 1334.86 749.543 1331.16 722.727C1330.4 717.167 1329.59 711.584 1329.41 706.001C1329.05 695.018 1334.38 686.254 1343.28 682.41C1352.61 678.383 1363.98 680.305 1370.58 689C1375.45 695.407 1379.57 703.141 1381.46 710.92C1385.65 728.241 1388.2 745.951 1391.48 763.501C1392.63 769.976 1393.96 776.383 1395.47 783.956Z" fill="#CCDBFD"/>
<path d="M98.021 637.52C97.1351 669.476 89.0507 698.549 73.325 725.063C69.4047 731.68 63.7567 737.467 57.9758 742.494C50.9103 748.627 44.1548 747.566 37.5988 740.949C36.735 740.073 35.8933 739.104 34.8745 738.505C6.01447 722.112 -6.0788 694.791 -8.38232 662.605C-11.5939 617.784 1.7619 577.598 27.4989 541.792C32.9475 534.207 42.2501 532.086 52.1506 535.406C61.7855 538.61 68.8509 545.343 74.4545 553.758C87.3452 573.148 93.3254 595.19 96.382 618.222C97.2458 624.863 97.5338 631.549 98.021 637.52ZM46.7241 577.99C37.5545 607.916 29.5145 636.713 35.1846 667.47C36.9344 676.9 40.2124 685.776 45.816 693.869C65.0856 664.288 65.7722 605.841 46.7241 577.99Z" fill="#CCDBFD"/>
<path d="M-100.794 1030.18C-103.138 1037.12 -105.393 1043.57 -107.534 1050.05C-110.352 1058.57 -114.838 1065.83 -121.961 1071.32C-133.119 1079.93 -145.405 1081.15 -157.961 1075.89C-165.219 1072.83 -170.337 1074.56 -174.439 1080.44C-179.173 1087.19 -183.749 1094.1 -187.671 1101.36C-191.549 1108.5 -195.336 1111.58 -200.701 1110.04C-206.246 1108.46 -209.921 1102.74 -208.23 1095.46C-203.474 1074.95 -192.405 1059.05 -173.222 1049.96C-166.099 1046.58 -158.863 1047.96 -151.717 1050.65C-139.566 1055.17 -137.447 1053.95 -134.517 1040.95C-132.105 1030.21 -130.369 1019.25 -127.326 1008.68C-124.418 998.578 -117.655 991.596 -106.745 990.815C-102.575 990.517 -98.1339 991.412 -94.1214 992.722C-89.4552 994.26 -87.3137 992.859 -84.9693 988.679C-81.34 982.202 -77.1472 975.932 -72.526 970.144C-64.8166 960.475 -54.8079 956.731 -42.9507 961.21C-37.5405 963.254 -35.0834 961.531 -33.483 956.41C-32.0628 951.839 -30.327 947.36 -28.4335 942.973C-21.8512 927.769 -8.664 920.58 7.38605 923.313C15.5012 924.691 17.5074 923.52 17.8005 915.068C18.2288 902.688 21.2044 891.204 27.2457 880.501C31.7992 872.439 39.7792 871.773 43.8818 879.996C55.2431 902.688 55.6714 928.917 33.8055 947.59C25.7128 954.503 16.2902 956.731 6.1687 954.136C-0.345947 952.459 -2.55505 954.894 -4.65149 960.911C-7.62708 969.501 -11.4592 977.93 -16.0579 985.716C-22.6852 996.971 -31.2513 1000.21 -43.8524 997.108C-47.7972 996.144 -49.4203 997.453 -50.8855 1000.78C-53.0496 1005.72 -55.2361 1010.73 -58.0089 1015.32C-67.3188 1030.69 -79.6494 1035.56 -96.8039 1031.1C-97.7733 1030.83 -98.7426 1030.64 -100.794 1030.18Z" fill="#CCDBFD"/>
<path d="M1399.24 664.069C1396.9 671.005 1394.64 677.459 1392.5 683.936C1389.68 692.457 1385.2 699.715 1378.07 705.204C1366.92 713.817 1354.63 715.035 1342.07 709.775C1334.82 706.72 1329.7 708.443 1325.6 714.323C1320.86 721.075 1316.29 727.988 1312.36 735.246C1308.49 742.389 1304.7 745.467 1299.33 743.928C1293.79 742.343 1290.11 736.624 1291.81 729.344C1296.56 708.833 1307.63 692.94 1326.81 683.844C1333.94 680.468 1341.17 681.846 1348.32 684.533C1360.47 689.058 1362.59 687.841 1365.52 674.841C1367.93 664.092 1369.67 653.136 1372.71 642.571C1375.62 632.465 1382.38 625.483 1393.29 624.702C1397.46 624.404 1401.9 625.299 1405.91 626.609C1410.58 628.147 1412.72 626.746 1415.07 622.566C1418.7 616.089 1422.89 609.819 1427.51 604.031C1435.22 594.362 1445.23 590.618 1457.08 595.097C1462.49 597.141 1464.95 595.418 1466.55 590.297C1467.97 585.726 1469.71 581.247 1471.6 576.86C1478.18 561.656 1491.37 554.467 1507.42 557.2C1515.54 558.578 1517.54 557.407 1517.84 548.954C1518.26 536.575 1521.24 525.091 1527.28 514.388C1531.83 506.326 1539.81 505.66 1543.92 513.883C1555.28 536.575 1555.71 562.804 1533.84 581.477C1525.75 588.39 1516.33 590.618 1506.2 588.023C1499.69 586.346 1497.48 588.781 1495.38 594.798C1492.41 603.388 1488.58 611.817 1483.98 619.603C1477.35 630.858 1468.78 634.096 1456.18 630.995C1452.24 630.031 1450.61 631.34 1449.15 634.67C1446.99 639.608 1444.8 644.615 1442.03 649.209C1432.72 664.574 1420.39 669.444 1403.23 664.988C1402.26 664.712 1401.29 664.528 1399.24 664.069Z" fill="#CCDBFD"/>
<path d="M234.659 989.413C229.454 988.95 224.139 988.996 219.024 987.955C206.302 985.34 201.987 972.681 209.949 961.944C214.642 955.603 221.136 952.363 228.52 951.044C269.42 943.754 293.084 968.354 297.354 1006.91C300.535 1035.58 287.591 1058.58 262.704 1072.01C245.979 1081.03 228.698 1078.67 215.332 1064.83C201.409 1050.41 195.449 1032.43 195.604 1012.25C195.671 1003.67 200.52 997.212 207.481 995.013C214.353 992.838 221.915 995.43 226.407 1002.77C230.611 1009.64 233.769 1017.23 237.483 1024.45C243.955 1036.97 247.402 1037.55 255.498 1026.05C258.901 1021.21 261.703 1014.85 262.059 1009.01C262.837 996.286 254.252 988.325 241.931 988.487C239.507 988.51 237.083 988.742 234.659 988.881C234.681 989.019 234.681 989.205 234.659 989.413Z" fill="#CCDBFD"/>
<path d="M172.388 784.571C172.245 811.567 163.691 835.068 141.649 852.843C137.193 856.453 132.499 859.925 127.519 862.799C120.728 866.708 114.461 864.087 108.98 859.81C93.4677 847.738 84.8892 831.642 80.7668 813.131C77.8597 800.024 80.0283 787.4 85.1514 775.098C93.7059 754.655 108.003 738.237 124.469 723.544C135.668 713.564 152.348 718.255 157.4 732.097C158.472 735.041 159.807 737.915 161.308 740.675C169.791 756.196 172.579 767.118 172.388 784.571ZM130.569 753.942C110.934 778.616 107.145 802.806 120.847 820.558C137.122 800.553 141.387 772.361 130.569 753.942Z" fill="#CCDBFD"/>
<path d="M968.957 831.597C932.079 824.313 901.794 810.541 882.572 779.446C870.425 759.802 863.303 738.2 860.33 715.368C858.786 703.395 863.649 694.449 873.052 691.057C882.387 687.688 892.713 691.285 899.143 700.823C902.255 705.421 904.675 710.542 906.911 715.664C910.206 723.267 913.18 731.006 916.061 738.769C924.911 762.556 940.238 780.881 962.111 794.288C972.737 800.798 982.624 808.538 992.604 816.027C997.122 819.419 993.734 823.106 990.829 824.336C983.293 827.454 975.318 829.548 968.957 831.597Z" fill="#CCDBFD"/>
<path d="M1881.75 680.027C1878.57 703.827 1888.5 722.146 1906.87 736.194C1918.74 745.273 1931.43 753.33 1944.04 761.387C1947.9 763.848 1948.81 766.379 1944.93 768.143C1938.34 771.139 1931.22 774.622 1924.23 774.877C1889.51 776.131 1846.89 743.531 1838.59 710.189C1835.18 696.42 1834.46 682.372 1839.74 669.091C1842.33 662.543 1846.75 655.716 1852.24 651.467C1864.69 641.854 1880.68 649.912 1881.7 665.515C1882.03 670.321 1881.75 675.174 1881.75 680.027Z" fill="#CCDBFD"/>
<path d="M1162.09 948.435C1160.39 952.352 1159.48 956.956 1156.85 960.094C1130.48 991.476 1102.27 1020.84 1066.34 1041.43C1061.57 1044.18 1056.78 1045.72 1051.85 1042.3C1046.65 1038.71 1044.79 1033.07 1046.6 1027.44C1049.26 1019.24 1052.01 1010.63 1056.89 1003.75C1063.18 994.889 1071.16 987.055 1079.24 979.725C1094.89 965.546 1110.99 951.871 1127.23 938.402C1131.23 935.103 1136.29 932.263 1141.27 931.209C1151.87 928.964 1161.14 937.348 1162.09 948.435Z" fill="#CCDBFD"/>
<path d="M470.758 220.023C466.644 219.11 462.026 219.128 458.475 217.132C422.961 197.147 389.02 174.925 361.983 143.251C358.379 139.05 355.94 134.582 358.24 128.987C360.662 123.084 365.717 120.1 371.509 120.781C379.941 121.785 388.789 122.797 396.387 126.286C406.187 130.778 415.331 137.151 424.013 143.738C440.807 156.489 457.207 169.793 473.436 183.275C477.415 186.596 481.166 191.074 483.178 195.819C487.466 205.937 481.247 216.85 470.758 220.023Z" fill="#CCDBFD"/>
<path d="M860.048 937.64C860.711 931.148 860.825 924.54 862.174 918.211C864.301 908.066 872.188 901.97 881.218 902.528C890.02 903.063 897.039 909.695 897.976 919.979C899.645 938.245 900.628 956.604 901.84 974.916C901.954 976.568 901.703 978.29 901.429 979.942C899.782 989.761 893.404 996.276 884.831 996.951C875.914 997.649 867.798 992.204 865.764 982.268C863.386 970.751 862.449 958.907 861.008 947.203C860.62 944.062 860.688 940.874 860.551 937.71C860.368 937.687 860.208 937.663 860.048 937.64Z" fill="#CCDBFD"/>
<path d="M296.137 803.276C294.237 802.555 290.528 801.654 287.329 799.896C260.465 785.067 239.696 763.905 222.034 739.633C217.12 732.872 218.093 725.232 223.749 720.882C229.405 716.533 237.17 717.457 242.756 723.925C260.581 744.568 281.117 762.214 303.926 777.449C310.879 782.092 313.22 788.199 310.972 794.262C308.84 800.144 304.296 802.916 296.137 803.276Z" fill="#CCDBFD"/>
<path d="M-250.435 1099.2C-250.694 1112.98 -253.046 1126.26 -258.333 1138.93C-260.319 1143.69 -262.757 1147.85 -268.238 1148.23C-274 1148.64 -277.906 1145.21 -280.647 1140.36C-285.977 1130.84 -288.221 1120.31 -287.466 1109.46C-286.797 1100.07 -285.394 1090.62 -283.128 1081.52C-280.733 1071.96 -273.59 1067.11 -265.843 1068.04C-258.074 1068.97 -252.463 1075.37 -251.32 1085.02C-250.759 1089.71 -250.715 1094.46 -250.435 1099.2Z" fill="#CCDBFD"/>
<path d="M423.318 1004.8C423.991 1001.16 424.285 997.923 425.21 994.92C429.184 981.919 440.874 978.87 449.726 988.42C450.42 989.153 451.156 989.885 451.639 990.807C460.092 1007.02 464.129 1024.78 465.117 1043.33C465.453 1049.74 461.753 1054.61 456.349 1057.14C450.903 1059.69 445.899 1058.39 441.358 1054.37C440.622 1053.71 439.844 1053 439.318 1052.13C430.656 1037.64 426.03 1021.47 423.318 1004.8Z" fill="#CCDBFD"/>
<path d="M665.662 103.856C669.964 100.15 673.163 96.9922 676.744 94.3837C683.682 89.2813 690.484 83.8127 698.007 79.7398C709.563 73.4705 721.366 76.0331 729.159 86.7185C733.822 93.1252 737.448 100.584 740.286 108.067C746.391 124.152 751.504 140.603 757.383 156.78C768.915 188.562 784.931 217.918 804.347 245.421C807.41 249.768 810.271 254.459 812.231 259.401C815.339 267.181 811.667 272.878 803.423 274.137C796.238 275.235 789.729 272.81 784.66 268.142C776.078 260.202 767.429 252.102 760.131 242.95C733.394 209.475 716.478 170.966 705.621 129.529C704.63 125.731 703.436 121.955 702.31 118.203C702.219 117.882 701.769 117.676 700.733 116.738C695.823 122.207 690.822 127.607 686.002 133.167C682.353 137.377 679.177 142.022 675.348 146.049C663.477 158.45 646.696 159.183 635.186 146.438C628.721 139.276 623.676 130.238 619.959 121.2C609.643 96.0997 605.048 69.4435 601.354 42.6269C600.588 37.0669 599.777 31.4838 599.597 25.9008C599.236 14.9179 604.575 6.15452 613.472 2.31051C622.797 -1.71654 634.172 0.205472 640.772 8.90025C645.637 15.3069 649.759 23.0407 651.651 30.8203C655.841 48.1412 658.386 65.851 661.675 83.4007C662.824 89.8761 664.153 96.2828 665.662 103.856Z" fill="#CCDBFD"/>
</g>
</svg>
