<svg width="1729" height="1376" viewBox="0 0 1729 1376" fill="none" xmlns="http://www.w3.org/2000/svg">
<g opacity="0.1">
<path d="M-594.336 1106.18C-564.59 1091.56 -532.197 1085.82 -500.511 1077.57C-480.879 1072.44 -461.748 1065.32 -442.413 1059.05C-440.495 1058.43 -438.692 1057.44 -436.98 1056.68C-437.025 1055.83 -436.888 1055.28 -437.094 1055.07C-473.825 1019.87 -488.914 975.452 -490.9 925.703C-492.407 887.605 -485.376 850.908 -471.222 815.591C-467.41 806.1 -463.963 796.449 -459.42 787.327C-456.932 782.295 -453.233 777.285 -448.828 773.93C-442.184 768.898 -434.309 769.289 -427.141 773.678C-419.744 778.204 -416.183 785.259 -417.028 793.784C-417.553 799.069 -419.356 804.354 -421.205 809.386C-438.326 856.01 -442.687 903.506 -431.272 952.129C-427.049 970.167 -419.31 986.757 -410.43 1002.89C-405.225 1012.36 -400.294 1021.98 -394.793 1032.37C-388.926 1028.1 -383.401 1023.87 -377.671 1019.98C-372.284 1016.33 -366.371 1015.66 -360.596 1018.97C-354.843 1022.28 -352.514 1027.73 -352.72 1034.28C-352.766 1036.14 -352.788 1038.18 -353.565 1039.79C-357.491 1048.02 -360.755 1056.73 -365.892 1064.13C-377.9 1081.43 -394.838 1093.03 -414.402 1099.74C-442.253 1109.28 -470.286 1118.56 -498.753 1125.94C-530.69 1134.23 -561.577 1144.55 -590.295 1161.05C-591.505 1161.74 -592.966 1162.04 -594.29 1162.52C-594.336 1143.77 -594.336 1124.97 -594.336 1106.18Z" fill="#CCDBFD"/>
<path d="M-594.334 732.59C-571.365 730.888 -546.1 746.444 -536.32 769.156C-525.617 794.009 -527.251 818.839 -540.322 842.288C-552.706 864.54 -573.875 878.646 -594.334 893.143C-594.334 874.734 -594.334 856.348 -594.334 837.938C-584.389 835.016 -576.385 829.24 -570.039 821.462C-554.364 802.224 -562.936 767.637 -591.895 767.154C-592.701 767.131 -593.506 766.694 -594.334 766.441C-594.334 755.165 -594.334 743.866 -594.334 732.59Z" fill="#CCDBFD"/>
<path d="M774.537 665.073C797.379 639.82 820.653 616.741 848.249 598.218C847.225 596.761 846.679 595.674 845.86 594.842C827.592 575.717 819.993 552.314 819.401 526.183C819.356 523.685 819.629 521.118 820.266 518.713C821.677 513.441 824.93 509.81 830.436 508.931C836.101 508.006 840.946 509.995 843.677 515.013C845.724 518.783 847.044 523.13 847.863 527.408C851.23 544.868 855.803 561.703 867.132 575.971C870.841 580.643 873.525 581.66 878.576 577.66C895.025 564.617 912.042 552.314 928.445 539.225C944.212 526.645 963.709 530.368 972.718 548.614C975.471 554.211 977.45 560.292 979.111 566.328C986.346 592.622 993.262 619.008 1000.43 645.347C1002.91 654.459 1005.78 663.454 1008.41 672.519C1017.49 703.808 1037.26 726.841 1062.86 745.387C1063.68 745.988 1064.61 746.428 1066.11 747.284C1067.18 745.11 1068.18 743.121 1069.11 741.109C1080.37 716.55 1090.45 691.343 1103.15 667.571C1117.71 640.329 1134.2 614.082 1150.65 587.927C1159.52 573.798 1179.18 574.977 1187.62 590.263C1193.1 600.207 1197.18 611.307 1199.93 622.384C1204.46 640.468 1207.6 658.945 1210.99 677.306C1216.74 708.526 1226.71 738.218 1241.65 766.154C1250.55 782.758 1259.44 799.362 1268.5 815.873C1284.36 844.803 1304.72 870.218 1329.29 891.77C1341.55 902.523 1355.34 911.797 1369.44 919.96C1390.63 932.216 1412.67 942.877 1434.35 954.208C1435.44 954.787 1436.58 955.318 1437.74 955.758C1446.27 958.88 1447.21 960.845 1443.48 969.402C1439.68 978.097 1432.69 983.37 1423.55 982.907C1413.15 982.398 1402.25 981.519 1392.6 977.935C1372.47 970.442 1352.59 961.886 1333.34 952.243C1296.57 933.766 1268.25 904.859 1243.75 872.206C1220.15 840.756 1199.95 806.97 1182.21 771.727C1165.78 739.074 1158.68 703.715 1153.95 667.756C1153.5 664.217 1152.93 660.702 1152.36 657.187C1152.31 656.887 1151.81 656.655 1151.08 655.985C1150.01 657.789 1148.88 659.454 1148.01 661.234C1131.15 696.662 1116.37 732.876 1108.22 771.565C1103.56 793.742 1084.15 805.444 1063.56 796.957C1016.31 777.439 977.564 747.7 959.432 697.148C948.557 666.808 940.39 635.473 931.016 604.577C930.356 602.38 929.788 600.16 928.923 597.062C926.762 598.426 925.078 599.397 923.463 600.507C913.658 607.167 904.216 614.406 894.047 620.395C852.913 644.607 819.743 677.584 790.963 715.556C788.188 719.209 785.458 722.933 782.318 726.263C769.714 739.675 750.876 739.19 740.639 723.858C735.36 715.972 731.925 706.167 729.946 696.732C715.909 629.992 717.865 563.553 735.383 497.692C739.205 483.308 743.46 468.994 748.51 455.003C762.866 415.204 786.595 382.112 816.808 352.789C876.824 294.56 949.194 258.947 1025.8 230.249C1053.51 219.865 1081.28 209.482 1108.31 197.48C1122.74 191.074 1136.09 181.824 1149.2 172.782C1162.69 163.463 1171.06 150.096 1174.02 133.516C1174.68 129.792 1175.65 126.139 1176.7 122.508C1178.2 117.258 1181.11 113.258 1187.03 113.373C1192.85 113.489 1196.15 117.397 1197.29 122.693C1200.18 136.198 1200.7 149.749 1196.79 163.208C1191.67 180.691 1181.52 195.075 1168.03 206.499C1156.82 215.98 1144.94 225.277 1131.95 231.821C1104.22 245.812 1076.01 258.97 1047.25 270.602C1006.21 287.206 967.258 307.949 928.923 329.965C917.684 336.417 907.447 344.95 897.527 353.46C882.99 365.901 869.089 379.106 855.029 392.125C827.842 417.286 808.641 447.811 796.833 483.077C783.66 522.413 773.764 562.559 771.921 604.207C771.102 622.8 772.808 641.509 773.422 660.171C773.491 661.304 773.946 662.46 774.537 665.073Z" fill="#CCDBFD"/>
<path d="M651.642 849.384C636.663 858.79 621.113 868.427 605.791 878.386C604.58 879.17 603.804 882.674 604.512 884.057C609.513 893.878 614.057 904.091 620.428 912.944C629.196 925.117 639.586 936.067 648.971 947.802C652.168 951.813 655.113 956.355 656.94 961.127C659.931 969.035 658.196 976.55 651.871 982.337C645.705 987.985 638.649 988.169 630.931 985.403C627.689 984.227 623.51 983.743 620.268 984.734C598.644 991.305 577.042 998.013 555.692 1005.44C548.362 1008 541.763 1012.74 534.89 1016.6C532.172 1018.12 529.706 1020.12 526.966 1021.53C520.207 1025.03 513.357 1025.29 506.94 1020.74C500.683 1016.32 498.788 1009.93 499.679 1002.53C500.661 994.44 502.282 986.348 502.533 978.233C503.218 955.433 503.286 932.609 503.675 909.786C503.766 904.829 504.246 899.896 504.611 893.648C493.034 897.014 482.21 899.688 471.706 903.353C447.022 911.976 422.567 921.244 397.905 929.935C389.502 932.909 380.871 935.33 372.194 937.358C356.689 941.001 341.664 929.658 339.198 912.852C337.554 901.74 340.75 891.688 346.254 882.259C355.433 866.582 367.056 852.865 380.985 841.477C403.728 822.918 426.426 804.198 450.288 787.207C474.515 769.963 499.907 754.401 525.253 738.817C536.191 732.085 548.065 726.852 559.779 721.549C577.156 713.665 593.186 703.913 606.955 690.496C612.87 684.732 618.829 683.787 624.401 687.199C629.973 690.611 632.621 697.642 629.242 704.904C625.954 711.982 621.935 719.405 616.34 724.546C605.973 734.091 594.373 742.275 583.025 750.643C568.137 761.64 552.906 772.153 538.018 783.104C524.591 792.971 511.187 802.838 498.172 813.235C471.82 834.261 445.721 855.609 419.644 876.98C416.173 879.815 413.41 883.504 409.345 887.861C413.547 887.285 416.721 887.1 419.758 886.386C447.616 879.885 475.451 873.222 503.309 866.767C507.442 865.798 509.041 863.516 509.475 859.459C510.183 852.796 511.142 846.156 512.283 839.563C514.201 828.405 521.828 821.558 531.053 822.388C540.461 823.241 547.54 831.033 546.832 842.306C545.964 856.485 544.183 870.663 541.58 884.634C535.62 916.517 535.78 948.793 534.204 980.977C534.182 981.322 534.524 981.714 534.753 982.152C560.281 977.265 585.81 972.354 612.55 967.236C609.992 963.847 608.531 961.865 607.047 959.905C591.108 938.834 576.837 916.794 569.392 891.02C568.228 887.008 567.292 882.905 566.766 878.778C565.237 866.237 569.712 858.744 580.536 852.635C601.886 840.554 622.939 827.967 644.198 815.748C647.738 813.696 648.994 811.322 648.56 807.126C647.897 800.901 647.692 794.585 647.943 788.314C648.24 780.775 652.236 775.68 658.15 774.136C664.315 772.545 670.823 775.104 674.157 782.043C677.651 789.328 681.122 797.051 682.309 804.959C688.52 845.534 703.066 883.781 713.775 923.088C728.8 978.302 730.536 1032.92 710.715 1087.28C708.135 1094.33 705.075 1101.25 701.627 1107.91C681.19 1147.43 648.674 1167.99 604.763 1171.77C573.662 1174.45 543.064 1171.1 512.352 1167.37C491.139 1164.79 469.902 1162.25 448.598 1160.78C436.244 1159.92 423.731 1160.68 411.355 1161.65C392.79 1163.08 378.496 1172.21 368.335 1188.03C361.713 1198.33 356.301 1209.1 354.725 1221.43C353.561 1230.67 356.895 1233.83 365.983 1232.75C368.517 1232.45 371.12 1232.84 373.701 1232.91C373.29 1235.7 373.427 1238.72 372.399 1241.26C367.832 1252.6 357.032 1258.39 344.062 1256.8C328.443 1254.88 316.774 1244.14 313.189 1228.21C310.107 1214.61 312.207 1201.47 317.619 1188.92C335.499 1147.57 366.531 1124.83 411.4 1121.1C439.122 1118.79 466.523 1121.88 493.993 1124.37C520.435 1126.77 546.832 1130.32 573.32 1131.34C589.304 1131.93 605.494 1129.15 621.478 1127C632.827 1125.48 642.76 1119.95 651.003 1111.85C685.163 1078.4 703.248 1038.24 698.91 989.622C697.837 977.472 694.64 965.208 690.552 953.681C678.153 918.961 664.886 884.68 651.642 849.384Z" fill="#CCDBFD"/>
<path d="M1334.09 967.641C1319.11 977.047 1303.56 986.683 1288.24 996.643C1287.03 997.427 1286.25 1000.93 1286.96 1002.31C1291.96 1012.14 1296.51 1022.35 1302.88 1031.2C1311.65 1043.37 1322.04 1054.32 1331.42 1066.06C1334.62 1070.07 1337.56 1074.61 1339.39 1079.38C1342.38 1087.29 1340.65 1094.81 1334.32 1100.59C1328.16 1106.24 1321.1 1106.43 1313.38 1103.66C1310.14 1102.48 1305.96 1102 1302.72 1102.99C1281.09 1109.56 1259.49 1116.27 1238.14 1123.69C1230.81 1126.25 1224.21 1131 1217.34 1134.85C1214.62 1136.37 1212.16 1138.38 1209.42 1139.79C1202.66 1143.29 1195.81 1143.54 1189.39 1139C1183.13 1134.58 1181.24 1128.19 1182.13 1120.79C1183.11 1112.7 1184.73 1104.6 1184.98 1096.49C1185.67 1073.69 1185.74 1050.87 1186.12 1028.04C1186.22 1023.09 1186.7 1018.15 1187.06 1011.9C1175.48 1015.27 1164.66 1017.94 1154.16 1021.61C1129.47 1030.23 1105.02 1039.5 1080.36 1048.19C1071.95 1051.17 1063.32 1053.59 1054.64 1055.61C1039.14 1059.26 1024.11 1047.91 1021.65 1031.11C1020 1020 1023.2 1009.94 1028.7 1000.52C1037.88 984.839 1049.51 971.122 1063.43 959.733C1086.18 941.175 1108.88 922.455 1132.74 905.464C1156.96 888.219 1182.36 872.658 1207.7 857.073C1218.64 850.342 1230.51 845.108 1242.23 839.806C1259.61 831.921 1275.64 822.17 1289.41 808.752C1295.32 802.989 1301.28 802.044 1306.85 805.456C1312.42 808.867 1315.07 815.899 1311.69 823.161C1308.4 830.239 1304.38 837.662 1298.79 842.803C1288.42 852.347 1276.82 860.531 1265.47 868.9C1250.59 879.897 1235.36 890.41 1220.47 901.36C1207.04 911.227 1193.64 921.095 1180.62 931.492C1154.27 952.517 1128.17 973.865 1102.09 995.236C1098.62 998.072 1095.86 1001.76 1091.8 1006.12C1096 1005.54 1099.17 1005.36 1102.21 1004.64C1130.07 998.141 1157.9 991.479 1185.76 985.023C1189.89 984.055 1191.49 981.773 1191.92 977.715C1192.63 971.053 1193.59 964.413 1194.73 957.82C1196.65 946.661 1204.28 939.814 1213.5 940.644C1222.91 941.497 1229.99 949.29 1229.28 960.563C1228.41 974.741 1226.63 988.92 1224.03 1002.89C1218.07 1034.77 1218.23 1067.05 1216.65 1099.23C1216.63 1099.58 1216.97 1099.97 1217.2 1100.41C1242.73 1095.52 1268.26 1090.61 1295 1085.49C1292.44 1082.1 1290.98 1080.12 1289.5 1078.16C1273.56 1057.09 1259.29 1035.05 1251.84 1009.28C1250.68 1005.26 1249.74 1001.16 1249.22 997.035C1247.69 984.493 1252.16 977.001 1262.99 970.891C1284.34 958.811 1305.39 946.223 1326.65 934.005C1330.19 931.953 1331.44 929.578 1331.01 925.383C1330.35 919.158 1330.14 912.841 1330.39 906.57C1330.69 899.032 1334.69 893.937 1340.6 892.392C1346.77 890.802 1353.27 893.36 1356.61 900.3C1360.1 907.585 1363.57 915.308 1364.76 923.216C1370.97 963.791 1385.52 1002.04 1396.22 1041.34C1411.25 1096.56 1412.99 1151.17 1393.17 1205.54C1390.58 1212.59 1387.53 1219.51 1384.08 1226.17C1363.64 1265.68 1331.12 1286.25 1287.21 1290.03C1256.11 1292.7 1225.51 1289.36 1194.8 1285.63C1173.59 1283.04 1152.35 1280.51 1131.05 1279.03C1118.69 1278.18 1106.18 1278.94 1093.8 1279.91C1075.24 1281.34 1060.95 1290.47 1050.78 1306.28C1044.16 1316.59 1038.75 1327.35 1037.17 1339.69C1036.01 1348.93 1039.34 1352.09 1048.43 1351.01C1050.97 1350.71 1053.57 1351.1 1056.15 1351.17C1055.74 1353.96 1055.88 1356.98 1054.85 1359.51C1050.28 1370.86 1039.48 1376.64 1026.51 1375.05C1010.89 1373.14 999.224 1362.4 995.639 1346.46C992.556 1332.86 994.657 1319.72 1000.07 1307.18C1017.95 1265.82 1048.98 1243.09 1093.85 1239.36C1121.57 1237.05 1148.97 1240.14 1176.44 1242.63C1202.89 1245.03 1229.28 1248.58 1255.77 1249.59C1271.75 1250.19 1287.94 1247.4 1303.93 1245.26C1315.28 1243.74 1325.21 1238.2 1333.45 1230.11C1367.61 1196.66 1385.7 1156.5 1381.36 1107.88C1380.29 1095.73 1377.09 1083.46 1373 1071.94C1360.6 1037.22 1347.34 1002.94 1334.09 967.641Z" fill="#CCDBFD"/>
<path d="M1521.48 373.187C1504.53 368.118 1487.04 362.772 1469.45 357.81C1468.06 357.417 1464.91 359.142 1464.34 360.586C1460.25 370.819 1455.56 380.967 1453.1 391.593C1449.72 406.21 1448.33 421.241 1445.69 436.032C1444.78 441.08 1443.3 446.289 1440.92 450.807C1436.94 458.268 1430.15 461.916 1421.63 460.971C1413.31 460.056 1408.53 454.87 1405.52 447.242C1404.27 444.028 1401.88 440.566 1399 438.781C1379.8 426.846 1360.52 415.019 1340.87 403.852C1334.12 400.025 1326.19 398.19 1318.77 395.558C1315.83 394.517 1312.7 393.983 1309.84 392.849C1302.75 390.074 1298.04 385.089 1297.23 377.27C1296.44 369.647 1299.99 364.013 1306.14 359.806C1312.88 355.212 1320.03 351.1 1326.3 345.941C1343.9 331.431 1361.11 316.442 1378.54 301.694C1382.33 298.497 1386.35 295.606 1391.29 291.764C1381.13 285.274 1371.99 278.895 1362.31 273.41C1339.56 260.526 1316.47 248.238 1293.68 235.416C1285.91 231.056 1278.4 226.159 1271.16 220.969C1258.2 211.707 1256.83 192.931 1267.84 180.001C1275.12 171.442 1284.79 167.223 1295.5 165.149C1313.35 161.722 1331.32 161.425 1349.07 164.397C1378.01 169.274 1407.05 174.01 1435.56 180.762C1464.49 187.621 1492.93 196.466 1521.35 205.26C1533.62 209.051 1545.39 214.534 1557.09 219.85C1574.48 227.725 1592.37 233.356 1611.54 234.871C1619.77 235.521 1624.41 239.381 1625.51 245.82C1626.62 252.259 1623.08 258.885 1615.39 261.129C1607.9 263.32 1599.67 265.189 1592.11 264.368C1578.1 262.86 1564.3 259.529 1550.53 256.507C1532.45 252.556 1514.5 248.027 1496.45 244.045C1480.18 240.448 1463.93 236.869 1447.53 233.93C1414.35 227.965 1381.1 222.402 1347.84 216.871C1343.42 216.129 1338.82 216.481 1332.87 216.296C1336.07 219.076 1338.3 221.342 1340.84 223.155C1364.09 239.825 1387.44 256.371 1410.65 273.071C1414.11 275.542 1416.88 275.24 1420.21 272.892C1425.69 269.034 1431.32 265.38 1437.03 261.894C1446.69 255.984 1456.86 257.208 1462.32 264.694C1467.87 272.332 1466.68 282.792 1457.73 289.688C1446.5 298.379 1434.66 306.382 1422.43 313.631C1394.53 330.159 1370.35 351.548 1345.11 371.571C1344.83 371.782 1344.76 372.297 1344.59 372.758C1365.08 388.739 1385.6 404.705 1407.07 421.445C1407.94 417.288 1408.46 414.882 1408.96 412.474C1414.31 386.6 1421.48 361.342 1435.96 338.758C1438.21 335.239 1440.68 331.831 1443.44 328.716C1451.86 319.301 1460.45 317.73 1472.17 321.845C1495.33 329.943 1518.67 337.484 1541.87 345.422C1545.75 346.732 1548.36 346.112 1551.23 343.021C1555.48 338.421 1560.09 334.104 1564.97 330.16C1570.84 325.416 1577.31 325.064 1582.36 328.495C1587.62 332.084 1589.99 338.665 1586.96 345.745C1583.79 353.174 1580.27 360.874 1575.1 366.978C1548.67 398.388 1529.49 434.532 1506.98 468.49C1475.35 516.176 1435.42 553.472 1381.47 574.386C1374.46 577.094 1367.24 579.351 1359.96 581.148C1316.77 591.815 1279.88 580.909 1248.1 550.372C1225.59 528.742 1207.94 503.524 1190.51 477.962C1178.47 460.305 1166.39 442.661 1153.46 425.664C1145.96 415.81 1137.14 406.899 1128.26 398.228C1114.95 385.207 1098.66 380.471 1080.07 383.25C1067.96 385.06 1056.29 388.084 1045.98 395.027C1038.25 400.243 1038.08 404.832 1044.88 410.954C1046.78 412.663 1048.2 414.879 1049.84 416.865C1047.48 418.394 1045.29 420.487 1042.71 421.386C1031.17 425.425 1019.7 421.114 1012.35 410.311C1003.5 397.302 1003.89 381.446 1013.51 368.252C1021.71 356.97 1032.97 349.89 1045.97 345.696C1088.86 331.89 1126.41 340.252 1158.79 371.54C1178.79 390.871 1194.52 413.517 1210.75 435.82C1226.37 457.289 1241.1 479.483 1257.79 500.075C1267.87 512.493 1280.64 522.832 1292.79 533.441C1301.41 540.975 1312.12 544.8 1323.64 545.668C1371.31 549.318 1413.43 536.457 1447.14 501.153C1455.57 492.34 1462.69 481.853 1468.67 471.182C1486.61 438.977 1503.66 406.407 1521.48 373.187Z" fill="#CCDBFD"/>
<path d="M-92.7796 1193.65C-63.857 1218.67 -28.8964 1235.06 -3.59204 1264.72C-0.503906 1262.19 2.51514 1260.03 5.21149 1257.5C20.8366 1242.85 36.3235 1228.09 51.9717 1213.49C55.1981 1210.48 55.0367 1208.04 52.9857 1204.23C43.7673 1186.99 34.8024 1169.58 26.0911 1152.06C23.7865 1147.42 22.0119 1142.27 21.1823 1137.16C19.6151 1127.69 22.7494 1119.55 30.7924 1114.02C38.8124 1108.52 47.7773 1108.15 55.659 1113.4C61.7892 1117.48 67.758 1122.84 71.768 1128.97C82.5535 1145.49 92.3018 1162.71 102.35 1179.75C106.268 1186.41 109.863 1193.28 114.357 1201.4C132.402 1188.03 149.663 1175.27 167.362 1162.16C165.403 1159.28 164.113 1157.17 162.615 1155.22C151.829 1141.22 140.814 1127.41 130.282 1113.26C125.788 1107.22 121.501 1100.82 118.482 1093.95C113.297 1082.13 116.892 1069.58 126.272 1062.75C135.651 1055.93 148.28 1056.77 158.006 1065.56C162.961 1070.04 167.8 1074.99 171.395 1080.58C184.9 1101.63 198.52 1122.63 210.873 1144.38C220.552 1161.41 215.782 1180.33 200.572 1192.4C180.683 1208.2 160.771 1223.99 140.767 1239.63C116.754 1258.38 100.645 1257.94 77.4144 1238.21C76.6308 1237.54 75.7781 1236.98 74.5336 1236.08C71.8602 1238.56 69.233 1240.93 66.6749 1243.36C48.6761 1260.59 27.8657 1273.91 7.4931 1288.02C-9.44562 1299.74 -22.9966 1294.66 -37.4694 1285.58C-52.3801 1276.25 -67.2217 1266.78 -82.0402 1257.31C-96.536 1248.08 -111.101 1238.93 -125.436 1229.44C-150.003 1213.17 -146.016 1187.06 -134.631 1169.47C-130.667 1163.34 -125.597 1157.79 -120.365 1152.69C-82.9159 1116.18 -46.0656 1078.98 -7.46368 1043.72C19.6152 1018.98 48.5609 996.238 77.7139 973.934C127.078 936.15 173.7 895.721 211.265 845.566C216.035 839.184 221.405 833.219 226.844 827.394C229.54 824.539 232.79 821.963 236.246 820.153C243.736 816.231 251.342 816.579 258.048 822.056C264.754 827.51 266.667 834.914 264.432 843.13C263.395 846.936 261.62 850.649 259.523 853.991C242.262 881.586 222.649 907.255 197.714 928.398C167.293 954.207 137.311 980.572 106.222 1005.52C65.8222 1037.92 29.8015 1075.05 -7.85547 1110.38C-34.9575 1135.82 -61.1606 1162.2 -87.7556 1188.2C-89.4149 1189.8 -90.8668 1191.54 -92.7796 1193.65Z" fill="#CCDBFD"/>
<path d="M-155.462 804.26C-148.69 796.788 -142.423 788.732 -134.986 782.03C-127.41 775.212 -119.215 768.651 -110.286 763.888C-92.9315 754.641 -77.0693 762.697 -73.9473 782.427C-68.7365 815.211 -68.1396 848.298 -70.7795 881.385C-71.7206 893.223 -72.9143 905.038 -74.4523 916.807C-75.0721 921.57 -76.3118 926.427 -78.3318 930.746C-81.1094 936.654 -87.5599 937.868 -91.6689 932.871C-95.1352 928.668 -98.2342 923.228 -99.1294 917.927C-104.478 886.195 -109.138 854.322 -114.05 822.496C-114.326 820.651 -114.601 818.83 -115.06 815.701C-117.402 817.709 -119.169 818.97 -120.639 820.511C-130.188 830.599 -139.439 840.966 -149.264 850.773C-153.809 855.303 -158.974 859.669 -164.621 862.541C-177.866 869.289 -192.351 862.961 -196.828 848.625C-198.572 843.067 -199.169 836.973 -199.238 831.112C-199.467 811.615 -199.261 792.094 -199.146 772.574C-199.1 763.888 -201.832 761.366 -210.234 763.747C-237.734 771.57 -261.723 785.79 -281.487 806.711C-315.163 842.343 -325.424 885.237 -316.861 933.035C-312.224 958.883 -292.643 970.698 -267.668 963.927C-254.997 960.494 -243.565 954.447 -233.832 945.387C-227.68 939.69 -227.519 937.284 -231.972 930.023C-232.202 929.672 -232.363 929.252 -232.661 928.972C-236.403 925.539 -240.144 922.13 -243.886 918.721C-247.697 923.088 -252.494 926.94 -255.02 931.984C-257.728 937.425 -261.493 941.067 -266.75 940.647C-270.996 940.32 -275.84 937.705 -278.847 934.552C-281.235 932.054 -282.359 927.127 -282.153 923.414C-281.304 908.12 -277.332 893.667 -267.484 881.618C-256.971 868.776 -241.292 865.016 -226.165 871.134C-201.074 881.291 -180.437 919.352 -186.612 946.041C-188.449 953.956 -192.397 962.386 -197.815 968.27C-218.429 990.709 -243.611 1005.91 -273.82 1010.32C-315.163 1016.35 -350.216 993.955 -363.3 953.653C-380.54 900.648 -373.424 819.671 -306.256 767.974C-278.25 746.422 -246.572 733.533 -211.863 728.372C-200.845 726.738 -190.239 728.115 -180.598 734.373C-179.565 735.05 -178.349 735.494 -177.155 735.868C-164.415 739.791 -159.846 745.534 -159.273 759.101C-158.745 771.593 -158.561 784.109 -158.194 796.624C-158.125 798.656 -157.964 800.711 -157.849 802.742C-157.069 803.256 -156.265 803.746 -155.462 804.26Z" fill="#CCDBFD"/>
<path d="M396.975 746.638C384.517 743.226 371.763 740.632 359.645 736.191C338.563 728.479 319.318 716.865 301.05 703.637C243.318 661.805 195.594 610.134 158.308 548.414C145.282 526.867 134.639 504.128 131.19 478.561C130.622 474.378 130.418 470.101 130.577 465.871C131.417 441.753 146.712 425.161 170.177 425.278C181.66 425.348 193.574 427.965 204.512 431.751C226.548 439.37 246.336 451.592 264.446 466.759C269.348 470.872 275.52 473.35 280.467 477.369C334.478 521.211 381.453 571.714 418.058 631.961C428.043 648.39 436.644 665.591 440.252 684.848C441.341 690.643 442.022 696.649 441.818 702.539C440.955 728.76 423.708 745.025 397.407 744.885C397.293 745.493 397.134 746.077 396.975 746.638ZM403.194 697.047C401.65 690.9 401.015 684.31 398.405 678.701C390.304 661.337 382.747 643.483 372.671 627.381C339.924 575.149 295.808 533.784 248.243 496.579C232.085 483.936 212.115 476.411 193.619 467.11C188.559 464.563 182.613 463.581 176.94 462.693C168.43 461.384 166.228 463.651 167.862 472.462C169.042 478.865 170.586 485.549 173.581 491.181C182.182 507.353 190.442 523.899 200.904 538.762C237.577 591.017 282.328 635.093 333.547 672.018C346.483 681.342 360.575 689.124 374.668 696.579C381.294 700.085 389.078 701.394 396.476 703.193C400.743 704.268 403.171 702.071 403.194 697.047Z" fill="#CCDBFD"/>
<path d="M1761.87 1331.88C1749.41 1328.46 1736.66 1325.87 1724.54 1321.43C1703.46 1313.72 1684.22 1302.1 1665.95 1288.88C1608.21 1247.04 1560.49 1195.37 1523.21 1133.65C1510.18 1112.11 1499.54 1089.37 1496.09 1063.8C1495.52 1059.62 1495.31 1055.34 1495.47 1051.11C1496.31 1026.99 1511.61 1010.4 1535.07 1010.52C1546.56 1010.59 1558.47 1013.2 1569.41 1016.99C1591.44 1024.61 1611.23 1036.83 1629.34 1052C1634.24 1056.11 1640.42 1058.59 1645.36 1062.61C1699.37 1106.45 1746.35 1156.95 1782.95 1217.2C1792.94 1233.63 1801.54 1250.83 1805.15 1270.09C1806.24 1275.88 1806.92 1281.89 1806.71 1287.78C1805.85 1314 1788.6 1330.26 1762.3 1330.12C1762.19 1330.73 1762.03 1331.32 1761.87 1331.88ZM1768.09 1282.29C1766.55 1276.14 1765.91 1269.55 1763.3 1263.94C1755.2 1246.58 1747.64 1228.72 1737.57 1212.62C1704.82 1160.39 1660.7 1119.02 1613.14 1081.82C1596.98 1069.17 1577.01 1061.65 1558.52 1052.35C1553.46 1049.8 1547.51 1048.82 1541.84 1047.93C1533.33 1046.62 1531.12 1048.89 1532.76 1057.7C1533.94 1064.1 1535.48 1070.79 1538.48 1076.42C1547.08 1092.59 1555.34 1109.14 1565.8 1124C1602.47 1176.26 1647.22 1220.33 1698.44 1257.26C1711.38 1266.58 1725.47 1274.36 1739.56 1281.82C1746.19 1285.32 1753.98 1286.63 1761.37 1288.43C1765.64 1289.51 1768.07 1287.31 1768.09 1282.29Z" fill="#CCDBFD"/>
<path d="M1716.3 968.995C1723.09 980.148 1731.22 988.983 1741.04 996.195C1777.3 1022.79 1817.54 1030.4 1860.74 1020.75C1895.27 1013.03 1928.32 1000.65 1958.56 981.748C1969.77 974.745 1980.2 966.235 1990.22 957.493C2005.89 943.788 2013.29 925.492 2015.68 904.924C2015.84 903.509 2015.71 902.048 2015.71 899.59C2013.36 901.19 2011.56 902.442 2009.74 903.648C1984.19 920.808 1958.93 938.455 1932.96 954.919C1922.37 961.644 1910.42 966.305 1898.73 971.012C1890.9 974.166 1884.02 971.453 1880.76 965.632C1877.48 959.789 1878.62 952.206 1884.7 946.78C1890.44 941.678 1896.73 937.11 1903.2 933.029C1912.69 927.069 1922.51 921.596 1932.35 916.217C1961.32 900.379 1987.4 880.436 2012.09 858.453C2013.47 857.201 2014.89 855.949 2016.41 854.859C2030.24 844.957 2048.55 852.424 2049.32 869.491C2051.33 913.133 2044.58 955.081 2010.74 985.737C1957.31 1034.16 1895.2 1063.33 1822.39 1063.26C1785.56 1063.21 1751.42 1052.2 1721.13 1030.19C1705.44 1018.8 1693.37 1004.5 1686.17 986.085C1681.28 973.516 1681.64 960.994 1685.51 948.38C1687.29 942.582 1691.96 939.892 1697.26 938.084C1707.08 934.745 1716.92 931.498 1726.67 927.997C1778.34 909.399 1824.94 881.781 1866.92 845.978C1871.04 842.453 1875.09 838.835 1879.4 835.566C1885.55 830.905 1891.47 830.511 1896.68 834.035C1901.78 837.467 1904.27 844.401 1902.33 851.45C1901.22 855.462 1899.74 859.566 1897.46 862.975C1893.86 868.332 1890.08 873.851 1885.3 878.025C1841.41 916.077 1793.47 947.035 1737.65 963.8C1730.86 965.748 1723.96 967.116 1716.3 968.995Z" fill="#CCDBFD"/>
<path d="M868.539 1084.96C870.789 1083 872.698 1081.44 874.493 1079.76C933.151 1024.79 991.831 969.853 1050.4 914.771C1057.53 908.061 1063.67 900.209 1070.99 893.731C1075.65 889.607 1081.33 885.809 1087.17 884.155C1094.83 881.988 1101.83 885.507 1106.69 892.17C1111.53 898.834 1112.42 906.383 1108.81 913.723C1106.83 917.731 1103.74 921.505 1100.35 924.418C1076.17 945.225 1051.53 965.472 1027.56 986.512C979.263 1028.9 931.287 1071.65 883.243 1114.36C879.993 1117.25 877.038 1120.56 874.425 1124.08C866.13 1135.21 849.357 1139.08 841.608 1125.57C841.108 1124.71 840.221 1123.94 839.335 1123.49C824.904 1116.15 816.722 1103.08 810.836 1088.73C783.223 1021.58 772.496 952.238 788.745 880.311C792.245 864.863 798.95 849.997 805.586 835.551C810.858 824.088 818.745 820.499 826.608 823.039C834.903 825.719 838.426 833.338 837.108 846.106C836.744 849.671 836.199 853.236 835.494 856.754C823.426 917.777 827.722 977.542 848.698 1035.96C853.971 1050.61 859.971 1065.01 865.698 1079.5C866.357 1081.23 867.38 1082.79 868.539 1084.96Z" fill="#CCDBFD"/>
<path d="M353.733 376.061C355.983 374.103 357.892 372.542 359.688 370.865C418.345 315.9 477.026 260.958 535.592 205.877C542.729 199.167 548.865 191.314 556.183 184.837C560.842 180.713 566.523 176.915 572.364 175.261C580.023 173.094 587.023 176.612 591.886 183.276C596.727 189.94 597.613 197.489 594 204.828C592.023 208.836 588.932 212.611 585.546 215.523C561.364 236.33 536.729 256.578 512.752 277.618C464.458 320.001 416.482 362.756 368.438 405.465C365.188 408.355 362.233 411.663 359.62 415.182C351.324 426.319 334.552 430.187 326.802 416.673C326.302 415.811 325.416 415.042 324.53 414.599C310.098 407.26 301.917 394.188 296.03 379.835C268.417 312.684 257.691 243.343 273.94 171.416C277.44 155.968 284.144 141.103 290.781 126.657C296.053 115.193 303.939 111.605 311.803 114.145C320.098 116.824 323.621 124.443 322.303 137.212C321.939 140.777 321.393 144.341 320.689 147.86C308.621 208.883 312.916 268.647 333.893 327.061C339.166 341.716 345.166 356.116 350.893 370.608C351.552 372.333 352.574 373.894 353.733 376.061Z" fill="#CCDBFD"/>
<path d="M1808.01 781.31C1807.38 801.482 1801.78 820.229 1790.58 836.767C1766.47 872.304 1734.88 897.606 1692.32 907.014C1689.9 907.543 1687.42 908.141 1684.99 908.164C1677.66 908.233 1670.65 908.233 1663.39 911.085C1656.35 913.845 1649.16 910.28 1644.47 904.576C1638.44 897.238 1631.84 889.67 1628.38 881.045C1613.95 845.047 1600.38 808.705 1587.02 772.293C1583.67 763.185 1581.6 753.432 1580.42 743.794C1579.85 739.148 1582.01 733.742 1584.2 729.303C1585.63 726.405 1589.05 724.105 1592.07 722.472C1623.73 705.497 1657.03 693.881 1693.32 694.686C1724.23 695.399 1752.61 705.45 1778.08 723.139C1798.14 737.055 1807.63 756.882 1808.01 781.31ZM1678.34 876.353C1687.38 871.43 1696.71 866.531 1705.86 861.333C1722.7 851.764 1738.34 840.562 1751.95 826.6C1762.99 815.26 1770.5 802.103 1772.62 786.14C1774.74 770.131 1769.91 757.25 1755.55 748.969C1735.97 737.699 1715.08 730.729 1692.36 731.465C1670.69 732.178 1649.91 737.768 1629.68 745.427C1629.36 745.542 1629.17 746.048 1629.52 745.588C1645.79 789.199 1661.91 832.327 1678.34 876.353Z" fill="#CCDBFD"/>
<path d="M2230.16 992.591C2222.85 998.382 2216.81 1003.83 2210.15 1008.3C2194.65 1018.74 2178.82 1013.88 2172.39 995.973C2169.19 987.055 2167.52 977.211 2167.04 967.691C2166.28 952.38 2167.04 936.999 2167.16 921.641C2167.18 919.788 2167.16 917.958 2167.16 914.994C2164.63 916.522 2162.64 917.472 2160.95 918.769C2129.01 943.207 2089.19 917.171 2087.16 881.337C2085.27 848.004 2090.93 815.529 2099.93 783.633C2100.49 781.641 2101.49 779.718 2102.57 777.958C2106.09 772.121 2111.75 769.387 2117.64 770.522C2123.44 771.657 2128.44 776.383 2128.87 783.146C2129.39 791.694 2129.01 800.38 2128.33 808.927C2126.96 826.323 2124.77 843.65 2123.66 861.069C2123.21 868.296 2123.69 875.916 2125.42 882.912C2128.15 893.915 2135.14 896.301 2144.21 889.954C2152.83 883.908 2161.13 877.353 2169.55 871.006C2171.69 869.384 2173.72 867.624 2175.86 865.979C2182.63 860.837 2189.94 858.891 2197.7 863.2C2205.44 867.508 2208.08 874.944 2207.45 883.491C2206.34 898.385 2204.74 913.233 2203.5 928.127C2202.5 940.08 2201.65 952.032 2200.88 964.008C2200.63 967.691 2200.84 971.374 2200.84 975.08C2201.53 975.427 2202.21 975.775 2202.91 976.122C2209.75 969.011 2216.72 962.039 2223.37 954.742C2227.7 949.994 2231.38 944.62 2235.64 939.779C2241.01 933.687 2247.71 930.884 2255.59 933.617C2263.41 936.327 2267.93 942.72 2267.95 950.804C2268.02 965.907 2267.11 981.033 2266.28 996.135C2265.02 1018.81 2263.21 1041.47 2262.2 1064.14C2261.88 1070.98 2263.23 1077.95 2264.23 1084.78C2265.33 1092.29 2269.89 1097.08 2276.63 1099.98C2287.82 1104.8 2299.12 1104.05 2310.34 1100.56C2317.73 1098.24 2324.93 1095.21 2333.05 1092.19C2333.05 1100.58 2333.14 1108.85 2332.94 1117.12C2332.92 1118.18 2331.59 1119.76 2330.53 1120.15C2310.65 1127.52 2290.48 1132.66 2269.21 1127.08C2245.48 1120.87 2231.97 1105.65 2230.09 1077.6C2228.36 1051.68 2229.8 1025.53 2229.87 999.494C2229.85 997.456 2230.03 995.464 2230.16 992.591Z" fill="#CCDBFD"/>
<path d="M1395.47 784.05C1399.77 780.343 1402.97 777.186 1406.55 774.577C1413.49 769.475 1420.29 764.006 1427.82 759.934C1439.37 753.664 1451.17 756.227 1458.97 766.912C1463.63 773.319 1467.26 780.778 1470.1 788.26C1476.2 804.346 1481.31 820.797 1487.19 836.974C1498.72 868.755 1514.74 898.112 1534.16 925.615C1537.22 929.962 1540.08 934.653 1542.04 939.595C1545.15 947.375 1541.48 953.072 1533.23 954.331C1526.05 955.429 1519.54 953.003 1514.47 948.336C1505.89 940.396 1497.24 932.296 1489.94 923.144C1463.2 889.669 1446.29 851.16 1435.43 809.723C1434.44 805.924 1433.25 802.149 1432.12 798.396C1432.03 798.076 1431.58 797.87 1430.54 796.932C1425.63 802.401 1420.63 807.801 1415.81 813.361C1412.16 817.571 1408.99 822.216 1405.16 826.243C1393.29 838.644 1376.51 839.376 1365 826.632C1358.53 819.47 1353.48 810.432 1349.77 801.394C1339.45 776.293 1334.86 749.637 1331.16 722.821C1330.4 717.261 1329.59 711.677 1329.41 706.094C1329.05 695.112 1334.38 686.348 1343.28 682.504C1352.61 678.477 1363.98 680.399 1370.58 689.094C1375.45 695.501 1379.57 703.234 1381.46 711.014C1385.65 728.335 1388.2 746.045 1391.48 763.594C1392.63 770.07 1393.96 776.477 1395.47 784.05Z" fill="#CCDBFD"/>
<path d="M98.021 637.614C97.135 669.569 89.0507 698.643 73.325 725.157C69.4047 731.774 63.7567 737.561 57.9758 742.587C50.9103 748.72 44.1549 747.66 37.5988 741.043C36.735 740.167 35.8933 739.198 34.8745 738.599C6.01447 722.206 -6.07886 694.885 -8.38232 662.699C-11.5939 617.878 1.7619 577.692 27.4989 541.886C32.9475 534.301 42.2501 532.179 52.1506 535.499C61.7854 538.704 68.8508 545.437 74.4545 553.852C87.3452 573.242 93.3255 595.283 96.382 618.316C97.2458 624.956 97.5337 631.642 98.021 637.614ZM46.7241 578.084C37.5545 608.01 29.5145 636.807 35.1846 667.563C36.9344 676.993 40.2123 685.87 45.816 693.962C65.0856 664.382 65.7722 605.935 46.7241 578.084Z" fill="#CCDBFD"/>
<path d="M-100.794 1030.28C-103.138 1037.21 -105.393 1043.67 -107.534 1050.14C-110.352 1058.66 -114.838 1065.92 -121.961 1071.41C-133.119 1080.02 -145.405 1081.24 -157.961 1075.98C-165.219 1072.93 -170.337 1074.65 -174.439 1080.53C-179.173 1087.28 -183.749 1094.2 -187.671 1101.45C-191.549 1108.6 -195.336 1111.67 -200.701 1110.13C-206.246 1108.55 -209.921 1102.83 -208.23 1095.55C-203.474 1075.04 -192.405 1059.15 -173.222 1050.05C-166.099 1046.67 -158.863 1048.05 -151.717 1050.74C-139.566 1055.26 -137.447 1054.05 -134.517 1041.05C-132.105 1030.3 -130.369 1019.34 -127.326 1008.78C-124.418 998.672 -117.655 991.69 -106.745 990.909C-102.575 990.61 -98.1339 991.506 -94.1214 992.815C-89.4552 994.354 -87.3137 992.953 -84.9693 988.773C-81.34 982.296 -77.1472 976.026 -72.526 970.238C-64.8166 960.569 -54.8079 956.825 -42.9507 961.303C-37.5406 963.348 -35.0835 961.625 -33.483 956.503C-32.0628 951.933 -30.327 947.454 -28.4335 943.067C-21.8511 927.862 -8.664 920.673 7.38605 923.407C15.5012 924.785 17.5075 923.613 17.8005 915.161C18.2288 902.782 21.2043 891.298 27.2457 880.595C31.7992 872.533 39.7792 871.867 43.8818 880.089C55.2431 902.782 55.6714 929.011 33.8055 947.684C25.7128 954.597 16.2902 956.825 6.1687 954.229C-0.346008 952.553 -2.55505 954.987 -4.65149 961.005C-7.62708 969.595 -11.4592 978.024 -16.0579 985.81C-22.6852 997.064 -31.2513 1000.3 -43.8524 997.202C-47.7972 996.237 -49.4202 997.547 -50.8855 1000.88C-53.0496 1005.82 -55.2361 1010.82 -58.0089 1015.42C-67.3188 1030.78 -79.6494 1035.65 -96.8039 1031.19C-97.7732 1030.92 -98.7426 1030.74 -100.794 1030.28Z" fill="#CCDBFD"/>
<path d="M1399.24 664.163C1396.9 671.099 1394.64 677.553 1392.5 684.03C1389.68 692.551 1385.2 699.809 1378.07 705.298C1366.92 713.911 1354.63 715.128 1342.07 709.869C1334.82 706.814 1329.7 708.537 1325.6 714.416C1320.86 721.169 1316.29 728.082 1312.36 735.34C1308.49 742.483 1304.7 745.561 1299.33 744.022C1293.79 742.437 1290.11 736.718 1291.81 729.437C1296.56 708.927 1307.63 693.033 1326.81 683.938C1333.94 680.562 1341.17 681.94 1348.32 684.627C1360.47 689.152 1362.59 687.934 1365.52 674.935C1367.93 664.186 1369.67 653.23 1372.71 642.665C1375.62 632.559 1382.38 625.577 1393.29 624.796C1397.46 624.497 1401.9 625.393 1405.91 626.702C1410.58 628.241 1412.72 626.84 1415.07 622.66C1418.7 616.183 1422.89 609.913 1427.51 604.125C1435.22 594.456 1445.23 590.712 1457.08 595.19C1462.49 597.235 1464.95 595.512 1466.55 590.39C1467.97 585.82 1469.71 581.341 1471.6 576.954C1478.18 561.749 1491.37 554.56 1507.42 557.294C1515.54 558.672 1517.54 557.5 1517.84 549.048C1518.26 536.669 1521.24 525.185 1527.28 514.482C1531.83 506.42 1539.81 505.754 1543.92 513.976C1555.28 536.669 1555.71 562.898 1533.84 581.571C1525.75 588.484 1516.33 590.712 1506.2 588.116C1499.69 586.44 1497.48 588.874 1495.38 594.892C1492.41 603.482 1488.58 611.911 1483.98 619.697C1477.35 630.951 1468.78 634.19 1456.18 631.089C1452.24 630.124 1450.61 631.434 1449.15 634.764C1446.99 639.702 1444.8 644.709 1442.03 649.303C1432.72 664.668 1420.39 669.537 1403.23 665.082C1402.26 664.806 1401.29 664.622 1399.24 664.163Z" fill="#CCDBFD"/>
<path d="M234.659 989.507C229.454 989.044 224.139 989.09 219.024 988.049C206.302 985.434 201.987 972.775 209.949 962.038C214.642 955.697 221.136 952.457 228.52 951.138C269.42 943.848 293.084 968.448 297.354 1007C300.535 1035.67 287.591 1058.68 262.704 1072.1C245.979 1081.12 228.698 1078.76 215.332 1064.93C201.409 1050.51 195.449 1032.53 195.604 1012.35C195.671 1003.76 200.52 997.305 207.481 995.107C214.353 992.932 221.915 995.523 226.407 1002.86C230.611 1009.73 233.769 1017.32 237.483 1024.54C243.955 1037.06 247.402 1037.64 255.498 1026.14C258.901 1021.3 261.703 1014.94 262.059 1009.11C262.837 996.38 254.252 988.419 241.931 988.581C239.507 988.604 237.083 988.835 234.659 988.974C234.681 989.113 234.681 989.298 234.659 989.507Z" fill="#CCDBFD"/>
<path d="M172.388 784.665C172.245 811.661 163.691 835.161 141.649 852.936C137.193 856.546 132.499 860.019 127.519 862.893C120.728 866.802 114.461 864.181 108.98 859.904C93.4677 847.832 84.8892 831.735 80.7668 813.225C77.8597 800.118 80.0283 787.493 85.1514 775.191C93.7059 754.749 108.003 738.331 124.469 723.637C135.668 713.658 152.348 718.348 157.4 732.191C158.472 735.135 159.807 738.009 161.308 740.768C169.791 756.29 172.579 767.212 172.388 784.665ZM130.569 754.036C110.934 778.709 107.145 802.9 120.847 820.652C137.122 800.646 141.387 772.455 130.569 754.036Z" fill="#CCDBFD"/>
<path d="M968.957 831.691C932.079 824.407 901.794 810.635 882.572 779.54C870.425 759.896 863.303 738.293 860.33 715.462C858.786 703.489 863.649 694.543 873.052 691.151C882.387 687.782 892.713 691.379 899.143 700.916C902.255 705.514 904.675 710.636 906.911 715.758C910.206 723.361 913.18 731.1 916.061 738.862C924.911 762.65 940.238 780.974 962.111 794.382C972.736 800.892 982.624 808.632 992.604 816.121C997.121 819.512 993.734 823.2 990.829 824.429C983.293 827.548 975.318 829.642 968.957 831.691Z" fill="#CCDBFD"/>
<path d="M1881.75 680.121C1878.57 703.92 1888.5 722.24 1906.87 736.288C1918.74 745.366 1931.43 753.423 1944.04 761.48C1947.9 763.942 1948.81 766.473 1944.93 768.237C1938.34 771.232 1931.22 774.715 1924.23 774.971C1889.51 776.225 1846.89 743.625 1838.59 710.282C1835.18 696.513 1834.46 682.466 1839.74 669.184C1842.33 662.637 1846.75 655.81 1852.24 651.561C1864.69 641.948 1880.68 650.005 1881.7 665.609C1882.03 670.415 1881.75 675.268 1881.75 680.121Z" fill="#CCDBFD"/>
<path d="M1162.09 948.528C1160.39 952.445 1159.48 957.05 1156.85 960.188C1130.48 991.569 1102.27 1020.94 1066.34 1041.53C1061.57 1044.28 1056.78 1045.81 1051.85 1042.4C1046.65 1038.8 1044.79 1033.17 1046.6 1027.53C1049.26 1019.33 1052.01 1010.72 1056.89 1003.85C1063.18 994.982 1071.16 987.148 1079.24 979.818C1094.89 965.639 1110.99 951.964 1127.23 938.496C1131.23 935.197 1136.29 932.357 1141.27 931.303C1151.87 929.058 1161.14 937.442 1162.09 948.528Z" fill="#CCDBFD"/>
<path d="M470.758 220.116C466.644 219.204 462.026 219.222 458.475 217.225C422.961 197.241 389.02 175.019 361.983 143.345C358.379 139.143 355.94 134.676 358.24 129.081C360.662 123.178 365.717 120.193 371.509 120.874C379.941 121.879 388.789 122.891 396.387 126.379C406.187 130.871 415.331 137.245 424.013 143.832C440.807 156.583 457.207 169.887 473.436 183.368C477.415 186.69 481.166 191.167 483.178 195.912C487.466 206.031 481.247 216.944 470.758 220.116Z" fill="#CCDBFD"/>
<path d="M860.048 937.734C860.711 931.242 860.825 924.634 862.174 918.305C864.301 908.16 872.188 902.063 881.218 902.622C890.02 903.157 897.039 909.788 897.976 920.073C899.645 938.339 900.628 956.697 901.84 975.01C901.954 976.662 901.703 978.383 901.429 980.035C899.782 989.855 893.404 996.37 884.831 997.044C875.914 997.743 867.798 992.298 865.764 982.362C863.386 970.844 862.449 959.001 861.008 947.297C860.62 944.156 860.688 940.968 860.551 937.804C860.368 937.78 860.208 937.757 860.048 937.734Z" fill="#CCDBFD"/>
<path d="M296.137 803.37C294.237 802.649 290.528 801.747 287.329 799.99C260.465 785.16 239.696 763.998 222.034 739.726C217.12 732.965 218.093 725.326 223.749 720.976C229.405 716.626 237.17 717.55 242.756 724.018C260.581 744.662 281.117 762.308 303.926 777.543C310.879 782.185 313.22 788.293 310.972 794.355C308.84 800.237 304.296 803.009 296.137 803.37Z" fill="#CCDBFD"/>
<path d="M-250.435 1099.3C-250.694 1113.07 -253.046 1126.35 -258.333 1139.02C-260.319 1143.79 -262.757 1147.94 -268.238 1148.33C-274 1148.73 -277.906 1145.31 -280.647 1140.45C-285.977 1130.94 -288.221 1120.41 -287.466 1109.56C-286.797 1100.16 -285.394 1090.72 -283.128 1081.61C-280.733 1072.06 -273.59 1067.2 -265.843 1068.13C-258.074 1069.06 -252.463 1075.46 -251.32 1085.11C-250.759 1089.81 -250.715 1094.55 -250.435 1099.3Z" fill="#CCDBFD"/>
<path d="M423.318 1004.9C423.991 1001.25 424.285 998.016 425.21 995.014C429.184 982.013 440.874 978.963 449.726 988.514C450.42 989.246 451.156 989.979 451.639 990.901C460.092 1007.12 464.129 1024.87 465.117 1043.43C465.453 1049.83 461.753 1054.7 456.349 1057.23C450.903 1059.79 445.899 1058.48 441.358 1054.47C440.622 1053.8 439.844 1053.1 439.318 1052.22C430.656 1037.73 426.03 1021.56 423.318 1004.9Z" fill="#CCDBFD"/>
<path d="M665.662 103.95C669.964 100.243 673.163 97.0859 676.744 94.4775C683.682 89.375 690.484 83.9064 698.007 79.8336C709.563 73.5642 721.366 76.1268 729.159 86.8123C733.822 93.2189 737.448 100.678 740.286 108.16C746.391 124.246 751.504 140.697 757.383 156.874C768.915 188.656 784.931 218.012 804.347 245.515C807.41 249.862 810.271 254.553 812.231 259.495C815.339 267.275 811.667 272.972 803.423 274.231C796.238 275.329 789.729 272.903 784.66 268.236C776.078 260.296 767.429 252.196 760.131 243.044C733.394 209.569 716.478 171.06 705.621 129.623C704.63 125.824 703.436 122.049 702.31 118.297C702.219 117.976 701.769 117.77 700.733 116.832C695.823 122.301 690.822 127.701 686.002 133.261C682.353 137.471 679.177 142.116 675.348 146.143C663.477 158.544 646.696 159.276 635.186 146.532C628.721 139.37 623.676 130.332 619.959 121.294C609.643 96.1935 605.048 69.5372 601.354 42.7207C600.588 37.1606 599.777 31.5775 599.597 25.9946C599.236 15.0117 604.575 6.24827 613.472 2.40426C622.797 -1.62279 634.172 0.299222 640.772 8.994C645.637 15.4007 649.759 23.1345 651.651 30.914C655.841 48.2349 658.386 65.9448 661.675 83.4945C662.824 89.9698 664.153 96.3765 665.662 103.95Z" fill="#CCDBFD"/>
</g>
</svg>
