<?xml version="1.0" encoding="UTF-8"?>
<!DOCTYPE svg PUBLIC "-//W3C//DTD SVG 1.1//EN" "http://www.w3.org/Graphics/SVG/1.1/DTD/svg11.dtd">
<!-- Creator: CorelDRAW 2021 (64-Bit) -->
<svg xmlns="http://www.w3.org/2000/svg" xml:space="preserve" width="163.814in" height="51.8559in" version="1.1" style="shape-rendering:geometricPrecision; text-rendering:geometricPrecision; image-rendering:optimizeQuality; fill-rule:evenodd; clip-rule:evenodd"
viewBox="0 0 339208.41 107377.45"
 xmlns:xlink="http://www.w3.org/1999/xlink"
 xmlns:xodm="http://www.corel.com/coreldraw/odm/2003">
 <defs>
  <style type="text/css">
   <![CDATA[
    .fil1 {fill:#4383F6;fill-rule:nonzero}
    .fil0 {fill:#E6E6E6;fill-rule:nonzero}
   ]]>
  </style>
 </defs>
 <g id="Layer_x0020_1">
  <metadata id="CorelCorpID_0Corel-Layer"/>
  <g id="_1817686853168">
   <path class="fil0" d="M7433.07 104768.27c-575.73,1932.26 -2608.87,3031.95 -4541.14,2456.21 -1932.26,-575.73 -3031.95,-2608.88 -2456.22,-4541.14 36.37,-121.73 8542.17,-29454.39 31506.28,-49626.45 1764.73,-4575.43 4215.74,-9215.43 7084.79,-13733.78 12788.59,-20140.13 34934.84,-38204.46 41329.76,-37312.14 1995.35,276.03 3389.15,2117.37 3113.11,4112.72 -276.03,1995.35 -2117.37,3389.14 -4112.72,3113.11 -4558.45,-636.06 -22652.95,15875.51 -34161.07,33999.1 -121.2,190.87 -241.52,381.89 -361,573.02 7670.49,-4377.87 16501.4,-7583.95 26617.31,-8827.24 28138.91,-3458.42 40002.19,12546.16 52461,29354.19 1104.02,1489.42 2213.4,2985.75 3340.98,4473.21 6001.14,-6048.61 9908.94,-12932.61 13601.72,-19440.79 10748.5,-18943.27 19890.41,-35055.02 63522.83,-24836.28 9537.31,2233.64 18235.41,5091.3 26202.65,8372.17 7487.26,-8554.53 17174.65,-14970.06 31401.85,-16689.83 19568.86,-2365.45 37215.71,4830.89 50678.58,15910.67 8679.48,7143.1 15624.52,15914.96 20215.21,24772.04 4690.98,9050.53 6961.7,18287.18 6179.88,26125.27 -652.67,6543.32 -3371.29,12129.46 -8490.41,15953.38 -13150.44,9823.23 -23854.4,-277.92 -40377.08,-15870.11 -13420.03,-12664.27 -31091.85,-29337.77 -57358.72,-41257.18 -4772.55,6372.46 -8626.29,13723.94 -12431.64,20984.87 -10964.51,20921.2 -21569.13,41155.72 -50857.98,39699.96 -21133.21,-1050.39 -33289.89,-11174.32 -43148.53,-23039.26 -10420.71,7926.47 -25701.62,13664.38 -50445.32,14224.3 -24392.39,551.98 -37566.13,-5032.52 -43365.83,-13744.92 -2712.94,-4075.43 -3788.2,-8718.16 -3610.64,-13672.73 -15498.82,17654.82 -21508.28,38369.25 -21537.66,38467.61zm64904.46 -62532.19c-13915.17,1710.24 -25180.72,7575.43 -34176.44,15071.29 -511.83,1484.71 -931.18,2949.44 -1244.89,4384.73 -1181.3,5404.57 -848.16,10353.38 1748.56,14254.24 4461.92,6702.78 15640.75,10975.52 37139.64,10489.03 22506.54,-509.3 36437.98,-5674.01 45942.99,-12821.38 -1246.25,-1641.54 -2470.68,-3293.08 -3689.15,-4936.91 -11156.76,-15051.44 -21780.22,-29383.4 -45720.71,-26441zm59569.93 32455.84c8901.18,10650.85 19773.89,19653.67 37976.3,20558.39 24662.57,1225.82 34199.74,-16971.89 44060.56,-35787.16 3693.4,-7047.33 7428.3,-14172.87 11944.72,-20567.75 -7110.62,-2826.86 -14807.26,-5293.98 -23166.85,-7251.79 -38332.95,-8977.6 -46235.05,4949.1 -55525.86,21323.32 -4131.69,7281.73 -8508.72,14991.08 -15288.86,21724.99zm130932.54 -51223.17c-10874.63,1314.52 -18791.2,6062.34 -25101.67,12582.55 26226.05,12280.98 43927.5,28981.85 57449.16,41742.05 13816.11,13038.06 22766.67,21484.54 31009.21,15327.46 3359.21,-2509.29 5155.9,-6302.11 5605.78,-10812.46 640.45,-6420.92 -1345.49,-14230.24 -5408.75,-22069.66 -4163.51,-8032.88 -10470.31,-15995.1 -18358.77,-22487.19 -12063.36,-9927.99 -27814.56,-16383.66 -45194.95,-14282.73z"/>
   <path class="fil1" d="M7150.32 102789.03c-575.73,1932.26 -2608.88,3031.95 -4541.14,2456.21 -1932.26,-575.73 -3031.95,-2608.88 -2456.22,-4541.14 36.37,-121.73 8542.17,-29454.39 31506.28,-49626.45 1764.72,-4575.43 4215.74,-9215.43 7084.78,-13733.78 12788.6,-20140.14 34934.85,-38204.46 41329.77,-37312.14 1995.35,276.03 3389.14,2117.37 3113.11,4112.72 -276.03,1995.35 -2117.37,3389.14 -4112.72,3113.1 -4558.46,-636.05 -22652.95,15875.51 -34161.07,33999.1 -121.2,190.88 -241.52,381.9 -361.01,573.02 7670.5,-4377.86 16501.41,-7583.95 26617.31,-8827.24 28138.91,-3458.42 40002.19,12546.15 52461,29354.19 1104.01,1489.41 2213.39,2985.75 3340.98,4473.21 6001.14,-6048.61 9908.94,-12932.61 13601.72,-19440.79 10748.5,-18943.27 19890.41,-35055.02 63522.83,-24836.28 9537.31,2233.64 18235.41,5091.3 26202.65,8372.17 7487.26,-8554.53 17174.64,-14970.06 31401.85,-16689.83 19568.86,-2365.45 37215.71,4830.89 50678.57,15910.67 8679.48,7143.1 15624.53,15914.96 20215.22,24772.04 4690.98,9050.54 6961.7,18287.19 6179.88,26125.28 -652.67,6543.31 -3371.29,12129.46 -8490.41,15953.38 -13150.44,9823.23 -23854.4,-277.92 -40377.08,-15870.12 -13420.03,-12664.26 -31091.85,-29337.76 -57358.72,-41257.17 -4772.55,6372.46 -8626.29,13723.94 -12431.64,20984.87 -10964.51,20921.2 -21569.13,41155.71 -50857.98,39699.96 -21133.21,-1050.39 -33289.89,-11174.32 -43148.53,-23039.27 -10420.71,7926.47 -25701.62,13664.39 -50445.32,14224.31 -24392.39,551.98 -37566.13,-5032.52 -43365.83,-13744.93 -2712.93,-4075.43 -3788.2,-8718.15 -3610.63,-13672.72 -15498.82,17654.81 -21508.28,38369.25 -21537.66,38467.61zm64904.46 -62532.19c-13915.17,1710.23 -25180.72,7575.43 -34176.44,15071.29 -511.83,1484.7 -931.18,2949.44 -1244.89,4384.73 -1181.3,5404.57 -848.16,10353.38 1748.56,14254.24 4461.92,6702.78 15640.74,10975.52 37139.64,10489.03 22506.54,-509.3 36437.98,-5674.01 45942.99,-12821.38 -1246.25,-1641.54 -2470.68,-3293.08 -3689.15,-4936.91 -11156.76,-15051.44 -21780.23,-29383.41 -45720.71,-26441zm59569.93 32455.84c8901.18,10650.85 19773.89,19653.67 37976.29,20558.39 24662.58,1225.82 34199.75,-16971.89 44060.57,-35787.17 3693.4,-7047.32 7428.3,-14172.87 11944.72,-20567.75 -7110.62,-2826.86 -14807.26,-5293.97 -23166.85,-7251.79 -38332.95,-8977.6 -46235.05,4949.1 -55525.86,21323.33 -4131.7,7281.73 -8508.72,14991.08 -15288.86,21724.99zm130932.54 -51223.17c-10874.64,1314.52 -18791.21,6062.34 -25101.67,12582.55 26226.05,12280.98 43927.5,28981.85 57449.16,41742.05 13816.11,13038.05 22766.67,21484.54 31009.21,15327.46 3359.21,-2509.29 5155.89,-6302.12 5605.78,-10812.47 640.45,-6420.92 -1345.49,-14230.24 -5408.75,-22069.66 -4163.51,-8032.89 -10470.31,-15995.1 -18358.78,-22487.2 -12063.35,-9927.99 -27814.56,-16383.65 -45194.95,-14282.72z"/>
  </g>
 </g>
</svg>
