<svg width="21" height="21" viewBox="0 0 21 21" fill="none" xmlns="http://www.w3.org/2000/svg">
<path d="M10.709 20.9102C9.34831 20.9102 8.06576 20.6497 6.86133 20.1289C5.66341 19.6081 4.60547 18.8887 3.6875 17.9707C2.76953 17.0527 2.05013 15.9948 1.5293 14.7969C1.00846 13.5924 0.748047 12.3099 0.748047 10.9492C0.748047 9.58854 1.00846 8.30924 1.5293 7.11133C2.05013 5.9069 2.76628 4.8457 3.67773 3.92773C4.5957 3.00977 5.65365 2.29036 6.85156 1.76953C8.05599 1.2487 9.33854 0.988281 10.6992 0.988281C12.0599 0.988281 13.3424 1.2487 14.5469 1.76953C15.7513 2.29036 16.8125 3.00977 17.7305 3.92773C18.6484 4.8457 19.3678 5.9069 19.8887 7.11133C20.4095 8.30924 20.6699 9.58854 20.6699 10.9492C20.6699 12.3099 20.4095 13.5924 19.8887 14.7969C19.3678 15.9948 18.6484 17.0527 17.7305 17.9707C16.8125 18.8887 15.7513 19.6081 14.5469 20.1289C13.349 20.6497 12.0697 20.9102 10.709 20.9102ZM10.709 19.25C11.8613 19.25 12.9388 19.0352 13.9414 18.6055C14.944 18.1758 15.8262 17.5833 16.5879 16.8281C17.3496 16.0664 17.9421 15.1842 18.3652 14.1816C18.7949 13.179 19.0098 12.1016 19.0098 10.9492C19.0098 9.79688 18.7949 8.7194 18.3652 7.7168C17.9355 6.71419 17.3398 5.83203 16.5781 5.07031C15.8229 4.30859 14.9408 3.71615 13.9316 3.29297C12.929 2.86328 11.8516 2.64844 10.6992 2.64844C9.54688 2.64844 8.4694 2.86328 7.4668 3.29297C6.46419 3.71615 5.58529 4.30859 4.83008 5.07031C4.07487 5.83203 3.48242 6.71419 3.05273 7.7168C2.62956 8.7194 2.41797 9.79688 2.41797 10.9492C2.41797 12.1016 2.62956 13.179 3.05273 14.1816C3.48242 15.1842 4.07487 16.0664 4.83008 16.8281C5.5918 17.5833 6.47396 18.1758 7.47656 18.6055C8.47917 19.0352 9.55664 19.25 10.709 19.25ZM11.6758 14.0938C11.474 14.3086 11.2624 14.4518 11.041 14.5234C10.8197 14.5951 10.5983 14.5951 10.377 14.5234C10.1621 14.4518 9.95052 14.3086 9.74219 14.0938L5.91406 10.0215C5.76432 9.87174 5.68945 9.69922 5.68945 9.50391C5.68945 9.30208 5.75456 9.13281 5.88477 8.99609C6.02799 8.83984 6.20378 8.76172 6.41211 8.76172C6.62044 8.75521 6.79297 8.82682 6.92969 8.97656L10.709 12.9805L14.4883 8.97656C14.6315 8.82682 14.804 8.75521 15.0059 8.76172C15.2142 8.76172 15.3932 8.83984 15.543 8.99609C15.6797 9.1263 15.7448 9.29232 15.7383 9.49414C15.7318 9.69596 15.6569 9.87174 15.5137 10.0215L11.6758 14.0938Z" fill="#71748C"/>
</svg>
